%TF.GenerationSoftware,KiCad,Pcbnew,8.0.8*%
%TF.CreationDate,2025-06-11T01:55:21+01:00*%
%TF.ProjectId,Watch,57617463-682e-46b6-9963-61645f706362,rev?*%
%TF.SameCoordinates,Original*%
%TF.FileFunction,Copper,L2,Bot*%
%TF.FilePolarity,Positive*%
%FSLAX46Y46*%
G04 Gerber Fmt 4.6, Leading zero omitted, Abs format (unit mm)*
G04 Created by KiCad (PCBNEW 8.0.8) date 2025-06-11 01:55:21*
%MOMM*%
%LPD*%
G01*
G04 APERTURE LIST*
%TA.AperFunction,HeatsinkPad*%
%ADD10O,1.000000X1.600000*%
%TD*%
%TA.AperFunction,HeatsinkPad*%
%ADD11O,1.000000X2.100000*%
%TD*%
%TA.AperFunction,HeatsinkPad*%
%ADD12C,0.500000*%
%TD*%
%TA.AperFunction,HeatsinkPad*%
%ADD13R,2.000000X1.200000*%
%TD*%
%TA.AperFunction,SMDPad,CuDef*%
%ADD14C,1.000000*%
%TD*%
%TA.AperFunction,SMDPad,CuDef*%
%ADD15R,2.600000X3.600000*%
%TD*%
%TA.AperFunction,ViaPad*%
%ADD16C,0.300000*%
%TD*%
%TA.AperFunction,ViaPad*%
%ADD17C,0.600000*%
%TD*%
%TA.AperFunction,Conductor*%
%ADD18C,0.200000*%
%TD*%
%TA.AperFunction,Conductor*%
%ADD19C,0.150000*%
%TD*%
G04 APERTURE END LIST*
D10*
%TO.P,J1,S1,SHIELD*%
%TO.N,GND*%
X173180000Y-81925000D03*
D11*
X173180000Y-86105000D03*
D10*
X181820000Y-81925000D03*
D11*
X181820000Y-86105000D03*
%TD*%
D12*
%TO.P,U2,11,GND*%
%TO.N,GND*%
X187250000Y-85437500D03*
X186500000Y-85437500D03*
X185750000Y-85437500D03*
D13*
X186500000Y-85787500D03*
D12*
X187250000Y-86137500D03*
X186500000Y-86137500D03*
X185750000Y-86137500D03*
%TD*%
D14*
%TO.P,TP5,1,1*%
%TO.N,TP_RST*%
X163500000Y-112250000D03*
%TD*%
%TO.P,TP1,1,1*%
%TO.N,TP_3.3V*%
X187000000Y-82000000D03*
%TD*%
D15*
%TO.P,BT1,1,+*%
%TO.N,VBAT*%
X192050000Y-97500000D03*
%TO.P,BT1,2,-*%
%TO.N,GND*%
X162750000Y-97500000D03*
%TD*%
D14*
%TO.P,TP4,1,1*%
%TO.N,TP_SWDCLK*%
X167000000Y-116500000D03*
%TD*%
%TO.P,TP2,1,1*%
%TO.N,GND*%
X179500000Y-82000000D03*
%TD*%
%TO.P,TP3,1,1*%
%TO.N,TP_SWDIO*%
X167000000Y-114250000D03*
%TD*%
D16*
%TO.N,VBAT*%
X177750000Y-83000000D03*
X182750000Y-83750000D03*
X191275000Y-85500000D03*
%TO.N,TP_3.3V*%
X170562500Y-105050000D03*
X186750000Y-105000000D03*
X187000000Y-82000000D03*
X192500000Y-106000000D03*
X184125000Y-106950000D03*
%TO.N,Net-(U7-VDDANA)*%
X183270000Y-108250000D03*
X178525305Y-116485103D03*
%TO.N,D+*%
X177750000Y-86745000D03*
X177675000Y-97750000D03*
%TO.N,D-*%
X177250000Y-85250000D03*
X177250000Y-86745000D03*
X180750000Y-104500000D03*
X177225000Y-102000000D03*
%TO.N,Net-(J1-CC2)*%
X175750000Y-86745000D03*
X172500000Y-84500000D03*
%TO.N,Net-(U1-PROG)*%
X163000000Y-88000000D03*
X170637500Y-82050000D03*
%TO.N,A*%
X173750000Y-93500000D03*
X171500000Y-93500000D03*
X183000000Y-93500000D03*
X191500000Y-93500000D03*
X180500000Y-93500000D03*
X188000000Y-93500000D03*
%TO.N,SEL-D2*%
X168750000Y-108000000D03*
X178000000Y-112000000D03*
%TO.N,SEL-D1*%
X183250000Y-113500000D03*
X173250000Y-118750000D03*
%TO.N,SEL-D4*%
X181919417Y-109909010D03*
X190750000Y-103750000D03*
%TO.N,B*%
X180000000Y-93000000D03*
X171000000Y-93000000D03*
X187500000Y-93000000D03*
X174250000Y-93000000D03*
X192000000Y-93000000D03*
X184250000Y-93000000D03*
%TO.N,C*%
X194550000Y-109500000D03*
X181500000Y-96500000D03*
X172500000Y-96500000D03*
X190250000Y-98250000D03*
X188500000Y-96500000D03*
X190940000Y-100500000D03*
X183750000Y-96500000D03*
X174750000Y-96500000D03*
%TO.N,D*%
X182000000Y-96000000D03*
X189000000Y-96000000D03*
X190250000Y-96250000D03*
X188060000Y-100500000D03*
X174500000Y-96000000D03*
X172500000Y-96000000D03*
X183500000Y-96000000D03*
X194000000Y-110000000D03*
%TO.N,E*%
X189000000Y-107000000D03*
X193500000Y-110500000D03*
D17*
%TO.N,F*%
X181000000Y-94400000D03*
X188721473Y-94400000D03*
X190509135Y-94490605D03*
X172000000Y-94400000D03*
X183000000Y-94400000D03*
X174000000Y-94400000D03*
D16*
%TO.N,DP*%
X171500000Y-97000000D03*
X188000000Y-97000000D03*
X175000000Y-97000000D03*
X184500000Y-97000000D03*
X180750000Y-97000000D03*
X189568199Y-97568199D03*
%TO.N,Btn2*%
X177125000Y-110250000D03*
X162800000Y-83000000D03*
%TO.N,Btn1*%
X195250000Y-88750000D03*
X192500000Y-110750000D03*
X194250000Y-106750000D03*
X181353732Y-109343324D03*
%TO.N,TP_SWDIO*%
X172514897Y-110474695D03*
%TO.N,TP_SWDCLK*%
X173080583Y-109909010D03*
%TO.N,Net-(Dig1-CA-Pad3)*%
X165500000Y-90500000D03*
X167000000Y-97750000D03*
%TO.N,Net-(Dig2-CA-Pad3)*%
X173000000Y-100500000D03*
X173000000Y-90500000D03*
%TO.N,Net-(Dig3-CA-Pad3)*%
X182000000Y-100500000D03*
X182000000Y-90500000D03*
%TO.N,Net-(Dig4-CA-Pad3)*%
X189500000Y-90500000D03*
X189500000Y-100500000D03*
%TO.N,GND*%
X167500000Y-107250000D03*
X161000000Y-89750000D03*
X164750000Y-105000000D03*
X184000000Y-116750000D03*
X187500000Y-110250000D03*
X184250000Y-113500000D03*
X166750000Y-105000000D03*
X164500000Y-108250000D03*
X190000000Y-108500000D03*
%TO.N,TP_RST*%
X164000000Y-114250000D03*
X175909010Y-107080583D03*
%TD*%
D18*
%TO.N,TP_RST*%
X163500000Y-112250000D02*
X164500000Y-112250000D01*
X164500000Y-112250000D02*
X165250000Y-113000000D01*
%TO.N,VBAT*%
X192450000Y-86675000D02*
X192450000Y-97100000D01*
X191275000Y-85500000D02*
X192450000Y-86675000D01*
X192450000Y-97100000D02*
X192050000Y-97500000D01*
%TO.N,TP_3.3V*%
X182225000Y-105050000D02*
X184125000Y-106950000D01*
X184800000Y-106950000D02*
X184125000Y-106950000D01*
X193500000Y-105000000D02*
X193650000Y-105000000D01*
X187000000Y-82000000D02*
X188411397Y-82000000D01*
X186750000Y-105000000D02*
X184800000Y-106950000D01*
X192500000Y-106000000D02*
X193500000Y-105000000D01*
X193650000Y-87238603D02*
X193650000Y-105000000D01*
X170562500Y-105050000D02*
X182225000Y-105050000D01*
X188411397Y-82000000D02*
X193650000Y-87238603D01*
%TO.N,Net-(U7-VDDANA)*%
X178525305Y-109111092D02*
X178525305Y-116485103D01*
X183270000Y-108250000D02*
X183020000Y-108500000D01*
X183020000Y-108500000D02*
X179136397Y-108500000D01*
X179136397Y-108500000D02*
X178525305Y-109111092D01*
%TO.N,D+*%
X177675000Y-97750000D02*
X177675000Y-97425000D01*
X177750000Y-97350000D02*
X177750000Y-86745000D01*
X177675000Y-97425000D02*
X177750000Y-97350000D01*
D19*
%TO.N,D-*%
X177250000Y-85250000D02*
X177250000Y-86745000D01*
X177250000Y-102100000D02*
X179150000Y-104000000D01*
D18*
X179650000Y-104500000D02*
X180750000Y-104500000D01*
X179150000Y-104000000D02*
X179650000Y-104500000D01*
D19*
X177250000Y-86745000D02*
X177250000Y-102100000D01*
D18*
%TO.N,Net-(J1-CC2)*%
X174459594Y-84500000D02*
X175750000Y-85790406D01*
X175750000Y-85790406D02*
X175750000Y-86745000D01*
X172500000Y-84500000D02*
X174459594Y-84500000D01*
%TO.N,Net-(U1-PROG)*%
X163000000Y-88000000D02*
X164687500Y-88000000D01*
X164687500Y-88000000D02*
X170637500Y-82050000D01*
%TO.N,A*%
X188000000Y-93500000D02*
X191500000Y-93500000D01*
X171500000Y-93500000D02*
X173750000Y-93500000D01*
X180500000Y-93500000D02*
X183000000Y-93500000D01*
%TO.N,SEL-D2*%
X178000000Y-108500000D02*
X175500000Y-106000000D01*
X178000000Y-112000000D02*
X178000000Y-108500000D01*
X174750000Y-106000000D02*
X172750000Y-108000000D01*
X172750000Y-108000000D02*
X168750000Y-108000000D01*
X175500000Y-106000000D02*
X174750000Y-106000000D01*
%TO.N,SEL-D1*%
X180500000Y-118750000D02*
X183250000Y-116000000D01*
X173250000Y-118750000D02*
X180500000Y-118750000D01*
X183250000Y-116000000D02*
X183250000Y-113500000D01*
%TO.N,SEL-D4*%
X190750000Y-103750000D02*
X184590990Y-109909010D01*
X184590990Y-109909010D02*
X181919417Y-109909010D01*
%TO.N,B*%
X171000000Y-93000000D02*
X174250000Y-93000000D01*
X180000000Y-93000000D02*
X184250000Y-93000000D01*
X187500000Y-93000000D02*
X192000000Y-93000000D01*
%TO.N,C*%
X190068199Y-97068199D02*
X190250000Y-97250000D01*
X172500000Y-96500000D02*
X174750000Y-96500000D01*
X194550000Y-109500000D02*
X192050000Y-107000000D01*
X190250000Y-97250000D02*
X190250000Y-98250000D01*
X181500000Y-96500000D02*
X183750000Y-96500000D01*
X189500000Y-96500000D02*
X190068199Y-97068199D01*
X192050000Y-101610000D02*
X190940000Y-100500000D01*
X192050000Y-107000000D02*
X192050000Y-101610000D01*
X188500000Y-96500000D02*
X189500000Y-96500000D01*
%TO.N,D*%
X191500000Y-102250000D02*
X189810000Y-102250000D01*
X182000000Y-96000000D02*
X183500000Y-96000000D01*
X191500000Y-107500000D02*
X191500000Y-102250000D01*
X194000000Y-110000000D02*
X191500000Y-107500000D01*
X190000000Y-96000000D02*
X190250000Y-96250000D01*
X172500000Y-96000000D02*
X174500000Y-96000000D01*
X189810000Y-102250000D02*
X188060000Y-100500000D01*
X189000000Y-96000000D02*
X190000000Y-96000000D01*
%TO.N,E*%
X189000000Y-107000000D02*
X190000000Y-107000000D01*
X190000000Y-107000000D02*
X193500000Y-110500000D01*
%TO.N,F*%
X181000000Y-94400000D02*
X183000000Y-94400000D01*
X190418530Y-94400000D02*
X190509135Y-94490605D01*
X172000000Y-94400000D02*
X174000000Y-94400000D01*
X188721473Y-94400000D02*
X190418530Y-94400000D01*
%TO.N,DP*%
X171500000Y-97000000D02*
X175000000Y-97000000D01*
X180750000Y-97000000D02*
X184500000Y-97000000D01*
X188000000Y-97000000D02*
X189000000Y-97000000D01*
X189000000Y-97000000D02*
X189568199Y-97568199D01*
%TO.N,Btn2*%
X161750000Y-119000000D02*
X168375000Y-119000000D01*
X168375000Y-119000000D02*
X177125000Y-110250000D01*
X159750000Y-86050000D02*
X159750000Y-117000000D01*
X159750000Y-117000000D02*
X161750000Y-119000000D01*
X162800000Y-83000000D02*
X159750000Y-86050000D01*
%TO.N,Btn1*%
X182124010Y-110750000D02*
X192250000Y-110750000D01*
X194250000Y-89750000D02*
X195250000Y-88750000D01*
X194250000Y-106750000D02*
X194250000Y-89750000D01*
X181353732Y-109979722D02*
X182124010Y-110750000D01*
X181353732Y-109343324D02*
X181353732Y-109979722D01*
X192250000Y-110750000D02*
X192500000Y-110750000D01*
%TO.N,TP_SWDIO*%
X167000000Y-114250000D02*
X168739592Y-114250000D01*
X168739592Y-114250000D02*
X172514897Y-110474695D01*
%TO.N,TP_SWDCLK*%
X167000000Y-116500000D02*
X167707106Y-116500000D01*
X167707106Y-116500000D02*
X173080583Y-111126523D01*
X173080583Y-111126523D02*
X173080583Y-109909010D01*
%TO.N,Net-(Dig1-CA-Pad3)*%
X165500000Y-96250000D02*
X165500000Y-90500000D01*
X167000000Y-97750000D02*
X165500000Y-96250000D01*
%TO.N,Net-(Dig2-CA-Pad3)*%
X170550000Y-92300000D02*
X170550000Y-98050000D01*
X170550000Y-98050000D02*
X173000000Y-100500000D01*
X173000000Y-90500000D02*
X172350000Y-90500000D01*
X172350000Y-90500000D02*
X170550000Y-92300000D01*
%TO.N,Net-(Dig3-CA-Pad3)*%
X181863603Y-90500000D02*
X182000000Y-90500000D01*
X182000000Y-100500000D02*
X179550000Y-98050000D01*
X179550000Y-92813603D02*
X181863603Y-90500000D01*
X179550000Y-98050000D02*
X179550000Y-92813603D01*
%TO.N,Net-(Dig4-CA-Pad3)*%
X187050000Y-92700000D02*
X189250000Y-90500000D01*
X189500000Y-100500000D02*
X187050000Y-98050000D01*
X189250000Y-90500000D02*
X189500000Y-90500000D01*
X187050000Y-98050000D02*
X187050000Y-92700000D01*
%TO.N,GND*%
X184250000Y-113500000D02*
X184000000Y-113750000D01*
X184000000Y-113750000D02*
X184000000Y-116750000D01*
X167500000Y-107250000D02*
X165500000Y-107250000D01*
X189250000Y-108500000D02*
X187500000Y-110250000D01*
X166750000Y-106500000D02*
X166750000Y-105000000D01*
X165500000Y-107250000D02*
X164500000Y-108250000D01*
X190000000Y-108500000D02*
X189250000Y-108500000D01*
X167500000Y-107250000D02*
X166750000Y-106500000D01*
X164750000Y-105000000D02*
X166750000Y-105000000D01*
%TO.N,TP_RST*%
X174919417Y-107080583D02*
X175909010Y-107080583D01*
X169000000Y-113000000D02*
X174919417Y-107080583D01*
X164000000Y-114250000D02*
X165250000Y-113000000D01*
X165250000Y-113000000D02*
X169000000Y-113000000D01*
%TO.N,VBAT*%
X177750000Y-83000000D02*
X180396371Y-83000000D01*
X189525000Y-83750000D02*
X191275000Y-85500000D01*
X180396371Y-83000000D02*
X181146371Y-83750000D01*
X181146371Y-83750000D02*
X189525000Y-83750000D01*
%TD*%
%TA.AperFunction,Conductor*%
%TO.N,GND*%
G36*
X195418834Y-89108650D02*
G01*
X195474767Y-89150522D01*
X195499184Y-89215986D01*
X195499500Y-89224832D01*
X195499500Y-116746249D01*
X195499274Y-116753736D01*
X195481728Y-117043794D01*
X195479923Y-117058659D01*
X195428219Y-117340798D01*
X195424635Y-117355336D01*
X195339306Y-117629167D01*
X195333997Y-117643168D01*
X195216275Y-117904736D01*
X195209316Y-117917995D01*
X195060928Y-118163459D01*
X195052422Y-118175782D01*
X194875526Y-118401573D01*
X194865596Y-118412781D01*
X194662781Y-118615596D01*
X194651573Y-118625526D01*
X194425782Y-118802422D01*
X194413459Y-118810928D01*
X194167995Y-118959316D01*
X194154736Y-118966275D01*
X193893168Y-119083997D01*
X193879167Y-119089306D01*
X193605336Y-119174635D01*
X193590798Y-119178219D01*
X193308659Y-119229923D01*
X193293794Y-119231728D01*
X193003736Y-119249274D01*
X192996249Y-119249500D01*
X180698615Y-119249500D01*
X180631576Y-119229815D01*
X180585821Y-119177011D01*
X180575877Y-119107853D01*
X180604902Y-119044297D01*
X180636615Y-119018113D01*
X180662630Y-119003092D01*
X180684511Y-118990460D01*
X180740460Y-118934511D01*
X183490460Y-116184511D01*
X183497643Y-116172070D01*
X183530021Y-116115989D01*
X183550500Y-116039562D01*
X183550500Y-113712047D01*
X183564015Y-113655753D01*
X183587500Y-113609661D01*
X183587500Y-113609659D01*
X183587501Y-113609658D01*
X183604869Y-113500002D01*
X183604869Y-113499997D01*
X183587501Y-113390341D01*
X183541725Y-113300500D01*
X183537095Y-113291413D01*
X183537092Y-113291410D01*
X183537090Y-113291407D01*
X183458592Y-113212909D01*
X183458588Y-113212906D01*
X183458587Y-113212905D01*
X183454743Y-113210946D01*
X183359658Y-113162498D01*
X183250002Y-113145131D01*
X183249998Y-113145131D01*
X183140341Y-113162498D01*
X183041414Y-113212904D01*
X183041407Y-113212909D01*
X182962909Y-113291407D01*
X182962904Y-113291414D01*
X182912498Y-113390341D01*
X182895131Y-113499997D01*
X182895131Y-113500002D01*
X182912498Y-113609658D01*
X182935985Y-113655753D01*
X182949500Y-113712047D01*
X182949500Y-115824167D01*
X182929815Y-115891206D01*
X182913181Y-115911848D01*
X180411848Y-118413181D01*
X180350525Y-118446666D01*
X180324167Y-118449500D01*
X173462048Y-118449500D01*
X173405755Y-118435986D01*
X173360997Y-118413181D01*
X173359661Y-118412500D01*
X173359660Y-118412499D01*
X173359657Y-118412498D01*
X173250002Y-118395131D01*
X173249998Y-118395131D01*
X173140341Y-118412498D01*
X173041414Y-118462904D01*
X173041407Y-118462909D01*
X172962909Y-118541407D01*
X172962904Y-118541414D01*
X172912498Y-118640341D01*
X172895131Y-118749997D01*
X172895131Y-118750002D01*
X172912498Y-118859658D01*
X172962904Y-118958585D01*
X172962909Y-118958592D01*
X173042136Y-119037819D01*
X173075621Y-119099142D01*
X173070637Y-119168834D01*
X173028765Y-119224767D01*
X172963301Y-119249184D01*
X172954455Y-119249500D01*
X168849833Y-119249500D01*
X168782794Y-119229815D01*
X168737039Y-119177011D01*
X168727095Y-119107853D01*
X168756120Y-119044297D01*
X168762152Y-119037819D01*
X170832044Y-116967927D01*
X177180740Y-110619229D01*
X177230103Y-110588980D01*
X177234648Y-110587501D01*
X177234661Y-110587500D01*
X177333587Y-110537095D01*
X177412095Y-110458587D01*
X177462500Y-110359661D01*
X177462500Y-110359659D01*
X177465015Y-110354724D01*
X177512989Y-110303927D01*
X177580810Y-110287132D01*
X177646945Y-110309669D01*
X177690397Y-110364384D01*
X177699500Y-110411018D01*
X177699500Y-111787951D01*
X177685985Y-111844245D01*
X177662499Y-111890338D01*
X177645131Y-111999997D01*
X177645131Y-111999999D01*
X177662498Y-112109658D01*
X177712904Y-112208585D01*
X177712909Y-112208592D01*
X177791407Y-112287090D01*
X177791410Y-112287092D01*
X177791413Y-112287095D01*
X177890339Y-112337500D01*
X177890341Y-112337501D01*
X177999998Y-112354869D01*
X178000000Y-112354869D01*
X178000001Y-112354869D01*
X178031083Y-112349945D01*
X178081406Y-112341975D01*
X178150700Y-112350929D01*
X178204152Y-112395925D01*
X178224792Y-112462676D01*
X178224805Y-112464448D01*
X178224805Y-116273054D01*
X178211290Y-116329348D01*
X178187804Y-116375441D01*
X178170436Y-116485100D01*
X178170436Y-116485105D01*
X178187803Y-116594761D01*
X178238209Y-116693688D01*
X178238214Y-116693695D01*
X178316712Y-116772193D01*
X178316715Y-116772195D01*
X178316718Y-116772198D01*
X178415644Y-116822603D01*
X178415646Y-116822604D01*
X178525303Y-116839972D01*
X178525305Y-116839972D01*
X178525307Y-116839972D01*
X178634963Y-116822604D01*
X178634964Y-116822603D01*
X178634966Y-116822603D01*
X178733892Y-116772198D01*
X178812400Y-116693690D01*
X178862805Y-116594764D01*
X178862805Y-116594762D01*
X178862806Y-116594761D01*
X178880174Y-116485105D01*
X178880174Y-116485100D01*
X178862805Y-116375441D01*
X178839320Y-116329348D01*
X178825805Y-116273054D01*
X178825805Y-109286925D01*
X178845490Y-109219886D01*
X178862124Y-109199244D01*
X179224549Y-108836819D01*
X179285872Y-108803334D01*
X179312230Y-108800500D01*
X181130545Y-108800500D01*
X181197584Y-108820185D01*
X181243339Y-108872989D01*
X181253283Y-108942147D01*
X181224258Y-109005703D01*
X181186841Y-109034983D01*
X181145145Y-109056229D01*
X181145144Y-109056230D01*
X181145139Y-109056233D01*
X181066641Y-109134731D01*
X181066636Y-109134738D01*
X181016230Y-109233665D01*
X180998863Y-109343321D01*
X180998863Y-109343326D01*
X181016230Y-109452982D01*
X181039717Y-109499077D01*
X181053232Y-109555371D01*
X181053232Y-110019284D01*
X181059162Y-110041413D01*
X181073711Y-110095712D01*
X181073712Y-110095713D01*
X181081765Y-110109661D01*
X181113272Y-110164233D01*
X181939499Y-110990460D01*
X182008022Y-111030022D01*
X182084448Y-111050500D01*
X182163572Y-111050500D01*
X192210438Y-111050500D01*
X192287952Y-111050500D01*
X192344244Y-111064013D01*
X192390339Y-111087500D01*
X192390340Y-111087500D01*
X192390342Y-111087501D01*
X192499998Y-111104869D01*
X192500000Y-111104869D01*
X192500002Y-111104869D01*
X192609658Y-111087501D01*
X192609659Y-111087500D01*
X192609661Y-111087500D01*
X192708587Y-111037095D01*
X192787095Y-110958587D01*
X192837500Y-110859661D01*
X192837500Y-110859659D01*
X192837501Y-110859658D01*
X192854869Y-110750002D01*
X192854869Y-110749997D01*
X192837501Y-110640343D01*
X192837500Y-110640341D01*
X192837500Y-110640339D01*
X192800384Y-110567495D01*
X192787489Y-110498828D01*
X192811823Y-110438874D01*
X192747642Y-110462813D01*
X192682502Y-110449614D01*
X192609658Y-110412498D01*
X192500002Y-110395131D01*
X192499998Y-110395131D01*
X192390342Y-110412498D01*
X192344245Y-110435986D01*
X192287952Y-110449500D01*
X184676770Y-110449500D01*
X184609731Y-110429815D01*
X184563976Y-110377011D01*
X184554032Y-110307853D01*
X184583057Y-110244297D01*
X184641835Y-110206523D01*
X184644644Y-110205733D01*
X184706979Y-110189031D01*
X184775501Y-110149470D01*
X184831450Y-110093521D01*
X190805740Y-104119229D01*
X190855103Y-104088980D01*
X190859648Y-104087501D01*
X190859661Y-104087500D01*
X190958587Y-104037095D01*
X190958592Y-104037090D01*
X190987819Y-104007864D01*
X191049142Y-103974379D01*
X191118834Y-103979363D01*
X191174767Y-104021235D01*
X191199184Y-104086699D01*
X191199500Y-104095545D01*
X191199500Y-107475167D01*
X191179815Y-107542206D01*
X191127011Y-107587961D01*
X191057853Y-107597905D01*
X190994297Y-107568880D01*
X190987819Y-107562848D01*
X190184512Y-106759541D01*
X190184507Y-106759537D01*
X190148164Y-106738555D01*
X190125922Y-106725714D01*
X190115989Y-106719979D01*
X190039562Y-106699500D01*
X190039560Y-106699500D01*
X189212048Y-106699500D01*
X189155755Y-106685986D01*
X189109657Y-106662498D01*
X189000002Y-106645131D01*
X188999998Y-106645131D01*
X188890341Y-106662498D01*
X188791414Y-106712904D01*
X188791407Y-106712909D01*
X188712909Y-106791407D01*
X188712904Y-106791414D01*
X188662498Y-106890341D01*
X188645131Y-106999997D01*
X188645131Y-107000002D01*
X188662498Y-107109658D01*
X188712904Y-107208585D01*
X188712909Y-107208592D01*
X188791407Y-107287090D01*
X188791410Y-107287092D01*
X188791413Y-107287095D01*
X188890339Y-107337500D01*
X188890341Y-107337501D01*
X188999998Y-107354869D01*
X189000000Y-107354869D01*
X189000002Y-107354869D01*
X189109657Y-107337501D01*
X189109658Y-107337500D01*
X189109661Y-107337500D01*
X189155755Y-107314013D01*
X189212048Y-107300500D01*
X189824167Y-107300500D01*
X189891206Y-107320185D01*
X189911848Y-107336819D01*
X192826477Y-110251448D01*
X192859962Y-110312771D01*
X192854978Y-110382463D01*
X192819197Y-110430259D01*
X192870872Y-110393831D01*
X192940678Y-110390839D01*
X192998551Y-110423522D01*
X193130768Y-110555739D01*
X193161016Y-110605096D01*
X193162498Y-110609656D01*
X193162499Y-110609659D01*
X193162500Y-110609661D01*
X193212905Y-110708587D01*
X193212907Y-110708589D01*
X193212909Y-110708592D01*
X193291407Y-110787090D01*
X193291410Y-110787092D01*
X193291413Y-110787095D01*
X193340675Y-110812195D01*
X193390341Y-110837501D01*
X193499998Y-110854869D01*
X193500000Y-110854869D01*
X193500002Y-110854869D01*
X193609658Y-110837501D01*
X193609659Y-110837500D01*
X193609661Y-110837500D01*
X193708587Y-110787095D01*
X193787095Y-110708587D01*
X193837500Y-110609661D01*
X193837500Y-110609659D01*
X193837501Y-110609658D01*
X193854869Y-110500002D01*
X193854869Y-110500001D01*
X193854683Y-110498828D01*
X193854256Y-110496131D01*
X193854869Y-110491387D01*
X193854869Y-110490241D01*
X193855017Y-110490241D01*
X193863207Y-110426839D01*
X193908200Y-110373384D01*
X193974951Y-110352741D01*
X193996127Y-110354255D01*
X194000000Y-110354869D01*
X194000001Y-110354868D01*
X194000002Y-110354869D01*
X194109658Y-110337501D01*
X194109659Y-110337500D01*
X194109661Y-110337500D01*
X194208587Y-110287095D01*
X194287095Y-110208587D01*
X194337500Y-110109661D01*
X194337500Y-110109659D01*
X194337501Y-110109658D01*
X194354869Y-110000002D01*
X194354869Y-109999999D01*
X194352969Y-109988004D01*
X194361923Y-109918710D01*
X194406919Y-109865258D01*
X194473670Y-109844618D01*
X194494835Y-109846131D01*
X194550000Y-109854869D01*
X194550002Y-109854869D01*
X194659658Y-109837501D01*
X194659659Y-109837500D01*
X194659661Y-109837500D01*
X194758587Y-109787095D01*
X194837095Y-109708587D01*
X194887500Y-109609661D01*
X194887500Y-109609659D01*
X194887501Y-109609658D01*
X194904869Y-109500002D01*
X194904869Y-109499997D01*
X194887501Y-109390341D01*
X194863543Y-109343321D01*
X194837095Y-109291413D01*
X194837092Y-109291410D01*
X194837090Y-109291407D01*
X194758592Y-109212909D01*
X194758589Y-109212907D01*
X194758587Y-109212905D01*
X194659661Y-109162500D01*
X194659659Y-109162499D01*
X194659656Y-109162498D01*
X194655096Y-109161016D01*
X194605739Y-109130768D01*
X192386819Y-106911848D01*
X192353334Y-106850525D01*
X192350500Y-106824167D01*
X192350500Y-106476375D01*
X192370185Y-106409336D01*
X192422989Y-106363581D01*
X192492147Y-106353637D01*
X192493837Y-106353892D01*
X192500000Y-106354869D01*
X192500000Y-106354868D01*
X192500001Y-106354869D01*
X192500002Y-106354869D01*
X192609658Y-106337501D01*
X192609659Y-106337500D01*
X192609661Y-106337500D01*
X192708587Y-106287095D01*
X192787095Y-106208587D01*
X192837500Y-106109661D01*
X192837501Y-106109648D01*
X192838980Y-106105103D01*
X192869229Y-106055740D01*
X193588152Y-105336819D01*
X193649475Y-105303334D01*
X193675833Y-105300500D01*
X193689560Y-105300500D01*
X193689562Y-105300500D01*
X193765989Y-105280021D01*
X193765992Y-105280018D01*
X193773499Y-105276910D01*
X193774297Y-105278838D01*
X193831399Y-105264985D01*
X193897426Y-105287837D01*
X193940617Y-105342758D01*
X193949500Y-105388845D01*
X193949500Y-106537951D01*
X193935985Y-106594245D01*
X193912499Y-106640338D01*
X193895131Y-106749997D01*
X193895131Y-106750002D01*
X193912498Y-106859658D01*
X193962904Y-106958585D01*
X193962909Y-106958592D01*
X194041407Y-107037090D01*
X194041410Y-107037092D01*
X194041413Y-107037095D01*
X194085692Y-107059656D01*
X194140341Y-107087501D01*
X194249998Y-107104869D01*
X194250000Y-107104869D01*
X194250002Y-107104869D01*
X194359658Y-107087501D01*
X194359659Y-107087500D01*
X194359661Y-107087500D01*
X194458587Y-107037095D01*
X194537095Y-106958587D01*
X194587500Y-106859661D01*
X194587500Y-106859659D01*
X194587501Y-106859658D01*
X194604869Y-106750002D01*
X194604869Y-106749997D01*
X194587500Y-106640338D01*
X194564015Y-106594245D01*
X194550500Y-106537951D01*
X194550500Y-89925832D01*
X194570185Y-89858793D01*
X194586815Y-89838155D01*
X195287819Y-89137150D01*
X195349142Y-89103666D01*
X195418834Y-89108650D01*
G37*
%TD.AperFunction*%
%TA.AperFunction,Conductor*%
G36*
X193003736Y-80500726D02*
G01*
X193293796Y-80518271D01*
X193308659Y-80520076D01*
X193590798Y-80571780D01*
X193605335Y-80575363D01*
X193879172Y-80660695D01*
X193893163Y-80666000D01*
X194154743Y-80783727D01*
X194167989Y-80790680D01*
X194413465Y-80939075D01*
X194425776Y-80947573D01*
X194651573Y-81124473D01*
X194662781Y-81134403D01*
X194865596Y-81337218D01*
X194875526Y-81348426D01*
X194995481Y-81501538D01*
X195052422Y-81574217D01*
X195060928Y-81586540D01*
X195209316Y-81832004D01*
X195216275Y-81845263D01*
X195333997Y-82106831D01*
X195339306Y-82120832D01*
X195424635Y-82394663D01*
X195428219Y-82409201D01*
X195479923Y-82691340D01*
X195481728Y-82706205D01*
X195499274Y-82996263D01*
X195499500Y-83003750D01*
X195499500Y-88289462D01*
X195479815Y-88356501D01*
X195427011Y-88402256D01*
X195357853Y-88412200D01*
X195356103Y-88411935D01*
X195250003Y-88395131D01*
X195249998Y-88395131D01*
X195140341Y-88412498D01*
X195041414Y-88462904D01*
X195041407Y-88462909D01*
X194962909Y-88541407D01*
X194962906Y-88541412D01*
X194912498Y-88640343D01*
X194911017Y-88644901D01*
X194880769Y-88694258D01*
X194162181Y-89412847D01*
X194100858Y-89446332D01*
X194031167Y-89441348D01*
X193975233Y-89399476D01*
X193950816Y-89334012D01*
X193950500Y-89325166D01*
X193950500Y-87199042D01*
X193930020Y-87122612D01*
X193930017Y-87122607D01*
X193890464Y-87054098D01*
X193890458Y-87054090D01*
X188595909Y-81759541D01*
X188595904Y-81759537D01*
X188578521Y-81749502D01*
X188578517Y-81749498D01*
X188578517Y-81749499D01*
X188552952Y-81734739D01*
X188527387Y-81719979D01*
X188499467Y-81712498D01*
X188450959Y-81699500D01*
X188450957Y-81699500D01*
X187708832Y-81699500D01*
X187641793Y-81679815D01*
X187606782Y-81645941D01*
X187557274Y-81574217D01*
X187528183Y-81532071D01*
X187400852Y-81419266D01*
X187400849Y-81419263D01*
X187250226Y-81340210D01*
X187085056Y-81299500D01*
X186914944Y-81299500D01*
X186749773Y-81340210D01*
X186599150Y-81419263D01*
X186471816Y-81532072D01*
X186375182Y-81672068D01*
X186314860Y-81831125D01*
X186314859Y-81831130D01*
X186294355Y-82000000D01*
X186314859Y-82168869D01*
X186314860Y-82168874D01*
X186375182Y-82327931D01*
X186416298Y-82387497D01*
X186471817Y-82467929D01*
X186577505Y-82561560D01*
X186599150Y-82580736D01*
X186749773Y-82659789D01*
X186749775Y-82659790D01*
X186914944Y-82700500D01*
X187085056Y-82700500D01*
X187250225Y-82659790D01*
X187329692Y-82618081D01*
X187400849Y-82580736D01*
X187400850Y-82580734D01*
X187400852Y-82580734D01*
X187528183Y-82467929D01*
X187606782Y-82354058D01*
X187661065Y-82310069D01*
X187708832Y-82300500D01*
X188235564Y-82300500D01*
X188302603Y-82320185D01*
X188323245Y-82336819D01*
X189224245Y-83237819D01*
X189257730Y-83299142D01*
X189252746Y-83368834D01*
X189210874Y-83424767D01*
X189145410Y-83449184D01*
X189136564Y-83449500D01*
X182962048Y-83449500D01*
X182905755Y-83435986D01*
X182860997Y-83413181D01*
X182859661Y-83412500D01*
X182859660Y-83412499D01*
X182859657Y-83412498D01*
X182750002Y-83395131D01*
X182749998Y-83395131D01*
X182640342Y-83412498D01*
X182594245Y-83435986D01*
X182537952Y-83449500D01*
X181322204Y-83449500D01*
X181255165Y-83429815D01*
X181234523Y-83413181D01*
X180580883Y-82759541D01*
X180580875Y-82759535D01*
X180512366Y-82719982D01*
X180512361Y-82719979D01*
X180485956Y-82712904D01*
X180435933Y-82699500D01*
X180435931Y-82699500D01*
X177962048Y-82699500D01*
X177905755Y-82685986D01*
X177859657Y-82662498D01*
X177750002Y-82645131D01*
X177749998Y-82645131D01*
X177640341Y-82662498D01*
X177541414Y-82712904D01*
X177541407Y-82712909D01*
X177462909Y-82791407D01*
X177462904Y-82791414D01*
X177412498Y-82890341D01*
X177395131Y-82999997D01*
X177395131Y-83000002D01*
X177412498Y-83109658D01*
X177462904Y-83208585D01*
X177462909Y-83208592D01*
X177541407Y-83287090D01*
X177541410Y-83287092D01*
X177541413Y-83287095D01*
X177640333Y-83337497D01*
X177640341Y-83337501D01*
X177749998Y-83354869D01*
X177750000Y-83354869D01*
X177750002Y-83354869D01*
X177859657Y-83337501D01*
X177859658Y-83337500D01*
X177859661Y-83337500D01*
X177905755Y-83314013D01*
X177962048Y-83300500D01*
X180220538Y-83300500D01*
X180287577Y-83320185D01*
X180308219Y-83336819D01*
X180905911Y-83934511D01*
X180961860Y-83990460D01*
X180961862Y-83990461D01*
X180961866Y-83990464D01*
X181030375Y-84030017D01*
X181030382Y-84030021D01*
X181106809Y-84050500D01*
X182537952Y-84050500D01*
X182594244Y-84064013D01*
X182640339Y-84087500D01*
X182640340Y-84087500D01*
X182640342Y-84087501D01*
X182749998Y-84104869D01*
X182750000Y-84104869D01*
X182750002Y-84104869D01*
X182859657Y-84087501D01*
X182859658Y-84087500D01*
X182859661Y-84087500D01*
X182905755Y-84064013D01*
X182962048Y-84050500D01*
X189349167Y-84050500D01*
X189416206Y-84070185D01*
X189436848Y-84086819D01*
X190905768Y-85555739D01*
X190936016Y-85605096D01*
X190937498Y-85609656D01*
X190937499Y-85609659D01*
X190937500Y-85609661D01*
X190987905Y-85708587D01*
X190987907Y-85708589D01*
X190987909Y-85708592D01*
X191066407Y-85787090D01*
X191066410Y-85787092D01*
X191066413Y-85787095D01*
X191165339Y-85837500D01*
X191165340Y-85837500D01*
X191169900Y-85838982D01*
X191219260Y-85869231D01*
X192113181Y-86763152D01*
X192146666Y-86824475D01*
X192149500Y-86850833D01*
X192149500Y-92523624D01*
X192129815Y-92590663D01*
X192077011Y-92636418D01*
X192007853Y-92646362D01*
X192006150Y-92646105D01*
X192000000Y-92645131D01*
X191999998Y-92645131D01*
X191999997Y-92645131D01*
X191890342Y-92662498D01*
X191844245Y-92685986D01*
X191787952Y-92699500D01*
X187774832Y-92699500D01*
X187707793Y-92679815D01*
X187662038Y-92627011D01*
X187652094Y-92557853D01*
X187681119Y-92494297D01*
X187687151Y-92487819D01*
X188115430Y-92059540D01*
X189300024Y-90874945D01*
X189361345Y-90841462D01*
X189407102Y-90840155D01*
X189499999Y-90854869D01*
X189500000Y-90854869D01*
X189500002Y-90854869D01*
X189609658Y-90837501D01*
X189609659Y-90837500D01*
X189609661Y-90837500D01*
X189708587Y-90787095D01*
X189787095Y-90708587D01*
X189837500Y-90609661D01*
X189837500Y-90609659D01*
X189837501Y-90609658D01*
X189854869Y-90500002D01*
X189854869Y-90499997D01*
X189837501Y-90390341D01*
X189837500Y-90390339D01*
X189787095Y-90291413D01*
X189787092Y-90291410D01*
X189787090Y-90291407D01*
X189708592Y-90212909D01*
X189708588Y-90212906D01*
X189708587Y-90212905D01*
X189704743Y-90210946D01*
X189609658Y-90162498D01*
X189500002Y-90145131D01*
X189499998Y-90145131D01*
X189390342Y-90162498D01*
X189344245Y-90185986D01*
X189287952Y-90199500D01*
X189210438Y-90199500D01*
X189172224Y-90209739D01*
X189134009Y-90219979D01*
X189134004Y-90219982D01*
X189065495Y-90259535D01*
X189065487Y-90259541D01*
X186809541Y-92515487D01*
X186809535Y-92515495D01*
X186769982Y-92584004D01*
X186769979Y-92584009D01*
X186767799Y-92592145D01*
X186749500Y-92660438D01*
X186749500Y-98089562D01*
X186753343Y-98103903D01*
X186769979Y-98165990D01*
X186769982Y-98165995D01*
X186809535Y-98234504D01*
X186809541Y-98234512D01*
X189130768Y-100555739D01*
X189161016Y-100605096D01*
X189162498Y-100609656D01*
X189162499Y-100609659D01*
X189162500Y-100609661D01*
X189212905Y-100708587D01*
X189212907Y-100708589D01*
X189212909Y-100708592D01*
X189291407Y-100787090D01*
X189291410Y-100787092D01*
X189291413Y-100787095D01*
X189390339Y-100837500D01*
X189390341Y-100837501D01*
X189499998Y-100854869D01*
X189500000Y-100854869D01*
X189500002Y-100854869D01*
X189609658Y-100837501D01*
X189609659Y-100837500D01*
X189609661Y-100837500D01*
X189708587Y-100787095D01*
X189787095Y-100708587D01*
X189837500Y-100609661D01*
X189837500Y-100609659D01*
X189837501Y-100609658D01*
X189854869Y-100500002D01*
X189854869Y-100499997D01*
X189837501Y-100390341D01*
X189837500Y-100390339D01*
X189787095Y-100291413D01*
X189787092Y-100291410D01*
X189787090Y-100291407D01*
X189708592Y-100212909D01*
X189708589Y-100212907D01*
X189708587Y-100212905D01*
X189609661Y-100162500D01*
X189609659Y-100162499D01*
X189609656Y-100162498D01*
X189605096Y-100161016D01*
X189555739Y-100130768D01*
X187386819Y-97961848D01*
X187353334Y-97900525D01*
X187350500Y-97874167D01*
X187350500Y-93476375D01*
X187370185Y-93409336D01*
X187422989Y-93363581D01*
X187492147Y-93353637D01*
X187493837Y-93353892D01*
X187500000Y-93354869D01*
X187503867Y-93354256D01*
X187508611Y-93354869D01*
X187509759Y-93354869D01*
X187509759Y-93355017D01*
X187573159Y-93363206D01*
X187626614Y-93408199D01*
X187647258Y-93474949D01*
X187645745Y-93496122D01*
X187645744Y-93496133D01*
X187645131Y-93500001D01*
X187645131Y-93500002D01*
X187662498Y-93609658D01*
X187712904Y-93708585D01*
X187712909Y-93708592D01*
X187791407Y-93787090D01*
X187791410Y-93787092D01*
X187791413Y-93787095D01*
X187877164Y-93830787D01*
X187890341Y-93837501D01*
X187999998Y-93854869D01*
X188000000Y-93854869D01*
X188000002Y-93854869D01*
X188109657Y-93837501D01*
X188109658Y-93837500D01*
X188109661Y-93837500D01*
X188155755Y-93814013D01*
X188212048Y-93800500D01*
X188308732Y-93800500D01*
X188375771Y-93820185D01*
X188421526Y-93872989D01*
X188431470Y-93942147D01*
X188402445Y-94005703D01*
X188390706Y-94017440D01*
X188296096Y-94126626D01*
X188296095Y-94126628D01*
X188236307Y-94257543D01*
X188215826Y-94400000D01*
X188236307Y-94542456D01*
X188277686Y-94633061D01*
X188296096Y-94673373D01*
X188390345Y-94782143D01*
X188511420Y-94859953D01*
X188511423Y-94859954D01*
X188511422Y-94859954D01*
X188649509Y-94900499D01*
X188649511Y-94900500D01*
X188649512Y-94900500D01*
X188793435Y-94900500D01*
X188793435Y-94900499D01*
X188931526Y-94859953D01*
X189052601Y-94782143D01*
X189086261Y-94743296D01*
X189145040Y-94705523D01*
X189179974Y-94700500D01*
X189975254Y-94700500D01*
X190042293Y-94720185D01*
X190079570Y-94757461D01*
X190083756Y-94763974D01*
X190083758Y-94763978D01*
X190178007Y-94872748D01*
X190299082Y-94950558D01*
X190299085Y-94950559D01*
X190299084Y-94950559D01*
X190437171Y-94991104D01*
X190437173Y-94991105D01*
X190437174Y-94991105D01*
X190581097Y-94991105D01*
X190581097Y-94991104D01*
X190719188Y-94950558D01*
X190840263Y-94872748D01*
X190934512Y-94763978D01*
X190994300Y-94633062D01*
X191014782Y-94490605D01*
X190994300Y-94348148D01*
X190934512Y-94217232D01*
X190840263Y-94108462D01*
X190840260Y-94108460D01*
X190840258Y-94108458D01*
X190716331Y-94028815D01*
X190670576Y-93976012D01*
X190660632Y-93906853D01*
X190689657Y-93843297D01*
X190748435Y-93805523D01*
X190783370Y-93800500D01*
X191287952Y-93800500D01*
X191344244Y-93814013D01*
X191390339Y-93837500D01*
X191390340Y-93837500D01*
X191390342Y-93837501D01*
X191499998Y-93854869D01*
X191500000Y-93854869D01*
X191500002Y-93854869D01*
X191609658Y-93837501D01*
X191609659Y-93837500D01*
X191609661Y-93837500D01*
X191708587Y-93787095D01*
X191787095Y-93708587D01*
X191837500Y-93609661D01*
X191837500Y-93609659D01*
X191837501Y-93609658D01*
X191854869Y-93500002D01*
X191854869Y-93500001D01*
X191854868Y-93499996D01*
X191854256Y-93496131D01*
X191854869Y-93491387D01*
X191854869Y-93490241D01*
X191855017Y-93490241D01*
X191863207Y-93426839D01*
X191908200Y-93373384D01*
X191974951Y-93352741D01*
X191996127Y-93354255D01*
X192000000Y-93354869D01*
X192006097Y-93353903D01*
X192075389Y-93362854D01*
X192128844Y-93407847D01*
X192149487Y-93474598D01*
X192149500Y-93476375D01*
X192149500Y-95375500D01*
X192129815Y-95442539D01*
X192077011Y-95488294D01*
X192025500Y-95499500D01*
X190730247Y-95499500D01*
X190671770Y-95511131D01*
X190671769Y-95511132D01*
X190605447Y-95555447D01*
X190561132Y-95621769D01*
X190561131Y-95621770D01*
X190549500Y-95680247D01*
X190549500Y-95806878D01*
X190529815Y-95873917D01*
X190477011Y-95919672D01*
X190407853Y-95929616D01*
X190369206Y-95917363D01*
X190359659Y-95912499D01*
X190355096Y-95911016D01*
X190305739Y-95880768D01*
X190184512Y-95759541D01*
X190184504Y-95759535D01*
X190115995Y-95719982D01*
X190115990Y-95719979D01*
X190089585Y-95712904D01*
X190039562Y-95699500D01*
X190039560Y-95699500D01*
X189212048Y-95699500D01*
X189155755Y-95685986D01*
X189109657Y-95662498D01*
X189000002Y-95645131D01*
X188999998Y-95645131D01*
X188890341Y-95662498D01*
X188791414Y-95712904D01*
X188791407Y-95712909D01*
X188712909Y-95791407D01*
X188712904Y-95791414D01*
X188662498Y-95890341D01*
X188645131Y-95999997D01*
X188645131Y-96000003D01*
X188645744Y-96003874D01*
X188645131Y-96008617D01*
X188645131Y-96009759D01*
X188644983Y-96009759D01*
X188636789Y-96073167D01*
X188591793Y-96126619D01*
X188525041Y-96147258D01*
X188503874Y-96145744D01*
X188500004Y-96145131D01*
X188499998Y-96145131D01*
X188390341Y-96162498D01*
X188291414Y-96212904D01*
X188291407Y-96212909D01*
X188212909Y-96291407D01*
X188212904Y-96291414D01*
X188162498Y-96390341D01*
X188145131Y-96499997D01*
X188145131Y-96500003D01*
X188145744Y-96503874D01*
X188145131Y-96508617D01*
X188145131Y-96509759D01*
X188144983Y-96509759D01*
X188136789Y-96573167D01*
X188091793Y-96626619D01*
X188025041Y-96647258D01*
X188003874Y-96645744D01*
X188000004Y-96645131D01*
X187999998Y-96645131D01*
X187890341Y-96662498D01*
X187791414Y-96712904D01*
X187791407Y-96712909D01*
X187712909Y-96791407D01*
X187712904Y-96791414D01*
X187662498Y-96890341D01*
X187645131Y-96999997D01*
X187645131Y-97000002D01*
X187662498Y-97109658D01*
X187712904Y-97208585D01*
X187712909Y-97208592D01*
X187791407Y-97287090D01*
X187791410Y-97287092D01*
X187791413Y-97287095D01*
X187890339Y-97337500D01*
X187890341Y-97337501D01*
X187999998Y-97354869D01*
X188000000Y-97354869D01*
X188000002Y-97354869D01*
X188109657Y-97337501D01*
X188109658Y-97337500D01*
X188109661Y-97337500D01*
X188155755Y-97314013D01*
X188212048Y-97300500D01*
X188824167Y-97300500D01*
X188891206Y-97320185D01*
X188911848Y-97336819D01*
X189198967Y-97623938D01*
X189229215Y-97673295D01*
X189230697Y-97677855D01*
X189230698Y-97677858D01*
X189230699Y-97677860D01*
X189281104Y-97776786D01*
X189281106Y-97776788D01*
X189281108Y-97776791D01*
X189359606Y-97855289D01*
X189359609Y-97855291D01*
X189359612Y-97855294D01*
X189458538Y-97905699D01*
X189458540Y-97905700D01*
X189568197Y-97923068D01*
X189568199Y-97923068D01*
X189568201Y-97923068D01*
X189677855Y-97905700D01*
X189677855Y-97905699D01*
X189677860Y-97905699D01*
X189769210Y-97859154D01*
X189837874Y-97846259D01*
X189902614Y-97872535D01*
X189942872Y-97929641D01*
X189949500Y-97969640D01*
X189949500Y-98037951D01*
X189935985Y-98094245D01*
X189912499Y-98140338D01*
X189895131Y-98249997D01*
X189895131Y-98250002D01*
X189912498Y-98359658D01*
X189962904Y-98458585D01*
X189962909Y-98458592D01*
X190041407Y-98537090D01*
X190041410Y-98537092D01*
X190041413Y-98537095D01*
X190105483Y-98569740D01*
X190140341Y-98587501D01*
X190249998Y-98604869D01*
X190250000Y-98604869D01*
X190250002Y-98604869D01*
X190359657Y-98587501D01*
X190359658Y-98587500D01*
X190359661Y-98587500D01*
X190369205Y-98582636D01*
X190437873Y-98569740D01*
X190502614Y-98596016D01*
X190542871Y-98653121D01*
X190549500Y-98693121D01*
X190549500Y-99319752D01*
X190561131Y-99378229D01*
X190561132Y-99378230D01*
X190605447Y-99444552D01*
X190671769Y-99488867D01*
X190671770Y-99488868D01*
X190730247Y-99500499D01*
X190730250Y-99500500D01*
X190730252Y-99500500D01*
X193225500Y-99500500D01*
X193292539Y-99520185D01*
X193338294Y-99572989D01*
X193349500Y-99624500D01*
X193349500Y-104674166D01*
X193329815Y-104741205D01*
X193313181Y-104761847D01*
X192562181Y-105512847D01*
X192500858Y-105546332D01*
X192431166Y-105541348D01*
X192375233Y-105499476D01*
X192350816Y-105434012D01*
X192350500Y-105425166D01*
X192350500Y-101570439D01*
X192330020Y-101494009D01*
X192330017Y-101494004D01*
X192290464Y-101425495D01*
X192290458Y-101425487D01*
X191309231Y-100444260D01*
X191278982Y-100394900D01*
X191277500Y-100390340D01*
X191277500Y-100390339D01*
X191227095Y-100291413D01*
X191227092Y-100291410D01*
X191227090Y-100291407D01*
X191148592Y-100212909D01*
X191148588Y-100212906D01*
X191148587Y-100212905D01*
X191144743Y-100210946D01*
X191049658Y-100162498D01*
X190940002Y-100145131D01*
X190939998Y-100145131D01*
X190830341Y-100162498D01*
X190731414Y-100212904D01*
X190731407Y-100212909D01*
X190652909Y-100291407D01*
X190652904Y-100291414D01*
X190602498Y-100390341D01*
X190585131Y-100499997D01*
X190585131Y-100500002D01*
X190602498Y-100609658D01*
X190652904Y-100708585D01*
X190652909Y-100708592D01*
X190731407Y-100787090D01*
X190731410Y-100787092D01*
X190731413Y-100787095D01*
X190830339Y-100837500D01*
X190830340Y-100837500D01*
X190834900Y-100838982D01*
X190884260Y-100869231D01*
X191713181Y-101698152D01*
X191746666Y-101759475D01*
X191749500Y-101785833D01*
X191749500Y-101844153D01*
X191729815Y-101911192D01*
X191677011Y-101956947D01*
X191607853Y-101966891D01*
X191593409Y-101963928D01*
X191539562Y-101949500D01*
X191539560Y-101949500D01*
X189985833Y-101949500D01*
X189918794Y-101929815D01*
X189898152Y-101913181D01*
X188429231Y-100444260D01*
X188398982Y-100394900D01*
X188397500Y-100390340D01*
X188397500Y-100390339D01*
X188347095Y-100291413D01*
X188347092Y-100291410D01*
X188347090Y-100291407D01*
X188268592Y-100212909D01*
X188268588Y-100212906D01*
X188268587Y-100212905D01*
X188264743Y-100210946D01*
X188169658Y-100162498D01*
X188060002Y-100145131D01*
X188059998Y-100145131D01*
X187950341Y-100162498D01*
X187851414Y-100212904D01*
X187851407Y-100212909D01*
X187772909Y-100291407D01*
X187772904Y-100291414D01*
X187722498Y-100390341D01*
X187705131Y-100499997D01*
X187705131Y-100500002D01*
X187722498Y-100609658D01*
X187772904Y-100708585D01*
X187772909Y-100708592D01*
X187851407Y-100787090D01*
X187851410Y-100787092D01*
X187851413Y-100787095D01*
X187950339Y-100837500D01*
X187950340Y-100837500D01*
X187954900Y-100838982D01*
X188004260Y-100869231D01*
X189625489Y-102490460D01*
X189694012Y-102530022D01*
X189770438Y-102550500D01*
X189849562Y-102550500D01*
X191075500Y-102550500D01*
X191142539Y-102570185D01*
X191188294Y-102622989D01*
X191199500Y-102674500D01*
X191199500Y-103404455D01*
X191179815Y-103471494D01*
X191127011Y-103517249D01*
X191057853Y-103527193D01*
X190994297Y-103498168D01*
X190987819Y-103492136D01*
X190958592Y-103462909D01*
X190958588Y-103462906D01*
X190958587Y-103462905D01*
X190954743Y-103460946D01*
X190859658Y-103412498D01*
X190750002Y-103395131D01*
X190749998Y-103395131D01*
X190640341Y-103412498D01*
X190541414Y-103462904D01*
X190541407Y-103462909D01*
X190462909Y-103541407D01*
X190462906Y-103541412D01*
X190412498Y-103640343D01*
X190411017Y-103644901D01*
X190380769Y-103694258D01*
X184502838Y-109572191D01*
X184441515Y-109605676D01*
X184415157Y-109608510D01*
X182131465Y-109608510D01*
X182075172Y-109594996D01*
X182052205Y-109583294D01*
X182029078Y-109571510D01*
X182029077Y-109571509D01*
X182029074Y-109571508D01*
X181919419Y-109554141D01*
X181919414Y-109554141D01*
X181837496Y-109567115D01*
X181768203Y-109558160D01*
X181714751Y-109513164D01*
X181694112Y-109446412D01*
X181695626Y-109425244D01*
X181708601Y-109343325D01*
X181708601Y-109343321D01*
X181691233Y-109233665D01*
X181673695Y-109199244D01*
X181640827Y-109134737D01*
X181640824Y-109134734D01*
X181640822Y-109134731D01*
X181562324Y-109056233D01*
X181562321Y-109056231D01*
X181562319Y-109056229D01*
X181520622Y-109034983D01*
X181469828Y-108987010D01*
X181453033Y-108919189D01*
X181475570Y-108853055D01*
X181530285Y-108809603D01*
X181576919Y-108800500D01*
X183059560Y-108800500D01*
X183059562Y-108800500D01*
X183135989Y-108780021D01*
X183204511Y-108740460D01*
X183260460Y-108684511D01*
X183325742Y-108619227D01*
X183375107Y-108588979D01*
X183379656Y-108587500D01*
X183379661Y-108587500D01*
X183478587Y-108537095D01*
X183557095Y-108458587D01*
X183607500Y-108359661D01*
X183607500Y-108359659D01*
X183607501Y-108359658D01*
X183624869Y-108250002D01*
X183624869Y-108249997D01*
X183607501Y-108140341D01*
X183591867Y-108109658D01*
X183557095Y-108041413D01*
X183557092Y-108041410D01*
X183557090Y-108041407D01*
X183478592Y-107962909D01*
X183478588Y-107962906D01*
X183478587Y-107962905D01*
X183474743Y-107960946D01*
X183379658Y-107912498D01*
X183270002Y-107895131D01*
X183269998Y-107895131D01*
X183160341Y-107912498D01*
X183061414Y-107962904D01*
X183061407Y-107962909D01*
X182982909Y-108041407D01*
X182982906Y-108041411D01*
X182982905Y-108041413D01*
X182936852Y-108131796D01*
X182888880Y-108182591D01*
X182826369Y-108199500D01*
X179096835Y-108199500D01*
X179020407Y-108219978D01*
X178951886Y-108259540D01*
X178951883Y-108259542D01*
X178512181Y-108699245D01*
X178450858Y-108732730D01*
X178381166Y-108727746D01*
X178325233Y-108685874D01*
X178300816Y-108620410D01*
X178300500Y-108611564D01*
X178300500Y-108460439D01*
X178280020Y-108384009D01*
X178280017Y-108384004D01*
X178240464Y-108315495D01*
X178240458Y-108315487D01*
X175684512Y-105759541D01*
X175684504Y-105759535D01*
X175615995Y-105719982D01*
X175615990Y-105719979D01*
X175590513Y-105713152D01*
X175539562Y-105699500D01*
X174710438Y-105699500D01*
X174672224Y-105709739D01*
X174634009Y-105719979D01*
X174634004Y-105719982D01*
X174565495Y-105759535D01*
X174565487Y-105759541D01*
X172661848Y-107663181D01*
X172600525Y-107696666D01*
X172574167Y-107699500D01*
X168962048Y-107699500D01*
X168905755Y-107685986D01*
X168860997Y-107663181D01*
X168859661Y-107662500D01*
X168859660Y-107662499D01*
X168859657Y-107662498D01*
X168750002Y-107645131D01*
X168749998Y-107645131D01*
X168640341Y-107662498D01*
X168541414Y-107712904D01*
X168541407Y-107712909D01*
X168462909Y-107791407D01*
X168462904Y-107791414D01*
X168412498Y-107890341D01*
X168395131Y-107999997D01*
X168395131Y-108000002D01*
X168412498Y-108109658D01*
X168462904Y-108208585D01*
X168462909Y-108208592D01*
X168541407Y-108287090D01*
X168541410Y-108287092D01*
X168541413Y-108287095D01*
X168640339Y-108337500D01*
X168640341Y-108337501D01*
X168749998Y-108354869D01*
X168750000Y-108354869D01*
X168750002Y-108354869D01*
X168859657Y-108337501D01*
X168859658Y-108337500D01*
X168859661Y-108337500D01*
X168905755Y-108314013D01*
X168962048Y-108300500D01*
X172789560Y-108300500D01*
X172789562Y-108300500D01*
X172865989Y-108280021D01*
X172934511Y-108240460D01*
X172990460Y-108184511D01*
X174838152Y-106336819D01*
X174899475Y-106303334D01*
X174925833Y-106300500D01*
X175324167Y-106300500D01*
X175391206Y-106320185D01*
X175411848Y-106336819D01*
X175643431Y-106568402D01*
X175676916Y-106629725D01*
X175671932Y-106699417D01*
X175630060Y-106755350D01*
X175564596Y-106779767D01*
X175555750Y-106780083D01*
X174879855Y-106780083D01*
X174837572Y-106791413D01*
X174803427Y-106800562D01*
X174777882Y-106815310D01*
X174745491Y-106834012D01*
X174738596Y-106837992D01*
X174734902Y-106840125D01*
X174734901Y-106840126D01*
X168911848Y-112663181D01*
X168850525Y-112696666D01*
X168824167Y-112699500D01*
X165425833Y-112699500D01*
X165358794Y-112679815D01*
X165338152Y-112663181D01*
X164684512Y-112009541D01*
X164684507Y-112009537D01*
X164667987Y-111999999D01*
X164667985Y-111999999D01*
X164638915Y-111983215D01*
X164615990Y-111969979D01*
X164590513Y-111963152D01*
X164539562Y-111949500D01*
X164539560Y-111949500D01*
X164208832Y-111949500D01*
X164141793Y-111929815D01*
X164106782Y-111895941D01*
X164028183Y-111782071D01*
X163900852Y-111669266D01*
X163900849Y-111669263D01*
X163750226Y-111590210D01*
X163585056Y-111549500D01*
X163414944Y-111549500D01*
X163249773Y-111590210D01*
X163099150Y-111669263D01*
X162971816Y-111782072D01*
X162875182Y-111922068D01*
X162814860Y-112081125D01*
X162814859Y-112081130D01*
X162794355Y-112250000D01*
X162814859Y-112418869D01*
X162814860Y-112418874D01*
X162875182Y-112577931D01*
X162934027Y-112663181D01*
X162971817Y-112717929D01*
X163077505Y-112811560D01*
X163099150Y-112830736D01*
X163249773Y-112909789D01*
X163249775Y-112909790D01*
X163414944Y-112950500D01*
X163585056Y-112950500D01*
X163750225Y-112909790D01*
X163829692Y-112868081D01*
X163900849Y-112830736D01*
X163900850Y-112830734D01*
X163900852Y-112830734D01*
X164028183Y-112717929D01*
X164106782Y-112604058D01*
X164161065Y-112560069D01*
X164208832Y-112550500D01*
X164324167Y-112550500D01*
X164391206Y-112570185D01*
X164411848Y-112586819D01*
X164737347Y-112912318D01*
X164770832Y-112973641D01*
X164765848Y-113043333D01*
X164737347Y-113087680D01*
X163944258Y-113880769D01*
X163894901Y-113911017D01*
X163890343Y-113912498D01*
X163890339Y-113912499D01*
X163890339Y-113912500D01*
X163791413Y-113962905D01*
X163791412Y-113962906D01*
X163791407Y-113962909D01*
X163712909Y-114041407D01*
X163712904Y-114041414D01*
X163662498Y-114140341D01*
X163645131Y-114249997D01*
X163645131Y-114250002D01*
X163662498Y-114359658D01*
X163712904Y-114458585D01*
X163712909Y-114458592D01*
X163791407Y-114537090D01*
X163791410Y-114537092D01*
X163791413Y-114537095D01*
X163871557Y-114577930D01*
X163890341Y-114587501D01*
X163999998Y-114604869D01*
X164000000Y-114604869D01*
X164000002Y-114604869D01*
X164109658Y-114587501D01*
X164109659Y-114587500D01*
X164109661Y-114587500D01*
X164208587Y-114537095D01*
X164287095Y-114458587D01*
X164337500Y-114359661D01*
X164337501Y-114359648D01*
X164338980Y-114355103D01*
X164369229Y-114305740D01*
X165338152Y-113336819D01*
X165399475Y-113303334D01*
X165425833Y-113300500D01*
X168964759Y-113300500D01*
X169031798Y-113320185D01*
X169077553Y-113372989D01*
X169087497Y-113442147D01*
X169058472Y-113505703D01*
X169052440Y-113512181D01*
X168651440Y-113913181D01*
X168590117Y-113946666D01*
X168563759Y-113949500D01*
X167708832Y-113949500D01*
X167641793Y-113929815D01*
X167606782Y-113895941D01*
X167528183Y-113782071D01*
X167400852Y-113669266D01*
X167400849Y-113669263D01*
X167250226Y-113590210D01*
X167085056Y-113549500D01*
X166914944Y-113549500D01*
X166749773Y-113590210D01*
X166599150Y-113669263D01*
X166471816Y-113782072D01*
X166375182Y-113922068D01*
X166314860Y-114081125D01*
X166314859Y-114081130D01*
X166294355Y-114250000D01*
X166314859Y-114418869D01*
X166314860Y-114418874D01*
X166375182Y-114577931D01*
X166437475Y-114668177D01*
X166471817Y-114717929D01*
X166577505Y-114811560D01*
X166599150Y-114830736D01*
X166749773Y-114909789D01*
X166749775Y-114909790D01*
X166914944Y-114950500D01*
X167085056Y-114950500D01*
X167250225Y-114909790D01*
X167329692Y-114868081D01*
X167400849Y-114830736D01*
X167400850Y-114830734D01*
X167400852Y-114830734D01*
X167528183Y-114717929D01*
X167606782Y-114604058D01*
X167661065Y-114560069D01*
X167708832Y-114550500D01*
X168779152Y-114550500D01*
X168779154Y-114550500D01*
X168855581Y-114530021D01*
X168924103Y-114490460D01*
X168980052Y-114434511D01*
X172568402Y-110846159D01*
X172629725Y-110812675D01*
X172699417Y-110817659D01*
X172755350Y-110859531D01*
X172779767Y-110924995D01*
X172780083Y-110933841D01*
X172780083Y-110950689D01*
X172760398Y-111017728D01*
X172743764Y-111038370D01*
X167724002Y-116058131D01*
X167662679Y-116091616D01*
X167592987Y-116086632D01*
X167537054Y-116044760D01*
X167534273Y-116040894D01*
X167533352Y-116039560D01*
X167528183Y-116032071D01*
X167400852Y-115919266D01*
X167400849Y-115919263D01*
X167250226Y-115840210D01*
X167085056Y-115799500D01*
X166914944Y-115799500D01*
X166749773Y-115840210D01*
X166599150Y-115919263D01*
X166471816Y-116032072D01*
X166375182Y-116172068D01*
X166314860Y-116331125D01*
X166314859Y-116331130D01*
X166294355Y-116500000D01*
X166314859Y-116668869D01*
X166314860Y-116668874D01*
X166375182Y-116827931D01*
X166408037Y-116875529D01*
X166471817Y-116967929D01*
X166557451Y-117043794D01*
X166599150Y-117080736D01*
X166749773Y-117159789D01*
X166749775Y-117159790D01*
X166914944Y-117200500D01*
X167085056Y-117200500D01*
X167250225Y-117159790D01*
X167329692Y-117118081D01*
X167400849Y-117080736D01*
X167400850Y-117080734D01*
X167400852Y-117080734D01*
X167528183Y-116967929D01*
X167606782Y-116854058D01*
X167661065Y-116810069D01*
X167708832Y-116800500D01*
X167746666Y-116800500D01*
X167746668Y-116800500D01*
X167823095Y-116780021D01*
X167891617Y-116740460D01*
X167947566Y-116684511D01*
X173321043Y-111311034D01*
X173360604Y-111242512D01*
X173381083Y-111166085D01*
X173381083Y-110121057D01*
X173394598Y-110064763D01*
X173406498Y-110041407D01*
X173418083Y-110018671D01*
X173418083Y-110018669D01*
X173418084Y-110018668D01*
X173435452Y-109909012D01*
X173435452Y-109909007D01*
X173418084Y-109799351D01*
X173411837Y-109787090D01*
X173367678Y-109700423D01*
X173367675Y-109700420D01*
X173367673Y-109700417D01*
X173289175Y-109621919D01*
X173289171Y-109621916D01*
X173289170Y-109621915D01*
X173190244Y-109571510D01*
X173190242Y-109571509D01*
X173190241Y-109571509D01*
X173139874Y-109563531D01*
X173076740Y-109533601D01*
X173039810Y-109474289D01*
X173040808Y-109404426D01*
X173071591Y-109353379D01*
X175007569Y-107417402D01*
X175068892Y-107383917D01*
X175095250Y-107381083D01*
X175696962Y-107381083D01*
X175753254Y-107394596D01*
X175799349Y-107418083D01*
X175799350Y-107418083D01*
X175799352Y-107418084D01*
X175909008Y-107435452D01*
X175909010Y-107435452D01*
X175909012Y-107435452D01*
X176018668Y-107418084D01*
X176018669Y-107418083D01*
X176018671Y-107418083D01*
X176117597Y-107367678D01*
X176192472Y-107292802D01*
X176253793Y-107259319D01*
X176323485Y-107264303D01*
X176367833Y-107292804D01*
X177663181Y-108588152D01*
X177696666Y-108649475D01*
X177699500Y-108675833D01*
X177699500Y-110088981D01*
X177679815Y-110156020D01*
X177627011Y-110201775D01*
X177557853Y-110211719D01*
X177494297Y-110182694D01*
X177465015Y-110145276D01*
X177462500Y-110140340D01*
X177462500Y-110140339D01*
X177412095Y-110041413D01*
X177412093Y-110041411D01*
X177412090Y-110041407D01*
X177333592Y-109962909D01*
X177333588Y-109962906D01*
X177333587Y-109962905D01*
X177329743Y-109960946D01*
X177234658Y-109912498D01*
X177125002Y-109895131D01*
X177124998Y-109895131D01*
X177015341Y-109912498D01*
X176916414Y-109962904D01*
X176916407Y-109962909D01*
X176837909Y-110041407D01*
X176837907Y-110041411D01*
X176837905Y-110041413D01*
X176810238Y-110095713D01*
X176787498Y-110140343D01*
X176786017Y-110144901D01*
X176755769Y-110194258D01*
X168286848Y-118663181D01*
X168225525Y-118696666D01*
X168199167Y-118699500D01*
X161925833Y-118699500D01*
X161858794Y-118679815D01*
X161838152Y-118663181D01*
X160086819Y-116911848D01*
X160053334Y-116850525D01*
X160050500Y-116824167D01*
X160050500Y-105049997D01*
X170207631Y-105049997D01*
X170207631Y-105050002D01*
X170224998Y-105159658D01*
X170275404Y-105258585D01*
X170275409Y-105258592D01*
X170353907Y-105337090D01*
X170353910Y-105337092D01*
X170353913Y-105337095D01*
X170452839Y-105387500D01*
X170452841Y-105387501D01*
X170562498Y-105404869D01*
X170562500Y-105404869D01*
X170562502Y-105404869D01*
X170672157Y-105387501D01*
X170672158Y-105387500D01*
X170672161Y-105387500D01*
X170718255Y-105364013D01*
X170774548Y-105350500D01*
X182049167Y-105350500D01*
X182116206Y-105370185D01*
X182136848Y-105386819D01*
X183755768Y-107005739D01*
X183786016Y-107055096D01*
X183787498Y-107059656D01*
X183787499Y-107059659D01*
X183787500Y-107059661D01*
X183837905Y-107158587D01*
X183837907Y-107158589D01*
X183837909Y-107158592D01*
X183916407Y-107237090D01*
X183916410Y-107237092D01*
X183916413Y-107237095D01*
X184014534Y-107287090D01*
X184015341Y-107287501D01*
X184124998Y-107304869D01*
X184125000Y-107304869D01*
X184125002Y-107304869D01*
X184234657Y-107287501D01*
X184234658Y-107287500D01*
X184234661Y-107287500D01*
X184280755Y-107264013D01*
X184337048Y-107250500D01*
X184839560Y-107250500D01*
X184839562Y-107250500D01*
X184915989Y-107230021D01*
X184984511Y-107190460D01*
X185040460Y-107134511D01*
X186805740Y-105369229D01*
X186855103Y-105338980D01*
X186859648Y-105337501D01*
X186859661Y-105337500D01*
X186958587Y-105287095D01*
X187037095Y-105208587D01*
X187087500Y-105109661D01*
X187087500Y-105109659D01*
X187087501Y-105109658D01*
X187104869Y-105000002D01*
X187104869Y-104999997D01*
X187087501Y-104890341D01*
X187037095Y-104791413D01*
X187037090Y-104791407D01*
X186958592Y-104712909D01*
X186958588Y-104712906D01*
X186958587Y-104712905D01*
X186950112Y-104708587D01*
X186859658Y-104662498D01*
X186750002Y-104645131D01*
X186749998Y-104645131D01*
X186640341Y-104662498D01*
X186541414Y-104712904D01*
X186541407Y-104712909D01*
X186462909Y-104791407D01*
X186462906Y-104791412D01*
X186462905Y-104791413D01*
X186412500Y-104890339D01*
X186412498Y-104890343D01*
X186411017Y-104894901D01*
X186380769Y-104944258D01*
X184711848Y-106613181D01*
X184650525Y-106646666D01*
X184624167Y-106649500D01*
X184337048Y-106649500D01*
X184280754Y-106635985D01*
X184234659Y-106612499D01*
X184230096Y-106611016D01*
X184180739Y-106580768D01*
X182409510Y-104809539D01*
X182393812Y-104800476D01*
X182378114Y-104791413D01*
X182340991Y-104769980D01*
X182340990Y-104769979D01*
X182314585Y-104762904D01*
X182264562Y-104749500D01*
X182264560Y-104749500D01*
X181210537Y-104749500D01*
X181143498Y-104729815D01*
X181097743Y-104677011D01*
X181087799Y-104607853D01*
X181088064Y-104606102D01*
X181104869Y-104500001D01*
X181104869Y-104499997D01*
X181087501Y-104390341D01*
X181087500Y-104390339D01*
X181037095Y-104291413D01*
X181037092Y-104291410D01*
X181037090Y-104291407D01*
X180958592Y-104212909D01*
X180958588Y-104212906D01*
X180958587Y-104212905D01*
X180932278Y-104199500D01*
X180859658Y-104162498D01*
X180750002Y-104145131D01*
X180749998Y-104145131D01*
X180640342Y-104162498D01*
X180594245Y-104185986D01*
X180537952Y-104199500D01*
X179825833Y-104199500D01*
X179758794Y-104179815D01*
X179738152Y-104163181D01*
X179334512Y-103759541D01*
X179334511Y-103759540D01*
X179265988Y-103719979D01*
X179264999Y-103719408D01*
X179239317Y-103699701D01*
X177615933Y-102076317D01*
X177582448Y-102014994D01*
X177581141Y-102008033D01*
X177579868Y-101999997D01*
X177562500Y-101890339D01*
X177539015Y-101844245D01*
X177525500Y-101787951D01*
X177525500Y-98226375D01*
X177545185Y-98159336D01*
X177597989Y-98113581D01*
X177667147Y-98103637D01*
X177668837Y-98103892D01*
X177675000Y-98104869D01*
X177675000Y-98104868D01*
X177675001Y-98104869D01*
X177675002Y-98104869D01*
X177784658Y-98087501D01*
X177784659Y-98087500D01*
X177784661Y-98087500D01*
X177883587Y-98037095D01*
X177962095Y-97958587D01*
X178012500Y-97859661D01*
X178012500Y-97859659D01*
X178012501Y-97859658D01*
X178029869Y-97750002D01*
X178029869Y-97749997D01*
X178012500Y-97640339D01*
X178004090Y-97623833D01*
X177991193Y-97555164D01*
X178007186Y-97505540D01*
X178030021Y-97465989D01*
X178050500Y-97389562D01*
X178050500Y-92774041D01*
X179249500Y-92774041D01*
X179249500Y-98089562D01*
X179253343Y-98103903D01*
X179269979Y-98165990D01*
X179269982Y-98165995D01*
X179309535Y-98234504D01*
X179309541Y-98234512D01*
X181630768Y-100555739D01*
X181661016Y-100605096D01*
X181662498Y-100609656D01*
X181662499Y-100609659D01*
X181662500Y-100609661D01*
X181712905Y-100708587D01*
X181712907Y-100708589D01*
X181712909Y-100708592D01*
X181791407Y-100787090D01*
X181791410Y-100787092D01*
X181791413Y-100787095D01*
X181890339Y-100837500D01*
X181890341Y-100837501D01*
X181999998Y-100854869D01*
X182000000Y-100854869D01*
X182000002Y-100854869D01*
X182109658Y-100837501D01*
X182109659Y-100837500D01*
X182109661Y-100837500D01*
X182208587Y-100787095D01*
X182287095Y-100708587D01*
X182337500Y-100609661D01*
X182337500Y-100609659D01*
X182337501Y-100609658D01*
X182354869Y-100500002D01*
X182354869Y-100499997D01*
X182337501Y-100390341D01*
X182337500Y-100390339D01*
X182287095Y-100291413D01*
X182287092Y-100291410D01*
X182287090Y-100291407D01*
X182208592Y-100212909D01*
X182208589Y-100212907D01*
X182208587Y-100212905D01*
X182109661Y-100162500D01*
X182109659Y-100162499D01*
X182109656Y-100162498D01*
X182105096Y-100161016D01*
X182055739Y-100130768D01*
X179886819Y-97961848D01*
X179853334Y-97900525D01*
X179850500Y-97874167D01*
X179850500Y-96999997D01*
X180395131Y-96999997D01*
X180395131Y-97000002D01*
X180412498Y-97109658D01*
X180462904Y-97208585D01*
X180462909Y-97208592D01*
X180541407Y-97287090D01*
X180541410Y-97287092D01*
X180541413Y-97287095D01*
X180640339Y-97337500D01*
X180640341Y-97337501D01*
X180749998Y-97354869D01*
X180750000Y-97354869D01*
X180750002Y-97354869D01*
X180859657Y-97337501D01*
X180859658Y-97337500D01*
X180859661Y-97337500D01*
X180905755Y-97314013D01*
X180962048Y-97300500D01*
X184287952Y-97300500D01*
X184344244Y-97314013D01*
X184390339Y-97337500D01*
X184390340Y-97337500D01*
X184390342Y-97337501D01*
X184499998Y-97354869D01*
X184500000Y-97354869D01*
X184500002Y-97354869D01*
X184609658Y-97337501D01*
X184609659Y-97337500D01*
X184609661Y-97337500D01*
X184708587Y-97287095D01*
X184787095Y-97208587D01*
X184837500Y-97109661D01*
X184837500Y-97109659D01*
X184837501Y-97109658D01*
X184854869Y-97000002D01*
X184854869Y-96999997D01*
X184837501Y-96890341D01*
X184791725Y-96800500D01*
X184787095Y-96791413D01*
X184787092Y-96791410D01*
X184787090Y-96791407D01*
X184708592Y-96712909D01*
X184708588Y-96712906D01*
X184708587Y-96712905D01*
X184682253Y-96699487D01*
X184609658Y-96662498D01*
X184500002Y-96645131D01*
X184499998Y-96645131D01*
X184390342Y-96662498D01*
X184344245Y-96685986D01*
X184287952Y-96699500D01*
X184218457Y-96699500D01*
X184151418Y-96679815D01*
X184105663Y-96627011D01*
X184095719Y-96557853D01*
X184095984Y-96556103D01*
X184104869Y-96500003D01*
X184104869Y-96499997D01*
X184087501Y-96390341D01*
X184041725Y-96300500D01*
X184037095Y-96291413D01*
X184037092Y-96291410D01*
X184037090Y-96291407D01*
X183958592Y-96212909D01*
X183958586Y-96212904D01*
X183932278Y-96199500D01*
X183911681Y-96189005D01*
X183860887Y-96141033D01*
X183844091Y-96073213D01*
X183845502Y-96059135D01*
X183854869Y-96000000D01*
X183848994Y-95962905D01*
X183837501Y-95890341D01*
X183829133Y-95873917D01*
X183787095Y-95791413D01*
X183787092Y-95791410D01*
X183787090Y-95791407D01*
X183708592Y-95712909D01*
X183708588Y-95712906D01*
X183708587Y-95712905D01*
X183682278Y-95699500D01*
X183609658Y-95662498D01*
X183500002Y-95645131D01*
X183499998Y-95645131D01*
X183390342Y-95662498D01*
X183344245Y-95685986D01*
X183287952Y-95699500D01*
X182212048Y-95699500D01*
X182155755Y-95685986D01*
X182109657Y-95662498D01*
X182000002Y-95645131D01*
X181999998Y-95645131D01*
X181890341Y-95662498D01*
X181791414Y-95712904D01*
X181791407Y-95712909D01*
X181712909Y-95791407D01*
X181712904Y-95791414D01*
X181662498Y-95890341D01*
X181645131Y-95999997D01*
X181645131Y-96000003D01*
X181645744Y-96003874D01*
X181645131Y-96008617D01*
X181645131Y-96009759D01*
X181644983Y-96009759D01*
X181636789Y-96073167D01*
X181591793Y-96126619D01*
X181525041Y-96147258D01*
X181503874Y-96145744D01*
X181500004Y-96145131D01*
X181499998Y-96145131D01*
X181390341Y-96162498D01*
X181291414Y-96212904D01*
X181291407Y-96212909D01*
X181212909Y-96291407D01*
X181212904Y-96291414D01*
X181162498Y-96390341D01*
X181145131Y-96499997D01*
X181145131Y-96500003D01*
X181154016Y-96556103D01*
X181145061Y-96625396D01*
X181100065Y-96678848D01*
X181033313Y-96699487D01*
X181031543Y-96699500D01*
X180962048Y-96699500D01*
X180905755Y-96685986D01*
X180859657Y-96662498D01*
X180750002Y-96645131D01*
X180749998Y-96645131D01*
X180640341Y-96662498D01*
X180541414Y-96712904D01*
X180541407Y-96712909D01*
X180462909Y-96791407D01*
X180462904Y-96791414D01*
X180412498Y-96890341D01*
X180395131Y-96999997D01*
X179850500Y-96999997D01*
X179850500Y-93476375D01*
X179870185Y-93409336D01*
X179922989Y-93363581D01*
X179992147Y-93353637D01*
X179993837Y-93353892D01*
X180000000Y-93354869D01*
X180003867Y-93354256D01*
X180008611Y-93354869D01*
X180009759Y-93354869D01*
X180009759Y-93355017D01*
X180073159Y-93363206D01*
X180126614Y-93408199D01*
X180147258Y-93474949D01*
X180145745Y-93496122D01*
X180145744Y-93496133D01*
X180145131Y-93500001D01*
X180145131Y-93500002D01*
X180162498Y-93609658D01*
X180212904Y-93708585D01*
X180212909Y-93708592D01*
X180291407Y-93787090D01*
X180291410Y-93787092D01*
X180291413Y-93787095D01*
X180377164Y-93830787D01*
X180390341Y-93837501D01*
X180499998Y-93854869D01*
X180500000Y-93854869D01*
X180500002Y-93854869D01*
X180523766Y-93851105D01*
X180593059Y-93860059D01*
X180646511Y-93905055D01*
X180667151Y-93971807D01*
X180648426Y-94039121D01*
X180636878Y-94054780D01*
X180574623Y-94126627D01*
X180574622Y-94126628D01*
X180514834Y-94257543D01*
X180494353Y-94400000D01*
X180514834Y-94542456D01*
X180556213Y-94633061D01*
X180574623Y-94673373D01*
X180668872Y-94782143D01*
X180789947Y-94859953D01*
X180789950Y-94859954D01*
X180789949Y-94859954D01*
X180928036Y-94900499D01*
X180928038Y-94900500D01*
X180928039Y-94900500D01*
X181071962Y-94900500D01*
X181071962Y-94900499D01*
X181210053Y-94859953D01*
X181331128Y-94782143D01*
X181364788Y-94743296D01*
X181423567Y-94705523D01*
X181458501Y-94700500D01*
X182541499Y-94700500D01*
X182608538Y-94720185D01*
X182635211Y-94743296D01*
X182668872Y-94782143D01*
X182789947Y-94859953D01*
X182789950Y-94859954D01*
X182789949Y-94859954D01*
X182928036Y-94900499D01*
X182928038Y-94900500D01*
X182928039Y-94900500D01*
X183071962Y-94900500D01*
X183071962Y-94900499D01*
X183210053Y-94859953D01*
X183331128Y-94782143D01*
X183425377Y-94673373D01*
X183485165Y-94542457D01*
X183505647Y-94400000D01*
X183485165Y-94257543D01*
X183425377Y-94126627D01*
X183331128Y-94017857D01*
X183245495Y-93962824D01*
X183199741Y-93910021D01*
X183189797Y-93840862D01*
X183218822Y-93777306D01*
X183224840Y-93770841D01*
X183287095Y-93708587D01*
X183337500Y-93609661D01*
X183337500Y-93609659D01*
X183337501Y-93609658D01*
X183354869Y-93500002D01*
X183354869Y-93499996D01*
X183345984Y-93443897D01*
X183354939Y-93374604D01*
X183399935Y-93321152D01*
X183466687Y-93300513D01*
X183468457Y-93300500D01*
X184037952Y-93300500D01*
X184094244Y-93314013D01*
X184140339Y-93337500D01*
X184140340Y-93337500D01*
X184140342Y-93337501D01*
X184249998Y-93354869D01*
X184250000Y-93354869D01*
X184250002Y-93354869D01*
X184359658Y-93337501D01*
X184359659Y-93337500D01*
X184359661Y-93337500D01*
X184458587Y-93287095D01*
X184537095Y-93208587D01*
X184587500Y-93109661D01*
X184587500Y-93109659D01*
X184587501Y-93109658D01*
X184604869Y-93000002D01*
X184604869Y-92999997D01*
X184587501Y-92890341D01*
X184587500Y-92890339D01*
X184537095Y-92791413D01*
X184537092Y-92791410D01*
X184537090Y-92791407D01*
X184458592Y-92712909D01*
X184458588Y-92712906D01*
X184458587Y-92712905D01*
X184428563Y-92697607D01*
X184359658Y-92662498D01*
X184250002Y-92645131D01*
X184249998Y-92645131D01*
X184140342Y-92662498D01*
X184094245Y-92685986D01*
X184037952Y-92699500D01*
X180388435Y-92699500D01*
X180321396Y-92679815D01*
X180275641Y-92627011D01*
X180265697Y-92557853D01*
X180294722Y-92494297D01*
X180300754Y-92487819D01*
X180729033Y-92059540D01*
X181898094Y-90890478D01*
X181959415Y-90856995D01*
X181990240Y-90856116D01*
X181990240Y-90854869D01*
X182000002Y-90854869D01*
X182109658Y-90837501D01*
X182109659Y-90837500D01*
X182109661Y-90837500D01*
X182208587Y-90787095D01*
X182287095Y-90708587D01*
X182337500Y-90609661D01*
X182337500Y-90609659D01*
X182337501Y-90609658D01*
X182354869Y-90500002D01*
X182354869Y-90499997D01*
X182337501Y-90390341D01*
X182337500Y-90390339D01*
X182287095Y-90291413D01*
X182287092Y-90291410D01*
X182287090Y-90291407D01*
X182208592Y-90212909D01*
X182208588Y-90212906D01*
X182208587Y-90212905D01*
X182204743Y-90210946D01*
X182109658Y-90162498D01*
X182000002Y-90145131D01*
X181999998Y-90145131D01*
X181890342Y-90162498D01*
X181822324Y-90197155D01*
X181798125Y-90206444D01*
X181747613Y-90219978D01*
X181679092Y-90259540D01*
X181679089Y-90259542D01*
X179309541Y-92629090D01*
X179309535Y-92629098D01*
X179269982Y-92697607D01*
X179269979Y-92697612D01*
X179256326Y-92748565D01*
X179249500Y-92774041D01*
X178050500Y-92774041D01*
X178050500Y-86957047D01*
X178064015Y-86900753D01*
X178087500Y-86854661D01*
X178087500Y-86854659D01*
X178087501Y-86854658D01*
X178104869Y-86745002D01*
X178104869Y-86744997D01*
X178087501Y-86635341D01*
X178064014Y-86589245D01*
X178037095Y-86536413D01*
X178037092Y-86536410D01*
X178037090Y-86536407D01*
X177958592Y-86457909D01*
X177958588Y-86457906D01*
X177958587Y-86457905D01*
X177954743Y-86455946D01*
X177859658Y-86407498D01*
X177750002Y-86390131D01*
X177749998Y-86390131D01*
X177668898Y-86402976D01*
X177599604Y-86394021D01*
X177546153Y-86349025D01*
X177525513Y-86282274D01*
X177525500Y-86280503D01*
X177525500Y-85529234D01*
X179814500Y-85529234D01*
X179814500Y-85680766D01*
X179818671Y-85696332D01*
X179853719Y-85827136D01*
X179862114Y-85841676D01*
X179929485Y-85958365D01*
X180036635Y-86065515D01*
X180167865Y-86141281D01*
X180314234Y-86180500D01*
X180314236Y-86180500D01*
X180465764Y-86180500D01*
X180465766Y-86180500D01*
X180612135Y-86141281D01*
X180743365Y-86065515D01*
X180850515Y-85958365D01*
X180926281Y-85827135D01*
X180965500Y-85680766D01*
X180965500Y-85529234D01*
X180926281Y-85382865D01*
X180850515Y-85251635D01*
X180743365Y-85144485D01*
X180677750Y-85106602D01*
X180612136Y-85068719D01*
X180510204Y-85041407D01*
X180465766Y-85029500D01*
X180314234Y-85029500D01*
X180167863Y-85068719D01*
X180036635Y-85144485D01*
X180036632Y-85144487D01*
X179929487Y-85251632D01*
X179929485Y-85251635D01*
X179853719Y-85382863D01*
X179830323Y-85470182D01*
X179814500Y-85529234D01*
X177525500Y-85529234D01*
X177525500Y-85511112D01*
X177539014Y-85454820D01*
X177587500Y-85359661D01*
X177604869Y-85250000D01*
X177604869Y-85249997D01*
X177587501Y-85140341D01*
X177551008Y-85068719D01*
X177537095Y-85041413D01*
X177537092Y-85041410D01*
X177537090Y-85041407D01*
X177458592Y-84962909D01*
X177458588Y-84962906D01*
X177458587Y-84962905D01*
X177407555Y-84936903D01*
X177359658Y-84912498D01*
X177250002Y-84895131D01*
X177249998Y-84895131D01*
X177140341Y-84912498D01*
X177041414Y-84962904D01*
X177041407Y-84962909D01*
X176962909Y-85041407D01*
X176962904Y-85041414D01*
X176912498Y-85140341D01*
X176895131Y-85249997D01*
X176895131Y-85250002D01*
X176912498Y-85359656D01*
X176912499Y-85359659D01*
X176912500Y-85359661D01*
X176960985Y-85454820D01*
X176974500Y-85511112D01*
X176974500Y-86483887D01*
X176960985Y-86540181D01*
X176912498Y-86635341D01*
X176895131Y-86744997D01*
X176895131Y-86745002D01*
X176912498Y-86854656D01*
X176912499Y-86854659D01*
X176912500Y-86854661D01*
X176960985Y-86949820D01*
X176974500Y-87006112D01*
X176974500Y-101703455D01*
X176954815Y-101770494D01*
X176938181Y-101791136D01*
X176937909Y-101791407D01*
X176937904Y-101791414D01*
X176887498Y-101890341D01*
X176870131Y-101999997D01*
X176870131Y-102000002D01*
X176887498Y-102109658D01*
X176887500Y-102109661D01*
X176937905Y-102208587D01*
X177016413Y-102287095D01*
X177062254Y-102310452D01*
X177093641Y-102333256D01*
X178849701Y-104089317D01*
X178869408Y-104114999D01*
X178909539Y-104184509D01*
X178909541Y-104184512D01*
X179262848Y-104537819D01*
X179296333Y-104599142D01*
X179291349Y-104668834D01*
X179249477Y-104724767D01*
X179184013Y-104749184D01*
X179175167Y-104749500D01*
X170774548Y-104749500D01*
X170718255Y-104735986D01*
X170672157Y-104712498D01*
X170562502Y-104695131D01*
X170562498Y-104695131D01*
X170452841Y-104712498D01*
X170353914Y-104762904D01*
X170353907Y-104762909D01*
X170275409Y-104841407D01*
X170275404Y-104841414D01*
X170224998Y-104940341D01*
X170207631Y-105049997D01*
X160050500Y-105049997D01*
X160050500Y-90499997D01*
X165145131Y-90499997D01*
X165145131Y-90500002D01*
X165162498Y-90609658D01*
X165185985Y-90655753D01*
X165199500Y-90712047D01*
X165199500Y-96289562D01*
X165211218Y-96333294D01*
X165219979Y-96365990D01*
X165219982Y-96365995D01*
X165259535Y-96434504D01*
X165259541Y-96434512D01*
X166630768Y-97805739D01*
X166661016Y-97855096D01*
X166662498Y-97859656D01*
X166662499Y-97859659D01*
X166662500Y-97859661D01*
X166712905Y-97958587D01*
X166712907Y-97958589D01*
X166712909Y-97958592D01*
X166791407Y-98037090D01*
X166791410Y-98037092D01*
X166791413Y-98037095D01*
X166890339Y-98087500D01*
X166890341Y-98087501D01*
X166999998Y-98104869D01*
X167000000Y-98104869D01*
X167000002Y-98104869D01*
X167109658Y-98087501D01*
X167109659Y-98087500D01*
X167109661Y-98087500D01*
X167208587Y-98037095D01*
X167287095Y-97958587D01*
X167337500Y-97859661D01*
X167337500Y-97859659D01*
X167337501Y-97859658D01*
X167354869Y-97750002D01*
X167354869Y-97749997D01*
X167337501Y-97640341D01*
X167300743Y-97568199D01*
X167287095Y-97541413D01*
X167287092Y-97541410D01*
X167287090Y-97541407D01*
X167208592Y-97462909D01*
X167208589Y-97462907D01*
X167208587Y-97462905D01*
X167109661Y-97412500D01*
X167109659Y-97412499D01*
X167109656Y-97412498D01*
X167105096Y-97411016D01*
X167055739Y-97380768D01*
X165836819Y-96161848D01*
X165803334Y-96100525D01*
X165800500Y-96074167D01*
X165800500Y-92260438D01*
X170249500Y-92260438D01*
X170249500Y-98089562D01*
X170253343Y-98103903D01*
X170269979Y-98165990D01*
X170269982Y-98165995D01*
X170309535Y-98234504D01*
X170309541Y-98234512D01*
X172630768Y-100555739D01*
X172661016Y-100605096D01*
X172662498Y-100609656D01*
X172662499Y-100609659D01*
X172662500Y-100609661D01*
X172712905Y-100708587D01*
X172712907Y-100708589D01*
X172712909Y-100708592D01*
X172791407Y-100787090D01*
X172791410Y-100787092D01*
X172791413Y-100787095D01*
X172890339Y-100837500D01*
X172890341Y-100837501D01*
X172999998Y-100854869D01*
X173000000Y-100854869D01*
X173000002Y-100854869D01*
X173109658Y-100837501D01*
X173109659Y-100837500D01*
X173109661Y-100837500D01*
X173208587Y-100787095D01*
X173287095Y-100708587D01*
X173337500Y-100609661D01*
X173337500Y-100609659D01*
X173337501Y-100609658D01*
X173354869Y-100500002D01*
X173354869Y-100499997D01*
X173337501Y-100390341D01*
X173337500Y-100390339D01*
X173287095Y-100291413D01*
X173287092Y-100291410D01*
X173287090Y-100291407D01*
X173208592Y-100212909D01*
X173208589Y-100212907D01*
X173208587Y-100212905D01*
X173109661Y-100162500D01*
X173109659Y-100162499D01*
X173109656Y-100162498D01*
X173105096Y-100161016D01*
X173055739Y-100130768D01*
X170886819Y-97961848D01*
X170853334Y-97900525D01*
X170850500Y-97874167D01*
X170850500Y-96999997D01*
X171145131Y-96999997D01*
X171145131Y-97000002D01*
X171162498Y-97109658D01*
X171212904Y-97208585D01*
X171212909Y-97208592D01*
X171291407Y-97287090D01*
X171291410Y-97287092D01*
X171291413Y-97287095D01*
X171390339Y-97337500D01*
X171390341Y-97337501D01*
X171499998Y-97354869D01*
X171500000Y-97354869D01*
X171500002Y-97354869D01*
X171609657Y-97337501D01*
X171609658Y-97337500D01*
X171609661Y-97337500D01*
X171655755Y-97314013D01*
X171712048Y-97300500D01*
X174787952Y-97300500D01*
X174844244Y-97314013D01*
X174890339Y-97337500D01*
X174890340Y-97337500D01*
X174890342Y-97337501D01*
X174999998Y-97354869D01*
X175000000Y-97354869D01*
X175000002Y-97354869D01*
X175109658Y-97337501D01*
X175109659Y-97337500D01*
X175109661Y-97337500D01*
X175208587Y-97287095D01*
X175287095Y-97208587D01*
X175337500Y-97109661D01*
X175337500Y-97109659D01*
X175337501Y-97109658D01*
X175354869Y-97000002D01*
X175354869Y-96999997D01*
X175337501Y-96890341D01*
X175291725Y-96800500D01*
X175287095Y-96791413D01*
X175287092Y-96791410D01*
X175287090Y-96791407D01*
X175208592Y-96712909D01*
X175208586Y-96712904D01*
X175182278Y-96699500D01*
X175161681Y-96689005D01*
X175110887Y-96641033D01*
X175094091Y-96573213D01*
X175095502Y-96559135D01*
X175104869Y-96500000D01*
X175098310Y-96458587D01*
X175087501Y-96390341D01*
X175041725Y-96300500D01*
X175037095Y-96291413D01*
X175037092Y-96291410D01*
X175037090Y-96291407D01*
X174958592Y-96212909D01*
X174958586Y-96212904D01*
X174932278Y-96199500D01*
X174911681Y-96189005D01*
X174860887Y-96141033D01*
X174844091Y-96073213D01*
X174845502Y-96059135D01*
X174854869Y-96000000D01*
X174848994Y-95962905D01*
X174837501Y-95890341D01*
X174829133Y-95873917D01*
X174787095Y-95791413D01*
X174787092Y-95791410D01*
X174787090Y-95791407D01*
X174708592Y-95712909D01*
X174708588Y-95712906D01*
X174708587Y-95712905D01*
X174682278Y-95699500D01*
X174609658Y-95662498D01*
X174500002Y-95645131D01*
X174499998Y-95645131D01*
X174390342Y-95662498D01*
X174344245Y-95685986D01*
X174287952Y-95699500D01*
X172712048Y-95699500D01*
X172655755Y-95685986D01*
X172609657Y-95662498D01*
X172500002Y-95645131D01*
X172499998Y-95645131D01*
X172390341Y-95662498D01*
X172291414Y-95712904D01*
X172291407Y-95712909D01*
X172212909Y-95791407D01*
X172212904Y-95791414D01*
X172162498Y-95890341D01*
X172145131Y-95999997D01*
X172145131Y-96000002D01*
X172162498Y-96109658D01*
X172205323Y-96193706D01*
X172218219Y-96262375D01*
X172205323Y-96306294D01*
X172162498Y-96390341D01*
X172145131Y-96499997D01*
X172145131Y-96500003D01*
X172154016Y-96556103D01*
X172145061Y-96625396D01*
X172100065Y-96678848D01*
X172033313Y-96699487D01*
X172031543Y-96699500D01*
X171712048Y-96699500D01*
X171655755Y-96685986D01*
X171609657Y-96662498D01*
X171500002Y-96645131D01*
X171499998Y-96645131D01*
X171390341Y-96662498D01*
X171291414Y-96712904D01*
X171291407Y-96712909D01*
X171212909Y-96791407D01*
X171212904Y-96791414D01*
X171162498Y-96890341D01*
X171145131Y-96999997D01*
X170850500Y-96999997D01*
X170850500Y-93476375D01*
X170870185Y-93409336D01*
X170922989Y-93363581D01*
X170992147Y-93353637D01*
X170993837Y-93353892D01*
X171000000Y-93354869D01*
X171003867Y-93354256D01*
X171008611Y-93354869D01*
X171009759Y-93354869D01*
X171009759Y-93355017D01*
X171073159Y-93363206D01*
X171126614Y-93408199D01*
X171147258Y-93474949D01*
X171145745Y-93496122D01*
X171145744Y-93496133D01*
X171145131Y-93500001D01*
X171145131Y-93500002D01*
X171162498Y-93609658D01*
X171212904Y-93708585D01*
X171212909Y-93708592D01*
X171291407Y-93787090D01*
X171291410Y-93787092D01*
X171291413Y-93787095D01*
X171377164Y-93830787D01*
X171390341Y-93837501D01*
X171499998Y-93854869D01*
X171500000Y-93854869D01*
X171500002Y-93854869D01*
X171523766Y-93851105D01*
X171593059Y-93860059D01*
X171646511Y-93905055D01*
X171667151Y-93971807D01*
X171648426Y-94039121D01*
X171636878Y-94054780D01*
X171574623Y-94126627D01*
X171574622Y-94126628D01*
X171514834Y-94257543D01*
X171494353Y-94400000D01*
X171514834Y-94542456D01*
X171556213Y-94633061D01*
X171574623Y-94673373D01*
X171668872Y-94782143D01*
X171789947Y-94859953D01*
X171789950Y-94859954D01*
X171789949Y-94859954D01*
X171928036Y-94900499D01*
X171928038Y-94900500D01*
X171928039Y-94900500D01*
X172071962Y-94900500D01*
X172071962Y-94900499D01*
X172210053Y-94859953D01*
X172331128Y-94782143D01*
X172364788Y-94743296D01*
X172423567Y-94705523D01*
X172458501Y-94700500D01*
X173541499Y-94700500D01*
X173608538Y-94720185D01*
X173635211Y-94743296D01*
X173668872Y-94782143D01*
X173789947Y-94859953D01*
X173789950Y-94859954D01*
X173789949Y-94859954D01*
X173928036Y-94900499D01*
X173928038Y-94900500D01*
X173928039Y-94900500D01*
X174071962Y-94900500D01*
X174071962Y-94900499D01*
X174210053Y-94859953D01*
X174331128Y-94782143D01*
X174425377Y-94673373D01*
X174485165Y-94542457D01*
X174505647Y-94400000D01*
X174485165Y-94257543D01*
X174425377Y-94126627D01*
X174331128Y-94017857D01*
X174210053Y-93940047D01*
X174210050Y-93940045D01*
X174097681Y-93907051D01*
X174038903Y-93869277D01*
X174009878Y-93805721D01*
X174019822Y-93736562D01*
X174032299Y-93715187D01*
X174037087Y-93708594D01*
X174037095Y-93708587D01*
X174087500Y-93609661D01*
X174087500Y-93609659D01*
X174087501Y-93609658D01*
X174104869Y-93500002D01*
X174104869Y-93500001D01*
X174104868Y-93499996D01*
X174104256Y-93496131D01*
X174104869Y-93491387D01*
X174104869Y-93490241D01*
X174105017Y-93490241D01*
X174113207Y-93426839D01*
X174158200Y-93373384D01*
X174224951Y-93352741D01*
X174246127Y-93354255D01*
X174250000Y-93354869D01*
X174250001Y-93354868D01*
X174250002Y-93354869D01*
X174359658Y-93337501D01*
X174359659Y-93337500D01*
X174359661Y-93337500D01*
X174458587Y-93287095D01*
X174537095Y-93208587D01*
X174587500Y-93109661D01*
X174587500Y-93109659D01*
X174587501Y-93109658D01*
X174604869Y-93000002D01*
X174604869Y-92999997D01*
X174587501Y-92890341D01*
X174587500Y-92890339D01*
X174537095Y-92791413D01*
X174537092Y-92791410D01*
X174537090Y-92791407D01*
X174458592Y-92712909D01*
X174458588Y-92712906D01*
X174458587Y-92712905D01*
X174428563Y-92697607D01*
X174359658Y-92662498D01*
X174250002Y-92645131D01*
X174249998Y-92645131D01*
X174140342Y-92662498D01*
X174094245Y-92685986D01*
X174037952Y-92699500D01*
X171212048Y-92699500D01*
X171155755Y-92685986D01*
X171109657Y-92662498D01*
X171000002Y-92645131D01*
X171000001Y-92645131D01*
X171000000Y-92645131D01*
X170993895Y-92646097D01*
X170924604Y-92637142D01*
X170871152Y-92592145D01*
X170850513Y-92525394D01*
X170850500Y-92523624D01*
X170850500Y-92475833D01*
X170870185Y-92408794D01*
X170886819Y-92388152D01*
X172438152Y-90836819D01*
X172499475Y-90803334D01*
X172525833Y-90800500D01*
X172787952Y-90800500D01*
X172844244Y-90814013D01*
X172890339Y-90837500D01*
X172890340Y-90837500D01*
X172890342Y-90837501D01*
X172999998Y-90854869D01*
X173000000Y-90854869D01*
X173000002Y-90854869D01*
X173109658Y-90837501D01*
X173109659Y-90837500D01*
X173109661Y-90837500D01*
X173208587Y-90787095D01*
X173287095Y-90708587D01*
X173337500Y-90609661D01*
X173337500Y-90609659D01*
X173337501Y-90609658D01*
X173354869Y-90500002D01*
X173354869Y-90499997D01*
X173337501Y-90390341D01*
X173337500Y-90390339D01*
X173287095Y-90291413D01*
X173287092Y-90291410D01*
X173287090Y-90291407D01*
X173208592Y-90212909D01*
X173208588Y-90212906D01*
X173208587Y-90212905D01*
X173204743Y-90210946D01*
X173109658Y-90162498D01*
X173000002Y-90145131D01*
X172999998Y-90145131D01*
X172890342Y-90162498D01*
X172844245Y-90185986D01*
X172787952Y-90199500D01*
X172310438Y-90199500D01*
X172272224Y-90209739D01*
X172234009Y-90219979D01*
X172234004Y-90219982D01*
X172165495Y-90259535D01*
X172165487Y-90259541D01*
X170309541Y-92115487D01*
X170309535Y-92115495D01*
X170269982Y-92184004D01*
X170269979Y-92184009D01*
X170256326Y-92234962D01*
X170249500Y-92260438D01*
X165800500Y-92260438D01*
X165800500Y-90712047D01*
X165814015Y-90655753D01*
X165837500Y-90609661D01*
X165837500Y-90609659D01*
X165837501Y-90609658D01*
X165854869Y-90500002D01*
X165854869Y-90499997D01*
X165837501Y-90390341D01*
X165837500Y-90390339D01*
X165787095Y-90291413D01*
X165787092Y-90291410D01*
X165787090Y-90291407D01*
X165708592Y-90212909D01*
X165708588Y-90212906D01*
X165708587Y-90212905D01*
X165704743Y-90210946D01*
X165609658Y-90162498D01*
X165500002Y-90145131D01*
X165499998Y-90145131D01*
X165390341Y-90162498D01*
X165291414Y-90212904D01*
X165291407Y-90212909D01*
X165212909Y-90291407D01*
X165212904Y-90291414D01*
X165162498Y-90390341D01*
X165145131Y-90499997D01*
X160050500Y-90499997D01*
X160050500Y-87999997D01*
X162645131Y-87999997D01*
X162645131Y-88000002D01*
X162662498Y-88109658D01*
X162712904Y-88208585D01*
X162712909Y-88208592D01*
X162791407Y-88287090D01*
X162791410Y-88287092D01*
X162791413Y-88287095D01*
X162844245Y-88314014D01*
X162890341Y-88337501D01*
X162999998Y-88354869D01*
X163000000Y-88354869D01*
X163000002Y-88354869D01*
X163109657Y-88337501D01*
X163109658Y-88337500D01*
X163109661Y-88337500D01*
X163155755Y-88314013D01*
X163212048Y-88300500D01*
X164727060Y-88300500D01*
X164727062Y-88300500D01*
X164803489Y-88280021D01*
X164872011Y-88240460D01*
X164927960Y-88184511D01*
X168612473Y-84499997D01*
X172145131Y-84499997D01*
X172145131Y-84500002D01*
X172162498Y-84609658D01*
X172212904Y-84708585D01*
X172212909Y-84708592D01*
X172291407Y-84787090D01*
X172291410Y-84787092D01*
X172291413Y-84787095D01*
X172390339Y-84837500D01*
X172390341Y-84837501D01*
X172499998Y-84854869D01*
X172500000Y-84854869D01*
X172500002Y-84854869D01*
X172609657Y-84837501D01*
X172609658Y-84837500D01*
X172609661Y-84837500D01*
X172655755Y-84814013D01*
X172712048Y-84800500D01*
X174283761Y-84800500D01*
X174350800Y-84820185D01*
X174371442Y-84836819D01*
X174410203Y-84875580D01*
X174443688Y-84936903D01*
X174438704Y-85006595D01*
X174396832Y-85062528D01*
X174384523Y-85070648D01*
X174256635Y-85144485D01*
X174256632Y-85144487D01*
X174149487Y-85251632D01*
X174149485Y-85251635D01*
X174073719Y-85382863D01*
X174050323Y-85470182D01*
X174034500Y-85529234D01*
X174034500Y-85680766D01*
X174038671Y-85696332D01*
X174073719Y-85827136D01*
X174082114Y-85841676D01*
X174149485Y-85958365D01*
X174256635Y-86065515D01*
X174387865Y-86141281D01*
X174534234Y-86180500D01*
X174534236Y-86180500D01*
X174685764Y-86180500D01*
X174685766Y-86180500D01*
X174832135Y-86141281D01*
X174963365Y-86065515D01*
X175070515Y-85958365D01*
X175144352Y-85830475D01*
X175194918Y-85782261D01*
X175263525Y-85769038D01*
X175328390Y-85795006D01*
X175339419Y-85804796D01*
X175413181Y-85878558D01*
X175446666Y-85939881D01*
X175449500Y-85966239D01*
X175449500Y-86532951D01*
X175435985Y-86589245D01*
X175412499Y-86635338D01*
X175395131Y-86744997D01*
X175395131Y-86745002D01*
X175412498Y-86854658D01*
X175462904Y-86953585D01*
X175462909Y-86953592D01*
X175541407Y-87032090D01*
X175541410Y-87032092D01*
X175541413Y-87032095D01*
X175584581Y-87054090D01*
X175640341Y-87082501D01*
X175749998Y-87099869D01*
X175750000Y-87099869D01*
X175750002Y-87099869D01*
X175859658Y-87082501D01*
X175859659Y-87082500D01*
X175859661Y-87082500D01*
X175958587Y-87032095D01*
X176037095Y-86953587D01*
X176087500Y-86854661D01*
X176087500Y-86854659D01*
X176087501Y-86854658D01*
X176104869Y-86745002D01*
X176104869Y-86744997D01*
X176087500Y-86635338D01*
X176064015Y-86589245D01*
X176050500Y-86532951D01*
X176050500Y-85750846D01*
X176050500Y-85750844D01*
X176032726Y-85684511D01*
X176030022Y-85674418D01*
X175990460Y-85605895D01*
X174644105Y-84259540D01*
X174644103Y-84259539D01*
X174644098Y-84259535D01*
X174575589Y-84219982D01*
X174575584Y-84219979D01*
X174549179Y-84212904D01*
X174499156Y-84199500D01*
X174499154Y-84199500D01*
X172712048Y-84199500D01*
X172655755Y-84185986D01*
X172609657Y-84162498D01*
X172500002Y-84145131D01*
X172499998Y-84145131D01*
X172390341Y-84162498D01*
X172291414Y-84212904D01*
X172291407Y-84212909D01*
X172212909Y-84291407D01*
X172212904Y-84291414D01*
X172162498Y-84390341D01*
X172145131Y-84499997D01*
X168612473Y-84499997D01*
X170693240Y-82419229D01*
X170742603Y-82388980D01*
X170747148Y-82387501D01*
X170747161Y-82387500D01*
X170846087Y-82337095D01*
X170924595Y-82258587D01*
X170975000Y-82159661D01*
X170975000Y-82159659D01*
X170975001Y-82159658D01*
X170992369Y-82050002D01*
X170992369Y-82049997D01*
X170975001Y-81940341D01*
X170975000Y-81940339D01*
X170924595Y-81841413D01*
X170924592Y-81841410D01*
X170924590Y-81841407D01*
X170846092Y-81762909D01*
X170846088Y-81762906D01*
X170846087Y-81762905D01*
X170819774Y-81749498D01*
X170747158Y-81712498D01*
X170637502Y-81695131D01*
X170637498Y-81695131D01*
X170527841Y-81712498D01*
X170428914Y-81762904D01*
X170428907Y-81762909D01*
X170350409Y-81841407D01*
X170350406Y-81841412D01*
X170350405Y-81841413D01*
X170300000Y-81940339D01*
X170299998Y-81940343D01*
X170298517Y-81944901D01*
X170268269Y-81994258D01*
X164599348Y-87663181D01*
X164538025Y-87696666D01*
X164511667Y-87699500D01*
X163212048Y-87699500D01*
X163155755Y-87685986D01*
X163110997Y-87663181D01*
X163109661Y-87662500D01*
X163109660Y-87662499D01*
X163109657Y-87662498D01*
X163000002Y-87645131D01*
X162999998Y-87645131D01*
X162890341Y-87662498D01*
X162791414Y-87712904D01*
X162791407Y-87712909D01*
X162712909Y-87791407D01*
X162712904Y-87791414D01*
X162662498Y-87890341D01*
X162645131Y-87999997D01*
X160050500Y-87999997D01*
X160050500Y-86225832D01*
X160070185Y-86158793D01*
X160086814Y-86138156D01*
X162855740Y-83369229D01*
X162905103Y-83338980D01*
X162909648Y-83337501D01*
X162909661Y-83337500D01*
X163008587Y-83287095D01*
X163087095Y-83208587D01*
X163137500Y-83109661D01*
X163137500Y-83109659D01*
X163137501Y-83109658D01*
X163154869Y-83000002D01*
X163154869Y-82999997D01*
X163137501Y-82890341D01*
X163137500Y-82890339D01*
X163087095Y-82791413D01*
X163087092Y-82791410D01*
X163087090Y-82791407D01*
X163008592Y-82712909D01*
X163008588Y-82712906D01*
X163008587Y-82712905D01*
X163004743Y-82710946D01*
X162909658Y-82662498D01*
X162800002Y-82645131D01*
X162799998Y-82645131D01*
X162690341Y-82662498D01*
X162591414Y-82712904D01*
X162591407Y-82712909D01*
X162512909Y-82791407D01*
X162512906Y-82791412D01*
X162512905Y-82791413D01*
X162462500Y-82890339D01*
X162462498Y-82890343D01*
X162461017Y-82894901D01*
X162430769Y-82944258D01*
X159712181Y-85662847D01*
X159650858Y-85696332D01*
X159581166Y-85691348D01*
X159525233Y-85649476D01*
X159500816Y-85584012D01*
X159500500Y-85575166D01*
X159500500Y-83003750D01*
X159500726Y-82996263D01*
X159517438Y-82719979D01*
X159518271Y-82706201D01*
X159520076Y-82691340D01*
X159540346Y-82580734D01*
X159571780Y-82409197D01*
X159575364Y-82394663D01*
X159593303Y-82337095D01*
X159660696Y-82120822D01*
X159665998Y-82106841D01*
X159783731Y-81845249D01*
X159790676Y-81832016D01*
X159939080Y-81586526D01*
X159947567Y-81574230D01*
X160124480Y-81348417D01*
X160134395Y-81337226D01*
X160337226Y-81134395D01*
X160348417Y-81124480D01*
X160574230Y-80947567D01*
X160586526Y-80939080D01*
X160832016Y-80790676D01*
X160845249Y-80783731D01*
X161106841Y-80665998D01*
X161120822Y-80660696D01*
X161394668Y-80575362D01*
X161409197Y-80571780D01*
X161691344Y-80520075D01*
X161706201Y-80518271D01*
X161996264Y-80500726D01*
X162003751Y-80500500D01*
X162065892Y-80500500D01*
X192934108Y-80500500D01*
X192996249Y-80500500D01*
X193003736Y-80500726D01*
G37*
%TD.AperFunction*%
%TD*%
M02*
