%TF.GenerationSoftware,KiCad,Pcbnew,8.0.8*%
%TF.CreationDate,2025-06-11T01:55:21+01:00*%
%TF.ProjectId,Watch,57617463-682e-46b6-9963-61645f706362,rev?*%
%TF.SameCoordinates,Original*%
%TF.FileFunction,Legend,Top*%
%TF.FilePolarity,Positive*%
%FSLAX46Y46*%
G04 Gerber Fmt 4.6, Leading zero omitted, Abs format (unit mm)*
G04 Created by KiCad (PCBNEW 8.0.8) date 2025-06-11 01:55:21*
%MOMM*%
%LPD*%
G01*
G04 APERTURE LIST*
G04 Aperture macros list*
%AMRoundRect*
0 Rectangle with rounded corners*
0 $1 Rounding radius*
0 $2 $3 $4 $5 $6 $7 $8 $9 X,Y pos of 4 corners*
0 Add a 4 corners polygon primitive as box body*
4,1,4,$2,$3,$4,$5,$6,$7,$8,$9,$2,$3,0*
0 Add four circle primitives for the rounded corners*
1,1,$1+$1,$2,$3*
1,1,$1+$1,$4,$5*
1,1,$1+$1,$6,$7*
1,1,$1+$1,$8,$9*
0 Add four rect primitives between the rounded corners*
20,1,$1+$1,$2,$3,$4,$5,0*
20,1,$1+$1,$4,$5,$6,$7,0*
20,1,$1+$1,$6,$7,$8,$9,0*
20,1,$1+$1,$8,$9,$2,$3,0*%
%AMRotRect*
0 Rectangle, with rotation*
0 The origin of the aperture is its center*
0 $1 length*
0 $2 width*
0 $3 Rotation angle, in degrees counterclockwise*
0 Add horizontal line*
21,1,$1,$2,0,0,$3*%
G04 Aperture macros list end*
%ADD10C,0.100000*%
%ADD11C,0.300000*%
%ADD12C,0.200000*%
%ADD13C,0.112500*%
%ADD14C,0.080000*%
%ADD15C,0.150000*%
%ADD16C,0.120000*%
%ADD17C,0.000000*%
%ADD18RoundRect,0.135000X-0.135000X-0.185000X0.135000X-0.185000X0.135000X0.185000X-0.135000X0.185000X0*%
%ADD19RoundRect,0.140000X-0.140000X-0.170000X0.140000X-0.170000X0.140000X0.170000X-0.140000X0.170000X0*%
%ADD20R,0.900000X2.800000*%
%ADD21R,1.800000X1.000000*%
%ADD22RoundRect,0.140000X0.140000X0.170000X-0.140000X0.170000X-0.140000X-0.170000X0.140000X-0.170000X0*%
%ADD23O,1.000000X1.600000*%
%ADD24O,1.000000X2.100000*%
%ADD25RoundRect,0.150000X0.150000X0.500000X-0.150000X0.500000X-0.150000X-0.500000X0.150000X-0.500000X0*%
%ADD26RoundRect,0.075000X0.075000X0.575000X-0.075000X0.575000X-0.075000X-0.575000X0.075000X-0.575000X0*%
%ADD27C,0.650000*%
%ADD28RoundRect,0.135000X0.135000X0.185000X-0.135000X0.185000X-0.135000X-0.185000X0.135000X-0.185000X0*%
%ADD29RoundRect,0.135000X0.185000X-0.135000X0.185000X0.135000X-0.185000X0.135000X-0.185000X-0.135000X0*%
%ADD30RotRect,1.600000X0.550000X45.000000*%
%ADD31RotRect,1.600000X0.550000X135.000000*%
%ADD32R,0.900000X1.700000*%
%ADD33R,1.700000X0.900000*%
%ADD34RoundRect,0.150000X0.587500X0.150000X-0.587500X0.150000X-0.587500X-0.150000X0.587500X-0.150000X0*%
%ADD35RoundRect,0.225000X-0.225000X-0.250000X0.225000X-0.250000X0.225000X0.250000X-0.225000X0.250000X0*%
%ADD36R,2.000000X1.200000*%
%ADD37RoundRect,0.062500X0.062500X-0.350000X0.062500X0.350000X-0.062500X0.350000X-0.062500X-0.350000X0*%
%ADD38RoundRect,0.150000X-0.587500X-0.150000X0.587500X-0.150000X0.587500X0.150000X-0.587500X0.150000X0*%
%ADD39RoundRect,0.150000X-0.512500X-0.150000X0.512500X-0.150000X0.512500X0.150000X-0.512500X0.150000X0*%
%ADD40RoundRect,0.112500X0.187500X0.112500X-0.187500X0.112500X-0.187500X-0.112500X0.187500X-0.112500X0*%
%ADD41RoundRect,0.112500X-0.187500X-0.112500X0.187500X-0.112500X0.187500X0.112500X-0.187500X0.112500X0*%
%ADD42RoundRect,0.218750X-0.218750X-0.381250X0.218750X-0.381250X0.218750X0.381250X-0.218750X0.381250X0*%
%ADD43RoundRect,0.147500X-0.147500X-0.172500X0.147500X-0.172500X0.147500X0.172500X-0.147500X0.172500X0*%
G04 APERTURE END LIST*
D10*
X182500000Y-84500000D02*
X184750000Y-84500000D01*
X167000000Y-88500000D02*
X172500000Y-88500000D01*
X184750000Y-84500000D02*
X184750000Y-84000000D01*
X177500000Y-117750000D02*
X173200000Y-117750000D01*
X167000000Y-87000000D02*
X167000000Y-88500000D01*
X177500000Y-117250000D02*
X177500000Y-117750000D01*
D11*
G36*
X160608496Y-82478845D02*
G01*
X160538913Y-82455417D01*
X160495354Y-82391136D01*
X160491625Y-82362341D01*
X160515078Y-82292758D01*
X160579554Y-82249199D01*
X160608496Y-82245471D01*
X160682203Y-82272416D01*
X160722593Y-82339017D01*
X160725000Y-82362341D01*
X160698085Y-82436048D01*
X160631699Y-82476438D01*
X160608496Y-82478845D01*
G37*
G36*
X161145219Y-83628496D02*
G01*
X161118274Y-83702203D01*
X161051673Y-83742593D01*
X161028349Y-83745000D01*
X160954641Y-83718085D01*
X160914252Y-83651699D01*
X160911845Y-83628496D01*
X160935273Y-83558913D01*
X160999554Y-83515354D01*
X161028349Y-83511625D01*
X161097931Y-83535078D01*
X161141491Y-83599554D01*
X161145219Y-83628496D01*
G37*
G36*
X161145219Y-83417470D02*
G01*
X161118274Y-83491177D01*
X161051673Y-83531567D01*
X161028349Y-83533974D01*
X160954641Y-83507059D01*
X160914252Y-83440673D01*
X160911845Y-83417470D01*
X160935273Y-83347888D01*
X160999554Y-83304328D01*
X161028349Y-83300600D01*
X161097931Y-83324052D01*
X161141491Y-83388529D01*
X161145219Y-83417470D01*
G37*
G36*
X161145219Y-83206444D02*
G01*
X161118274Y-83280152D01*
X161051673Y-83320541D01*
X161028349Y-83322948D01*
X160954641Y-83296033D01*
X160914252Y-83229647D01*
X160911845Y-83206444D01*
X160935273Y-83136862D01*
X160999554Y-83093303D01*
X161028349Y-83089574D01*
X161097931Y-83113026D01*
X161141491Y-83177503D01*
X161145219Y-83206444D01*
G37*
G36*
X161145219Y-82995418D02*
G01*
X161118274Y-83069126D01*
X161051673Y-83109516D01*
X161028349Y-83111922D01*
X160954641Y-83085007D01*
X160914252Y-83018622D01*
X160911845Y-82995418D01*
X160935273Y-82925836D01*
X160999554Y-82882277D01*
X161028349Y-82878548D01*
X161097931Y-82902001D01*
X161141491Y-82966477D01*
X161145219Y-82995418D01*
G37*
G36*
X161145219Y-82784392D02*
G01*
X161118274Y-82858100D01*
X161051673Y-82898490D01*
X161028349Y-82900896D01*
X160954641Y-82873982D01*
X160914252Y-82807596D01*
X160911845Y-82784392D01*
X160935273Y-82714810D01*
X160999554Y-82671251D01*
X161028349Y-82667522D01*
X161097931Y-82690975D01*
X161141491Y-82755451D01*
X161145219Y-82784392D01*
G37*
G36*
X160935293Y-83206444D02*
G01*
X160908347Y-83280152D01*
X160841747Y-83320541D01*
X160818422Y-83322948D01*
X160744566Y-83296033D01*
X160703974Y-83229647D01*
X160701552Y-83206444D01*
X160725113Y-83136862D01*
X160789603Y-83093303D01*
X160818422Y-83089574D01*
X160888005Y-83113026D01*
X160931564Y-83177503D01*
X160935293Y-83206444D01*
G37*
G36*
X160935293Y-82573367D02*
G01*
X160908347Y-82647074D01*
X160841747Y-82687464D01*
X160818422Y-82689870D01*
X160744566Y-82662956D01*
X160703974Y-82596570D01*
X160701552Y-82573367D01*
X160725113Y-82503784D01*
X160789603Y-82460225D01*
X160818422Y-82456496D01*
X160888005Y-82479949D01*
X160931564Y-82544425D01*
X160935293Y-82573367D01*
G37*
G36*
X160725000Y-83206444D02*
G01*
X160698085Y-83280152D01*
X160631699Y-83320541D01*
X160608496Y-83322948D01*
X160538913Y-83299520D01*
X160495354Y-83235239D01*
X160491625Y-83206444D01*
X160515078Y-83136862D01*
X160579554Y-83093303D01*
X160608496Y-83089574D01*
X160682203Y-83116519D01*
X160722593Y-83183120D01*
X160725000Y-83206444D01*
G37*
G36*
X160515073Y-83206444D02*
G01*
X160488158Y-83280152D01*
X160421772Y-83320541D01*
X160398569Y-83322948D01*
X160328987Y-83299520D01*
X160285427Y-83235239D01*
X160281699Y-83206444D01*
X160305151Y-83136862D01*
X160369628Y-83093303D01*
X160398569Y-83089574D01*
X160472277Y-83116519D01*
X160512666Y-83183120D01*
X160515073Y-83206444D01*
G37*
G36*
X160515073Y-82573367D02*
G01*
X160488158Y-82647074D01*
X160421772Y-82687464D01*
X160398569Y-82689870D01*
X160328987Y-82666442D01*
X160285427Y-82602162D01*
X160281699Y-82573367D01*
X160305151Y-82503784D01*
X160369628Y-82460225D01*
X160398569Y-82456496D01*
X160472277Y-82483442D01*
X160512666Y-82550042D01*
X160515073Y-82573367D01*
G37*
G36*
X160305146Y-83628496D02*
G01*
X160278201Y-83702203D01*
X160211600Y-83742593D01*
X160188276Y-83745000D01*
X160114568Y-83718085D01*
X160074178Y-83651699D01*
X160071772Y-83628496D01*
X160095200Y-83558913D01*
X160159481Y-83515354D01*
X160188276Y-83511625D01*
X160257858Y-83535078D01*
X160301417Y-83599554D01*
X160305146Y-83628496D01*
G37*
G36*
X160305146Y-83417470D02*
G01*
X160278201Y-83491177D01*
X160211600Y-83531567D01*
X160188276Y-83533974D01*
X160114568Y-83507059D01*
X160074178Y-83440673D01*
X160071772Y-83417470D01*
X160095200Y-83347888D01*
X160159481Y-83304328D01*
X160188276Y-83300600D01*
X160257858Y-83324052D01*
X160301417Y-83388529D01*
X160305146Y-83417470D01*
G37*
G36*
X160305146Y-83206444D02*
G01*
X160278201Y-83280152D01*
X160211600Y-83320541D01*
X160188276Y-83322948D01*
X160114568Y-83296033D01*
X160074178Y-83229647D01*
X160071772Y-83206444D01*
X160095200Y-83136862D01*
X160159481Y-83093303D01*
X160188276Y-83089574D01*
X160257858Y-83113026D01*
X160301417Y-83177503D01*
X160305146Y-83206444D01*
G37*
G36*
X160305146Y-82995418D02*
G01*
X160278201Y-83069126D01*
X160211600Y-83109516D01*
X160188276Y-83111922D01*
X160114568Y-83085007D01*
X160074178Y-83018622D01*
X160071772Y-82995418D01*
X160095200Y-82925836D01*
X160159481Y-82882277D01*
X160188276Y-82878548D01*
X160257858Y-82902001D01*
X160301417Y-82966477D01*
X160305146Y-82995418D01*
G37*
G36*
X160305146Y-82784392D02*
G01*
X160278201Y-82858100D01*
X160211600Y-82898490D01*
X160188276Y-82900896D01*
X160114568Y-82873982D01*
X160074178Y-82807596D01*
X160071772Y-82784392D01*
X160095200Y-82714810D01*
X160159481Y-82671251D01*
X160188276Y-82667522D01*
X160257858Y-82690975D01*
X160301417Y-82755451D01*
X160305146Y-82784392D01*
G37*
D10*
G36*
X172088227Y-117544337D02*
G01*
X172097215Y-117550590D01*
X172100537Y-117559578D01*
X172100537Y-117920862D01*
X172097215Y-117929362D01*
X172088227Y-117933270D01*
X172035861Y-117933270D01*
X172027459Y-117929362D01*
X172023454Y-117920862D01*
X172023454Y-117680625D01*
X171977341Y-117753800D01*
X171969427Y-117761616D01*
X171958778Y-117764449D01*
X171933963Y-117764449D01*
X171923314Y-117761616D01*
X171915401Y-117753800D01*
X171868702Y-117680039D01*
X171868702Y-117920862D01*
X171865380Y-117929362D01*
X171856392Y-117933270D01*
X171804026Y-117933270D01*
X171795624Y-117929362D01*
X171791618Y-117920862D01*
X171791618Y-117559578D01*
X171795624Y-117550590D01*
X171804026Y-117544337D01*
X171856392Y-117544337D01*
X171860300Y-117544337D01*
X171865966Y-117550590D01*
X171874368Y-117557917D01*
X171946371Y-117682286D01*
X172018374Y-117557917D01*
X172026287Y-117550590D01*
X172030781Y-117546389D01*
X172035861Y-117544337D01*
X172088227Y-117544337D01*
G37*
G36*
X172425868Y-117658154D02*
G01*
X172417076Y-117654540D01*
X172413461Y-117645747D01*
X172413461Y-117641839D01*
X172407013Y-117625817D01*
X172390990Y-117619369D01*
X172281277Y-117619369D01*
X172265450Y-117626012D01*
X172259295Y-117642425D01*
X172259295Y-117833912D01*
X172265450Y-117850325D01*
X172281277Y-117856968D01*
X172390990Y-117856968D01*
X172407013Y-117850520D01*
X172413461Y-117834400D01*
X172413461Y-117830492D01*
X172417076Y-117821797D01*
X172425868Y-117818085D01*
X172478136Y-117818085D01*
X172486831Y-117821797D01*
X172490544Y-117830492D01*
X172490544Y-117834400D01*
X172488565Y-117854477D01*
X172482630Y-117872893D01*
X172472699Y-117890260D01*
X172461235Y-117903570D01*
X172445641Y-117915963D01*
X172429776Y-117924379D01*
X172409877Y-117930325D01*
X172390990Y-117932000D01*
X172281179Y-117932000D01*
X172261444Y-117930021D01*
X172242686Y-117924086D01*
X172224598Y-117914079D01*
X172210837Y-117902593D01*
X172198084Y-117886896D01*
X172189441Y-117870939D01*
X172183579Y-117852157D01*
X172181625Y-117831958D01*
X172181625Y-117644379D01*
X172183579Y-117624180D01*
X172189441Y-117605398D01*
X172199421Y-117587463D01*
X172210837Y-117573744D01*
X172226589Y-117560915D01*
X172242686Y-117552251D01*
X172261444Y-117546316D01*
X172281179Y-117544337D01*
X172390990Y-117544337D01*
X172411092Y-117546267D01*
X172429776Y-117552055D01*
X172447608Y-117561724D01*
X172461235Y-117572865D01*
X172474037Y-117588043D01*
X172482630Y-117603542D01*
X172488805Y-117623060D01*
X172490544Y-117641839D01*
X172490544Y-117645747D01*
X172486831Y-117654540D01*
X172478136Y-117658154D01*
X172425868Y-117658154D01*
G37*
G36*
X172670697Y-117932000D02*
G01*
X172650963Y-117930021D01*
X172632400Y-117924086D01*
X172614541Y-117914079D01*
X172600844Y-117902593D01*
X172588091Y-117886896D01*
X172579448Y-117870939D01*
X172573586Y-117852157D01*
X172571632Y-117831958D01*
X172571632Y-117556745D01*
X172575247Y-117548050D01*
X172584040Y-117544337D01*
X172636308Y-117544337D01*
X172645003Y-117548050D01*
X172648715Y-117556842D01*
X172648715Y-117834205D01*
X172655163Y-117850422D01*
X172670697Y-117856968D01*
X172780997Y-117856968D01*
X172796727Y-117850422D01*
X172802979Y-117834205D01*
X172802979Y-117556842D01*
X172806594Y-117548050D01*
X172815387Y-117544337D01*
X172868143Y-117544337D01*
X172876838Y-117548050D01*
X172880551Y-117556745D01*
X172880551Y-117831958D01*
X172878572Y-117852157D01*
X172872637Y-117870939D01*
X172862706Y-117888874D01*
X172851242Y-117902593D01*
X172835566Y-117915422D01*
X172819490Y-117924086D01*
X172800732Y-117930021D01*
X172780997Y-117932000D01*
X172670697Y-117932000D01*
G37*
D12*
G36*
X177182484Y-97250000D02*
G01*
X177072575Y-97209699D01*
X177027390Y-97105896D01*
X177027390Y-96462316D01*
X177072575Y-96357292D01*
X177182484Y-96312107D01*
X177843161Y-96312107D01*
X177951849Y-96357292D01*
X177998255Y-96462316D01*
X177998255Y-97105896D01*
X177951849Y-97209699D01*
X177843161Y-97250000D01*
X177182484Y-97250000D01*
G37*
G36*
X177182484Y-94358164D02*
G01*
X177072575Y-94314200D01*
X177027390Y-94207955D01*
X177027390Y-93564375D01*
X177072575Y-93461793D01*
X177182484Y-93420272D01*
X177843161Y-93420272D01*
X177951849Y-93461793D01*
X177998255Y-93564375D01*
X177998255Y-94207955D01*
X177951849Y-94314200D01*
X177843161Y-94358164D01*
X177182484Y-94358164D01*
G37*
D13*
G36*
X161619748Y-116682479D02*
G01*
X161635708Y-116686828D01*
X161658491Y-116697170D01*
X161670879Y-116705390D01*
X161688806Y-116722115D01*
X161697868Y-116733844D01*
X161709717Y-116755693D01*
X161714720Y-116769992D01*
X161898269Y-116687194D01*
X161908161Y-116687194D01*
X161912313Y-116696231D01*
X161912313Y-116771458D01*
X161908161Y-116783792D01*
X161898269Y-116792585D01*
X161719605Y-116873429D01*
X161719605Y-116969172D01*
X161896803Y-116969172D01*
X161907794Y-116973813D01*
X161912313Y-116984682D01*
X161912313Y-117050749D01*
X161907794Y-117061740D01*
X161896803Y-117066259D01*
X161445809Y-117066259D01*
X161435062Y-117061740D01*
X161430422Y-117050749D01*
X161430422Y-116804553D01*
X161524211Y-116804553D01*
X161524211Y-116969172D01*
X161625816Y-116969172D01*
X161625816Y-116804553D01*
X161617390Y-116784525D01*
X161596385Y-116776465D01*
X161553642Y-116776465D01*
X161532759Y-116784525D01*
X161524211Y-116804553D01*
X161430422Y-116804553D01*
X161432895Y-116779426D01*
X161440314Y-116756070D01*
X161452693Y-116733781D01*
X161466936Y-116716747D01*
X161486427Y-116700745D01*
X161506259Y-116690003D01*
X161529584Y-116682584D01*
X161554619Y-116680111D01*
X161595408Y-116680111D01*
X161619748Y-116682479D01*
G37*
G36*
X161509801Y-116200296D02*
G01*
X161520181Y-116204570D01*
X161524211Y-116215072D01*
X161524211Y-116475313D01*
X161625816Y-116475313D01*
X161625816Y-116239619D01*
X161629968Y-116228872D01*
X161640226Y-116224232D01*
X161704584Y-116224232D01*
X161715209Y-116228872D01*
X161719605Y-116239619D01*
X161719605Y-116475313D01*
X161821210Y-116475313D01*
X161821210Y-116215072D01*
X161825729Y-116204570D01*
X161836231Y-116200296D01*
X161899979Y-116200296D01*
X161910603Y-116204570D01*
X161915000Y-116215072D01*
X161915000Y-116556890D01*
X161910481Y-116567515D01*
X161899490Y-116571667D01*
X161445931Y-116571667D01*
X161435062Y-116567515D01*
X161430422Y-116556890D01*
X161430422Y-116215072D01*
X161434940Y-116204570D01*
X161445443Y-116200296D01*
X161509801Y-116200296D01*
G37*
G36*
X161572693Y-115787037D02*
G01*
X161568175Y-115798028D01*
X161557184Y-115802546D01*
X161552299Y-115802546D01*
X161532271Y-115810362D01*
X161524211Y-115830024D01*
X161524211Y-115967899D01*
X161532759Y-115987316D01*
X161553642Y-115995376D01*
X161596385Y-115995376D01*
X161617390Y-115987316D01*
X161625816Y-115967899D01*
X161625816Y-115830024D01*
X161628289Y-115805447D01*
X161635708Y-115782274D01*
X161648122Y-115759890D01*
X161662452Y-115742829D01*
X161681978Y-115726827D01*
X161701898Y-115716084D01*
X161726565Y-115708366D01*
X161749647Y-115706192D01*
X161790436Y-115706192D01*
X161815593Y-115708665D01*
X161839040Y-115716084D01*
X161861364Y-115728498D01*
X161878485Y-115742829D01*
X161894427Y-115762355D01*
X161905230Y-115782274D01*
X161912853Y-115806942D01*
X161915000Y-115830024D01*
X161915000Y-115967899D01*
X161912618Y-115992506D01*
X161905474Y-116015770D01*
X161893328Y-116038094D01*
X161879462Y-116055216D01*
X161860429Y-116071157D01*
X161841116Y-116081960D01*
X161816588Y-116089583D01*
X161793000Y-116091730D01*
X161788115Y-116091730D01*
X161777247Y-116087211D01*
X161772606Y-116076220D01*
X161772606Y-116010885D01*
X161777247Y-116000017D01*
X161788115Y-115995376D01*
X161793000Y-115995376D01*
X161813150Y-115987316D01*
X161821210Y-115967899D01*
X161821210Y-115830024D01*
X161812662Y-115810362D01*
X161791535Y-115802546D01*
X161748548Y-115802546D01*
X161727787Y-115810362D01*
X161719605Y-115830024D01*
X161719605Y-115967899D01*
X161717163Y-115992506D01*
X161709836Y-116015770D01*
X161697361Y-116038094D01*
X161683091Y-116055216D01*
X161663530Y-116071157D01*
X161643524Y-116081960D01*
X161620076Y-116089287D01*
X161595408Y-116091730D01*
X161554619Y-116091730D01*
X161529584Y-116089287D01*
X161506259Y-116081960D01*
X161483970Y-116069485D01*
X161466936Y-116055216D01*
X161451029Y-116035629D01*
X161440314Y-116015770D01*
X161432595Y-115991008D01*
X161430422Y-115967899D01*
X161430422Y-115830024D01*
X161432834Y-115805447D01*
X161440069Y-115782274D01*
X161452155Y-115759890D01*
X161466081Y-115742829D01*
X161485054Y-115726827D01*
X161504427Y-115716084D01*
X161528825Y-115708366D01*
X161552299Y-115706192D01*
X161557184Y-115706192D01*
X161568175Y-115710467D01*
X161572693Y-115720969D01*
X161572693Y-115787037D01*
G37*
G36*
X161509801Y-115225767D02*
G01*
X161520181Y-115230041D01*
X161524211Y-115240543D01*
X161524211Y-115500784D01*
X161625816Y-115500784D01*
X161625816Y-115265090D01*
X161629968Y-115254343D01*
X161640226Y-115249703D01*
X161704584Y-115249703D01*
X161715209Y-115254343D01*
X161719605Y-115265090D01*
X161719605Y-115500784D01*
X161821210Y-115500784D01*
X161821210Y-115240543D01*
X161825729Y-115230041D01*
X161836231Y-115225767D01*
X161899979Y-115225767D01*
X161910603Y-115230041D01*
X161915000Y-115240543D01*
X161915000Y-115582361D01*
X161910481Y-115592986D01*
X161899490Y-115597138D01*
X161445931Y-115597138D01*
X161435062Y-115592986D01*
X161430422Y-115582361D01*
X161430422Y-115240543D01*
X161434940Y-115230041D01*
X161445443Y-115225767D01*
X161509801Y-115225767D01*
G37*
G36*
X161430422Y-114746440D02*
G01*
X161434940Y-114735571D01*
X161445443Y-114731053D01*
X161509801Y-114731053D01*
X161520181Y-114735571D01*
X161524211Y-114746440D01*
X161524211Y-114875889D01*
X161894849Y-114875889D01*
X161905840Y-114880530D01*
X161910359Y-114891398D01*
X161910359Y-114957466D01*
X161905840Y-114968091D01*
X161894849Y-114972243D01*
X161524211Y-114972243D01*
X161524211Y-115101691D01*
X161520181Y-115112682D01*
X161509801Y-115117201D01*
X161445443Y-115117201D01*
X161434940Y-115112682D01*
X161430422Y-115101691D01*
X161430422Y-114746440D01*
G37*
D14*
G36*
X173035861Y-88408154D02*
G01*
X173027069Y-88404540D01*
X173023454Y-88395747D01*
X173023454Y-88391839D01*
X173017006Y-88375817D01*
X173000983Y-88369369D01*
X172891270Y-88369369D01*
X172875443Y-88376012D01*
X172869288Y-88392425D01*
X172869288Y-88583912D01*
X172875443Y-88600325D01*
X172891270Y-88606968D01*
X173000983Y-88606968D01*
X173017006Y-88600520D01*
X173023454Y-88584400D01*
X173023454Y-88580492D01*
X173027069Y-88571797D01*
X173035861Y-88568085D01*
X173088129Y-88568085D01*
X173096824Y-88571797D01*
X173100537Y-88580492D01*
X173100537Y-88584400D01*
X173098558Y-88604477D01*
X173092623Y-88622893D01*
X173082692Y-88640260D01*
X173071228Y-88653570D01*
X173055635Y-88665963D01*
X173039769Y-88674379D01*
X173019870Y-88680325D01*
X173000983Y-88682000D01*
X172891172Y-88682000D01*
X172871437Y-88680021D01*
X172852679Y-88674086D01*
X172834591Y-88664079D01*
X172820830Y-88652593D01*
X172808077Y-88636896D01*
X172799434Y-88620939D01*
X172793572Y-88602157D01*
X172791618Y-88581958D01*
X172791618Y-88394379D01*
X172793572Y-88374180D01*
X172799434Y-88355398D01*
X172809414Y-88337463D01*
X172820830Y-88323744D01*
X172836582Y-88310915D01*
X172852679Y-88302251D01*
X172871437Y-88296316D01*
X172891172Y-88294337D01*
X173000983Y-88294337D01*
X173021085Y-88296267D01*
X173039769Y-88302055D01*
X173057601Y-88311724D01*
X173071228Y-88322865D01*
X173084030Y-88338043D01*
X173092623Y-88353542D01*
X173098798Y-88373060D01*
X173100537Y-88391839D01*
X173100537Y-88395747D01*
X173096824Y-88404540D01*
X173088129Y-88408154D01*
X173035861Y-88408154D01*
G37*
G36*
X173412972Y-88306842D02*
G01*
X173416587Y-88298050D01*
X173425380Y-88294337D01*
X173478234Y-88294337D01*
X173486636Y-88298050D01*
X173490055Y-88306647D01*
X173490055Y-88667443D01*
X173486636Y-88676235D01*
X173478234Y-88679850D01*
X173425380Y-88679850D01*
X173416587Y-88676235D01*
X173412972Y-88667443D01*
X173412972Y-88525684D01*
X173258709Y-88525684D01*
X173258709Y-88667443D01*
X173254996Y-88676235D01*
X173246301Y-88679850D01*
X173193447Y-88679850D01*
X173184947Y-88676235D01*
X173181625Y-88667443D01*
X173181625Y-88306647D01*
X173184947Y-88298050D01*
X173193447Y-88294337D01*
X173246301Y-88294337D01*
X173254996Y-88298050D01*
X173258709Y-88306842D01*
X173258709Y-88450653D01*
X173412972Y-88450653D01*
X173412972Y-88306842D01*
G37*
G36*
X173788129Y-88297757D02*
G01*
X173794675Y-88305768D01*
X173875666Y-88509564D01*
X173878695Y-88521288D01*
X173880160Y-88533500D01*
X173880160Y-88671644D01*
X173876448Y-88680436D01*
X173867752Y-88684051D01*
X173814996Y-88684051D01*
X173806203Y-88680436D01*
X173802588Y-88671644D01*
X173802588Y-88606968D01*
X173648325Y-88606968D01*
X173648325Y-88671644D01*
X173644612Y-88680436D01*
X173635917Y-88684051D01*
X173583649Y-88684051D01*
X173574856Y-88680436D01*
X173571242Y-88671644D01*
X173571242Y-88533500D01*
X173571417Y-88531937D01*
X173651158Y-88531937D01*
X173799755Y-88531937D01*
X173737815Y-88369369D01*
X173713098Y-88369369D01*
X173651158Y-88531937D01*
X173571417Y-88531937D01*
X173572609Y-88521288D01*
X173575736Y-88509564D01*
X173656238Y-88305768D01*
X173663272Y-88297757D01*
X173673042Y-88294337D01*
X173778360Y-88294337D01*
X173788129Y-88297757D01*
G37*
G36*
X174190715Y-88296316D02*
G01*
X174209399Y-88302251D01*
X174227231Y-88312154D01*
X174240858Y-88323549D01*
X174253660Y-88339142D01*
X174262254Y-88355007D01*
X174268189Y-88373667D01*
X174270167Y-88393695D01*
X174270167Y-88426326D01*
X174268273Y-88445799D01*
X174264794Y-88458566D01*
X174256520Y-88476793D01*
X174249944Y-88486703D01*
X174236564Y-88501045D01*
X174227180Y-88508294D01*
X174209702Y-88517774D01*
X174198262Y-88521776D01*
X174264501Y-88668615D01*
X174264501Y-88676528D01*
X174257271Y-88679850D01*
X174197090Y-88679850D01*
X174187222Y-88676528D01*
X174180188Y-88668615D01*
X174115512Y-88525684D01*
X174038918Y-88525684D01*
X174038918Y-88667443D01*
X174035205Y-88676235D01*
X174026510Y-88679850D01*
X173973656Y-88679850D01*
X173964863Y-88676235D01*
X173961249Y-88667443D01*
X173961249Y-88450653D01*
X174038918Y-88450653D01*
X174170614Y-88450653D01*
X174186636Y-88443912D01*
X174193084Y-88427108D01*
X174193084Y-88392914D01*
X174186636Y-88376207D01*
X174170614Y-88369369D01*
X174038918Y-88369369D01*
X174038918Y-88450653D01*
X173961249Y-88450653D01*
X173961249Y-88306647D01*
X173964863Y-88298050D01*
X173973656Y-88294337D01*
X174170614Y-88294337D01*
X174190715Y-88296316D01*
G37*
G36*
X174582602Y-88391839D02*
G01*
X174576057Y-88375817D01*
X174560621Y-88369369D01*
X174450321Y-88369369D01*
X174434787Y-88376012D01*
X174428339Y-88392425D01*
X174428339Y-88583912D01*
X174434787Y-88600325D01*
X174450321Y-88606968D01*
X174560621Y-88606968D01*
X174576057Y-88600129D01*
X174582602Y-88583228D01*
X174582602Y-88525684D01*
X174517829Y-88525684D01*
X174509036Y-88522167D01*
X174505422Y-88513667D01*
X174505422Y-88462181D01*
X174509036Y-88453974D01*
X174517829Y-88450653D01*
X174647864Y-88450653D01*
X174656266Y-88454072D01*
X174659685Y-88462474D01*
X174659685Y-88582348D01*
X174657707Y-88602474D01*
X174651772Y-88621232D01*
X174641841Y-88639091D01*
X174630376Y-88652788D01*
X174614756Y-88665541D01*
X174598820Y-88674184D01*
X174579086Y-88680282D01*
X174560621Y-88682000D01*
X174450321Y-88682000D01*
X174430635Y-88680021D01*
X174412023Y-88674086D01*
X174394164Y-88664079D01*
X174380467Y-88652593D01*
X174367714Y-88636896D01*
X174359071Y-88620939D01*
X174353210Y-88602157D01*
X174351256Y-88581958D01*
X174351256Y-88394379D01*
X174353210Y-88374180D01*
X174359071Y-88355398D01*
X174369051Y-88337463D01*
X174380467Y-88323744D01*
X174396136Y-88310915D01*
X174412023Y-88302251D01*
X174431833Y-88296076D01*
X174450321Y-88294337D01*
X174560621Y-88294337D01*
X174580282Y-88296267D01*
X174598820Y-88302055D01*
X174616728Y-88311724D01*
X174630376Y-88322865D01*
X174643178Y-88338043D01*
X174651772Y-88353542D01*
X174657947Y-88373060D01*
X174659685Y-88391839D01*
X174659685Y-88395747D01*
X174656266Y-88404540D01*
X174647864Y-88408154D01*
X174595010Y-88408154D01*
X174586217Y-88404540D01*
X174582602Y-88395747D01*
X174582602Y-88391839D01*
G37*
G36*
X175042561Y-88357840D02*
G01*
X175038848Y-88366145D01*
X175030153Y-88369369D01*
X174933921Y-88369369D01*
X174933921Y-88606968D01*
X175030153Y-88606968D01*
X175038848Y-88610583D01*
X175042561Y-88618985D01*
X175042561Y-88669983D01*
X175038848Y-88678482D01*
X175030153Y-88682000D01*
X174761193Y-88682000D01*
X174752400Y-88678482D01*
X174748785Y-88669983D01*
X174748785Y-88618985D01*
X174752400Y-88610583D01*
X174761193Y-88606968D01*
X174856838Y-88606968D01*
X174856838Y-88369369D01*
X174761193Y-88369369D01*
X174752400Y-88366145D01*
X174748785Y-88357840D01*
X174748785Y-88306354D01*
X174752400Y-88297952D01*
X174761193Y-88294337D01*
X175030153Y-88294337D01*
X175038848Y-88297952D01*
X175042561Y-88306354D01*
X175042561Y-88357840D01*
G37*
G36*
X175362226Y-88306647D02*
G01*
X175365840Y-88298050D01*
X175374633Y-88294337D01*
X175427390Y-88294337D01*
X175436085Y-88298050D01*
X175439797Y-88306647D01*
X175439797Y-88667931D01*
X175436085Y-88676724D01*
X175427390Y-88680339D01*
X175374633Y-88680339D01*
X175365840Y-88676724D01*
X175362226Y-88667931D01*
X175362226Y-88536235D01*
X175207962Y-88397799D01*
X175207962Y-88667931D01*
X175204249Y-88676724D01*
X175195554Y-88680339D01*
X175143286Y-88680339D01*
X175134494Y-88676724D01*
X175130879Y-88667931D01*
X175130879Y-88306647D01*
X175134494Y-88298050D01*
X175143286Y-88294337D01*
X175195652Y-88294337D01*
X175206789Y-88296877D01*
X175217048Y-88302739D01*
X175362226Y-88432774D01*
X175362226Y-88306647D01*
G37*
G36*
X175752233Y-88391839D02*
G01*
X175745687Y-88375817D01*
X175730251Y-88369369D01*
X175619951Y-88369369D01*
X175604417Y-88376012D01*
X175597969Y-88392425D01*
X175597969Y-88583912D01*
X175604417Y-88600325D01*
X175619951Y-88606968D01*
X175730251Y-88606968D01*
X175745687Y-88600129D01*
X175752233Y-88583228D01*
X175752233Y-88525684D01*
X175687459Y-88525684D01*
X175678667Y-88522167D01*
X175675052Y-88513667D01*
X175675052Y-88462181D01*
X175678667Y-88453974D01*
X175687459Y-88450653D01*
X175817494Y-88450653D01*
X175825896Y-88454072D01*
X175829316Y-88462474D01*
X175829316Y-88582348D01*
X175827337Y-88602474D01*
X175821402Y-88621232D01*
X175811471Y-88639091D01*
X175800006Y-88652788D01*
X175784386Y-88665541D01*
X175768450Y-88674184D01*
X175748716Y-88680282D01*
X175730251Y-88682000D01*
X175619951Y-88682000D01*
X175600265Y-88680021D01*
X175581653Y-88674086D01*
X175563794Y-88664079D01*
X175550097Y-88652593D01*
X175537344Y-88636896D01*
X175528702Y-88620939D01*
X175522840Y-88602157D01*
X175520886Y-88581958D01*
X175520886Y-88394379D01*
X175522840Y-88374180D01*
X175528702Y-88355398D01*
X175538681Y-88337463D01*
X175550097Y-88323744D01*
X175565767Y-88310915D01*
X175581653Y-88302251D01*
X175601464Y-88296076D01*
X175619951Y-88294337D01*
X175730251Y-88294337D01*
X175749912Y-88296267D01*
X175768450Y-88302055D01*
X175786358Y-88311724D01*
X175800006Y-88322865D01*
X175812808Y-88338043D01*
X175821402Y-88353542D01*
X175827577Y-88373060D01*
X175829316Y-88391839D01*
X175829316Y-88395747D01*
X175825896Y-88404540D01*
X175817494Y-88408154D01*
X175764640Y-88408154D01*
X175755847Y-88404540D01*
X175752233Y-88395747D01*
X175752233Y-88391839D01*
G37*
G36*
X176091730Y-88606968D02*
G01*
X176100132Y-88610583D01*
X176103551Y-88618985D01*
X176103551Y-88669983D01*
X176100132Y-88678482D01*
X176091730Y-88682000D01*
X176038876Y-88682000D01*
X176030083Y-88678482D01*
X176026468Y-88669983D01*
X176026468Y-88618985D01*
X176030083Y-88610583D01*
X176038876Y-88606968D01*
X176091730Y-88606968D01*
G37*
G36*
X175922909Y-88407568D02*
G01*
X175914117Y-88403953D01*
X175910502Y-88395161D01*
X175910502Y-88391253D01*
X175912456Y-88371665D01*
X175918318Y-88353346D01*
X175928297Y-88335881D01*
X175939713Y-88322669D01*
X175955466Y-88310304D01*
X175971563Y-88301958D01*
X175990321Y-88296242D01*
X176010055Y-88294337D01*
X176119867Y-88294337D01*
X176139968Y-88296316D01*
X176158653Y-88302251D01*
X176176484Y-88312154D01*
X176190111Y-88323549D01*
X176202913Y-88339121D01*
X176211507Y-88355105D01*
X176217442Y-88373789D01*
X176219420Y-88393500D01*
X176219420Y-88425935D01*
X176217352Y-88446248D01*
X176212093Y-88463256D01*
X176202791Y-88480699D01*
X176192065Y-88494030D01*
X176176434Y-88507353D01*
X176162267Y-88515621D01*
X176143523Y-88522480D01*
X176126022Y-88525098D01*
X176125533Y-88525098D01*
X176124947Y-88525098D01*
X176109706Y-88531546D01*
X176103551Y-88546982D01*
X176103551Y-88551476D01*
X176100132Y-88559878D01*
X176091730Y-88563200D01*
X176038876Y-88563200D01*
X176030083Y-88559976D01*
X176026468Y-88551672D01*
X176026468Y-88547275D01*
X176028536Y-88527377D01*
X176033796Y-88510736D01*
X176043708Y-88492674D01*
X176053726Y-88480548D01*
X176069312Y-88467616D01*
X176083230Y-88459739D01*
X176101988Y-88453184D01*
X176119867Y-88450653D01*
X176120942Y-88450653D01*
X176136085Y-88443521D01*
X176142337Y-88426912D01*
X176142337Y-88392523D01*
X176135889Y-88375914D01*
X176119867Y-88369369D01*
X176010153Y-88369369D01*
X175994326Y-88375524D01*
X175988171Y-88391253D01*
X175988171Y-88395161D01*
X175984459Y-88403953D01*
X175975764Y-88407568D01*
X175922909Y-88407568D01*
G37*
D10*
G36*
X190857840Y-114649462D02*
G01*
X190866145Y-114653077D01*
X190869369Y-114661772D01*
X190869369Y-114872212D01*
X190950653Y-114872212D01*
X190950653Y-114680921D01*
X190953974Y-114672226D01*
X190962181Y-114668513D01*
X191013667Y-114668513D01*
X191022167Y-114672226D01*
X191025684Y-114680921D01*
X191025684Y-114872212D01*
X191169494Y-114872212D01*
X191178287Y-114875924D01*
X191182000Y-114884619D01*
X191182000Y-114937473D01*
X191178385Y-114946266D01*
X191169592Y-114949881D01*
X190806745Y-114949881D01*
X190798050Y-114946266D01*
X190794337Y-114937473D01*
X190794337Y-114661772D01*
X190797952Y-114653077D01*
X190806354Y-114649462D01*
X190857840Y-114649462D01*
G37*
G36*
X191182000Y-114469309D02*
G01*
X191180021Y-114489043D01*
X191174086Y-114507606D01*
X191164079Y-114525465D01*
X191152593Y-114539162D01*
X191136896Y-114551915D01*
X191120939Y-114560558D01*
X191102157Y-114566420D01*
X191081958Y-114568374D01*
X190806745Y-114568374D01*
X190798050Y-114564759D01*
X190794337Y-114555966D01*
X190794337Y-114503698D01*
X190798050Y-114495003D01*
X190806842Y-114491290D01*
X191084205Y-114491290D01*
X191100422Y-114484842D01*
X191106968Y-114469309D01*
X191106968Y-114359009D01*
X191100422Y-114343279D01*
X191084205Y-114337027D01*
X190806842Y-114337027D01*
X190798050Y-114333412D01*
X190794337Y-114324619D01*
X190794337Y-114271863D01*
X190798050Y-114263168D01*
X190806745Y-114259455D01*
X191081958Y-114259455D01*
X191102157Y-114261434D01*
X191120939Y-114267369D01*
X191138874Y-114277300D01*
X191152593Y-114288764D01*
X191165422Y-114304440D01*
X191174086Y-114320516D01*
X191180021Y-114339274D01*
X191182000Y-114359009D01*
X191182000Y-114469309D01*
G37*
G36*
X190806647Y-113947020D02*
G01*
X190798050Y-113943405D01*
X190794337Y-113934612D01*
X190794337Y-113881856D01*
X190798050Y-113873161D01*
X190806647Y-113869448D01*
X191167931Y-113869448D01*
X191176724Y-113873161D01*
X191180339Y-113881856D01*
X191180339Y-113934612D01*
X191176724Y-113943405D01*
X191167931Y-113947020D01*
X191036235Y-113947020D01*
X190897799Y-114101284D01*
X191167931Y-114101284D01*
X191176724Y-114104996D01*
X191180339Y-114113691D01*
X191180339Y-114165959D01*
X191176724Y-114174752D01*
X191167931Y-114178367D01*
X190806647Y-114178367D01*
X190798050Y-114174752D01*
X190794337Y-114165959D01*
X190794337Y-114113593D01*
X190796877Y-114102456D01*
X190802739Y-114092198D01*
X190932774Y-113947020D01*
X190806647Y-113947020D01*
G37*
G36*
X191182000Y-113112882D02*
G01*
X191182000Y-113375589D01*
X191178580Y-113384382D01*
X191169983Y-113387997D01*
X191046787Y-113387997D01*
X191036040Y-113384968D01*
X191027443Y-113377348D01*
X190894477Y-113177557D01*
X190869369Y-113177557D01*
X190869369Y-113375589D01*
X190865852Y-113384382D01*
X190857450Y-113387997D01*
X190806256Y-113387997D01*
X190797854Y-113384382D01*
X190794337Y-113375589D01*
X190794337Y-113112882D01*
X190798050Y-113104187D01*
X190806842Y-113100474D01*
X190929843Y-113100474D01*
X190940394Y-113103307D01*
X190948699Y-113110635D01*
X191081958Y-113310327D01*
X191106968Y-113310327D01*
X191106968Y-113112882D01*
X191110583Y-113104187D01*
X191118985Y-113100474D01*
X191170471Y-113100474D01*
X191178775Y-113104187D01*
X191182000Y-113112882D01*
G37*
G36*
X191102205Y-112701796D02*
G01*
X191120939Y-112707732D01*
X191138874Y-112717663D01*
X191152593Y-112729127D01*
X191165422Y-112744720D01*
X191174086Y-112760586D01*
X191180021Y-112779270D01*
X191182000Y-112799371D01*
X191182000Y-112909183D01*
X191180021Y-112929284D01*
X191174086Y-112947969D01*
X191164079Y-112965828D01*
X191152593Y-112979525D01*
X191136896Y-112992278D01*
X191120939Y-113000921D01*
X191102205Y-113006782D01*
X191082348Y-113008736D01*
X190893988Y-113008736D01*
X190874156Y-113006782D01*
X190855496Y-113000921D01*
X190837484Y-112990941D01*
X190823744Y-112979525D01*
X190810915Y-112963856D01*
X190802251Y-112947969D01*
X190796316Y-112929284D01*
X190794337Y-112909183D01*
X190794337Y-112799371D01*
X190869369Y-112799371D01*
X190869369Y-112909183D01*
X190875719Y-112925205D01*
X190891937Y-112931653D01*
X191084400Y-112931653D01*
X191100618Y-112925205D01*
X191106968Y-112909183D01*
X191106968Y-112799371D01*
X191100618Y-112783349D01*
X191084400Y-112776901D01*
X190891937Y-112776901D01*
X190875719Y-112783349D01*
X190869369Y-112799371D01*
X190794337Y-112799371D01*
X190796316Y-112779270D01*
X190802251Y-112760586D01*
X190812258Y-112742754D01*
X190823744Y-112729127D01*
X190839469Y-112716325D01*
X190855496Y-112707732D01*
X190874156Y-112701796D01*
X190893988Y-112699818D01*
X191082348Y-112699818D01*
X191102205Y-112701796D01*
G37*
G36*
X190806647Y-112387383D02*
G01*
X190798050Y-112383768D01*
X190794337Y-112374975D01*
X190794337Y-112322219D01*
X190798050Y-112313524D01*
X190806647Y-112309811D01*
X191167931Y-112309811D01*
X191176724Y-112313524D01*
X191180339Y-112322219D01*
X191180339Y-112374975D01*
X191176724Y-112383768D01*
X191167931Y-112387383D01*
X191036235Y-112387383D01*
X190897799Y-112541646D01*
X191167931Y-112541646D01*
X191176724Y-112545359D01*
X191180339Y-112554054D01*
X191180339Y-112606322D01*
X191176724Y-112615115D01*
X191167931Y-112618729D01*
X190806647Y-112618729D01*
X190798050Y-112615115D01*
X190794337Y-112606322D01*
X190794337Y-112553956D01*
X190796877Y-112542819D01*
X190802739Y-112532561D01*
X190932774Y-112387383D01*
X190806647Y-112387383D01*
G37*
G36*
X190857840Y-111925959D02*
G01*
X190866145Y-111929378D01*
X190869369Y-111937780D01*
X190869369Y-112145973D01*
X190950653Y-112145973D01*
X190950653Y-111957418D01*
X190953974Y-111948820D01*
X190962181Y-111945108D01*
X191013667Y-111945108D01*
X191022167Y-111948820D01*
X191025684Y-111957418D01*
X191025684Y-112145973D01*
X191106968Y-112145973D01*
X191106968Y-111937780D01*
X191110583Y-111929378D01*
X191118985Y-111925959D01*
X191169983Y-111925959D01*
X191178482Y-111929378D01*
X191182000Y-111937780D01*
X191182000Y-112211235D01*
X191178385Y-112219734D01*
X191169592Y-112223056D01*
X190806745Y-112223056D01*
X190798050Y-112219734D01*
X190794337Y-112211235D01*
X190794337Y-111937780D01*
X190797952Y-111929378D01*
X190806354Y-111925959D01*
X190857840Y-111925959D01*
G37*
G36*
X174611542Y-119220612D02*
G01*
X174611542Y-118723725D01*
X174614083Y-118718058D01*
X174619456Y-118715811D01*
X174735813Y-118715811D01*
X174743727Y-118723920D01*
X174743727Y-118751471D01*
X174741480Y-118757039D01*
X174735813Y-118759579D01*
X174654236Y-118759579D01*
X174654236Y-119184757D01*
X174735813Y-119184757D01*
X174743727Y-119192964D01*
X174743727Y-119220319D01*
X174735813Y-119228526D01*
X174619456Y-119228526D01*
X174614083Y-119226279D01*
X174611542Y-119220612D01*
G37*
G36*
X175212184Y-118889028D02*
G01*
X175204271Y-118897137D01*
X175177307Y-118897137D01*
X175169393Y-118889028D01*
X175169393Y-118861966D01*
X175164501Y-118843022D01*
X175157572Y-118833634D01*
X175140638Y-118823468D01*
X175130021Y-118822106D01*
X175004480Y-118822106D01*
X174985128Y-118827070D01*
X174976637Y-118833634D01*
X174966471Y-118850826D01*
X174965108Y-118861478D01*
X174965108Y-119082859D01*
X174970073Y-119102212D01*
X174976637Y-119110703D01*
X174993829Y-119120869D01*
X175004480Y-119122231D01*
X175130021Y-119122231D01*
X175149247Y-119117393D01*
X175157572Y-119110996D01*
X175167732Y-119093852D01*
X175169393Y-119082957D01*
X175169393Y-119055309D01*
X175171640Y-119049838D01*
X175177307Y-119047200D01*
X175204271Y-119047200D01*
X175209937Y-119049838D01*
X175212184Y-119055309D01*
X175212184Y-119082957D01*
X175209808Y-119102699D01*
X175205443Y-119115295D01*
X175195338Y-119132529D01*
X175187662Y-119141478D01*
X175172420Y-119153728D01*
X175161773Y-119159356D01*
X175142409Y-119165065D01*
X175130021Y-119166000D01*
X175004480Y-119166000D01*
X174984117Y-119163481D01*
X174972631Y-119159551D01*
X174955557Y-119149614D01*
X174946741Y-119141966D01*
X174934315Y-119125667D01*
X174929351Y-119115685D01*
X174923810Y-119095948D01*
X174922903Y-119083445D01*
X174922903Y-118860891D01*
X174925176Y-118841428D01*
X174929351Y-118828944D01*
X174939167Y-118811626D01*
X174946741Y-118802664D01*
X174962029Y-118790406D01*
X174972631Y-118784883D01*
X174992079Y-118779258D01*
X175004480Y-118778337D01*
X175130021Y-118778337D01*
X175150347Y-118780932D01*
X175161773Y-118784981D01*
X175178893Y-118795079D01*
X175187662Y-118802859D01*
X175199783Y-118818506D01*
X175205443Y-118829433D01*
X175211072Y-118848255D01*
X175212184Y-118861966D01*
X175212184Y-118889028D01*
G37*
G36*
X175391166Y-119220319D02*
G01*
X175391166Y-119192964D01*
X175393706Y-119187102D01*
X175399079Y-119184757D01*
X175480558Y-119184757D01*
X175480558Y-118759579D01*
X175399079Y-118759579D01*
X175393706Y-118757039D01*
X175391166Y-118751471D01*
X175391166Y-118723920D01*
X175393706Y-118718156D01*
X175399079Y-118715811D01*
X175515436Y-118715811D01*
X175523350Y-118723725D01*
X175523350Y-119220612D01*
X175515436Y-119228526D01*
X175399079Y-119228526D01*
X175393706Y-119226181D01*
X175391166Y-119220319D01*
G37*
G36*
X176319977Y-118780894D02*
G01*
X176331403Y-118784883D01*
X176348637Y-118794851D01*
X176357586Y-118802664D01*
X176369760Y-118818196D01*
X176375269Y-118828944D01*
X176380894Y-118848430D01*
X176381815Y-118860891D01*
X176381815Y-119083445D01*
X176379507Y-119103012D01*
X176375269Y-119115685D01*
X176365339Y-119133095D01*
X176357586Y-119141966D01*
X176342092Y-119154010D01*
X176331403Y-119159551D01*
X176312039Y-119165093D01*
X176299651Y-119166000D01*
X176099861Y-119166000D01*
X176094487Y-119163752D01*
X176091947Y-119158086D01*
X176091947Y-119122231D01*
X176134738Y-119122231D01*
X176299651Y-119122231D01*
X176319004Y-119117266D01*
X176327495Y-119110703D01*
X176337661Y-119093510D01*
X176339023Y-119082859D01*
X176339023Y-118861478D01*
X176334058Y-118842125D01*
X176327495Y-118833634D01*
X176310302Y-118823468D01*
X176299651Y-118822106D01*
X176134738Y-118822106D01*
X176134738Y-119122231D01*
X176091947Y-119122231D01*
X176091947Y-118786251D01*
X176094487Y-118780877D01*
X176099861Y-118778337D01*
X176299651Y-118778337D01*
X176319977Y-118780894D01*
G37*
G36*
X176685946Y-118780584D02*
G01*
X176690147Y-118785665D01*
X176768402Y-118982329D01*
X176770356Y-118989754D01*
X176771235Y-118997570D01*
X176771235Y-119158086D01*
X176763322Y-119166000D01*
X176736944Y-119166000D01*
X176729030Y-119158086D01*
X176729030Y-119053452D01*
X176524745Y-119053452D01*
X176524745Y-119158086D01*
X176516832Y-119166000D01*
X176489868Y-119166000D01*
X176481954Y-119158086D01*
X176481954Y-118997570D01*
X176482081Y-118996300D01*
X176524745Y-118996300D01*
X176524745Y-119009684D01*
X176729030Y-119009684D01*
X176729030Y-118996300D01*
X176658688Y-118822106D01*
X176595087Y-118822106D01*
X176524745Y-118996300D01*
X176482081Y-118996300D01*
X176482736Y-118989754D01*
X176484787Y-118982329D01*
X176563043Y-118785665D01*
X176567439Y-118780584D01*
X176573692Y-118778337D01*
X176679498Y-118778337D01*
X176685946Y-118780584D01*
G37*
G36*
X177119037Y-119158086D02*
G01*
X177119037Y-118995909D01*
X176914752Y-118826404D01*
X176914752Y-119158086D01*
X176906839Y-119166000D01*
X176879875Y-119166000D01*
X176874501Y-119163752D01*
X176871961Y-119158086D01*
X176871961Y-118786251D01*
X176874501Y-118780584D01*
X176879875Y-118778337D01*
X176917586Y-118778337D01*
X176931654Y-118783418D01*
X177119037Y-118938854D01*
X177119037Y-118786251D01*
X177126951Y-118778337D01*
X177153915Y-118778337D01*
X177161829Y-118786251D01*
X177161829Y-119158086D01*
X177153915Y-119166000D01*
X177126951Y-119166000D01*
X177119037Y-119158086D01*
G37*
G36*
X177269882Y-119157891D02*
G01*
X177269882Y-119130340D01*
X177272129Y-119124869D01*
X177277697Y-119122231D01*
X177385750Y-119122231D01*
X177385750Y-118822106D01*
X177277697Y-118822106D01*
X177269882Y-118813997D01*
X177269882Y-118786446D01*
X177277697Y-118778337D01*
X177536009Y-118778337D01*
X177543922Y-118786446D01*
X177543922Y-118813997D01*
X177536009Y-118822106D01*
X177428542Y-118822106D01*
X177428542Y-119122231D01*
X177536009Y-119122231D01*
X177541675Y-119124869D01*
X177543922Y-119130340D01*
X177543922Y-119157891D01*
X177536009Y-119166000D01*
X177277697Y-119166000D01*
X177269882Y-119157891D01*
G37*
G36*
X177660963Y-119158086D02*
G01*
X177660963Y-118786251D01*
X177668877Y-118778337D01*
X177931096Y-118778337D01*
X177939009Y-118786446D01*
X177939009Y-118813997D01*
X177931096Y-118822106D01*
X177703168Y-118822106D01*
X177703168Y-118953411D01*
X177900712Y-118953411D01*
X177906085Y-118956048D01*
X177908625Y-118961519D01*
X177908625Y-118989070D01*
X177906085Y-118994932D01*
X177900712Y-118997179D01*
X177703168Y-118997179D01*
X177703168Y-119122231D01*
X177931096Y-119122231D01*
X177936762Y-119124869D01*
X177939009Y-119130340D01*
X177939009Y-119157891D01*
X177931096Y-119166000D01*
X177668877Y-119166000D01*
X177660963Y-119158086D01*
G37*
G36*
X178064745Y-118778337D02*
G01*
X178091710Y-118778337D01*
X178099526Y-118786251D01*
X178099526Y-119122231D01*
X178319637Y-119122231D01*
X178325206Y-119124869D01*
X178327453Y-119130340D01*
X178327453Y-119157891D01*
X178319637Y-119166000D01*
X178064745Y-119166000D01*
X178059372Y-119163752D01*
X178056832Y-119158086D01*
X178056832Y-118786251D01*
X178059372Y-118780584D01*
X178064745Y-118778337D01*
G37*
G36*
X179049244Y-118780894D02*
G01*
X179060670Y-118784883D01*
X179077904Y-118794851D01*
X179086853Y-118802664D01*
X179099027Y-118818196D01*
X179104536Y-118828944D01*
X179110161Y-118848430D01*
X179111082Y-118860891D01*
X179111082Y-118911108D01*
X179108623Y-118931464D01*
X179101245Y-118950034D01*
X179093594Y-118961422D01*
X179085681Y-118972168D01*
X179093594Y-118982915D01*
X179104251Y-119000569D01*
X179109989Y-119019680D01*
X179111082Y-119033229D01*
X179111082Y-119083445D01*
X179108774Y-119103012D01*
X179104536Y-119115685D01*
X179094606Y-119133095D01*
X179086853Y-119141966D01*
X179071359Y-119154010D01*
X179060670Y-119159551D01*
X179041306Y-119165093D01*
X179028919Y-119166000D01*
X178829128Y-119166000D01*
X178823755Y-119163752D01*
X178821214Y-119158086D01*
X178821214Y-119122231D01*
X178864006Y-119122231D01*
X179028919Y-119122231D01*
X179048271Y-119117435D01*
X179056762Y-119111094D01*
X179066928Y-119094370D01*
X179068290Y-119084032D01*
X179068290Y-119035378D01*
X179062842Y-119015833D01*
X179056762Y-119008414D01*
X179039570Y-118998506D01*
X179028919Y-118997179D01*
X178864006Y-118997179D01*
X178864006Y-119122231D01*
X178821214Y-119122231D01*
X178821214Y-118953411D01*
X178864006Y-118953411D01*
X179028919Y-118953411D01*
X179048271Y-118948362D01*
X179056762Y-118941687D01*
X179066928Y-118924110D01*
X179068290Y-118913257D01*
X179068290Y-118862259D01*
X179063326Y-118842564D01*
X179056762Y-118833927D01*
X179039570Y-118823502D01*
X179028919Y-118822106D01*
X178864006Y-118822106D01*
X178864006Y-118953411D01*
X178821214Y-118953411D01*
X178821214Y-118786251D01*
X178823755Y-118780584D01*
X178829128Y-118778337D01*
X179028919Y-118778337D01*
X179049244Y-118780894D01*
G37*
G36*
X179219819Y-119158086D02*
G01*
X179219819Y-118786251D01*
X179227732Y-118778337D01*
X179489951Y-118778337D01*
X179497865Y-118786446D01*
X179497865Y-118813997D01*
X179489951Y-118822106D01*
X179262024Y-118822106D01*
X179262024Y-118953411D01*
X179459568Y-118953411D01*
X179464941Y-118956048D01*
X179467481Y-118961519D01*
X179467481Y-118989070D01*
X179464941Y-118994932D01*
X179459568Y-118997179D01*
X179262024Y-118997179D01*
X179262024Y-119122231D01*
X179489951Y-119122231D01*
X179495618Y-119124869D01*
X179497865Y-119130340D01*
X179497865Y-119157891D01*
X179489951Y-119166000D01*
X179227732Y-119166000D01*
X179219819Y-119158086D01*
G37*
G36*
X179847523Y-119158086D02*
G01*
X179847523Y-118995909D01*
X179643238Y-118826404D01*
X179643238Y-119158086D01*
X179635325Y-119166000D01*
X179608360Y-119166000D01*
X179602987Y-119163752D01*
X179600447Y-119158086D01*
X179600447Y-118786251D01*
X179602987Y-118780584D01*
X179608360Y-118778337D01*
X179646071Y-118778337D01*
X179660140Y-118783418D01*
X179847523Y-118938854D01*
X179847523Y-118786251D01*
X179855436Y-118778337D01*
X179882401Y-118778337D01*
X179890314Y-118786251D01*
X179890314Y-119158086D01*
X179882401Y-119166000D01*
X179855436Y-119166000D01*
X179847523Y-119158086D01*
G37*
G36*
X180272408Y-118953411D02*
G01*
X180278074Y-118955951D01*
X180280321Y-118961226D01*
X180280321Y-119084520D01*
X180277764Y-119104792D01*
X180273775Y-119116369D01*
X180263845Y-119133573D01*
X180256092Y-119142357D01*
X180239747Y-119154697D01*
X180229909Y-119159649D01*
X180210546Y-119165106D01*
X180198158Y-119166000D01*
X180072617Y-119166000D01*
X180052253Y-119163481D01*
X180040768Y-119159551D01*
X180023617Y-119149614D01*
X180014683Y-119141966D01*
X180002471Y-119126525D01*
X179996902Y-119115685D01*
X179991361Y-119095948D01*
X179990454Y-119083445D01*
X179990454Y-118860891D01*
X179992727Y-118841428D01*
X179996902Y-118828944D01*
X180006916Y-118811626D01*
X180014683Y-118802664D01*
X180030139Y-118790406D01*
X180040768Y-118784883D01*
X180060216Y-118779258D01*
X180072617Y-118778337D01*
X180198158Y-118778337D01*
X180218483Y-118780932D01*
X180229909Y-118784981D01*
X180247029Y-118795079D01*
X180255799Y-118802859D01*
X180267920Y-118818506D01*
X180273580Y-118829433D01*
X180279209Y-118848255D01*
X180280321Y-118861966D01*
X180280321Y-118889028D01*
X180272408Y-118897137D01*
X180245443Y-118897137D01*
X180237530Y-118889028D01*
X180237530Y-118861966D01*
X180232637Y-118843022D01*
X180225708Y-118833634D01*
X180208774Y-118823468D01*
X180198158Y-118822106D01*
X180072617Y-118822106D01*
X180053265Y-118827070D01*
X180044773Y-118833634D01*
X180034607Y-118850826D01*
X180033245Y-118861478D01*
X180033245Y-119082859D01*
X180038210Y-119102212D01*
X180044773Y-119110703D01*
X180061966Y-119120869D01*
X180072617Y-119122231D01*
X180198158Y-119122231D01*
X180217510Y-119117435D01*
X180226002Y-119111094D01*
X180236168Y-119094370D01*
X180237530Y-119084032D01*
X180237530Y-118997179D01*
X180145206Y-118997179D01*
X180139833Y-118994932D01*
X180137390Y-118989070D01*
X180137390Y-118961519D01*
X180139833Y-118956048D01*
X180145206Y-118953411D01*
X180272408Y-118953411D01*
G37*
G36*
X180389058Y-119158086D02*
G01*
X180389058Y-118786251D01*
X180396972Y-118778337D01*
X180659191Y-118778337D01*
X180667104Y-118786446D01*
X180667104Y-118813997D01*
X180659191Y-118822106D01*
X180431263Y-118822106D01*
X180431263Y-118953411D01*
X180628807Y-118953411D01*
X180634180Y-118956048D01*
X180636720Y-118961519D01*
X180636720Y-118989070D01*
X180634180Y-118994932D01*
X180628807Y-118997179D01*
X180431263Y-118997179D01*
X180431263Y-119122231D01*
X180659191Y-119122231D01*
X180664857Y-119124869D01*
X180667104Y-119130340D01*
X180667104Y-119157891D01*
X180659191Y-119166000D01*
X180396972Y-119166000D01*
X180389058Y-119158086D01*
G37*
D11*
G36*
X193721650Y-82456496D02*
G01*
X193652068Y-82479949D01*
X193608508Y-82544425D01*
X193604780Y-82573367D01*
X193631725Y-82647074D01*
X193698326Y-82687464D01*
X193721650Y-82689870D01*
X193795358Y-82662956D01*
X193835747Y-82596570D01*
X193838154Y-82573367D01*
X193814726Y-82503784D01*
X193750445Y-82460225D01*
X193721650Y-82456496D01*
G37*
G36*
X193604780Y-83628496D02*
G01*
X193631725Y-83702203D01*
X193698326Y-83742593D01*
X193721650Y-83745000D01*
X193795358Y-83718085D01*
X193835747Y-83651699D01*
X193838154Y-83628496D01*
X193814726Y-83558913D01*
X193750445Y-83515354D01*
X193721650Y-83511625D01*
X193652068Y-83535078D01*
X193608508Y-83599554D01*
X193604780Y-83628496D01*
G37*
G36*
X193604780Y-83417470D02*
G01*
X193631725Y-83491177D01*
X193698326Y-83531567D01*
X193721650Y-83533974D01*
X193795358Y-83507059D01*
X193835747Y-83440673D01*
X193838154Y-83417470D01*
X193814726Y-83347888D01*
X193750445Y-83304328D01*
X193721650Y-83300600D01*
X193652068Y-83324052D01*
X193608508Y-83388529D01*
X193604780Y-83417470D01*
G37*
G36*
X193604780Y-83206444D02*
G01*
X193631725Y-83280152D01*
X193698326Y-83320541D01*
X193721650Y-83322948D01*
X193795358Y-83296033D01*
X193835747Y-83229647D01*
X193838154Y-83206444D01*
X193814726Y-83136862D01*
X193750445Y-83093303D01*
X193721650Y-83089574D01*
X193652068Y-83113026D01*
X193608508Y-83177503D01*
X193604780Y-83206444D01*
G37*
G36*
X193604780Y-82995418D02*
G01*
X193631725Y-83069126D01*
X193698326Y-83109516D01*
X193721650Y-83111922D01*
X193795358Y-83085007D01*
X193835747Y-83018622D01*
X193838154Y-82995418D01*
X193814726Y-82925836D01*
X193750445Y-82882277D01*
X193721650Y-82878548D01*
X193652068Y-82902001D01*
X193608508Y-82966477D01*
X193604780Y-82995418D01*
G37*
G36*
X193604780Y-82784392D02*
G01*
X193631725Y-82858100D01*
X193698326Y-82898490D01*
X193721650Y-82900896D01*
X193795358Y-82873982D01*
X193835747Y-82807596D01*
X193838154Y-82784392D01*
X193814726Y-82714810D01*
X193750445Y-82671251D01*
X193721650Y-82667522D01*
X193652068Y-82690975D01*
X193608508Y-82755451D01*
X193604780Y-82784392D01*
G37*
G36*
X193604780Y-82362341D02*
G01*
X193631725Y-82436048D01*
X193698326Y-82476438D01*
X193721650Y-82478845D01*
X193795358Y-82451930D01*
X193835747Y-82385544D01*
X193838154Y-82362341D01*
X193814726Y-82292758D01*
X193750445Y-82249199D01*
X193721650Y-82245471D01*
X193652068Y-82268923D01*
X193608508Y-82333399D01*
X193604780Y-82362341D01*
G37*
G36*
X193814706Y-83628496D02*
G01*
X193841652Y-83702203D01*
X193908252Y-83742593D01*
X193931577Y-83745000D01*
X194005433Y-83718085D01*
X194046025Y-83651699D01*
X194048447Y-83628496D01*
X194024886Y-83558913D01*
X193960396Y-83515354D01*
X193931577Y-83511625D01*
X193861994Y-83535078D01*
X193818435Y-83599554D01*
X193814706Y-83628496D01*
G37*
G36*
X193814706Y-82995418D02*
G01*
X193841652Y-83069126D01*
X193908252Y-83109516D01*
X193931577Y-83111922D01*
X194005433Y-83085007D01*
X194046025Y-83018622D01*
X194048447Y-82995418D01*
X194024886Y-82925836D01*
X193960396Y-82882277D01*
X193931577Y-82878548D01*
X193861994Y-82902001D01*
X193818435Y-82966477D01*
X193814706Y-82995418D01*
G37*
G36*
X193814706Y-82362341D02*
G01*
X193841652Y-82436048D01*
X193908252Y-82476438D01*
X193931577Y-82478845D01*
X194005433Y-82451930D01*
X194046025Y-82385544D01*
X194048447Y-82362341D01*
X194024886Y-82292758D01*
X193960396Y-82249199D01*
X193931577Y-82245471D01*
X193861994Y-82268923D01*
X193818435Y-82333399D01*
X193814706Y-82362341D01*
G37*
G36*
X194025000Y-83628496D02*
G01*
X194051914Y-83702203D01*
X194118300Y-83742593D01*
X194141503Y-83745000D01*
X194211086Y-83721571D01*
X194254645Y-83657291D01*
X194258374Y-83628496D01*
X194234921Y-83558913D01*
X194170445Y-83515354D01*
X194141503Y-83511625D01*
X194067796Y-83538571D01*
X194027406Y-83605171D01*
X194025000Y-83628496D01*
G37*
G36*
X194025000Y-82995418D02*
G01*
X194051914Y-83069126D01*
X194118300Y-83109516D01*
X194141503Y-83111922D01*
X194211086Y-83088494D01*
X194254645Y-83024213D01*
X194258374Y-82995418D01*
X194234921Y-82925836D01*
X194170445Y-82882277D01*
X194141503Y-82878548D01*
X194067796Y-82905493D01*
X194027406Y-82972094D01*
X194025000Y-82995418D01*
G37*
G36*
X194025000Y-82362341D02*
G01*
X194051914Y-82436048D01*
X194118300Y-82476438D01*
X194141503Y-82478845D01*
X194211086Y-82455417D01*
X194254645Y-82391136D01*
X194258374Y-82362341D01*
X194234921Y-82292758D01*
X194170445Y-82249199D01*
X194141503Y-82245471D01*
X194067796Y-82272416D01*
X194027406Y-82339017D01*
X194025000Y-82362341D01*
G37*
G36*
X194234926Y-83628496D02*
G01*
X194261841Y-83702203D01*
X194328227Y-83742593D01*
X194351430Y-83745000D01*
X194421012Y-83721571D01*
X194464572Y-83657291D01*
X194468300Y-83628496D01*
X194444848Y-83558913D01*
X194380371Y-83515354D01*
X194351430Y-83511625D01*
X194277722Y-83538571D01*
X194237333Y-83605171D01*
X194234926Y-83628496D01*
G37*
G36*
X194234926Y-82995418D02*
G01*
X194261841Y-83069126D01*
X194328227Y-83109516D01*
X194351430Y-83111922D01*
X194421012Y-83088494D01*
X194464572Y-83024213D01*
X194468300Y-82995418D01*
X194444848Y-82925836D01*
X194380371Y-82882277D01*
X194351430Y-82878548D01*
X194277722Y-82905493D01*
X194237333Y-82972094D01*
X194234926Y-82995418D01*
G37*
G36*
X194234926Y-82362341D02*
G01*
X194261841Y-82436048D01*
X194328227Y-82476438D01*
X194351430Y-82478845D01*
X194421012Y-82455417D01*
X194464572Y-82391136D01*
X194468300Y-82362341D01*
X194444848Y-82292758D01*
X194380371Y-82249199D01*
X194351430Y-82245471D01*
X194277722Y-82272416D01*
X194237333Y-82339017D01*
X194234926Y-82362341D01*
G37*
G36*
X194444853Y-83417470D02*
G01*
X194471798Y-83491177D01*
X194538399Y-83531567D01*
X194561723Y-83533974D01*
X194635431Y-83507059D01*
X194675821Y-83440673D01*
X194678227Y-83417470D01*
X194654799Y-83347888D01*
X194590518Y-83304328D01*
X194561723Y-83300600D01*
X194492141Y-83324052D01*
X194448582Y-83388529D01*
X194444853Y-83417470D01*
G37*
G36*
X194444853Y-83206444D02*
G01*
X194471798Y-83280152D01*
X194538399Y-83320541D01*
X194561723Y-83322948D01*
X194635431Y-83296033D01*
X194675821Y-83229647D01*
X194678227Y-83206444D01*
X194654799Y-83136862D01*
X194590518Y-83093303D01*
X194561723Y-83089574D01*
X194492141Y-83113026D01*
X194448582Y-83177503D01*
X194444853Y-83206444D01*
G37*
G36*
X194444853Y-82784392D02*
G01*
X194471798Y-82858100D01*
X194538399Y-82898490D01*
X194561723Y-82900896D01*
X194635431Y-82873982D01*
X194675821Y-82807596D01*
X194678227Y-82784392D01*
X194654799Y-82714810D01*
X194590518Y-82671251D01*
X194561723Y-82667522D01*
X194492141Y-82690975D01*
X194448582Y-82755451D01*
X194444853Y-82784392D01*
G37*
G36*
X194444853Y-82573367D02*
G01*
X194471798Y-82647074D01*
X194538399Y-82687464D01*
X194561723Y-82689870D01*
X194635431Y-82662956D01*
X194675821Y-82596570D01*
X194678227Y-82573367D01*
X194654799Y-82503784D01*
X194590518Y-82460225D01*
X194561723Y-82456496D01*
X194492141Y-82479949D01*
X194448582Y-82544425D01*
X194444853Y-82573367D01*
G37*
D14*
G36*
X184915861Y-83682000D02*
G01*
X184896127Y-83680021D01*
X184877564Y-83674086D01*
X184859705Y-83664079D01*
X184846008Y-83652593D01*
X184833255Y-83636896D01*
X184824612Y-83620939D01*
X184818750Y-83602157D01*
X184816796Y-83581958D01*
X184816796Y-83306745D01*
X184820411Y-83298050D01*
X184829204Y-83294337D01*
X184881472Y-83294337D01*
X184890167Y-83298050D01*
X184893880Y-83306842D01*
X184893880Y-83584205D01*
X184900328Y-83600422D01*
X184915861Y-83606968D01*
X185026161Y-83606968D01*
X185041891Y-83600422D01*
X185048143Y-83584205D01*
X185048143Y-83306842D01*
X185051758Y-83298050D01*
X185060551Y-83294337D01*
X185113307Y-83294337D01*
X185122002Y-83298050D01*
X185125715Y-83306745D01*
X185125715Y-83581958D01*
X185123736Y-83602157D01*
X185117801Y-83620939D01*
X185107870Y-83638874D01*
X185096406Y-83652593D01*
X185080730Y-83665422D01*
X185064654Y-83674086D01*
X185045896Y-83680021D01*
X185026161Y-83682000D01*
X184915861Y-83682000D01*
G37*
G36*
X185450558Y-83408154D02*
G01*
X185441765Y-83404540D01*
X185438150Y-83395747D01*
X185438150Y-83391839D01*
X185431898Y-83375817D01*
X185416168Y-83369369D01*
X185305868Y-83369369D01*
X185290335Y-83376207D01*
X185283887Y-83392914D01*
X185283887Y-83427108D01*
X185290335Y-83443912D01*
X185305868Y-83450653D01*
X185416168Y-83450653D01*
X185435830Y-83452631D01*
X185454368Y-83458566D01*
X185472276Y-83468497D01*
X185485924Y-83479962D01*
X185498726Y-83495583D01*
X185507320Y-83511518D01*
X185513495Y-83531252D01*
X185515233Y-83549718D01*
X185515233Y-83582348D01*
X185513255Y-83602474D01*
X185507320Y-83621232D01*
X185497389Y-83639091D01*
X185485924Y-83652788D01*
X185470303Y-83665541D01*
X185454368Y-83674184D01*
X185434634Y-83680282D01*
X185416168Y-83682000D01*
X185305868Y-83682000D01*
X185286182Y-83680094D01*
X185267571Y-83674379D01*
X185249712Y-83664662D01*
X185236015Y-83653570D01*
X185223262Y-83638343D01*
X185214619Y-83622893D01*
X185208521Y-83603271D01*
X185206803Y-83584400D01*
X185206803Y-83580492D01*
X185210418Y-83571797D01*
X185219211Y-83568085D01*
X185271479Y-83568085D01*
X185280174Y-83571797D01*
X185283887Y-83580492D01*
X185283887Y-83584400D01*
X185290335Y-83600520D01*
X185305868Y-83606968D01*
X185416168Y-83606968D01*
X185431898Y-83600129D01*
X185438150Y-83583228D01*
X185438150Y-83548838D01*
X185431898Y-83532230D01*
X185416168Y-83525684D01*
X185305868Y-83525684D01*
X185286182Y-83523730D01*
X185267571Y-83517868D01*
X185249712Y-83507889D01*
X185236015Y-83496473D01*
X185223262Y-83480824D01*
X185214619Y-83464819D01*
X185208757Y-83446061D01*
X185206803Y-83426326D01*
X185206803Y-83393695D01*
X185208757Y-83373667D01*
X185214619Y-83355007D01*
X185224599Y-83337176D01*
X185236015Y-83323549D01*
X185251684Y-83310823D01*
X185267571Y-83302251D01*
X185287381Y-83296076D01*
X185305868Y-83294337D01*
X185416168Y-83294337D01*
X185435830Y-83296267D01*
X185454368Y-83302055D01*
X185472276Y-83311724D01*
X185485924Y-83322865D01*
X185498726Y-83338043D01*
X185507320Y-83353542D01*
X185513495Y-83373060D01*
X185515233Y-83391839D01*
X185515233Y-83395747D01*
X185511814Y-83404540D01*
X185503412Y-83408154D01*
X185450558Y-83408154D01*
G37*
G36*
X185825837Y-83296316D02*
G01*
X185844375Y-83302251D01*
X185862283Y-83312258D01*
X185875931Y-83323744D01*
X185888733Y-83339441D01*
X185897327Y-83355398D01*
X185903262Y-83374180D01*
X185905240Y-83394379D01*
X185905240Y-83427108D01*
X185903243Y-83447164D01*
X185899574Y-83459934D01*
X185891048Y-83478107D01*
X185884431Y-83488168D01*
X185894834Y-83505288D01*
X185899574Y-83516403D01*
X185904443Y-83536370D01*
X185905240Y-83549229D01*
X185905240Y-83581958D01*
X185903262Y-83602157D01*
X185897327Y-83620939D01*
X185887396Y-83638874D01*
X185875931Y-83652593D01*
X185860310Y-83665422D01*
X185844375Y-83674086D01*
X185824641Y-83680261D01*
X185806175Y-83682000D01*
X185608632Y-83682000D01*
X185600132Y-83678385D01*
X185596810Y-83669592D01*
X185596810Y-83606968D01*
X185673893Y-83606968D01*
X185806175Y-83606968D01*
X185821612Y-83600129D01*
X185828157Y-83583228D01*
X185828157Y-83548838D01*
X185821612Y-83532230D01*
X185806175Y-83525684D01*
X185673893Y-83525684D01*
X185673893Y-83606968D01*
X185596810Y-83606968D01*
X185596810Y-83450653D01*
X185673893Y-83450653D01*
X185806175Y-83450653D01*
X185821612Y-83444107D01*
X185828157Y-83427498D01*
X185828157Y-83393109D01*
X185821612Y-83376207D01*
X185806175Y-83369369D01*
X185673893Y-83369369D01*
X185673893Y-83450653D01*
X185596810Y-83450653D01*
X185596810Y-83306745D01*
X185600132Y-83298050D01*
X185608632Y-83294337D01*
X185806175Y-83294337D01*
X185825837Y-83296316D01*
G37*
G36*
X186282937Y-83794547D02*
G01*
X185998834Y-83794547D01*
X185990041Y-83790932D01*
X185986427Y-83782530D01*
X185986427Y-83731043D01*
X185990041Y-83722739D01*
X185998834Y-83719515D01*
X186282937Y-83719515D01*
X186291632Y-83722739D01*
X186295345Y-83731043D01*
X186295345Y-83782530D01*
X186291632Y-83790932D01*
X186282937Y-83794547D01*
G37*
G36*
X186620676Y-83408154D02*
G01*
X186611884Y-83404540D01*
X186608269Y-83395747D01*
X186608269Y-83391839D01*
X186601821Y-83375817D01*
X186585799Y-83369369D01*
X186476085Y-83369369D01*
X186460258Y-83376012D01*
X186454103Y-83392425D01*
X186454103Y-83583912D01*
X186460258Y-83600325D01*
X186476085Y-83606968D01*
X186585799Y-83606968D01*
X186601821Y-83600520D01*
X186608269Y-83584400D01*
X186608269Y-83580492D01*
X186611884Y-83571797D01*
X186620676Y-83568085D01*
X186672944Y-83568085D01*
X186681639Y-83571797D01*
X186685352Y-83580492D01*
X186685352Y-83584400D01*
X186683374Y-83604477D01*
X186677438Y-83622893D01*
X186667507Y-83640260D01*
X186656043Y-83653570D01*
X186640450Y-83665963D01*
X186624584Y-83674379D01*
X186604685Y-83680325D01*
X186585799Y-83682000D01*
X186475987Y-83682000D01*
X186456252Y-83680021D01*
X186437494Y-83674086D01*
X186419407Y-83664079D01*
X186405645Y-83652593D01*
X186392892Y-83636896D01*
X186384249Y-83620939D01*
X186378388Y-83602157D01*
X186376434Y-83581958D01*
X186376434Y-83394379D01*
X186378388Y-83374180D01*
X186384249Y-83355398D01*
X186394229Y-83337463D01*
X186405645Y-83323744D01*
X186421397Y-83310915D01*
X186437494Y-83302251D01*
X186456252Y-83296316D01*
X186475987Y-83294337D01*
X186585799Y-83294337D01*
X186605900Y-83296267D01*
X186624584Y-83302055D01*
X186642416Y-83311724D01*
X186656043Y-83322865D01*
X186668845Y-83338043D01*
X186677438Y-83353542D01*
X186683613Y-83373060D01*
X186685352Y-83391839D01*
X186685352Y-83395747D01*
X186681639Y-83404540D01*
X186672944Y-83408154D01*
X186620676Y-83408154D01*
G37*
D15*
X188097142Y-87534819D02*
X187763809Y-87058628D01*
X187525714Y-87534819D02*
X187525714Y-86534819D01*
X187525714Y-86534819D02*
X187906666Y-86534819D01*
X187906666Y-86534819D02*
X188001904Y-86582438D01*
X188001904Y-86582438D02*
X188049523Y-86630057D01*
X188049523Y-86630057D02*
X188097142Y-86725295D01*
X188097142Y-86725295D02*
X188097142Y-86868152D01*
X188097142Y-86868152D02*
X188049523Y-86963390D01*
X188049523Y-86963390D02*
X188001904Y-87011009D01*
X188001904Y-87011009D02*
X187906666Y-87058628D01*
X187906666Y-87058628D02*
X187525714Y-87058628D01*
X188478095Y-86630057D02*
X188525714Y-86582438D01*
X188525714Y-86582438D02*
X188620952Y-86534819D01*
X188620952Y-86534819D02*
X188859047Y-86534819D01*
X188859047Y-86534819D02*
X188954285Y-86582438D01*
X188954285Y-86582438D02*
X189001904Y-86630057D01*
X189001904Y-86630057D02*
X189049523Y-86725295D01*
X189049523Y-86725295D02*
X189049523Y-86820533D01*
X189049523Y-86820533D02*
X189001904Y-86963390D01*
X189001904Y-86963390D02*
X188430476Y-87534819D01*
X188430476Y-87534819D02*
X189049523Y-87534819D01*
X190001904Y-87534819D02*
X189430476Y-87534819D01*
X189716190Y-87534819D02*
X189716190Y-86534819D01*
X189716190Y-86534819D02*
X189620952Y-86677676D01*
X189620952Y-86677676D02*
X189525714Y-86772914D01*
X189525714Y-86772914D02*
X189430476Y-86820533D01*
D16*
%TO.C,R21*%
X188586359Y-87870000D02*
X188893641Y-87870000D01*
X188586359Y-88630000D02*
X188893641Y-88630000D01*
%TO.C,C6*%
X183642164Y-107890000D02*
X183857836Y-107890000D01*
X183642164Y-108610000D02*
X183857836Y-108610000D01*
%TO.C,Dig4*%
X185930000Y-100560000D02*
X185930000Y-95500000D01*
X193070000Y-90440000D02*
X193070000Y-100560000D01*
%TO.C,Y2*%
X168625000Y-114925000D02*
X168625000Y-113575000D01*
X170375000Y-114925000D02*
X170375000Y-113575000D01*
D17*
%TO.C,G1*%
G36*
X161064468Y-84695990D02*
G01*
X161059482Y-85105587D01*
X160568527Y-85417980D01*
X160447512Y-85494716D01*
X160336433Y-85564644D01*
X160239162Y-85625366D01*
X160159566Y-85674488D01*
X160101516Y-85709612D01*
X160068881Y-85728344D01*
X160063315Y-85730813D01*
X160059365Y-85713311D01*
X160056290Y-85664081D01*
X160054213Y-85588441D01*
X160053257Y-85491708D01*
X160053544Y-85379201D01*
X160054052Y-85329610D01*
X160059045Y-84927967D01*
X160262838Y-84798115D01*
X160348340Y-84743700D01*
X160454931Y-84675961D01*
X160572391Y-84601388D01*
X160690498Y-84526472D01*
X160768042Y-84477328D01*
X161069454Y-84286393D01*
X161064468Y-84695990D01*
G37*
G36*
X161062017Y-85545101D02*
G01*
X161064367Y-85594475D01*
X161066224Y-85670265D01*
X161067472Y-85767152D01*
X161067999Y-85879818D01*
X161067977Y-85930416D01*
X161067208Y-86333370D01*
X160618706Y-86615953D01*
X160500006Y-86690772D01*
X160388807Y-86760920D01*
X160289767Y-86823454D01*
X160207545Y-86875432D01*
X160146799Y-86913910D01*
X160112186Y-86935946D01*
X160109993Y-86937356D01*
X160049782Y-86976177D01*
X160049782Y-86568595D01*
X160049782Y-86161014D01*
X160549806Y-85844238D01*
X160671795Y-85767135D01*
X160783608Y-85696812D01*
X160881449Y-85635626D01*
X160961526Y-85585937D01*
X161020044Y-85550104D01*
X161053209Y-85530486D01*
X161059288Y-85527461D01*
X161062017Y-85545101D01*
G37*
G36*
X161068746Y-87152743D02*
G01*
X161068746Y-87556451D01*
X160582422Y-87863907D01*
X160461283Y-87940443D01*
X160349672Y-88010864D01*
X160251591Y-88072653D01*
X160171043Y-88123293D01*
X160112031Y-88160264D01*
X160078557Y-88181048D01*
X160072940Y-88184423D01*
X160065084Y-88181421D01*
X160059113Y-88160008D01*
X160054813Y-88116573D01*
X160051970Y-88047506D01*
X160050370Y-87949199D01*
X160049801Y-87818042D01*
X160049791Y-87793435D01*
X160049800Y-87389387D01*
X160516017Y-87092961D01*
X160635692Y-87016993D01*
X160746922Y-86946620D01*
X160845391Y-86884554D01*
X160926781Y-86833507D01*
X160986778Y-86796193D01*
X161021065Y-86775323D01*
X161025490Y-86772785D01*
X161068746Y-86749035D01*
X161068746Y-87152743D01*
G37*
D16*
%TO.C,C1*%
X166587836Y-108140000D02*
X166372164Y-108140000D01*
X166587836Y-108860000D02*
X166372164Y-108860000D01*
%TO.C,J1*%
X182200000Y-84780000D02*
X182200000Y-83000000D01*
X180300000Y-87700000D02*
X181100000Y-87700000D01*
X172800000Y-84780000D02*
X172800000Y-83000000D01*
%TO.C,C9*%
X168607836Y-111140000D02*
X168392164Y-111140000D01*
X168607836Y-111860000D02*
X168392164Y-111860000D01*
D17*
%TO.C,graphic2*%
G36*
X193695403Y-86872020D02*
G01*
X193727560Y-86892454D01*
X193787293Y-86930262D01*
X193869792Y-86982403D01*
X193970248Y-87045840D01*
X194083851Y-87117535D01*
X194205790Y-87194449D01*
X194221065Y-87204081D01*
X194684518Y-87496308D01*
X194685232Y-87903052D01*
X194684964Y-88044646D01*
X194683456Y-88151711D01*
X194680494Y-88227982D01*
X194675864Y-88277200D01*
X194669354Y-88303100D01*
X194662020Y-88309576D01*
X194640471Y-88299608D01*
X194590804Y-88271479D01*
X194517130Y-88227679D01*
X194423565Y-88170700D01*
X194314220Y-88103033D01*
X194193210Y-88027170D01*
X194135645Y-87990768D01*
X193633196Y-87672180D01*
X193633196Y-87252183D01*
X193633196Y-86832187D01*
X193695403Y-86872020D01*
G37*
G36*
X193663056Y-84319234D02*
G01*
X193709904Y-84347272D01*
X193781131Y-84391009D01*
X193872791Y-84448000D01*
X193980940Y-84515795D01*
X194101631Y-84591949D01*
X194171281Y-84636099D01*
X194685946Y-84962853D01*
X194685946Y-85382594D01*
X194685738Y-85504602D01*
X194685157Y-85612523D01*
X194684264Y-85700912D01*
X194683122Y-85764323D01*
X194681793Y-85797312D01*
X194681161Y-85800784D01*
X194664473Y-85790498D01*
X194619387Y-85762056D01*
X194549766Y-85717911D01*
X194459472Y-85660517D01*
X194352368Y-85592329D01*
X194232315Y-85515800D01*
X194159571Y-85469386D01*
X193642766Y-85139539D01*
X193637607Y-84724442D01*
X193636629Y-84603040D01*
X193636779Y-84495646D01*
X193637965Y-84407760D01*
X193640096Y-84344883D01*
X193643079Y-84312518D01*
X193644532Y-84309345D01*
X193663056Y-84319234D01*
G37*
G36*
X193657122Y-85583789D02*
G01*
X193678742Y-85597016D01*
X193728584Y-85628098D01*
X193802510Y-85674435D01*
X193896383Y-85733430D01*
X194006064Y-85802482D01*
X194127416Y-85878994D01*
X194183497Y-85914387D01*
X194685946Y-86231581D01*
X194685946Y-86648609D01*
X194685737Y-86770291D01*
X194685152Y-86877950D01*
X194684253Y-86966104D01*
X194683104Y-87029269D01*
X194681768Y-87061961D01*
X194681161Y-87065284D01*
X194664440Y-87055351D01*
X194619246Y-87027342D01*
X194549438Y-86983679D01*
X194458874Y-86926784D01*
X194351412Y-86859081D01*
X194230911Y-86782991D01*
X194155198Y-86735104D01*
X193634021Y-86405275D01*
X193633608Y-85987831D01*
X193633908Y-85846471D01*
X193635268Y-85739653D01*
X193637906Y-85663645D01*
X193642038Y-85614713D01*
X193647883Y-85589128D01*
X193655656Y-85583158D01*
X193657122Y-85583789D01*
G37*
D16*
%TO.C,R8*%
X189653641Y-111870000D02*
X189346359Y-111870000D01*
X189653641Y-112630000D02*
X189346359Y-112630000D01*
%TO.C,R6*%
X189403641Y-109370000D02*
X189096359Y-109370000D01*
X189403641Y-110130000D02*
X189096359Y-110130000D01*
%TO.C,R5*%
X165120000Y-103413641D02*
X165120000Y-103106359D01*
X165880000Y-103413641D02*
X165880000Y-103106359D01*
%TO.C,C10*%
X169892164Y-117140000D02*
X170107836Y-117140000D01*
X169892164Y-117860000D02*
X170107836Y-117860000D01*
D15*
%TO.C,U7*%
X172373476Y-111500000D02*
X172532575Y-111659099D01*
X172373476Y-111500000D02*
X172603286Y-111270190D01*
X177500000Y-106373476D02*
X177270190Y-106603286D01*
X177500000Y-106373476D02*
X177729810Y-106603286D01*
X177500000Y-116626524D02*
X177270190Y-116396714D01*
X177500000Y-116626524D02*
X177729810Y-116396714D01*
X182626524Y-111500000D02*
X182396714Y-111270190D01*
X182626524Y-111500000D02*
X182396714Y-111729810D01*
D16*
X172034065Y-112242462D02*
X171461308Y-112150538D01*
X171942141Y-111669706D01*
X172034065Y-112242462D01*
G36*
X172034065Y-112242462D02*
G01*
X171461308Y-112150538D01*
X171942141Y-111669706D01*
X172034065Y-112242462D01*
G37*
%TO.C,SW4*%
X188850000Y-81600000D02*
X192150000Y-81600000D01*
X188850000Y-81900000D02*
X188850000Y-81600000D01*
X188850000Y-84100000D02*
X188850000Y-84400000D01*
X188850000Y-84400000D02*
X192150000Y-84400000D01*
X192150000Y-81600000D02*
X192150000Y-81900000D01*
X192150000Y-84400000D02*
X192150000Y-84100000D01*
%TO.C,R7*%
X189653641Y-110620000D02*
X189346359Y-110620000D01*
X189653641Y-111380000D02*
X189346359Y-111380000D01*
%TO.C,C5*%
X166587836Y-109390000D02*
X166372164Y-109390000D01*
X166587836Y-110110000D02*
X166372164Y-110110000D01*
%TO.C,SW1*%
X162600000Y-114350000D02*
X162900000Y-114350000D01*
X162600000Y-117650000D02*
X162600000Y-114350000D01*
X162900000Y-117650000D02*
X162600000Y-117650000D01*
X165100000Y-117650000D02*
X165400000Y-117650000D01*
X165400000Y-114350000D02*
X165100000Y-114350000D01*
X165400000Y-117650000D02*
X165400000Y-114350000D01*
%TO.C,C7*%
X183857836Y-82890000D02*
X183642164Y-82890000D01*
X183857836Y-83610000D02*
X183642164Y-83610000D01*
%TO.C,Q3*%
X183187500Y-104440000D02*
X182537500Y-104440000D01*
X183187500Y-104440000D02*
X183837500Y-104440000D01*
X183187500Y-107560000D02*
X182537500Y-107560000D01*
X183187500Y-107560000D02*
X183837500Y-107560000D01*
X184590000Y-107840000D02*
X184110000Y-107840000D01*
X184350000Y-107510000D01*
X184590000Y-107840000D01*
G36*
X184590000Y-107840000D02*
G01*
X184110000Y-107840000D01*
X184350000Y-107510000D01*
X184590000Y-107840000D01*
G37*
%TO.C,C_IN1*%
X190359420Y-86490000D02*
X190640580Y-86490000D01*
X190359420Y-87510000D02*
X190640580Y-87510000D01*
%TO.C,R15*%
X189653641Y-116870000D02*
X189346359Y-116870000D01*
X189653641Y-117630000D02*
X189346359Y-117630000D01*
%TO.C,U2*%
X185200000Y-88067500D02*
X184720000Y-87587500D01*
X185200000Y-87587500D01*
X185200000Y-88067500D01*
G36*
X185200000Y-88067500D02*
G01*
X184720000Y-87587500D01*
X185200000Y-87587500D01*
X185200000Y-88067500D01*
G37*
X187885000Y-87037500D02*
X187885000Y-84537500D01*
X185115000Y-87037500D02*
X185115000Y-84537500D01*
%TO.C,R11*%
X181620000Y-103403641D02*
X181620000Y-103096359D01*
X182380000Y-103403641D02*
X182380000Y-103096359D01*
%TO.C,Dig1*%
X161930000Y-100560000D02*
X161930000Y-95500000D01*
X169070000Y-90440000D02*
X169070000Y-100560000D01*
%TO.C,R20*%
X191096359Y-104130000D02*
X191403641Y-104130000D01*
X191096359Y-103370000D02*
X191403641Y-103370000D01*
%TO.C,Q4*%
X190812500Y-104390000D02*
X190162500Y-104390000D01*
X190812500Y-104390000D02*
X191462500Y-104390000D01*
X190812500Y-107510000D02*
X190162500Y-107510000D01*
X190812500Y-107510000D02*
X191462500Y-107510000D01*
X192215000Y-107790000D02*
X191735000Y-107790000D01*
X191975000Y-107460000D01*
X192215000Y-107790000D01*
G36*
X192215000Y-107790000D02*
G01*
X191735000Y-107790000D01*
X191975000Y-107460000D01*
X192215000Y-107790000D01*
G37*
%TO.C,R3*%
X170653641Y-85120000D02*
X170346359Y-85120000D01*
X170653641Y-85880000D02*
X170346359Y-85880000D01*
%TO.C,R14*%
X189663641Y-115620000D02*
X189356359Y-115620000D01*
X189663641Y-116380000D02*
X189356359Y-116380000D01*
%TO.C,R12*%
X189120000Y-103413641D02*
X189120000Y-103106359D01*
X189880000Y-103413641D02*
X189880000Y-103106359D01*
%TO.C,Q2*%
X171500000Y-104440000D02*
X170850000Y-104440000D01*
X171500000Y-104440000D02*
X172150000Y-104440000D01*
X171500000Y-107560000D02*
X170850000Y-107560000D01*
X171500000Y-107560000D02*
X172150000Y-107560000D01*
X170337500Y-104490000D02*
X170097500Y-104160000D01*
X170577500Y-104160000D01*
X170337500Y-104490000D01*
G36*
X170337500Y-104490000D02*
G01*
X170097500Y-104160000D01*
X170577500Y-104160000D01*
X170337500Y-104490000D01*
G37*
%TO.C,U1*%
X169500000Y-81440000D02*
X168700000Y-81440000D01*
X169500000Y-81440000D02*
X170300000Y-81440000D01*
X169500000Y-84560000D02*
X168700000Y-84560000D01*
X169500000Y-84560000D02*
X170300000Y-84560000D01*
X168200000Y-81490000D02*
X167960000Y-81160000D01*
X168440000Y-81160000D01*
X168200000Y-81490000D01*
G36*
X168200000Y-81490000D02*
G01*
X167960000Y-81160000D01*
X168440000Y-81160000D01*
X168200000Y-81490000D01*
G37*
%TO.C,Dig3*%
X178430000Y-100560000D02*
X178430000Y-95500000D01*
X185570000Y-90440000D02*
X185570000Y-100560000D01*
%TO.C,SW3*%
X162850000Y-81600000D02*
X162850000Y-81900000D01*
X162850000Y-84400000D02*
X162850000Y-84100000D01*
X166150000Y-81600000D02*
X162850000Y-81600000D01*
X166150000Y-81900000D02*
X166150000Y-81600000D01*
X166150000Y-84100000D02*
X166150000Y-84400000D01*
X166150000Y-84400000D02*
X162850000Y-84400000D01*
%TO.C,R16*%
X189663641Y-118120000D02*
X189356359Y-118120000D01*
X189663641Y-118880000D02*
X189356359Y-118880000D01*
%TO.C,R9*%
X189653641Y-113120000D02*
X189346359Y-113120000D01*
X189653641Y-113880000D02*
X189346359Y-113880000D01*
%TO.C,R1*%
X163346359Y-87620000D02*
X163653641Y-87620000D01*
X163346359Y-88380000D02*
X163653641Y-88380000D01*
%TO.C,D2*%
X176860000Y-102650000D02*
X174200000Y-102650000D01*
X176860000Y-104350000D02*
X174200000Y-104350000D01*
X176860000Y-104350000D02*
X176860000Y-102650000D01*
%TO.C,R18*%
X169130000Y-107643641D02*
X169130000Y-107336359D01*
X168370000Y-107643641D02*
X168370000Y-107336359D01*
%TO.C,C_OUT1*%
X190609420Y-107990000D02*
X190890580Y-107990000D01*
X190609420Y-109010000D02*
X190890580Y-109010000D01*
%TO.C,Dig2*%
X169430000Y-100560000D02*
X169430000Y-95500000D01*
X176570000Y-90440000D02*
X176570000Y-100560000D01*
%TO.C,R4*%
X163346359Y-86120000D02*
X163653641Y-86120000D01*
X163346359Y-86880000D02*
X163653641Y-86880000D01*
%TO.C,R17*%
X161880000Y-107653641D02*
X161880000Y-107346359D01*
X161120000Y-107653641D02*
X161120000Y-107346359D01*
%TO.C,D1*%
X168890000Y-86350000D02*
X168890000Y-88050000D01*
X168890000Y-86350000D02*
X171550000Y-86350000D01*
X168890000Y-88050000D02*
X171550000Y-88050000D01*
%TO.C,R13*%
X189663641Y-114370000D02*
X189356359Y-114370000D01*
X189663641Y-115130000D02*
X189356359Y-115130000D01*
%TO.C,L1*%
X184350378Y-80690000D02*
X185149622Y-80690000D01*
X184350378Y-81810000D02*
X185149622Y-81810000D01*
%TO.C,R19*%
X186880000Y-110153641D02*
X186880000Y-109846359D01*
X186120000Y-110153641D02*
X186120000Y-109846359D01*
%TO.C,C8*%
X190359420Y-84990000D02*
X190640580Y-84990000D01*
X190359420Y-86010000D02*
X190640580Y-86010000D01*
D10*
%TO.C,D3*%
X165960000Y-86500000D02*
G75*
G02*
X165860000Y-86500000I-50000J0D01*
G01*
X165860000Y-86500000D02*
G75*
G02*
X165960000Y-86500000I50000J0D01*
G01*
D16*
%TO.C,R10*%
X172620000Y-103403641D02*
X172620000Y-103096359D01*
X173380000Y-103403641D02*
X173380000Y-103096359D01*
%TO.C,R2*%
X183820000Y-86978641D02*
X183820000Y-86671359D01*
X184580000Y-86978641D02*
X184580000Y-86671359D01*
%TO.C,Q1*%
X164250000Y-104440000D02*
X163600000Y-104440000D01*
X164250000Y-104440000D02*
X164900000Y-104440000D01*
X164250000Y-107560000D02*
X163600000Y-107560000D01*
X164250000Y-107560000D02*
X164900000Y-107560000D01*
X163087500Y-104490000D02*
X162847500Y-104160000D01*
X163327500Y-104160000D01*
X163087500Y-104490000D01*
G36*
X163087500Y-104490000D02*
G01*
X162847500Y-104160000D01*
X163327500Y-104160000D01*
X163087500Y-104490000D01*
G37*
%TD*%
%LPC*%
D18*
%TO.C,R21*%
X188230000Y-88250000D03*
X189250000Y-88250000D03*
%TD*%
D19*
%TO.C,C6*%
X183270000Y-108250000D03*
X184230000Y-108250000D03*
%TD*%
D20*
%TO.C,Dig4*%
X186620000Y-100500000D03*
X188060000Y-100500000D03*
X189500000Y-100500000D03*
X190940000Y-100500000D03*
X192380000Y-100500000D03*
X192380000Y-90500000D03*
X190940000Y-90500000D03*
X189500000Y-90500000D03*
X188060000Y-90500000D03*
X186620000Y-90500000D03*
%TD*%
D21*
%TO.C,Y2*%
X169500000Y-113000000D03*
X169500000Y-115500000D03*
%TD*%
D22*
%TO.C,C1*%
X166960000Y-108500000D03*
X166000000Y-108500000D03*
%TD*%
D23*
%TO.C,J1*%
X173180000Y-81925000D03*
D24*
X173180000Y-86105000D03*
D23*
X181820000Y-81925000D03*
D24*
X181820000Y-86105000D03*
D25*
X180700000Y-86745000D03*
X179900000Y-86745000D03*
D26*
X179250000Y-86745000D03*
X178250000Y-86745000D03*
X176750000Y-86745000D03*
X175750000Y-86745000D03*
D25*
X175100000Y-86745000D03*
X174300000Y-86745000D03*
X174300000Y-86745000D03*
X175100000Y-86745000D03*
D26*
X176250000Y-86745000D03*
X177250000Y-86745000D03*
X177750000Y-86745000D03*
X178750000Y-86745000D03*
D25*
X179900000Y-86745000D03*
X180700000Y-86745000D03*
D27*
X174610000Y-85605000D03*
X180390000Y-85605000D03*
%TD*%
D22*
%TO.C,C9*%
X168980000Y-111500000D03*
X168020000Y-111500000D03*
%TD*%
D28*
%TO.C,R8*%
X190010000Y-112250000D03*
X188990000Y-112250000D03*
%TD*%
%TO.C,R6*%
X189760000Y-109750000D03*
X188740000Y-109750000D03*
%TD*%
D29*
%TO.C,R5*%
X165500000Y-103770000D03*
X165500000Y-102750000D03*
%TD*%
D19*
%TO.C,C10*%
X169520000Y-117500000D03*
X170480000Y-117500000D03*
%TD*%
D30*
%TO.C,U7*%
X172514897Y-112525305D03*
X173080583Y-113090990D03*
X173646268Y-113656676D03*
X174211953Y-114222361D03*
X174777639Y-114788047D03*
X175343324Y-115353732D03*
X175909010Y-115919417D03*
X176474695Y-116485103D03*
D31*
X178525305Y-116485103D03*
X179090990Y-115919417D03*
X179656676Y-115353732D03*
X180222361Y-114788047D03*
X180788047Y-114222361D03*
X181353732Y-113656676D03*
X181919417Y-113090990D03*
X182485103Y-112525305D03*
D30*
X182485103Y-110474695D03*
X181919417Y-109909010D03*
X181353732Y-109343324D03*
X180788047Y-108777639D03*
X180222361Y-108211953D03*
X179656676Y-107646268D03*
X179090990Y-107080583D03*
X178525305Y-106514897D03*
D31*
X176474695Y-106514897D03*
X175909010Y-107080583D03*
X175343324Y-107646268D03*
X174777639Y-108211953D03*
X174211953Y-108777639D03*
X173646268Y-109343324D03*
X173080583Y-109909010D03*
X172514897Y-110474695D03*
%TD*%
D32*
%TO.C,SW4*%
X188800000Y-83000000D03*
X192200000Y-83000000D03*
%TD*%
D28*
%TO.C,R7*%
X190010000Y-111000000D03*
X188990000Y-111000000D03*
%TD*%
D22*
%TO.C,C5*%
X166960000Y-109750000D03*
X166000000Y-109750000D03*
%TD*%
D33*
%TO.C,SW1*%
X164000000Y-117700000D03*
X164000000Y-114300000D03*
%TD*%
D22*
%TO.C,C7*%
X184230000Y-83250000D03*
X183270000Y-83250000D03*
%TD*%
D34*
%TO.C,Q3*%
X184125000Y-106950000D03*
X184125000Y-105050000D03*
X182250000Y-106000000D03*
%TD*%
D35*
%TO.C,C_IN1*%
X189725000Y-87000000D03*
X191275000Y-87000000D03*
%TD*%
D28*
%TO.C,R15*%
X190010000Y-117250000D03*
X188990000Y-117250000D03*
%TD*%
D36*
%TO.C,U2*%
X186500000Y-85787500D03*
D37*
X185500000Y-84575000D03*
X186000000Y-84575000D03*
X186500000Y-84575000D03*
X187000000Y-84575000D03*
X187500000Y-84575000D03*
X187500000Y-87000000D03*
X187000000Y-87000000D03*
X186500000Y-87000000D03*
X186000000Y-87000000D03*
X185500000Y-87000000D03*
%TD*%
D29*
%TO.C,R11*%
X182000000Y-103760000D03*
X182000000Y-102740000D03*
%TD*%
D20*
%TO.C,Dig1*%
X162620000Y-100500000D03*
X164060000Y-100500000D03*
X165500000Y-100500000D03*
X166940000Y-100500000D03*
X168380000Y-100500000D03*
X168380000Y-90500000D03*
X166940000Y-90500000D03*
X165500000Y-90500000D03*
X164060000Y-90500000D03*
X162620000Y-90500000D03*
%TD*%
D18*
%TO.C,R20*%
X191760000Y-103750000D03*
X190740000Y-103750000D03*
%TD*%
D34*
%TO.C,Q4*%
X191750000Y-106900000D03*
X191750000Y-105000000D03*
X189875000Y-105950000D03*
%TD*%
D28*
%TO.C,R3*%
X171010000Y-85500000D03*
X169990000Y-85500000D03*
%TD*%
%TO.C,R14*%
X190020000Y-116000000D03*
X189000000Y-116000000D03*
%TD*%
D29*
%TO.C,R12*%
X189500000Y-103770000D03*
X189500000Y-102750000D03*
%TD*%
D38*
%TO.C,Q2*%
X170562500Y-105050000D03*
X170562500Y-106950000D03*
X172437500Y-106000000D03*
%TD*%
D39*
%TO.C,U1*%
X168362500Y-82050000D03*
X168362500Y-83000000D03*
X168362500Y-83950000D03*
X170637500Y-83950000D03*
X170637500Y-82050000D03*
%TD*%
D20*
%TO.C,Dig3*%
X179120000Y-100500000D03*
X180560000Y-100500000D03*
X182000000Y-100500000D03*
X183440000Y-100500000D03*
X184880000Y-100500000D03*
X184880000Y-90500000D03*
X183440000Y-90500000D03*
X182000000Y-90500000D03*
X180560000Y-90500000D03*
X179120000Y-90500000D03*
%TD*%
D32*
%TO.C,SW3*%
X166200000Y-83000000D03*
X162800000Y-83000000D03*
%TD*%
D28*
%TO.C,R16*%
X190020000Y-118500000D03*
X189000000Y-118500000D03*
%TD*%
%TO.C,R9*%
X190010000Y-113500000D03*
X188990000Y-113500000D03*
%TD*%
D18*
%TO.C,R1*%
X162990000Y-88000000D03*
X164010000Y-88000000D03*
%TD*%
D40*
%TO.C,D2*%
X176300000Y-103500000D03*
X174200000Y-103500000D03*
%TD*%
D29*
%TO.C,R18*%
X168750000Y-106980000D03*
X168750000Y-108000000D03*
%TD*%
D35*
%TO.C,C_OUT1*%
X189975000Y-108500000D03*
X191525000Y-108500000D03*
%TD*%
D20*
%TO.C,Dig2*%
X170120000Y-100500000D03*
X171560000Y-100500000D03*
X173000000Y-100500000D03*
X174440000Y-100500000D03*
X175880000Y-100500000D03*
X175880000Y-90500000D03*
X174440000Y-90500000D03*
X173000000Y-90500000D03*
X171560000Y-90500000D03*
X170120000Y-90500000D03*
%TD*%
D18*
%TO.C,R4*%
X162990000Y-86500000D03*
X164010000Y-86500000D03*
%TD*%
D29*
%TO.C,R17*%
X161500000Y-106990000D03*
X161500000Y-108010000D03*
%TD*%
D41*
%TO.C,D1*%
X169450000Y-87200000D03*
X171550000Y-87200000D03*
%TD*%
D28*
%TO.C,R13*%
X190020000Y-114750000D03*
X189000000Y-114750000D03*
%TD*%
D42*
%TO.C,L1*%
X183687500Y-81250000D03*
X185812500Y-81250000D03*
%TD*%
D29*
%TO.C,R19*%
X186500000Y-109490000D03*
X186500000Y-110510000D03*
%TD*%
D35*
%TO.C,C8*%
X189725000Y-85500000D03*
X191275000Y-85500000D03*
%TD*%
D43*
%TO.C,D3*%
X166515000Y-86500000D03*
X167485000Y-86500000D03*
%TD*%
D29*
%TO.C,R10*%
X173000000Y-103760000D03*
X173000000Y-102740000D03*
%TD*%
%TO.C,R2*%
X184200000Y-87335000D03*
X184200000Y-86315000D03*
%TD*%
D38*
%TO.C,Q1*%
X163312500Y-105050000D03*
X163312500Y-106950000D03*
X165187500Y-106000000D03*
%TD*%
%LPD*%
M02*
