%TF.GenerationSoftware,KiCad,Pcbnew,8.0.8*%
%TF.CreationDate,2025-05-27T20:59:17+01:00*%
%TF.ProjectId,Watch,57617463-682e-46b6-9963-61645f706362,rev?*%
%TF.SameCoordinates,Original*%
%TF.FileFunction,Copper,L2,Bot*%
%TF.FilePolarity,Positive*%
%FSLAX46Y46*%
G04 Gerber Fmt 4.6, Leading zero omitted, Abs format (unit mm)*
G04 Created by KiCad (PCBNEW 8.0.8) date 2025-05-27 20:59:17*
%MOMM*%
%LPD*%
G01*
G04 APERTURE LIST*
%TA.AperFunction,HeatsinkPad*%
%ADD10O,1.000000X1.600000*%
%TD*%
%TA.AperFunction,HeatsinkPad*%
%ADD11O,1.000000X2.100000*%
%TD*%
%TA.AperFunction,SMDPad,CuDef*%
%ADD12R,2.600000X3.600000*%
%TD*%
%TA.AperFunction,ViaPad*%
%ADD13C,0.600000*%
%TD*%
%TA.AperFunction,Conductor*%
%ADD14C,0.200000*%
%TD*%
G04 APERTURE END LIST*
D10*
%TO.P,J1,S1,SHIELD*%
%TO.N,GND*%
X173180000Y-81925000D03*
D11*
X173180000Y-86105000D03*
D10*
X181820000Y-81925000D03*
D11*
X181820000Y-86105000D03*
%TD*%
D12*
%TO.P,BT1,2,-*%
%TO.N,GND*%
X162750000Y-97500000D03*
%TO.P,BT1,1,+*%
%TO.N,Net-(BT1-+)*%
X192050000Y-97500000D03*
%TD*%
D13*
%TO.N,GND*%
X186000000Y-110500000D03*
X191000000Y-86750000D03*
X161250000Y-106250000D03*
X164325000Y-88000000D03*
X161500000Y-95000000D03*
X161500000Y-92750000D03*
%TO.N,A0*%
X187250000Y-111750000D03*
X172424823Y-111150734D03*
%TO.N,Net-(Dig3-CA-Pad3)*%
X183925000Y-104250000D03*
%TO.N,SEL-D3*%
X182612267Y-109031891D03*
X189000000Y-110000000D03*
%TO.N,SEL-D4*%
X181931891Y-108431891D03*
X192500000Y-110000000D03*
%TO.N,Btn2*%
X162750000Y-83000000D03*
X173750000Y-118950000D03*
X186000000Y-117000000D03*
X162101472Y-118950000D03*
%TO.N,DP*%
X193650000Y-104500000D03*
X184880000Y-100500000D03*
%TO.N,E*%
X179120000Y-100500000D03*
X179656676Y-113853732D03*
%TO.N,G*%
X180788047Y-112722361D03*
%TO.N,Net-(Dig3-CA-Pad3)*%
X182000000Y-90750000D03*
X182000000Y-100500000D03*
%TO.N,B*%
X186000000Y-92949997D03*
%TO.N,Net-(Dig1-CA-Pad3)*%
X165500000Y-90500000D03*
%TO.N,B*%
X169500000Y-92750000D03*
%TO.N,Net-(Dig1-CA-Pad3)*%
X165500000Y-100500000D03*
%TO.N,Net-(Dig2-CA-Pad3)*%
X173000000Y-90500000D03*
X173000000Y-100500000D03*
%TO.N,+5V*%
X193589265Y-88410735D03*
%TO.N,Net-(U7-VDDCORE)*%
X169000000Y-103750000D03*
X174234835Y-107265165D03*
%TO.N,Net-(Dig1-CA-Pad3)*%
X164025000Y-103000000D03*
%TO.N,F*%
X194250000Y-108250000D03*
%TO.N,Net-(U7-VDDANA)*%
X180000000Y-116000000D03*
X190275000Y-116000000D03*
%TO.N,D*%
X171250000Y-116000000D03*
X161000000Y-107750000D03*
X161400000Y-109513877D03*
X164625000Y-97625000D03*
%TO.N,C*%
X172000000Y-115500000D03*
X167000000Y-102750000D03*
%TO.N,B*%
X172750000Y-115000000D03*
%TO.N,A*%
X173500000Y-114500000D03*
%TO.N,Net-(U7-VDDIN)*%
X186000000Y-113000000D03*
X180930634Y-110319366D03*
%TO.N,SEL-D2*%
X175651473Y-108999999D03*
X169500000Y-110550735D03*
%TO.N,C*%
X186500000Y-97750000D03*
X169750000Y-97750000D03*
X178750000Y-97750000D03*
X172752983Y-97758949D03*
X189750000Y-97750000D03*
X181752983Y-97758949D03*
%TO.N,D*%
X170500000Y-97000000D03*
X181500000Y-97000000D03*
X187250000Y-97000000D03*
X188600000Y-96825735D03*
X172500000Y-97000000D03*
X179500000Y-97000000D03*
%TO.N,+5V*%
X184362500Y-83950000D03*
%TO.N,Net-(BT1-+)*%
X192500000Y-85250000D03*
X169750000Y-83000000D03*
%TO.N,Net-(D76-A)*%
X173997940Y-84979695D03*
X179500000Y-84750000D03*
%TO.N,Btn1*%
X182250000Y-107000000D03*
X194250000Y-106750000D03*
%TO.N,D-*%
X178350000Y-85000000D03*
X177000000Y-85350000D03*
X178599999Y-103852182D03*
X177250000Y-88750000D03*
%TO.N,D+*%
X177750000Y-88000000D03*
X178000000Y-103000000D03*
%TO.N,SEL-D1*%
X164500000Y-111750000D03*
X173700735Y-109950735D03*
%TO.N,B*%
X178500000Y-92949997D03*
%TO.N,A*%
X186000000Y-93750000D03*
X178500000Y-93750000D03*
X169500000Y-93750000D03*
%TO.N,F*%
X186750000Y-94750000D03*
X179250000Y-94750000D03*
X170250000Y-94750000D03*
%TO.N,B*%
X192500000Y-93000000D03*
%TO.N,A*%
X191000000Y-93750000D03*
%TO.N,B*%
X183250000Y-93000000D03*
%TO.N,A*%
X181160000Y-93750000D03*
%TO.N,G*%
X181000000Y-95550003D03*
%TO.N,B*%
X173740000Y-93650000D03*
%TO.N,A*%
X172715544Y-94150000D03*
%TO.N,B*%
X166250000Y-93150000D03*
%TO.N,A*%
X164750000Y-92750000D03*
%TO.N,F*%
X189149263Y-94600737D03*
X181000000Y-94750000D03*
X172000000Y-94750000D03*
%TO.N,DP*%
X175880000Y-100500000D03*
X168500000Y-100500000D03*
%TO.N,+5V*%
X182000000Y-118950000D03*
X186000000Y-86000000D03*
%TD*%
D14*
%TO.N,+5V*%
X182000000Y-118950000D02*
X188173529Y-118950000D01*
X188173529Y-118950000D02*
X195400000Y-111723529D01*
X195400000Y-111723529D02*
X195400000Y-90221470D01*
X195400000Y-90221470D02*
X193589265Y-88410735D01*
%TO.N,Btn2*%
X162101472Y-118667158D02*
X159600000Y-116165686D01*
X162101472Y-118950000D02*
X162101472Y-118667158D01*
X159600000Y-116165686D02*
X159600000Y-86150000D01*
X159600000Y-86150000D02*
X162750000Y-83000000D01*
%TO.N,GND*%
X162750000Y-104750000D02*
X161250000Y-106250000D01*
X162750000Y-97500000D02*
X162750000Y-104750000D01*
X161500000Y-90750000D02*
X164250000Y-88000000D01*
X161500000Y-92750000D02*
X161500000Y-90750000D01*
X161500000Y-96250000D02*
X161500000Y-95000000D01*
X162750000Y-97500000D02*
X161500000Y-96250000D01*
X164250000Y-88000000D02*
X164325000Y-88000000D01*
%TO.N,A0*%
X187250000Y-111750000D02*
X187250000Y-112598529D01*
X187250000Y-112598529D02*
X185394797Y-114453732D01*
X185394797Y-114453732D02*
X175727821Y-114453732D01*
X175727821Y-114453732D02*
X172424823Y-111150734D01*
%TO.N,Net-(Dig3-CA-Pad3)*%
X182000000Y-100500000D02*
X182000000Y-102325000D01*
X182000000Y-102325000D02*
X183925000Y-104250000D01*
%TO.N,SEL-D3*%
X182612267Y-109031891D02*
X188031891Y-109031891D01*
X188031891Y-109031891D02*
X189000000Y-110000000D01*
%TO.N,SEL-D4*%
X181931891Y-108431891D02*
X190931891Y-108431891D01*
X190931891Y-108431891D02*
X192500000Y-110000000D01*
%TO.N,Btn2*%
X175700000Y-117000000D02*
X186000000Y-117000000D01*
X173750000Y-118950000D02*
X175700000Y-117000000D01*
%TO.N,DP*%
X189650000Y-100500000D02*
X193650000Y-104500000D01*
X184880000Y-100500000D02*
X189650000Y-100500000D01*
%TO.N,D+*%
X178000000Y-103000000D02*
X177900000Y-102900000D01*
X177900000Y-102900000D02*
X177900000Y-88150000D01*
X177900000Y-88150000D02*
X177750000Y-88000000D01*
%TO.N,D-*%
X178599999Y-103852182D02*
X177250000Y-103852182D01*
X177250000Y-103852182D02*
X177250000Y-88750000D01*
%TO.N,E*%
X179656676Y-113853732D02*
X179851131Y-113659277D01*
X179851131Y-113659277D02*
X179851131Y-101231131D01*
X179851131Y-101231131D02*
X179120000Y-100500000D01*
%TO.N,G*%
X181000000Y-95550003D02*
X182550003Y-97100006D01*
X180330634Y-112264948D02*
X180788047Y-112722361D01*
X182550003Y-97100006D02*
X182550003Y-97810458D01*
X180330634Y-100029827D02*
X180330634Y-112264948D01*
X182550003Y-97810458D02*
X180330634Y-100029827D01*
%TO.N,Net-(Dig3-CA-Pad3)*%
X183850000Y-98650000D02*
X182000000Y-100500000D01*
X182000000Y-90750000D02*
X183850000Y-92600000D01*
X183850000Y-92600000D02*
X183850000Y-98650000D01*
%TO.N,B*%
X186000000Y-92949997D02*
X192449997Y-92949997D01*
X192449997Y-92949997D02*
X192500000Y-93000000D01*
X183250000Y-93000000D02*
X183199997Y-92949997D01*
X183199997Y-92949997D02*
X178500000Y-92949997D01*
%TO.N,Net-(Dig1-CA-Pad3)*%
X165500000Y-100500000D02*
X166850000Y-99150000D01*
X166850000Y-99150000D02*
X166850000Y-91850000D01*
X166850000Y-91850000D02*
X165500000Y-90500000D01*
%TO.N,B*%
X172840000Y-92750000D02*
X173740000Y-93650000D01*
X169500000Y-92750000D02*
X172840000Y-92750000D01*
X172750000Y-116750000D02*
X172750000Y-115000000D01*
X160400000Y-94665686D02*
X160400000Y-115750000D01*
X170900000Y-118600000D02*
X172750000Y-116750000D01*
X166250000Y-93150000D02*
X165250000Y-94150000D01*
X160400000Y-115750000D02*
X163250000Y-118600000D01*
X165250000Y-94150000D02*
X160915686Y-94150000D01*
X166250000Y-93150000D02*
X166400000Y-93000000D01*
X163250000Y-118600000D02*
X170900000Y-118600000D01*
X160915686Y-94150000D02*
X160400000Y-94665686D01*
%TO.N,A*%
X160000000Y-94500000D02*
X160000000Y-116000000D01*
X163750000Y-93750000D02*
X160750000Y-93750000D01*
X160750000Y-93750000D02*
X160000000Y-94500000D01*
X163000000Y-119000000D02*
X171250000Y-119000000D01*
X160000000Y-116000000D02*
X163000000Y-119000000D01*
X164750000Y-92750000D02*
X163750000Y-93750000D01*
X171250000Y-119000000D02*
X173500000Y-116750000D01*
X173500000Y-116750000D02*
X173500000Y-114500000D01*
%TO.N,Net-(Dig2-CA-Pad3)*%
X173000000Y-100500000D02*
X174340000Y-99160000D01*
X174340000Y-99160000D02*
X174340000Y-91840000D01*
X174340000Y-91840000D02*
X173000000Y-90500000D01*
%TO.N,A*%
X169500000Y-93750000D02*
X172315544Y-93750000D01*
X172315544Y-93750000D02*
X172715544Y-94150000D01*
%TO.N,F*%
X194250000Y-108250000D02*
X194250000Y-107598529D01*
X194250000Y-107598529D02*
X194850000Y-106998529D01*
X194850000Y-106998529D02*
X194850000Y-104000000D01*
X194850000Y-104000000D02*
X190350000Y-99500000D01*
X190350000Y-99500000D02*
X190350000Y-95301474D01*
X190350000Y-95301474D02*
X189649263Y-94600737D01*
X189649263Y-94600737D02*
X189149263Y-94600737D01*
%TO.N,Net-(BT1-+)*%
X191000000Y-83750000D02*
X192250000Y-85000000D01*
X192250000Y-85000000D02*
X192250000Y-88500000D01*
X192250000Y-88500000D02*
X193100000Y-89350000D01*
X193100000Y-96450000D02*
X192050000Y-97500000D01*
X193100000Y-89350000D02*
X193100000Y-96450000D01*
%TO.N,C*%
X186500000Y-97750000D02*
X189750000Y-97750000D01*
%TO.N,D*%
X187250000Y-97000000D02*
X188425735Y-97000000D01*
X188425735Y-97000000D02*
X188600000Y-96825735D01*
%TO.N,F*%
X189000000Y-94750000D02*
X189149263Y-94600737D01*
X186750000Y-94750000D02*
X189000000Y-94750000D01*
%TO.N,Net-(U7-VDDCORE)*%
X172500000Y-107250000D02*
X174250000Y-107250000D01*
X169000000Y-103750000D02*
X172500000Y-107250000D01*
X174250000Y-107250000D02*
X174234835Y-107265165D01*
%TO.N,Net-(U7-VDDANA)*%
X180000000Y-116000000D02*
X190275000Y-116000000D01*
%TO.N,D*%
X166500000Y-117800000D02*
X163581372Y-117800000D01*
X171250000Y-116000000D02*
X171600000Y-116350000D01*
X163581372Y-117800000D02*
X161200000Y-115418628D01*
X161200000Y-109713877D02*
X161400000Y-109513877D01*
X161200000Y-115418628D02*
X161200000Y-109713877D01*
X164625000Y-104125000D02*
X164625000Y-97625000D01*
X171600000Y-116650000D02*
X170450000Y-117800000D01*
X171600000Y-116350000D02*
X171600000Y-116650000D01*
X170450000Y-117800000D02*
X166500000Y-117800000D01*
X161000000Y-107750000D02*
X164625000Y-104125000D01*
%TO.N,C*%
X163107843Y-117892157D02*
X160800000Y-115584314D01*
X170734314Y-118200000D02*
X170500000Y-118200000D01*
X172000000Y-116934314D02*
X170734314Y-118200000D01*
X172000000Y-115500000D02*
X172000000Y-116934314D01*
X160800000Y-115584314D02*
X160800000Y-108950000D01*
X170500000Y-118200000D02*
X163415686Y-118200000D01*
X163415686Y-118200000D02*
X163107843Y-117892157D01*
X160800000Y-108950000D02*
X167000000Y-102750000D01*
%TO.N,SEL-D2*%
X174100736Y-110550735D02*
X169500000Y-110550735D01*
X175651473Y-108999999D02*
X175651472Y-108999999D01*
X175651472Y-108999999D02*
X174100736Y-110550735D01*
%TO.N,Net-(U7-VDDIN)*%
X183319366Y-110319366D02*
X186000000Y-113000000D01*
X180930634Y-110319366D02*
X183319366Y-110319366D01*
%TO.N,C*%
X172744034Y-97750000D02*
X172752983Y-97758949D01*
X169750000Y-97750000D02*
X172744034Y-97750000D01*
X181744034Y-97750000D02*
X181752983Y-97758949D01*
X178750000Y-97750000D02*
X181744034Y-97750000D01*
%TO.N,D*%
X179500000Y-97000000D02*
X181500000Y-97000000D01*
X170500000Y-97000000D02*
X172500000Y-97000000D01*
%TO.N,Net-(BT1-+)*%
X191000000Y-83750000D02*
X192500000Y-85250000D01*
X188000000Y-80750000D02*
X191000000Y-83750000D01*
X169750000Y-83000000D02*
X172000000Y-80750000D01*
X172000000Y-80750000D02*
X188000000Y-80750000D01*
%TO.N,Net-(D76-A)*%
X175727635Y-83250000D02*
X179500000Y-83250000D01*
X173997940Y-84979695D02*
X175727635Y-83250000D01*
X179500000Y-83250000D02*
X179500000Y-84750000D01*
%TO.N,Btn1*%
X182500000Y-106750000D02*
X182250000Y-107000000D01*
X194250000Y-106750000D02*
X182500000Y-106750000D01*
%TO.N,D-*%
X178000000Y-85350000D02*
X178350000Y-85000000D01*
X177000000Y-85350000D02*
X178000000Y-85350000D01*
%TO.N,SEL-D1*%
X173700735Y-109950735D02*
X166299265Y-109950735D01*
X166299265Y-109950735D02*
X164500000Y-111750000D01*
%TO.N,F*%
X179250000Y-94750000D02*
X181000000Y-94750000D01*
X170250000Y-94750000D02*
X172000000Y-94750000D01*
%TO.N,A*%
X186000000Y-93750000D02*
X191000000Y-93750000D01*
X178500000Y-93750000D02*
X181160000Y-93750000D01*
%TO.N,DP*%
X175280000Y-101100000D02*
X175880000Y-100500000D01*
X169100000Y-101100000D02*
X175280000Y-101100000D01*
X168500000Y-100500000D02*
X169100000Y-101100000D01*
%TO.N,+5V*%
X184362500Y-84362500D02*
X186000000Y-86000000D01*
X184362500Y-83950000D02*
X184362500Y-84362500D01*
%TD*%
%TA.AperFunction,Conductor*%
%TO.N,GND*%
G36*
X171592206Y-80520185D02*
G01*
X171637961Y-80572989D01*
X171647905Y-80642147D01*
X171618880Y-80705703D01*
X171612849Y-80712179D01*
X170505733Y-81819295D01*
X169861847Y-82463181D01*
X169800524Y-82496666D01*
X169774166Y-82499500D01*
X169678036Y-82499500D01*
X169539949Y-82540045D01*
X169418873Y-82617856D01*
X169324623Y-82726626D01*
X169324622Y-82726628D01*
X169264834Y-82857543D01*
X169244353Y-82999999D01*
X169264834Y-83142456D01*
X169324622Y-83273371D01*
X169324623Y-83273373D01*
X169418872Y-83382143D01*
X169539947Y-83459953D01*
X169539950Y-83459954D01*
X169539949Y-83459954D01*
X169642432Y-83490045D01*
X169675280Y-83499690D01*
X169678036Y-83500499D01*
X169678038Y-83500500D01*
X169678039Y-83500500D01*
X169821962Y-83500500D01*
X169821962Y-83500499D01*
X169960053Y-83459953D01*
X170081128Y-83382143D01*
X170175377Y-83273373D01*
X170235165Y-83142457D01*
X170255647Y-83000000D01*
X170254339Y-82990905D01*
X170264279Y-82921749D01*
X170289392Y-82885577D01*
X172088152Y-81086819D01*
X172149475Y-81053334D01*
X172175833Y-81050500D01*
X187824167Y-81050500D01*
X187891206Y-81070185D01*
X187911848Y-81086819D01*
X191913181Y-85088152D01*
X191946666Y-85149475D01*
X191949500Y-85175833D01*
X191949500Y-88539562D01*
X191963152Y-88590513D01*
X191969979Y-88615990D01*
X191969980Y-88615991D01*
X192009307Y-88684108D01*
X192009540Y-88684511D01*
X192009542Y-88684513D01*
X192009542Y-88684514D01*
X192763181Y-89438152D01*
X192796666Y-89499475D01*
X192799500Y-89525833D01*
X192799500Y-92400666D01*
X192779815Y-92467705D01*
X192727011Y-92513460D01*
X192657853Y-92523404D01*
X192640566Y-92519643D01*
X192571964Y-92499500D01*
X192571961Y-92499500D01*
X192428039Y-92499500D01*
X192428036Y-92499500D01*
X192289949Y-92540045D01*
X192168872Y-92617856D01*
X192167312Y-92619209D01*
X192165433Y-92620066D01*
X192161411Y-92622652D01*
X192161039Y-92622073D01*
X192103757Y-92648235D01*
X192086108Y-92649497D01*
X186458501Y-92649497D01*
X186391462Y-92629812D01*
X186364788Y-92606700D01*
X186356842Y-92597530D01*
X186331128Y-92567854D01*
X186210053Y-92490044D01*
X186210051Y-92490043D01*
X186210049Y-92490042D01*
X186210050Y-92490042D01*
X186071963Y-92449497D01*
X186071961Y-92449497D01*
X185928039Y-92449497D01*
X185928036Y-92449497D01*
X185789949Y-92490042D01*
X185668873Y-92567853D01*
X185574623Y-92676623D01*
X185574622Y-92676625D01*
X185514834Y-92807540D01*
X185494353Y-92949997D01*
X185514834Y-93092453D01*
X185568496Y-93209954D01*
X185574623Y-93223370D01*
X185610196Y-93264424D01*
X185613984Y-93268795D01*
X185643009Y-93332351D01*
X185633065Y-93401510D01*
X185613985Y-93431200D01*
X185574623Y-93476627D01*
X185574622Y-93476628D01*
X185514834Y-93607543D01*
X185494353Y-93750000D01*
X185514834Y-93892456D01*
X185570507Y-94014360D01*
X185574623Y-94023373D01*
X185668872Y-94132143D01*
X185789947Y-94209953D01*
X185789950Y-94209954D01*
X185789949Y-94209954D01*
X185897107Y-94241417D01*
X185924633Y-94249500D01*
X185928036Y-94250499D01*
X185928038Y-94250500D01*
X185928039Y-94250500D01*
X186071962Y-94250500D01*
X186071962Y-94250499D01*
X186210053Y-94209953D01*
X186265299Y-94174448D01*
X186332333Y-94154765D01*
X186399373Y-94174449D01*
X186445129Y-94227252D01*
X186455073Y-94296410D01*
X186426049Y-94359966D01*
X186423499Y-94362517D01*
X186324623Y-94476626D01*
X186324622Y-94476628D01*
X186264834Y-94607543D01*
X186244353Y-94750000D01*
X186264834Y-94892456D01*
X186275290Y-94915350D01*
X186324623Y-95023373D01*
X186418872Y-95132143D01*
X186539947Y-95209953D01*
X186539950Y-95209954D01*
X186539949Y-95209954D01*
X186678036Y-95250499D01*
X186678038Y-95250500D01*
X186678039Y-95250500D01*
X186821962Y-95250500D01*
X186821962Y-95250499D01*
X186960053Y-95209953D01*
X187081128Y-95132143D01*
X187114788Y-95093296D01*
X187173567Y-95055523D01*
X187208501Y-95050500D01*
X188889922Y-95050500D01*
X188930374Y-95059300D01*
X188930700Y-95058192D01*
X189077299Y-95101236D01*
X189077301Y-95101237D01*
X189077302Y-95101237D01*
X189221225Y-95101237D01*
X189221225Y-95101236D01*
X189359313Y-95060691D01*
X189359314Y-95060691D01*
X189359316Y-95060690D01*
X189473061Y-94987590D01*
X189540098Y-94967906D01*
X189607138Y-94987590D01*
X189627780Y-95004225D01*
X190013181Y-95389626D01*
X190046666Y-95450949D01*
X190049500Y-95477307D01*
X190049500Y-97150666D01*
X190029815Y-97217705D01*
X189977011Y-97263460D01*
X189907853Y-97273404D01*
X189890566Y-97269643D01*
X189821964Y-97249500D01*
X189821961Y-97249500D01*
X189678039Y-97249500D01*
X189678036Y-97249500D01*
X189539949Y-97290045D01*
X189418873Y-97367856D01*
X189418872Y-97367856D01*
X189418872Y-97367857D01*
X189385481Y-97406393D01*
X189385212Y-97406703D01*
X189326433Y-97444477D01*
X189291499Y-97449500D01*
X188977462Y-97449500D01*
X188910423Y-97429815D01*
X188864668Y-97377011D01*
X188854724Y-97307853D01*
X188883749Y-97244297D01*
X188910423Y-97221184D01*
X188931128Y-97207878D01*
X189025377Y-97099108D01*
X189085165Y-96968192D01*
X189105647Y-96825735D01*
X189085165Y-96683278D01*
X189025377Y-96552362D01*
X188931128Y-96443592D01*
X188810053Y-96365782D01*
X188810051Y-96365781D01*
X188810049Y-96365780D01*
X188810050Y-96365780D01*
X188671963Y-96325235D01*
X188671961Y-96325235D01*
X188528039Y-96325235D01*
X188528036Y-96325235D01*
X188389949Y-96365780D01*
X188268873Y-96443591D01*
X188174623Y-96552361D01*
X188174622Y-96552363D01*
X188140531Y-96627012D01*
X188094776Y-96679816D01*
X188027737Y-96699500D01*
X187708501Y-96699500D01*
X187641462Y-96679815D01*
X187614788Y-96656703D01*
X187581128Y-96617857D01*
X187460053Y-96540047D01*
X187460051Y-96540046D01*
X187460049Y-96540045D01*
X187460050Y-96540045D01*
X187321963Y-96499500D01*
X187321961Y-96499500D01*
X187178039Y-96499500D01*
X187178036Y-96499500D01*
X187039949Y-96540045D01*
X186918873Y-96617856D01*
X186824623Y-96726626D01*
X186824622Y-96726628D01*
X186764834Y-96857543D01*
X186744353Y-97000000D01*
X186761945Y-97122364D01*
X186752001Y-97191522D01*
X186706246Y-97244326D01*
X186639206Y-97264010D01*
X186604273Y-97258987D01*
X186571963Y-97249500D01*
X186571961Y-97249500D01*
X186428039Y-97249500D01*
X186428036Y-97249500D01*
X186289949Y-97290045D01*
X186168873Y-97367856D01*
X186074623Y-97476626D01*
X186074622Y-97476628D01*
X186014834Y-97607543D01*
X185994353Y-97750000D01*
X186014834Y-97892456D01*
X186074622Y-98023371D01*
X186074623Y-98023373D01*
X186168872Y-98132143D01*
X186289947Y-98209953D01*
X186289950Y-98209954D01*
X186289949Y-98209954D01*
X186428036Y-98250499D01*
X186428038Y-98250500D01*
X186428039Y-98250500D01*
X186571962Y-98250500D01*
X186571962Y-98250499D01*
X186710053Y-98209953D01*
X186831128Y-98132143D01*
X186864788Y-98093296D01*
X186923567Y-98055523D01*
X186958501Y-98050500D01*
X189291499Y-98050500D01*
X189358538Y-98070185D01*
X189385211Y-98093296D01*
X189418872Y-98132143D01*
X189539947Y-98209953D01*
X189539950Y-98209954D01*
X189539949Y-98209954D01*
X189678036Y-98250499D01*
X189678038Y-98250500D01*
X189678039Y-98250500D01*
X189821961Y-98250500D01*
X189890566Y-98230356D01*
X189960434Y-98230356D01*
X190019213Y-98268130D01*
X190048238Y-98331686D01*
X190049500Y-98349333D01*
X190049500Y-99539562D01*
X190060648Y-99581166D01*
X190069979Y-99615990D01*
X190069982Y-99615995D01*
X190109535Y-99684504D01*
X190109541Y-99684512D01*
X194513181Y-104088152D01*
X194546666Y-104149475D01*
X194549500Y-104175833D01*
X194549500Y-106150666D01*
X194529815Y-106217705D01*
X194477011Y-106263460D01*
X194407853Y-106273404D01*
X194390566Y-106269643D01*
X194321964Y-106249500D01*
X194321961Y-106249500D01*
X194178039Y-106249500D01*
X194178036Y-106249500D01*
X194039949Y-106290045D01*
X193918873Y-106367856D01*
X193885212Y-106406703D01*
X193826433Y-106444477D01*
X193791499Y-106449500D01*
X182460438Y-106449500D01*
X182422224Y-106459739D01*
X182384009Y-106469979D01*
X182361654Y-106482887D01*
X182299653Y-106499500D01*
X182178036Y-106499500D01*
X182039949Y-106540045D01*
X181918873Y-106617856D01*
X181824623Y-106726626D01*
X181824622Y-106726628D01*
X181764834Y-106857543D01*
X181744353Y-107000000D01*
X181764834Y-107142456D01*
X181824621Y-107273369D01*
X181824623Y-107273373D01*
X181918872Y-107382143D01*
X182039947Y-107459953D01*
X182039950Y-107459954D01*
X182039949Y-107459954D01*
X182178036Y-107500499D01*
X182178038Y-107500500D01*
X182178039Y-107500500D01*
X182321962Y-107500500D01*
X182321962Y-107500499D01*
X182460053Y-107459953D01*
X182581128Y-107382143D01*
X182675377Y-107273373D01*
X182677081Y-107269643D01*
X182704340Y-107209953D01*
X182735165Y-107142457D01*
X182735165Y-107142450D01*
X182736015Y-107139562D01*
X182737645Y-107137024D01*
X182738849Y-107134390D01*
X182739227Y-107134563D01*
X182773791Y-107080785D01*
X182837348Y-107051762D01*
X182854991Y-107050500D01*
X193791499Y-107050500D01*
X193858538Y-107070185D01*
X193885212Y-107093297D01*
X193918873Y-107132144D01*
X193918874Y-107132145D01*
X193947694Y-107150666D01*
X194016218Y-107194703D01*
X194061972Y-107247504D01*
X194071916Y-107316663D01*
X194042892Y-107380219D01*
X194036861Y-107386697D01*
X194009538Y-107414020D01*
X194009535Y-107414024D01*
X193969982Y-107482533D01*
X193969979Y-107482538D01*
X193949500Y-107558968D01*
X193949500Y-107786260D01*
X193929815Y-107853299D01*
X193919213Y-107867462D01*
X193824625Y-107976622D01*
X193824622Y-107976628D01*
X193764834Y-108107543D01*
X193744353Y-108250000D01*
X193764834Y-108392456D01*
X193782844Y-108431891D01*
X193824623Y-108523373D01*
X193918872Y-108632143D01*
X194039947Y-108709953D01*
X194039950Y-108709954D01*
X194039949Y-108709954D01*
X194178036Y-108750499D01*
X194178038Y-108750500D01*
X194178039Y-108750500D01*
X194321962Y-108750500D01*
X194321962Y-108750499D01*
X194460053Y-108709953D01*
X194581128Y-108632143D01*
X194675377Y-108523373D01*
X194735165Y-108392457D01*
X194755647Y-108250000D01*
X194735165Y-108107543D01*
X194675377Y-107976627D01*
X194675375Y-107976625D01*
X194675374Y-107976622D01*
X194580787Y-107867462D01*
X194551762Y-107803906D01*
X194550500Y-107786260D01*
X194550500Y-107774362D01*
X194570185Y-107707323D01*
X194586819Y-107686681D01*
X194887819Y-107385681D01*
X194949142Y-107352196D01*
X195018834Y-107357180D01*
X195074767Y-107399052D01*
X195099184Y-107464516D01*
X195099500Y-107473362D01*
X195099500Y-111547695D01*
X195079815Y-111614734D01*
X195063181Y-111635376D01*
X190911796Y-115786760D01*
X190850473Y-115820245D01*
X190780781Y-115815261D01*
X190724848Y-115773389D01*
X190711321Y-115750590D01*
X190700379Y-115726630D01*
X190700376Y-115726626D01*
X190695112Y-115720551D01*
X190606128Y-115617857D01*
X190485053Y-115540047D01*
X190485051Y-115540046D01*
X190485049Y-115540045D01*
X190485050Y-115540045D01*
X190346963Y-115499500D01*
X190346961Y-115499500D01*
X190203039Y-115499500D01*
X190203036Y-115499500D01*
X190064949Y-115540045D01*
X189943873Y-115617856D01*
X189910212Y-115656703D01*
X189851433Y-115694477D01*
X189816499Y-115699500D01*
X180458501Y-115699500D01*
X180391462Y-115679815D01*
X180364788Y-115656703D01*
X180331128Y-115617857D01*
X180210053Y-115540047D01*
X180210051Y-115540046D01*
X180210049Y-115540045D01*
X180210050Y-115540045D01*
X180071963Y-115499500D01*
X180071961Y-115499500D01*
X179928039Y-115499500D01*
X179928036Y-115499500D01*
X179789949Y-115540045D01*
X179668873Y-115617856D01*
X179574623Y-115726626D01*
X179574622Y-115726628D01*
X179514834Y-115857543D01*
X179494353Y-116000000D01*
X179514834Y-116142456D01*
X179574622Y-116273371D01*
X179574623Y-116273373D01*
X179668872Y-116382143D01*
X179789947Y-116459953D01*
X179789949Y-116459953D01*
X179795977Y-116462707D01*
X179848779Y-116508464D01*
X179868462Y-116575504D01*
X179848776Y-116642542D01*
X179795970Y-116688296D01*
X179744462Y-116699500D01*
X175660438Y-116699500D01*
X175637345Y-116705688D01*
X175584009Y-116719979D01*
X175584008Y-116719980D01*
X175532355Y-116749801D01*
X175532356Y-116749802D01*
X175515487Y-116759541D01*
X173861847Y-118413181D01*
X173800524Y-118446666D01*
X173774166Y-118449500D01*
X173678036Y-118449500D01*
X173539949Y-118490045D01*
X173418873Y-118567856D01*
X173324623Y-118676626D01*
X173324622Y-118676628D01*
X173264834Y-118807543D01*
X173244353Y-118950000D01*
X173266097Y-119101235D01*
X173264279Y-119101496D01*
X173264278Y-119160438D01*
X173226502Y-119219215D01*
X173162945Y-119248238D01*
X173145302Y-119249500D01*
X171724833Y-119249500D01*
X171657794Y-119229815D01*
X171612039Y-119177011D01*
X171602095Y-119107853D01*
X171631120Y-119044297D01*
X171637152Y-119037819D01*
X172511512Y-118163459D01*
X173740460Y-116934511D01*
X173780022Y-116865988D01*
X173800500Y-116789562D01*
X173800500Y-116710438D01*
X173800500Y-114963738D01*
X173820185Y-114896699D01*
X173830787Y-114882535D01*
X173831124Y-114882144D01*
X173831128Y-114882143D01*
X173925377Y-114773373D01*
X173985165Y-114642457D01*
X174005647Y-114500000D01*
X173985165Y-114357543D01*
X173925377Y-114226627D01*
X173831128Y-114117857D01*
X173710053Y-114040047D01*
X173710051Y-114040046D01*
X173710049Y-114040045D01*
X173710050Y-114040045D01*
X173571963Y-113999500D01*
X173571961Y-113999500D01*
X173428039Y-113999500D01*
X173428036Y-113999500D01*
X173289949Y-114040045D01*
X173168873Y-114117856D01*
X173074623Y-114226626D01*
X173074622Y-114226628D01*
X173014834Y-114357543D01*
X173007804Y-114406442D01*
X172978778Y-114469997D01*
X172920000Y-114507771D01*
X172850132Y-114507771D01*
X172821963Y-114499500D01*
X172821961Y-114499500D01*
X172678039Y-114499500D01*
X172678036Y-114499500D01*
X172539949Y-114540045D01*
X172418873Y-114617856D01*
X172324623Y-114726626D01*
X172324622Y-114726628D01*
X172264834Y-114857543D01*
X172257804Y-114906442D01*
X172228778Y-114969997D01*
X172170000Y-115007771D01*
X172100132Y-115007771D01*
X172071963Y-114999500D01*
X172071961Y-114999500D01*
X171928039Y-114999500D01*
X171928036Y-114999500D01*
X171789949Y-115040045D01*
X171668873Y-115117856D01*
X171574623Y-115226626D01*
X171574622Y-115226628D01*
X171514834Y-115357543D01*
X171507804Y-115406442D01*
X171478778Y-115469997D01*
X171420000Y-115507771D01*
X171350132Y-115507771D01*
X171321963Y-115499500D01*
X171321961Y-115499500D01*
X171178039Y-115499500D01*
X171178036Y-115499500D01*
X171039949Y-115540045D01*
X170918873Y-115617856D01*
X170824623Y-115726626D01*
X170824622Y-115726628D01*
X170764834Y-115857543D01*
X170744353Y-116000000D01*
X170764834Y-116142456D01*
X170824622Y-116273371D01*
X170824623Y-116273373D01*
X170918872Y-116382143D01*
X171039947Y-116459953D01*
X171039950Y-116459954D01*
X171039949Y-116459954D01*
X171090752Y-116474871D01*
X171149530Y-116512645D01*
X171178556Y-116576200D01*
X171168613Y-116645359D01*
X171143499Y-116681529D01*
X170361848Y-117463181D01*
X170300525Y-117496666D01*
X170274167Y-117499500D01*
X163757205Y-117499500D01*
X163690166Y-117479815D01*
X163669524Y-117463181D01*
X161536819Y-115330476D01*
X161503334Y-115269153D01*
X161500500Y-115242795D01*
X161500500Y-111750000D01*
X163994353Y-111750000D01*
X164014834Y-111892456D01*
X164074622Y-112023371D01*
X164074623Y-112023373D01*
X164168872Y-112132143D01*
X164289947Y-112209953D01*
X164289950Y-112209954D01*
X164289949Y-112209954D01*
X164428036Y-112250499D01*
X164428038Y-112250500D01*
X164428039Y-112250500D01*
X164571962Y-112250500D01*
X164571962Y-112250499D01*
X164679121Y-112219035D01*
X164710050Y-112209954D01*
X164710050Y-112209953D01*
X164710053Y-112209953D01*
X164831128Y-112132143D01*
X164925377Y-112023373D01*
X164985165Y-111892457D01*
X165005647Y-111750000D01*
X165004339Y-111740905D01*
X165014279Y-111671749D01*
X165039392Y-111635577D01*
X166387417Y-110287554D01*
X166448740Y-110254069D01*
X166475098Y-110251235D01*
X168895302Y-110251235D01*
X168962341Y-110270920D01*
X169008096Y-110323724D01*
X169018040Y-110392882D01*
X169015116Y-110406322D01*
X168994353Y-110550735D01*
X169014834Y-110693191D01*
X169063486Y-110799722D01*
X169074623Y-110824108D01*
X169168872Y-110932878D01*
X169289947Y-111010688D01*
X169289950Y-111010689D01*
X169289949Y-111010689D01*
X169428036Y-111051234D01*
X169428038Y-111051235D01*
X169428039Y-111051235D01*
X169571962Y-111051235D01*
X169571962Y-111051234D01*
X169710053Y-111010688D01*
X169831128Y-110932878D01*
X169864788Y-110894031D01*
X169923567Y-110856258D01*
X169958501Y-110851235D01*
X171820125Y-110851235D01*
X171887164Y-110870920D01*
X171932919Y-110923724D01*
X171942863Y-110992882D01*
X171939938Y-111006325D01*
X171919176Y-111150734D01*
X171939657Y-111293190D01*
X171973757Y-111367857D01*
X171999446Y-111424107D01*
X172093695Y-111532877D01*
X172214770Y-111610687D01*
X172214773Y-111610688D01*
X172214772Y-111610688D01*
X172298854Y-111635376D01*
X172350103Y-111650424D01*
X172352859Y-111651233D01*
X172352861Y-111651234D01*
X172448990Y-111651234D01*
X172516029Y-111670919D01*
X172536671Y-111687553D01*
X175543310Y-114694192D01*
X175602650Y-114728452D01*
X175611829Y-114733752D01*
X175611833Y-114733754D01*
X175688259Y-114754232D01*
X175688261Y-114754232D01*
X185434357Y-114754232D01*
X185434359Y-114754232D01*
X185510786Y-114733753D01*
X185579308Y-114694192D01*
X185635257Y-114638243D01*
X187490460Y-112783040D01*
X187502805Y-112761658D01*
X187530021Y-112714518D01*
X187550500Y-112638091D01*
X187550500Y-112213738D01*
X187570185Y-112146699D01*
X187580787Y-112132535D01*
X187581124Y-112132144D01*
X187581128Y-112132143D01*
X187675377Y-112023373D01*
X187735165Y-111892457D01*
X187755647Y-111750000D01*
X187735165Y-111607543D01*
X187675377Y-111476627D01*
X187581128Y-111367857D01*
X187460053Y-111290047D01*
X187460051Y-111290046D01*
X187460049Y-111290045D01*
X187460050Y-111290045D01*
X187321963Y-111249500D01*
X187321961Y-111249500D01*
X187178039Y-111249500D01*
X187178036Y-111249500D01*
X187039949Y-111290045D01*
X186918873Y-111367856D01*
X186824623Y-111476626D01*
X186824622Y-111476628D01*
X186764834Y-111607543D01*
X186744353Y-111750000D01*
X186764834Y-111892456D01*
X186824622Y-112023371D01*
X186824623Y-112023373D01*
X186918872Y-112132143D01*
X186918875Y-112132144D01*
X186919213Y-112132535D01*
X186948238Y-112196091D01*
X186949500Y-112213738D01*
X186949500Y-112422695D01*
X186929815Y-112489734D01*
X186913181Y-112510376D01*
X186636796Y-112786760D01*
X186575473Y-112820245D01*
X186505781Y-112815261D01*
X186449848Y-112773389D01*
X186436321Y-112750590D01*
X186425379Y-112726630D01*
X186425376Y-112726626D01*
X186331128Y-112617857D01*
X186210053Y-112540047D01*
X186210051Y-112540046D01*
X186210049Y-112540045D01*
X186210050Y-112540045D01*
X186071963Y-112499500D01*
X186071961Y-112499500D01*
X185975833Y-112499500D01*
X185908794Y-112479815D01*
X185888152Y-112463181D01*
X183503878Y-110078907D01*
X183503877Y-110078906D01*
X183482775Y-110066723D01*
X183482775Y-110066721D01*
X183482772Y-110066721D01*
X183435360Y-110039347D01*
X183435357Y-110039345D01*
X183397141Y-110029105D01*
X183358928Y-110018866D01*
X183358926Y-110018866D01*
X181389135Y-110018866D01*
X181322096Y-109999181D01*
X181295422Y-109976069D01*
X181293481Y-109973829D01*
X181261762Y-109937223D01*
X181140687Y-109859413D01*
X181140685Y-109859412D01*
X181140683Y-109859411D01*
X181140684Y-109859411D01*
X181002597Y-109818866D01*
X181002595Y-109818866D01*
X180858673Y-109818866D01*
X180858669Y-109818866D01*
X180790068Y-109839009D01*
X180720198Y-109839009D01*
X180661420Y-109801234D01*
X180632396Y-109737678D01*
X180631134Y-109720032D01*
X180631134Y-108431891D01*
X181426244Y-108431891D01*
X181446725Y-108574347D01*
X181469643Y-108624529D01*
X181506514Y-108705264D01*
X181600763Y-108814034D01*
X181721838Y-108891844D01*
X181721841Y-108891845D01*
X181721840Y-108891845D01*
X181859927Y-108932390D01*
X181859929Y-108932391D01*
X181984867Y-108932391D01*
X182051906Y-108952076D01*
X182097661Y-109004880D01*
X182107605Y-109038744D01*
X182127101Y-109174347D01*
X182157315Y-109240505D01*
X182186890Y-109305264D01*
X182281139Y-109414034D01*
X182402214Y-109491844D01*
X182402217Y-109491845D01*
X182402216Y-109491845D01*
X182540303Y-109532390D01*
X182540305Y-109532391D01*
X182540306Y-109532391D01*
X182684229Y-109532391D01*
X182684229Y-109532390D01*
X182793491Y-109500309D01*
X182822317Y-109491845D01*
X182822317Y-109491844D01*
X182822320Y-109491844D01*
X182943395Y-109414034D01*
X182977055Y-109375187D01*
X183035834Y-109337414D01*
X183070768Y-109332391D01*
X187856058Y-109332391D01*
X187923097Y-109352076D01*
X187943739Y-109368710D01*
X188460604Y-109885575D01*
X188494089Y-109946898D01*
X188495661Y-109990902D01*
X188494353Y-110000000D01*
X188497297Y-110020481D01*
X188514834Y-110142456D01*
X188564513Y-110251235D01*
X188574623Y-110273373D01*
X188668872Y-110382143D01*
X188789947Y-110459953D01*
X188789950Y-110459954D01*
X188789949Y-110459954D01*
X188928036Y-110500499D01*
X188928038Y-110500500D01*
X188928039Y-110500500D01*
X189071962Y-110500500D01*
X189071962Y-110500499D01*
X189210053Y-110459953D01*
X189331128Y-110382143D01*
X189425377Y-110273373D01*
X189485165Y-110142457D01*
X189505647Y-110000000D01*
X189485165Y-109857543D01*
X189425377Y-109726627D01*
X189331128Y-109617857D01*
X189210053Y-109540047D01*
X189210051Y-109540046D01*
X189210049Y-109540045D01*
X189210050Y-109540045D01*
X189071963Y-109499500D01*
X189071961Y-109499500D01*
X188975833Y-109499500D01*
X188908794Y-109479815D01*
X188888152Y-109463181D01*
X188369043Y-108944072D01*
X188335558Y-108882749D01*
X188340542Y-108813057D01*
X188382414Y-108757124D01*
X188447878Y-108732707D01*
X188456724Y-108732391D01*
X190756058Y-108732391D01*
X190823097Y-108752076D01*
X190843739Y-108768710D01*
X191960604Y-109885575D01*
X191994089Y-109946898D01*
X191995661Y-109990902D01*
X191994353Y-110000000D01*
X191997297Y-110020481D01*
X192014834Y-110142456D01*
X192064513Y-110251235D01*
X192074623Y-110273373D01*
X192168872Y-110382143D01*
X192289947Y-110459953D01*
X192289950Y-110459954D01*
X192289949Y-110459954D01*
X192428036Y-110500499D01*
X192428038Y-110500500D01*
X192428039Y-110500500D01*
X192571962Y-110500500D01*
X192571962Y-110500499D01*
X192710053Y-110459953D01*
X192831128Y-110382143D01*
X192925377Y-110273373D01*
X192985165Y-110142457D01*
X193005647Y-110000000D01*
X192985165Y-109857543D01*
X192925377Y-109726627D01*
X192831128Y-109617857D01*
X192710053Y-109540047D01*
X192710051Y-109540046D01*
X192710049Y-109540045D01*
X192710050Y-109540045D01*
X192571963Y-109499500D01*
X192571961Y-109499500D01*
X192475833Y-109499500D01*
X192408794Y-109479815D01*
X192388152Y-109463181D01*
X191116403Y-108191432D01*
X191116395Y-108191426D01*
X191047886Y-108151873D01*
X191047881Y-108151870D01*
X191022404Y-108145043D01*
X190971453Y-108131391D01*
X190971451Y-108131391D01*
X182390392Y-108131391D01*
X182323353Y-108111706D01*
X182296679Y-108088594D01*
X182263019Y-108049748D01*
X182141944Y-107971938D01*
X182141942Y-107971937D01*
X182141940Y-107971936D01*
X182141941Y-107971936D01*
X182003854Y-107931391D01*
X182003852Y-107931391D01*
X181859930Y-107931391D01*
X181859927Y-107931391D01*
X181721840Y-107971936D01*
X181600764Y-108049747D01*
X181506514Y-108158517D01*
X181506513Y-108158519D01*
X181446725Y-108289434D01*
X181426244Y-108431891D01*
X180631134Y-108431891D01*
X180631134Y-100205660D01*
X180650819Y-100138621D01*
X180667453Y-100117979D01*
X181723585Y-99061847D01*
X182790463Y-97994969D01*
X182830025Y-97926446D01*
X182850503Y-97850020D01*
X182850503Y-97770896D01*
X182850503Y-97060444D01*
X182830024Y-96984017D01*
X182826184Y-96977366D01*
X182790467Y-96915501D01*
X182790461Y-96915493D01*
X181539395Y-95664427D01*
X181505910Y-95603104D01*
X181504339Y-95559097D01*
X181505647Y-95550003D01*
X181485165Y-95407546D01*
X181425377Y-95276630D01*
X181386014Y-95231202D01*
X181356990Y-95167648D01*
X181366934Y-95098489D01*
X181386012Y-95068802D01*
X181425377Y-95023373D01*
X181485165Y-94892457D01*
X181505647Y-94750000D01*
X181485165Y-94607543D01*
X181425377Y-94476627D01*
X181425375Y-94476625D01*
X181425374Y-94476622D01*
X181350879Y-94390650D01*
X181321854Y-94327094D01*
X181331798Y-94257936D01*
X181377550Y-94205134D01*
X181491128Y-94132143D01*
X181585377Y-94023373D01*
X181645165Y-93892457D01*
X181665647Y-93750000D01*
X181645165Y-93607543D01*
X181585377Y-93476627D01*
X181567243Y-93455699D01*
X181538219Y-93392143D01*
X181548163Y-93322984D01*
X181593919Y-93270181D01*
X181660957Y-93250497D01*
X182748172Y-93250497D01*
X182815211Y-93270182D01*
X182841885Y-93293295D01*
X182906491Y-93367855D01*
X182918872Y-93382143D01*
X183039947Y-93459953D01*
X183039950Y-93459954D01*
X183039949Y-93459954D01*
X183178036Y-93500499D01*
X183178038Y-93500500D01*
X183178039Y-93500500D01*
X183321961Y-93500500D01*
X183390566Y-93480356D01*
X183460434Y-93480356D01*
X183519213Y-93518130D01*
X183548238Y-93581686D01*
X183549500Y-93599333D01*
X183549500Y-98474166D01*
X183529815Y-98541205D01*
X183513181Y-98561847D01*
X182111847Y-99963181D01*
X182050524Y-99996666D01*
X182024166Y-99999500D01*
X181928036Y-99999500D01*
X181789949Y-100040045D01*
X181668873Y-100117856D01*
X181574623Y-100226626D01*
X181574622Y-100226628D01*
X181514834Y-100357543D01*
X181494353Y-100500000D01*
X181514834Y-100642456D01*
X181545881Y-100710438D01*
X181574623Y-100773373D01*
X181668872Y-100882143D01*
X181668875Y-100882144D01*
X181669213Y-100882535D01*
X181698238Y-100946091D01*
X181699500Y-100963738D01*
X181699500Y-102364562D01*
X181700383Y-102367856D01*
X181719978Y-102440987D01*
X181740556Y-102476629D01*
X181759539Y-102509509D01*
X181759541Y-102509512D01*
X183385604Y-104135575D01*
X183419089Y-104196898D01*
X183420661Y-104240902D01*
X183419353Y-104249999D01*
X183439834Y-104392456D01*
X183484794Y-104490902D01*
X183499623Y-104523373D01*
X183593872Y-104632143D01*
X183714947Y-104709953D01*
X183714950Y-104709954D01*
X183714949Y-104709954D01*
X183853036Y-104750499D01*
X183853038Y-104750500D01*
X183853039Y-104750500D01*
X183996962Y-104750500D01*
X183996962Y-104750499D01*
X184135053Y-104709953D01*
X184256128Y-104632143D01*
X184350377Y-104523373D01*
X184410165Y-104392457D01*
X184430647Y-104250000D01*
X184410165Y-104107543D01*
X184350377Y-103976627D01*
X184256128Y-103867857D01*
X184135053Y-103790047D01*
X184135051Y-103790046D01*
X184135049Y-103790045D01*
X184135050Y-103790045D01*
X183996963Y-103749500D01*
X183996961Y-103749500D01*
X183900833Y-103749500D01*
X183833794Y-103729815D01*
X183813152Y-103713181D01*
X182336819Y-102236848D01*
X182303334Y-102175525D01*
X182300500Y-102149167D01*
X182300500Y-100963738D01*
X182320185Y-100896699D01*
X182330787Y-100882535D01*
X182331124Y-100882144D01*
X182331128Y-100882143D01*
X182425377Y-100773373D01*
X182485165Y-100642457D01*
X182505647Y-100500000D01*
X184374353Y-100500000D01*
X184394834Y-100642456D01*
X184425881Y-100710438D01*
X184454623Y-100773373D01*
X184548872Y-100882143D01*
X184669947Y-100959953D01*
X184669950Y-100959954D01*
X184669949Y-100959954D01*
X184755805Y-100985163D01*
X184805280Y-100999690D01*
X184808036Y-101000499D01*
X184808038Y-101000500D01*
X184808039Y-101000500D01*
X184951962Y-101000500D01*
X184951962Y-101000499D01*
X185059121Y-100969035D01*
X185090050Y-100959954D01*
X185090050Y-100959953D01*
X185090053Y-100959953D01*
X185211128Y-100882143D01*
X185244788Y-100843296D01*
X185303567Y-100805523D01*
X185338501Y-100800500D01*
X189474167Y-100800500D01*
X189541206Y-100820185D01*
X189561848Y-100836819D01*
X193110604Y-104385575D01*
X193144089Y-104446898D01*
X193145661Y-104490902D01*
X193144353Y-104499999D01*
X193164834Y-104642456D01*
X193195660Y-104709954D01*
X193224623Y-104773373D01*
X193318872Y-104882143D01*
X193439947Y-104959953D01*
X193439950Y-104959954D01*
X193439949Y-104959954D01*
X193578036Y-105000499D01*
X193578038Y-105000500D01*
X193578039Y-105000500D01*
X193721962Y-105000500D01*
X193721962Y-105000499D01*
X193860053Y-104959953D01*
X193981128Y-104882143D01*
X194075377Y-104773373D01*
X194135165Y-104642457D01*
X194155647Y-104500000D01*
X194135165Y-104357543D01*
X194075377Y-104226627D01*
X193981128Y-104117857D01*
X193860053Y-104040047D01*
X193860051Y-104040046D01*
X193860049Y-104040045D01*
X193860050Y-104040045D01*
X193721963Y-103999500D01*
X193721961Y-103999500D01*
X193625833Y-103999500D01*
X193558794Y-103979815D01*
X193538152Y-103963181D01*
X189834512Y-100259541D01*
X189834504Y-100259535D01*
X189765995Y-100219982D01*
X189765990Y-100219979D01*
X189740513Y-100213152D01*
X189689562Y-100199500D01*
X189689560Y-100199500D01*
X185338501Y-100199500D01*
X185271462Y-100179815D01*
X185244788Y-100156703D01*
X185242704Y-100154298D01*
X185211128Y-100117857D01*
X185090053Y-100040047D01*
X185090051Y-100040046D01*
X185090049Y-100040045D01*
X185090050Y-100040045D01*
X184951963Y-99999500D01*
X184951961Y-99999500D01*
X184808039Y-99999500D01*
X184808036Y-99999500D01*
X184669949Y-100040045D01*
X184548873Y-100117856D01*
X184454623Y-100226626D01*
X184454622Y-100226628D01*
X184394834Y-100357543D01*
X184374353Y-100500000D01*
X182505647Y-100500000D01*
X182504339Y-100490905D01*
X182514279Y-100421749D01*
X182539392Y-100385577D01*
X184090460Y-98834511D01*
X184130021Y-98765989D01*
X184150500Y-98689562D01*
X184150500Y-92560438D01*
X184130021Y-92484011D01*
X184130017Y-92484004D01*
X184090464Y-92415495D01*
X184090458Y-92415487D01*
X182539395Y-90864424D01*
X182505910Y-90803101D01*
X182504339Y-90759094D01*
X182505647Y-90750000D01*
X182485165Y-90607543D01*
X182425377Y-90476627D01*
X182331128Y-90367857D01*
X182210053Y-90290047D01*
X182210051Y-90290046D01*
X182210049Y-90290045D01*
X182210050Y-90290045D01*
X182071963Y-90249500D01*
X182071961Y-90249500D01*
X181928039Y-90249500D01*
X181928036Y-90249500D01*
X181789949Y-90290045D01*
X181668873Y-90367856D01*
X181574623Y-90476626D01*
X181574622Y-90476628D01*
X181514834Y-90607543D01*
X181494353Y-90750000D01*
X181514834Y-90892456D01*
X181545660Y-90959954D01*
X181574623Y-91023373D01*
X181668872Y-91132143D01*
X181789947Y-91209953D01*
X181789950Y-91209954D01*
X181789949Y-91209954D01*
X181897107Y-91241417D01*
X181925280Y-91249690D01*
X181928036Y-91250499D01*
X181928038Y-91250500D01*
X182024167Y-91250500D01*
X182091206Y-91270185D01*
X182111848Y-91286819D01*
X183143499Y-92318470D01*
X183176984Y-92379793D01*
X183172000Y-92449485D01*
X183130128Y-92505418D01*
X183090754Y-92525128D01*
X183039948Y-92540046D01*
X182918872Y-92617856D01*
X182917312Y-92619209D01*
X182915433Y-92620066D01*
X182911411Y-92622652D01*
X182911039Y-92622073D01*
X182853757Y-92648235D01*
X182836108Y-92649497D01*
X178958501Y-92649497D01*
X178891462Y-92629812D01*
X178864788Y-92606700D01*
X178856842Y-92597530D01*
X178831128Y-92567854D01*
X178710053Y-92490044D01*
X178710051Y-92490043D01*
X178710049Y-92490042D01*
X178710050Y-92490042D01*
X178571963Y-92449497D01*
X178571961Y-92449497D01*
X178428039Y-92449497D01*
X178428035Y-92449497D01*
X178359434Y-92469640D01*
X178289564Y-92469640D01*
X178230786Y-92431865D01*
X178201762Y-92368309D01*
X178200500Y-92350663D01*
X178200500Y-88245335D01*
X178211705Y-88193825D01*
X178235165Y-88142457D01*
X178255647Y-88000000D01*
X178235165Y-87857543D01*
X178175377Y-87726627D01*
X178081128Y-87617857D01*
X177960053Y-87540047D01*
X177960051Y-87540046D01*
X177960049Y-87540045D01*
X177960050Y-87540045D01*
X177821963Y-87499500D01*
X177821961Y-87499500D01*
X177678039Y-87499500D01*
X177678036Y-87499500D01*
X177539949Y-87540045D01*
X177418873Y-87617856D01*
X177324623Y-87726626D01*
X177324622Y-87726628D01*
X177264834Y-87857543D01*
X177244353Y-88000000D01*
X177260794Y-88114358D01*
X177250850Y-88183516D01*
X177205095Y-88236320D01*
X177172991Y-88250981D01*
X177039949Y-88290045D01*
X176918873Y-88367856D01*
X176824623Y-88476626D01*
X176824622Y-88476628D01*
X176764834Y-88607543D01*
X176744353Y-88750000D01*
X176764834Y-88892456D01*
X176788626Y-88944552D01*
X176824623Y-89023373D01*
X176918872Y-89132143D01*
X176918875Y-89132144D01*
X176919213Y-89132535D01*
X176948238Y-89196091D01*
X176949500Y-89213738D01*
X176949500Y-103891744D01*
X176963152Y-103942695D01*
X176969979Y-103968172D01*
X176969982Y-103968177D01*
X177009535Y-104036686D01*
X177009539Y-104036691D01*
X177009540Y-104036693D01*
X177065489Y-104092642D01*
X177065491Y-104092643D01*
X177065495Y-104092646D01*
X177122493Y-104125553D01*
X177134011Y-104132203D01*
X177210438Y-104152682D01*
X177289562Y-104152682D01*
X178141498Y-104152682D01*
X178208537Y-104172367D01*
X178235210Y-104195478D01*
X178268871Y-104234325D01*
X178389946Y-104312135D01*
X178389949Y-104312136D01*
X178389948Y-104312136D01*
X178528035Y-104352681D01*
X178528037Y-104352682D01*
X178528038Y-104352682D01*
X178671961Y-104352682D01*
X178671961Y-104352681D01*
X178810052Y-104312135D01*
X178931127Y-104234325D01*
X179025376Y-104125555D01*
X179085164Y-103994639D01*
X179105646Y-103852182D01*
X179085164Y-103709725D01*
X179025376Y-103578809D01*
X178931127Y-103470039D01*
X178810052Y-103392229D01*
X178810050Y-103392228D01*
X178810048Y-103392227D01*
X178810049Y-103392227D01*
X178671962Y-103351682D01*
X178671960Y-103351682D01*
X178582563Y-103351682D01*
X178515524Y-103331997D01*
X178469769Y-103279193D01*
X178459825Y-103210035D01*
X178469768Y-103176171D01*
X178485165Y-103142457D01*
X178505647Y-103000000D01*
X178485165Y-102857543D01*
X178425377Y-102726627D01*
X178331128Y-102617857D01*
X178331125Y-102617855D01*
X178331126Y-102617855D01*
X178257460Y-102570513D01*
X178211706Y-102517709D01*
X178200500Y-102466198D01*
X178200500Y-98212584D01*
X178220185Y-98145545D01*
X178272989Y-98099790D01*
X178342147Y-98089846D01*
X178405703Y-98118871D01*
X178418209Y-98131378D01*
X178418872Y-98132143D01*
X178418873Y-98132144D01*
X178432797Y-98141092D01*
X178539947Y-98209953D01*
X178539950Y-98209954D01*
X178539949Y-98209954D01*
X178678036Y-98250499D01*
X178678038Y-98250500D01*
X178678039Y-98250500D01*
X178821962Y-98250500D01*
X178821962Y-98250499D01*
X178960053Y-98209953D01*
X179081128Y-98132143D01*
X179114788Y-98093296D01*
X179173567Y-98055523D01*
X179208501Y-98050500D01*
X181286728Y-98050500D01*
X181353767Y-98070185D01*
X181380439Y-98093295D01*
X181421855Y-98141092D01*
X181519201Y-98203652D01*
X181564954Y-98256454D01*
X181574898Y-98325612D01*
X181545874Y-98389168D01*
X181539841Y-98395647D01*
X180146123Y-99789367D01*
X180090175Y-99845314D01*
X180090169Y-99845322D01*
X180050616Y-99913831D01*
X180050613Y-99913836D01*
X180030134Y-99990266D01*
X180030134Y-100685801D01*
X180010449Y-100752840D01*
X179957645Y-100798595D01*
X179888487Y-100808539D01*
X179824931Y-100779514D01*
X179818453Y-100773482D01*
X179659395Y-100614424D01*
X179625910Y-100553101D01*
X179624339Y-100509094D01*
X179625647Y-100500000D01*
X179605165Y-100357543D01*
X179545377Y-100226627D01*
X179451128Y-100117857D01*
X179330053Y-100040047D01*
X179330051Y-100040046D01*
X179330049Y-100040045D01*
X179330050Y-100040045D01*
X179191963Y-99999500D01*
X179191961Y-99999500D01*
X179048039Y-99999500D01*
X179048036Y-99999500D01*
X178909949Y-100040045D01*
X178788873Y-100117856D01*
X178694623Y-100226626D01*
X178694622Y-100226628D01*
X178634834Y-100357543D01*
X178614353Y-100500000D01*
X178634834Y-100642456D01*
X178665881Y-100710438D01*
X178694623Y-100773373D01*
X178788872Y-100882143D01*
X178909947Y-100959953D01*
X178909950Y-100959954D01*
X178909949Y-100959954D01*
X178995805Y-100985163D01*
X179045280Y-100999690D01*
X179048036Y-101000499D01*
X179048038Y-101000500D01*
X179144167Y-101000500D01*
X179211206Y-101020185D01*
X179231848Y-101036819D01*
X179514312Y-101319283D01*
X179547797Y-101380606D01*
X179550631Y-101406964D01*
X179550631Y-113270414D01*
X179530946Y-113337453D01*
X179478142Y-113383208D01*
X179461569Y-113389390D01*
X179446626Y-113393777D01*
X179446621Y-113393780D01*
X179325549Y-113471588D01*
X179231299Y-113580358D01*
X179231298Y-113580360D01*
X179171510Y-113711275D01*
X179151029Y-113853732D01*
X179172773Y-114004967D01*
X179170955Y-114005228D01*
X179170954Y-114064170D01*
X179133178Y-114122947D01*
X179069621Y-114151970D01*
X179051978Y-114153232D01*
X175903654Y-114153232D01*
X175836615Y-114133547D01*
X175815973Y-114116913D01*
X172964218Y-111265158D01*
X172930733Y-111203835D01*
X172929162Y-111159828D01*
X172930470Y-111150734D01*
X172909988Y-111008277D01*
X172908726Y-110999499D01*
X172910544Y-110999237D01*
X172910544Y-110940301D01*
X172948317Y-110881523D01*
X173011873Y-110852497D01*
X173029521Y-110851235D01*
X174140296Y-110851235D01*
X174140298Y-110851235D01*
X174216725Y-110830756D01*
X174285247Y-110791195D01*
X174341196Y-110735246D01*
X175539623Y-109536817D01*
X175600946Y-109503333D01*
X175627304Y-109500499D01*
X175723435Y-109500499D01*
X175723435Y-109500498D01*
X175861526Y-109459952D01*
X175982601Y-109382142D01*
X176076850Y-109273372D01*
X176136638Y-109142456D01*
X176157120Y-108999999D01*
X176136638Y-108857542D01*
X176076850Y-108726626D01*
X175982601Y-108617856D01*
X175861526Y-108540046D01*
X175861524Y-108540045D01*
X175861522Y-108540044D01*
X175861523Y-108540044D01*
X175723436Y-108499499D01*
X175723434Y-108499499D01*
X175579512Y-108499499D01*
X175579509Y-108499499D01*
X175441422Y-108540044D01*
X175320346Y-108617855D01*
X175226096Y-108726625D01*
X175226095Y-108726627D01*
X175166307Y-108857542D01*
X175145826Y-108999999D01*
X175147134Y-109009099D01*
X175137187Y-109078257D01*
X175112076Y-109114422D01*
X174385019Y-109841479D01*
X174323696Y-109874964D01*
X174254004Y-109869980D01*
X174198071Y-109828108D01*
X174184544Y-109805309D01*
X174126114Y-109677365D01*
X174126111Y-109677361D01*
X174120352Y-109670715D01*
X174031863Y-109568592D01*
X173910788Y-109490782D01*
X173910786Y-109490781D01*
X173910784Y-109490780D01*
X173910785Y-109490780D01*
X173772698Y-109450235D01*
X173772696Y-109450235D01*
X173628774Y-109450235D01*
X173628771Y-109450235D01*
X173490684Y-109490780D01*
X173369608Y-109568591D01*
X173335947Y-109607438D01*
X173277168Y-109645212D01*
X173242234Y-109650235D01*
X166259703Y-109650235D01*
X166221489Y-109660474D01*
X166183274Y-109670714D01*
X166183273Y-109670715D01*
X166135343Y-109698388D01*
X166129225Y-109701919D01*
X166114754Y-109710274D01*
X164611847Y-111213181D01*
X164550524Y-111246666D01*
X164524166Y-111249500D01*
X164428036Y-111249500D01*
X164289949Y-111290045D01*
X164168873Y-111367856D01*
X164074623Y-111476626D01*
X164074622Y-111476628D01*
X164014834Y-111607543D01*
X163994353Y-111750000D01*
X161500500Y-111750000D01*
X161500500Y-110098822D01*
X161520185Y-110031783D01*
X161572989Y-109986028D01*
X161589554Y-109979848D01*
X161610053Y-109973830D01*
X161731128Y-109896020D01*
X161825377Y-109787250D01*
X161885165Y-109656334D01*
X161905647Y-109513877D01*
X161885165Y-109371420D01*
X161825377Y-109240504D01*
X161731128Y-109131734D01*
X161610053Y-109053924D01*
X161610051Y-109053923D01*
X161610049Y-109053922D01*
X161610050Y-109053922D01*
X161471963Y-109013377D01*
X161471961Y-109013377D01*
X161460956Y-109013377D01*
X161393917Y-108993692D01*
X161348162Y-108940888D01*
X161338218Y-108871730D01*
X161367243Y-108808174D01*
X161373275Y-108801696D01*
X166424970Y-103750000D01*
X168494353Y-103750000D01*
X168514834Y-103892456D01*
X168561500Y-103994638D01*
X168574623Y-104023373D01*
X168668872Y-104132143D01*
X168789947Y-104209953D01*
X168789950Y-104209954D01*
X168789949Y-104209954D01*
X168846737Y-104226628D01*
X168926336Y-104250000D01*
X168928036Y-104250499D01*
X168928038Y-104250500D01*
X169024167Y-104250500D01*
X169091206Y-104270185D01*
X169111848Y-104286819D01*
X172259540Y-107434511D01*
X172315489Y-107490460D01*
X172315491Y-107490461D01*
X172315495Y-107490464D01*
X172384004Y-107530017D01*
X172384011Y-107530021D01*
X172460438Y-107550500D01*
X172539562Y-107550500D01*
X173763194Y-107550500D01*
X173830233Y-107570185D01*
X173856905Y-107593295D01*
X173903707Y-107647308D01*
X174024782Y-107725118D01*
X174024785Y-107725119D01*
X174024784Y-107725119D01*
X174162871Y-107765664D01*
X174162873Y-107765665D01*
X174162874Y-107765665D01*
X174306797Y-107765665D01*
X174306797Y-107765664D01*
X174444888Y-107725118D01*
X174565963Y-107647308D01*
X174660212Y-107538538D01*
X174720000Y-107407622D01*
X174740482Y-107265165D01*
X174720000Y-107122708D01*
X174660212Y-106991792D01*
X174565963Y-106883022D01*
X174444888Y-106805212D01*
X174444886Y-106805211D01*
X174444884Y-106805210D01*
X174444885Y-106805210D01*
X174306798Y-106764665D01*
X174306796Y-106764665D01*
X174162874Y-106764665D01*
X174162871Y-106764665D01*
X174024784Y-106805210D01*
X173903708Y-106883021D01*
X173903707Y-106883021D01*
X173903707Y-106883022D01*
X173883186Y-106906703D01*
X173824410Y-106944477D01*
X173789475Y-106949500D01*
X172675833Y-106949500D01*
X172608794Y-106929815D01*
X172588152Y-106913181D01*
X169539395Y-103864424D01*
X169505910Y-103803101D01*
X169504339Y-103759094D01*
X169505647Y-103750000D01*
X169485165Y-103607543D01*
X169425377Y-103476627D01*
X169331128Y-103367857D01*
X169210053Y-103290047D01*
X169210051Y-103290046D01*
X169210049Y-103290045D01*
X169210050Y-103290045D01*
X169071963Y-103249500D01*
X169071961Y-103249500D01*
X168928039Y-103249500D01*
X168928036Y-103249500D01*
X168789949Y-103290045D01*
X168668873Y-103367856D01*
X168574623Y-103476626D01*
X168574622Y-103476628D01*
X168514834Y-103607543D01*
X168494353Y-103750000D01*
X166424970Y-103750000D01*
X166888151Y-103286819D01*
X166949474Y-103253334D01*
X166975832Y-103250500D01*
X167071962Y-103250500D01*
X167071962Y-103250499D01*
X167210053Y-103209953D01*
X167331128Y-103132143D01*
X167425377Y-103023373D01*
X167485165Y-102892457D01*
X167505647Y-102750000D01*
X167485165Y-102607543D01*
X167425377Y-102476627D01*
X167331128Y-102367857D01*
X167210053Y-102290047D01*
X167210051Y-102290046D01*
X167210049Y-102290045D01*
X167210050Y-102290045D01*
X167071963Y-102249500D01*
X167071961Y-102249500D01*
X166928039Y-102249500D01*
X166928036Y-102249500D01*
X166789949Y-102290045D01*
X166668873Y-102367856D01*
X166574623Y-102476626D01*
X166574622Y-102476628D01*
X166514834Y-102607543D01*
X166494353Y-102750000D01*
X166494353Y-102750001D01*
X166495661Y-102759103D01*
X166485713Y-102828261D01*
X166460603Y-102864424D01*
X165137181Y-104187847D01*
X165075858Y-104221332D01*
X165006166Y-104216348D01*
X164950233Y-104174476D01*
X164925816Y-104109012D01*
X164925500Y-104100166D01*
X164925500Y-100933733D01*
X164945185Y-100866694D01*
X164997989Y-100820939D01*
X165067147Y-100810995D01*
X165130703Y-100840020D01*
X165143208Y-100852525D01*
X165168872Y-100882143D01*
X165289947Y-100959953D01*
X165289950Y-100959954D01*
X165289949Y-100959954D01*
X165375805Y-100985163D01*
X165425280Y-100999690D01*
X165428036Y-101000499D01*
X165428038Y-101000500D01*
X165428039Y-101000500D01*
X165571962Y-101000500D01*
X165571962Y-101000499D01*
X165679121Y-100969035D01*
X165710050Y-100959954D01*
X165710050Y-100959953D01*
X165710053Y-100959953D01*
X165831128Y-100882143D01*
X165925377Y-100773373D01*
X165985165Y-100642457D01*
X166005647Y-100500000D01*
X167994353Y-100500000D01*
X168014834Y-100642456D01*
X168045881Y-100710438D01*
X168074623Y-100773373D01*
X168168872Y-100882143D01*
X168289947Y-100959953D01*
X168289950Y-100959954D01*
X168289949Y-100959954D01*
X168375805Y-100985163D01*
X168425280Y-100999690D01*
X168428036Y-101000499D01*
X168428038Y-101000500D01*
X168524167Y-101000500D01*
X168591206Y-101020185D01*
X168611848Y-101036819D01*
X168859540Y-101284511D01*
X168915489Y-101340460D01*
X168915491Y-101340461D01*
X168915495Y-101340464D01*
X168984004Y-101380017D01*
X168984011Y-101380021D01*
X169060438Y-101400500D01*
X169060440Y-101400500D01*
X175319560Y-101400500D01*
X175319562Y-101400500D01*
X175395989Y-101380021D01*
X175464511Y-101340460D01*
X175520460Y-101284511D01*
X175768151Y-101036818D01*
X175829474Y-101003334D01*
X175855832Y-101000500D01*
X175951962Y-101000500D01*
X175951962Y-101000499D01*
X176059121Y-100969035D01*
X176090050Y-100959954D01*
X176090050Y-100959953D01*
X176090053Y-100959953D01*
X176211128Y-100882143D01*
X176305377Y-100773373D01*
X176365165Y-100642457D01*
X176385647Y-100500000D01*
X176365165Y-100357543D01*
X176305377Y-100226627D01*
X176211128Y-100117857D01*
X176090053Y-100040047D01*
X176090051Y-100040046D01*
X176090049Y-100040045D01*
X176090050Y-100040045D01*
X175951963Y-99999500D01*
X175951961Y-99999500D01*
X175808039Y-99999500D01*
X175808036Y-99999500D01*
X175669949Y-100040045D01*
X175548873Y-100117856D01*
X175454623Y-100226626D01*
X175454622Y-100226628D01*
X175394834Y-100357543D01*
X175374353Y-100500000D01*
X175374353Y-100500001D01*
X175375661Y-100509103D01*
X175365713Y-100578261D01*
X175340603Y-100614424D01*
X175191846Y-100763182D01*
X175130526Y-100796666D01*
X175104167Y-100799500D01*
X173604698Y-100799500D01*
X173537659Y-100779815D01*
X173491904Y-100727011D01*
X173481960Y-100657853D01*
X173484883Y-100644412D01*
X173485163Y-100642459D01*
X173485165Y-100642457D01*
X173505647Y-100500000D01*
X173504339Y-100490905D01*
X173514279Y-100421749D01*
X173539392Y-100385577D01*
X174580460Y-99344511D01*
X174597216Y-99315489D01*
X174620021Y-99275989D01*
X174640500Y-99199562D01*
X174640500Y-91800438D01*
X174620021Y-91724011D01*
X174586237Y-91665495D01*
X174580464Y-91655495D01*
X174580458Y-91655487D01*
X173539395Y-90614424D01*
X173505910Y-90553101D01*
X173504339Y-90509094D01*
X173505647Y-90500000D01*
X173485165Y-90357543D01*
X173425377Y-90226627D01*
X173331128Y-90117857D01*
X173210053Y-90040047D01*
X173210051Y-90040046D01*
X173210049Y-90040045D01*
X173210050Y-90040045D01*
X173071963Y-89999500D01*
X173071961Y-89999500D01*
X172928039Y-89999500D01*
X172928036Y-89999500D01*
X172789949Y-90040045D01*
X172668873Y-90117856D01*
X172574623Y-90226626D01*
X172574622Y-90226628D01*
X172514834Y-90357543D01*
X172494353Y-90500000D01*
X172514834Y-90642456D01*
X172563948Y-90749998D01*
X172574623Y-90773373D01*
X172668872Y-90882143D01*
X172789947Y-90959953D01*
X172789950Y-90959954D01*
X172789949Y-90959954D01*
X172897107Y-90991417D01*
X172925280Y-90999690D01*
X172928036Y-91000499D01*
X172928038Y-91000500D01*
X173024167Y-91000500D01*
X173091206Y-91020185D01*
X173111848Y-91036819D01*
X174003181Y-91928152D01*
X174036666Y-91989475D01*
X174039500Y-92015833D01*
X174039500Y-93050666D01*
X174019815Y-93117705D01*
X173967011Y-93163460D01*
X173897853Y-93173404D01*
X173880566Y-93169643D01*
X173811964Y-93149500D01*
X173811961Y-93149500D01*
X173715833Y-93149500D01*
X173648794Y-93129815D01*
X173628152Y-93113181D01*
X173024512Y-92509541D01*
X173024507Y-92509537D01*
X173007124Y-92499502D01*
X173007120Y-92499498D01*
X173007120Y-92499499D01*
X172980281Y-92484004D01*
X172955990Y-92469979D01*
X172930513Y-92463152D01*
X172879562Y-92449500D01*
X172879560Y-92449500D01*
X169958501Y-92449500D01*
X169891462Y-92429815D01*
X169864788Y-92406703D01*
X169859557Y-92400666D01*
X169831128Y-92367857D01*
X169710053Y-92290047D01*
X169710051Y-92290046D01*
X169710049Y-92290045D01*
X169710050Y-92290045D01*
X169571963Y-92249500D01*
X169571961Y-92249500D01*
X169428039Y-92249500D01*
X169428036Y-92249500D01*
X169289949Y-92290045D01*
X169168873Y-92367856D01*
X169168872Y-92367856D01*
X169168872Y-92367857D01*
X169156290Y-92382377D01*
X169074623Y-92476626D01*
X169074622Y-92476628D01*
X169014834Y-92607543D01*
X168994353Y-92750000D01*
X169014834Y-92892456D01*
X169074622Y-93023371D01*
X169074623Y-93023373D01*
X169168872Y-93132143D01*
X169176324Y-93136932D01*
X169189943Y-93145685D01*
X169235698Y-93198489D01*
X169245641Y-93267648D01*
X169216615Y-93331203D01*
X169189943Y-93354315D01*
X169168874Y-93367855D01*
X169074623Y-93476626D01*
X169074622Y-93476628D01*
X169014834Y-93607543D01*
X168994353Y-93750000D01*
X169014834Y-93892456D01*
X169070507Y-94014360D01*
X169074623Y-94023373D01*
X169168872Y-94132143D01*
X169289947Y-94209953D01*
X169289950Y-94209954D01*
X169289949Y-94209954D01*
X169397107Y-94241417D01*
X169424633Y-94249500D01*
X169428036Y-94250499D01*
X169428038Y-94250500D01*
X169428039Y-94250500D01*
X169571962Y-94250500D01*
X169571962Y-94250499D01*
X169710053Y-94209953D01*
X169765299Y-94174448D01*
X169832333Y-94154765D01*
X169899373Y-94174449D01*
X169945129Y-94227252D01*
X169955073Y-94296410D01*
X169926049Y-94359966D01*
X169923499Y-94362517D01*
X169824623Y-94476626D01*
X169824622Y-94476628D01*
X169764834Y-94607543D01*
X169744353Y-94750000D01*
X169764834Y-94892456D01*
X169775290Y-94915350D01*
X169824623Y-95023373D01*
X169918872Y-95132143D01*
X170039947Y-95209953D01*
X170039950Y-95209954D01*
X170039949Y-95209954D01*
X170178036Y-95250499D01*
X170178038Y-95250500D01*
X170178039Y-95250500D01*
X170321962Y-95250500D01*
X170321962Y-95250499D01*
X170460053Y-95209953D01*
X170581128Y-95132143D01*
X170614788Y-95093296D01*
X170673567Y-95055523D01*
X170708501Y-95050500D01*
X171541499Y-95050500D01*
X171608538Y-95070185D01*
X171635211Y-95093296D01*
X171668872Y-95132143D01*
X171789947Y-95209953D01*
X171789950Y-95209954D01*
X171789949Y-95209954D01*
X171928036Y-95250499D01*
X171928038Y-95250500D01*
X171928039Y-95250500D01*
X172071962Y-95250500D01*
X172071962Y-95250499D01*
X172210053Y-95209953D01*
X172331128Y-95132143D01*
X172425377Y-95023373D01*
X172485165Y-94892457D01*
X172504810Y-94755820D01*
X172533833Y-94692267D01*
X172592611Y-94654492D01*
X172634714Y-94651481D01*
X172634714Y-94650500D01*
X172787506Y-94650500D01*
X172787506Y-94650499D01*
X172925597Y-94609953D01*
X173046672Y-94532143D01*
X173140921Y-94423373D01*
X173200709Y-94292457D01*
X173221191Y-94150000D01*
X173221191Y-94149999D01*
X173221191Y-94141131D01*
X173224197Y-94141131D01*
X173231987Y-94086872D01*
X173277731Y-94034059D01*
X173344766Y-94014360D01*
X173411809Y-94034030D01*
X173437436Y-94050500D01*
X173529948Y-94109954D01*
X173634949Y-94140784D01*
X173666336Y-94150000D01*
X173668036Y-94150499D01*
X173668038Y-94150500D01*
X173668039Y-94150500D01*
X173811961Y-94150500D01*
X173880566Y-94130356D01*
X173950434Y-94130356D01*
X174009213Y-94168130D01*
X174038238Y-94231686D01*
X174039500Y-94249333D01*
X174039500Y-98984166D01*
X174019815Y-99051205D01*
X174003181Y-99071847D01*
X173111847Y-99963181D01*
X173050524Y-99996666D01*
X173024166Y-99999500D01*
X172928036Y-99999500D01*
X172789949Y-100040045D01*
X172668873Y-100117856D01*
X172574623Y-100226626D01*
X172574622Y-100226628D01*
X172514834Y-100357543D01*
X172494353Y-100500000D01*
X172516097Y-100651235D01*
X172514279Y-100651496D01*
X172514278Y-100710438D01*
X172476502Y-100769215D01*
X172412945Y-100798238D01*
X172395302Y-100799500D01*
X169275833Y-100799500D01*
X169208794Y-100779815D01*
X169188152Y-100763181D01*
X169039395Y-100614424D01*
X169005910Y-100553101D01*
X169004339Y-100509094D01*
X169005647Y-100500000D01*
X168985165Y-100357543D01*
X168925377Y-100226627D01*
X168831128Y-100117857D01*
X168710053Y-100040047D01*
X168710051Y-100040046D01*
X168710049Y-100040045D01*
X168710050Y-100040045D01*
X168571963Y-99999500D01*
X168571961Y-99999500D01*
X168428039Y-99999500D01*
X168428036Y-99999500D01*
X168289949Y-100040045D01*
X168168873Y-100117856D01*
X168074623Y-100226626D01*
X168074622Y-100226628D01*
X168014834Y-100357543D01*
X167994353Y-100500000D01*
X166005647Y-100500000D01*
X166004339Y-100490905D01*
X166014279Y-100421749D01*
X166039392Y-100385577D01*
X167090460Y-99334511D01*
X167098983Y-99319748D01*
X167101442Y-99315490D01*
X167101442Y-99315489D01*
X167130021Y-99265989D01*
X167150500Y-99189562D01*
X167150500Y-97750000D01*
X169244353Y-97750000D01*
X169264834Y-97892456D01*
X169324622Y-98023371D01*
X169324623Y-98023373D01*
X169418872Y-98132143D01*
X169539947Y-98209953D01*
X169539950Y-98209954D01*
X169539949Y-98209954D01*
X169678036Y-98250499D01*
X169678038Y-98250500D01*
X169678039Y-98250500D01*
X169821962Y-98250500D01*
X169821962Y-98250499D01*
X169960053Y-98209953D01*
X170081128Y-98132143D01*
X170114788Y-98093296D01*
X170173567Y-98055523D01*
X170208501Y-98050500D01*
X172286728Y-98050500D01*
X172353767Y-98070185D01*
X172380439Y-98093295D01*
X172421855Y-98141092D01*
X172542930Y-98218902D01*
X172542933Y-98218903D01*
X172542932Y-98218903D01*
X172681019Y-98259448D01*
X172681021Y-98259449D01*
X172681022Y-98259449D01*
X172824945Y-98259449D01*
X172824945Y-98259448D01*
X172963036Y-98218902D01*
X173084111Y-98141092D01*
X173178360Y-98032322D01*
X173238148Y-97901406D01*
X173258630Y-97758949D01*
X173238148Y-97616492D01*
X173178360Y-97485576D01*
X173084111Y-97376806D01*
X173015263Y-97332560D01*
X172969510Y-97279758D01*
X172959566Y-97210600D01*
X172969509Y-97176737D01*
X172985165Y-97142457D01*
X173005647Y-97000000D01*
X172985165Y-96857543D01*
X172925377Y-96726627D01*
X172831128Y-96617857D01*
X172710053Y-96540047D01*
X172710051Y-96540046D01*
X172710049Y-96540045D01*
X172710050Y-96540045D01*
X172571963Y-96499500D01*
X172571961Y-96499500D01*
X172428039Y-96499500D01*
X172428036Y-96499500D01*
X172289949Y-96540045D01*
X172168873Y-96617856D01*
X172135212Y-96656703D01*
X172076433Y-96694477D01*
X172041499Y-96699500D01*
X170958501Y-96699500D01*
X170891462Y-96679815D01*
X170864788Y-96656703D01*
X170831128Y-96617857D01*
X170710053Y-96540047D01*
X170710051Y-96540046D01*
X170710049Y-96540045D01*
X170710050Y-96540045D01*
X170571963Y-96499500D01*
X170571961Y-96499500D01*
X170428039Y-96499500D01*
X170428036Y-96499500D01*
X170289949Y-96540045D01*
X170168873Y-96617856D01*
X170074623Y-96726626D01*
X170074622Y-96726628D01*
X170014834Y-96857543D01*
X169994353Y-97000000D01*
X170011945Y-97122364D01*
X170002001Y-97191522D01*
X169956246Y-97244326D01*
X169889206Y-97264010D01*
X169854273Y-97258987D01*
X169821963Y-97249500D01*
X169821961Y-97249500D01*
X169678039Y-97249500D01*
X169678036Y-97249500D01*
X169539949Y-97290045D01*
X169418873Y-97367856D01*
X169324623Y-97476626D01*
X169324622Y-97476628D01*
X169264834Y-97607543D01*
X169244353Y-97750000D01*
X167150500Y-97750000D01*
X167150500Y-91810438D01*
X167130021Y-91734011D01*
X167124246Y-91724009D01*
X167090464Y-91665495D01*
X167090458Y-91665487D01*
X166039395Y-90614424D01*
X166005910Y-90553101D01*
X166004339Y-90509094D01*
X166005647Y-90500000D01*
X165985165Y-90357543D01*
X165925377Y-90226627D01*
X165831128Y-90117857D01*
X165710053Y-90040047D01*
X165710051Y-90040046D01*
X165710049Y-90040045D01*
X165710050Y-90040045D01*
X165571963Y-89999500D01*
X165571961Y-89999500D01*
X165428039Y-89999500D01*
X165428036Y-89999500D01*
X165289949Y-90040045D01*
X165168873Y-90117856D01*
X165074623Y-90226626D01*
X165074622Y-90226628D01*
X165014834Y-90357543D01*
X164994353Y-90500000D01*
X165014834Y-90642456D01*
X165063948Y-90749998D01*
X165074623Y-90773373D01*
X165168872Y-90882143D01*
X165289947Y-90959953D01*
X165289950Y-90959954D01*
X165289949Y-90959954D01*
X165397107Y-90991417D01*
X165425280Y-90999690D01*
X165428036Y-91000499D01*
X165428038Y-91000500D01*
X165524167Y-91000500D01*
X165591206Y-91020185D01*
X165611848Y-91036819D01*
X166513181Y-91938152D01*
X166546666Y-91999475D01*
X166549500Y-92025833D01*
X166549500Y-92550666D01*
X166529815Y-92617705D01*
X166477011Y-92663460D01*
X166407853Y-92673404D01*
X166390566Y-92669643D01*
X166321964Y-92649500D01*
X166321961Y-92649500D01*
X166178039Y-92649500D01*
X166178036Y-92649500D01*
X166039949Y-92690045D01*
X165918873Y-92767856D01*
X165824623Y-92876626D01*
X165824622Y-92876628D01*
X165764834Y-93007543D01*
X165744353Y-93150000D01*
X165744353Y-93150001D01*
X165745661Y-93159103D01*
X165735713Y-93228261D01*
X165710603Y-93264424D01*
X165161848Y-93813181D01*
X165100525Y-93846666D01*
X165074167Y-93849500D01*
X164374833Y-93849500D01*
X164307794Y-93829815D01*
X164262039Y-93777011D01*
X164252095Y-93707853D01*
X164281120Y-93644297D01*
X164287152Y-93637819D01*
X164638151Y-93286819D01*
X164699474Y-93253334D01*
X164725832Y-93250500D01*
X164821962Y-93250500D01*
X164821962Y-93250499D01*
X164960053Y-93209953D01*
X165081128Y-93132143D01*
X165175377Y-93023373D01*
X165235165Y-92892457D01*
X165255647Y-92750000D01*
X165235165Y-92607543D01*
X165175377Y-92476627D01*
X165081128Y-92367857D01*
X164960053Y-92290047D01*
X164960051Y-92290046D01*
X164960049Y-92290045D01*
X164960050Y-92290045D01*
X164821963Y-92249500D01*
X164821961Y-92249500D01*
X164678039Y-92249500D01*
X164678036Y-92249500D01*
X164539949Y-92290045D01*
X164418873Y-92367856D01*
X164418872Y-92367856D01*
X164418872Y-92367857D01*
X164406290Y-92382377D01*
X164324623Y-92476626D01*
X164324622Y-92476628D01*
X164264834Y-92607543D01*
X164244353Y-92750000D01*
X164244353Y-92750001D01*
X164245661Y-92759103D01*
X164235713Y-92828261D01*
X164210603Y-92864424D01*
X163661848Y-93413181D01*
X163600525Y-93446666D01*
X163574167Y-93449500D01*
X160710438Y-93449500D01*
X160687304Y-93455699D01*
X160634009Y-93469979D01*
X160620033Y-93478049D01*
X160620032Y-93478049D01*
X160565495Y-93509535D01*
X160565487Y-93509541D01*
X160112181Y-93962848D01*
X160050858Y-93996333D01*
X159981166Y-93991349D01*
X159925233Y-93949477D01*
X159900816Y-93884013D01*
X159900500Y-93875167D01*
X159900500Y-86325832D01*
X159920185Y-86258793D01*
X159936814Y-86238156D01*
X161195275Y-84979695D01*
X173492293Y-84979695D01*
X173512774Y-85122151D01*
X173572562Y-85253066D01*
X173572563Y-85253068D01*
X173666812Y-85361838D01*
X173787887Y-85439648D01*
X173787890Y-85439649D01*
X173787889Y-85439649D01*
X173868034Y-85463181D01*
X173925979Y-85480195D01*
X173925987Y-85480195D01*
X173928138Y-85480505D01*
X173930129Y-85481414D01*
X173934488Y-85482694D01*
X173934304Y-85483320D01*
X173991696Y-85509525D01*
X174029475Y-85568301D01*
X174034500Y-85603244D01*
X174034500Y-85680765D01*
X174073719Y-85827136D01*
X174091275Y-85857543D01*
X174149485Y-85958365D01*
X174256635Y-86065515D01*
X174387865Y-86141281D01*
X174534234Y-86180500D01*
X174534236Y-86180500D01*
X174685764Y-86180500D01*
X174685766Y-86180500D01*
X174832135Y-86141281D01*
X174963365Y-86065515D01*
X175070515Y-85958365D01*
X175146281Y-85827135D01*
X175185500Y-85680766D01*
X175185500Y-85529234D01*
X175146281Y-85382865D01*
X175070515Y-85251635D01*
X174963365Y-85144485D01*
X174853642Y-85081136D01*
X174832136Y-85068719D01*
X174758950Y-85049109D01*
X174685766Y-85029500D01*
X174672467Y-85029500D01*
X174605428Y-85009815D01*
X174559673Y-84957011D01*
X174549729Y-84887853D01*
X174578754Y-84824297D01*
X174584786Y-84817819D01*
X175178357Y-84224249D01*
X175815787Y-83586819D01*
X175877110Y-83553334D01*
X175903468Y-83550500D01*
X179075500Y-83550500D01*
X179142539Y-83570185D01*
X179188294Y-83622989D01*
X179199500Y-83674500D01*
X179199500Y-84286260D01*
X179179815Y-84353299D01*
X179169213Y-84367462D01*
X179074625Y-84476622D01*
X179074622Y-84476628D01*
X179014834Y-84607543D01*
X179004379Y-84680266D01*
X178975354Y-84743822D01*
X178916576Y-84781596D01*
X178846706Y-84781596D01*
X178787928Y-84743822D01*
X178777326Y-84729660D01*
X178775376Y-84726626D01*
X178763726Y-84713181D01*
X178681128Y-84617857D01*
X178560053Y-84540047D01*
X178560051Y-84540046D01*
X178560049Y-84540045D01*
X178560050Y-84540045D01*
X178421963Y-84499500D01*
X178421961Y-84499500D01*
X178278039Y-84499500D01*
X178278036Y-84499500D01*
X178139949Y-84540045D01*
X178018873Y-84617856D01*
X177924623Y-84726626D01*
X177924622Y-84726628D01*
X177864834Y-84857543D01*
X177852527Y-84943147D01*
X177823502Y-85006703D01*
X177764724Y-85044477D01*
X177729789Y-85049500D01*
X177458501Y-85049500D01*
X177391462Y-85029815D01*
X177364788Y-85006703D01*
X177364334Y-85006179D01*
X177331128Y-84967857D01*
X177210053Y-84890047D01*
X177210051Y-84890046D01*
X177210049Y-84890045D01*
X177210050Y-84890045D01*
X177071963Y-84849500D01*
X177071961Y-84849500D01*
X176928039Y-84849500D01*
X176928036Y-84849500D01*
X176789949Y-84890045D01*
X176668873Y-84967856D01*
X176574623Y-85076626D01*
X176574622Y-85076628D01*
X176514834Y-85207543D01*
X176494353Y-85350000D01*
X176514834Y-85492456D01*
X176549472Y-85568301D01*
X176574623Y-85623373D01*
X176668872Y-85732143D01*
X176789947Y-85809953D01*
X176789950Y-85809954D01*
X176789949Y-85809954D01*
X176928036Y-85850499D01*
X176928038Y-85850500D01*
X176928039Y-85850500D01*
X177071962Y-85850500D01*
X177071962Y-85850499D01*
X177210053Y-85809953D01*
X177331128Y-85732143D01*
X177364788Y-85693296D01*
X177423567Y-85655523D01*
X177458501Y-85650500D01*
X178039560Y-85650500D01*
X178039562Y-85650500D01*
X178115989Y-85630021D01*
X178184511Y-85590460D01*
X178238153Y-85536818D01*
X178299477Y-85503334D01*
X178325834Y-85500500D01*
X178421962Y-85500500D01*
X178421962Y-85500499D01*
X178529121Y-85469035D01*
X178560050Y-85459954D01*
X178560050Y-85459953D01*
X178560053Y-85459953D01*
X178681128Y-85382143D01*
X178775377Y-85273373D01*
X178835165Y-85142457D01*
X178845621Y-85069732D01*
X178874644Y-85006179D01*
X178933421Y-84968403D01*
X179003291Y-84968402D01*
X179062070Y-85006176D01*
X179072671Y-85020337D01*
X179074619Y-85023369D01*
X179097262Y-85049500D01*
X179168872Y-85132143D01*
X179289947Y-85209953D01*
X179289950Y-85209954D01*
X179289949Y-85209954D01*
X179397107Y-85241417D01*
X179426336Y-85250000D01*
X179428036Y-85250499D01*
X179428038Y-85250500D01*
X179428039Y-85250500D01*
X179571961Y-85250500D01*
X179706474Y-85211004D01*
X179776340Y-85211004D01*
X179835119Y-85248778D01*
X179864144Y-85312334D01*
X179855973Y-85377419D01*
X179853721Y-85382855D01*
X179814500Y-85529234D01*
X179814500Y-85680765D01*
X179853719Y-85827136D01*
X179871275Y-85857543D01*
X179929485Y-85958365D01*
X180036635Y-86065515D01*
X180167865Y-86141281D01*
X180314234Y-86180500D01*
X180314236Y-86180500D01*
X180465764Y-86180500D01*
X180465766Y-86180500D01*
X180612135Y-86141281D01*
X180743365Y-86065515D01*
X180850515Y-85958365D01*
X180926281Y-85827135D01*
X180965500Y-85680766D01*
X180965500Y-85529234D01*
X180926281Y-85382865D01*
X180850515Y-85251635D01*
X180743365Y-85144485D01*
X180633642Y-85081136D01*
X180612136Y-85068719D01*
X180538950Y-85049109D01*
X180465766Y-85029500D01*
X180314234Y-85029500D01*
X180167865Y-85068719D01*
X180167864Y-85068719D01*
X180167862Y-85068720D01*
X180146356Y-85081136D01*
X180078456Y-85097606D01*
X180012430Y-85074753D01*
X179969240Y-85019830D01*
X179962600Y-84950277D01*
X179971562Y-84922242D01*
X179985165Y-84892457D01*
X180005647Y-84750000D01*
X179985165Y-84607543D01*
X179925377Y-84476627D01*
X179925375Y-84476625D01*
X179925374Y-84476622D01*
X179830787Y-84367462D01*
X179801762Y-84303906D01*
X179800500Y-84286260D01*
X179800500Y-83950000D01*
X183856853Y-83950000D01*
X183877334Y-84092456D01*
X183937122Y-84223371D01*
X183937125Y-84223377D01*
X184032263Y-84333172D01*
X184061288Y-84396727D01*
X184061488Y-84398177D01*
X184061999Y-84402057D01*
X184082479Y-84478489D01*
X184118019Y-84540047D01*
X184122037Y-84547007D01*
X184122042Y-84547013D01*
X185460604Y-85885575D01*
X185494089Y-85946898D01*
X185495661Y-85990902D01*
X185494353Y-85999999D01*
X185514834Y-86142456D01*
X185558537Y-86238151D01*
X185574623Y-86273373D01*
X185668872Y-86382143D01*
X185789947Y-86459953D01*
X185789950Y-86459954D01*
X185789949Y-86459954D01*
X185928036Y-86500499D01*
X185928038Y-86500500D01*
X185928039Y-86500500D01*
X186071962Y-86500500D01*
X186071962Y-86500499D01*
X186210053Y-86459953D01*
X186331128Y-86382143D01*
X186425377Y-86273373D01*
X186485165Y-86142457D01*
X186505647Y-86000000D01*
X186485165Y-85857543D01*
X186425377Y-85726627D01*
X186331128Y-85617857D01*
X186210053Y-85540047D01*
X186210051Y-85540046D01*
X186210049Y-85540045D01*
X186210050Y-85540045D01*
X186071963Y-85499500D01*
X186071961Y-85499500D01*
X185975833Y-85499500D01*
X185908794Y-85479815D01*
X185888152Y-85463181D01*
X184803945Y-84378974D01*
X184770460Y-84317651D01*
X184775444Y-84247959D01*
X184787314Y-84224249D01*
X184787874Y-84223375D01*
X184787877Y-84223373D01*
X184847665Y-84092457D01*
X184868147Y-83950000D01*
X184847665Y-83807543D01*
X184787877Y-83676627D01*
X184693628Y-83567857D01*
X184572553Y-83490047D01*
X184572551Y-83490046D01*
X184572549Y-83490045D01*
X184572550Y-83490045D01*
X184434463Y-83449500D01*
X184434461Y-83449500D01*
X184290539Y-83449500D01*
X184290536Y-83449500D01*
X184152449Y-83490045D01*
X184031373Y-83567856D01*
X183937123Y-83676626D01*
X183937122Y-83676628D01*
X183877334Y-83807543D01*
X183856853Y-83950000D01*
X179800500Y-83950000D01*
X179800500Y-83210439D01*
X179782284Y-83142457D01*
X179780021Y-83134011D01*
X179780017Y-83134004D01*
X179740464Y-83065495D01*
X179740458Y-83065487D01*
X179684512Y-83009541D01*
X179684504Y-83009535D01*
X179615995Y-82969982D01*
X179615990Y-82969979D01*
X179590513Y-82963152D01*
X179539562Y-82949500D01*
X175688073Y-82949500D01*
X175620674Y-82967559D01*
X175611642Y-82969980D01*
X175559649Y-82999999D01*
X175543127Y-83009537D01*
X175543122Y-83009541D01*
X174109787Y-84442876D01*
X174048464Y-84476361D01*
X174022106Y-84479195D01*
X173925976Y-84479195D01*
X173787889Y-84519740D01*
X173666813Y-84597551D01*
X173572563Y-84706321D01*
X173572562Y-84706323D01*
X173512774Y-84837238D01*
X173492293Y-84979695D01*
X161195275Y-84979695D01*
X162638151Y-83536818D01*
X162699474Y-83503334D01*
X162725832Y-83500500D01*
X162821962Y-83500500D01*
X162821962Y-83500499D01*
X162960053Y-83459953D01*
X163081128Y-83382143D01*
X163175377Y-83273373D01*
X163235165Y-83142457D01*
X163255647Y-83000000D01*
X163235165Y-82857543D01*
X163175377Y-82726627D01*
X163081128Y-82617857D01*
X162960053Y-82540047D01*
X162960051Y-82540046D01*
X162960049Y-82540045D01*
X162960050Y-82540045D01*
X162821963Y-82499500D01*
X162821961Y-82499500D01*
X162678039Y-82499500D01*
X162678036Y-82499500D01*
X162539949Y-82540045D01*
X162418873Y-82617856D01*
X162324623Y-82726626D01*
X162324622Y-82726628D01*
X162264834Y-82857543D01*
X162244353Y-82999999D01*
X162245661Y-83009103D01*
X162235713Y-83078261D01*
X162210603Y-83114424D01*
X159712181Y-85612847D01*
X159650858Y-85646332D01*
X159581166Y-85641348D01*
X159525233Y-85599476D01*
X159500816Y-85534012D01*
X159500500Y-85525166D01*
X159500500Y-83003750D01*
X159500726Y-82996263D01*
X159504486Y-82934108D01*
X159518271Y-82706201D01*
X159520076Y-82691340D01*
X159533543Y-82617857D01*
X159571780Y-82409197D01*
X159575364Y-82394663D01*
X159652096Y-82148422D01*
X159660696Y-82120822D01*
X159665998Y-82106841D01*
X159783731Y-81845249D01*
X159790676Y-81832016D01*
X159939080Y-81586526D01*
X159947567Y-81574230D01*
X160124480Y-81348417D01*
X160134395Y-81337226D01*
X160337226Y-81134395D01*
X160348417Y-81124480D01*
X160574230Y-80947567D01*
X160586526Y-80939080D01*
X160832016Y-80790676D01*
X160845249Y-80783731D01*
X161106841Y-80665998D01*
X161120822Y-80660696D01*
X161394668Y-80575362D01*
X161409197Y-80571780D01*
X161691344Y-80520075D01*
X161706201Y-80518271D01*
X161996264Y-80500726D01*
X162003751Y-80500500D01*
X162065892Y-80500500D01*
X171525167Y-80500500D01*
X171592206Y-80520185D01*
G37*
%TD.AperFunction*%
%TA.AperFunction,Conductor*%
G36*
X166519213Y-93668130D02*
G01*
X166548238Y-93731686D01*
X166549500Y-93749333D01*
X166549500Y-98974166D01*
X166529815Y-99041205D01*
X166513181Y-99061847D01*
X165611847Y-99963181D01*
X165550524Y-99996666D01*
X165524166Y-99999500D01*
X165428036Y-99999500D01*
X165289949Y-100040045D01*
X165168872Y-100117856D01*
X165143212Y-100147470D01*
X165084433Y-100185244D01*
X165014564Y-100185243D01*
X164955786Y-100147468D01*
X164926762Y-100083912D01*
X164925500Y-100066266D01*
X164925500Y-98088738D01*
X164945185Y-98021699D01*
X164955787Y-98007535D01*
X164956124Y-98007144D01*
X164956128Y-98007143D01*
X165050377Y-97898373D01*
X165110165Y-97767457D01*
X165130647Y-97625000D01*
X165110165Y-97482543D01*
X165050377Y-97351627D01*
X164956128Y-97242857D01*
X164835053Y-97165047D01*
X164835051Y-97165046D01*
X164835049Y-97165045D01*
X164835050Y-97165045D01*
X164696963Y-97124500D01*
X164696961Y-97124500D01*
X164553039Y-97124500D01*
X164553036Y-97124500D01*
X164414949Y-97165045D01*
X164293873Y-97242856D01*
X164199623Y-97351626D01*
X164199622Y-97351628D01*
X164139834Y-97482543D01*
X164119353Y-97625000D01*
X164139834Y-97767456D01*
X164196921Y-97892456D01*
X164199623Y-97898373D01*
X164293872Y-98007143D01*
X164293875Y-98007144D01*
X164294213Y-98007535D01*
X164323238Y-98071091D01*
X164324500Y-98088738D01*
X164324500Y-102400666D01*
X164304815Y-102467705D01*
X164252011Y-102513460D01*
X164182853Y-102523404D01*
X164165566Y-102519643D01*
X164096964Y-102499500D01*
X164096961Y-102499500D01*
X163953039Y-102499500D01*
X163953036Y-102499500D01*
X163814949Y-102540045D01*
X163693873Y-102617856D01*
X163599623Y-102726626D01*
X163599622Y-102726628D01*
X163539834Y-102857543D01*
X163519353Y-103000000D01*
X163539834Y-103142456D01*
X163588720Y-103249500D01*
X163599623Y-103273373D01*
X163693872Y-103382143D01*
X163814947Y-103459953D01*
X163814950Y-103459954D01*
X163814949Y-103459954D01*
X163953036Y-103500499D01*
X163953038Y-103500500D01*
X163953039Y-103500500D01*
X164096961Y-103500500D01*
X164165566Y-103480356D01*
X164235434Y-103480356D01*
X164294213Y-103518130D01*
X164323238Y-103581686D01*
X164324500Y-103599333D01*
X164324500Y-103949166D01*
X164304815Y-104016205D01*
X164288181Y-104036847D01*
X161111847Y-107213181D01*
X161050524Y-107246666D01*
X161024166Y-107249500D01*
X160928035Y-107249500D01*
X160859434Y-107269643D01*
X160789564Y-107269643D01*
X160730786Y-107231868D01*
X160701762Y-107168312D01*
X160700500Y-107150666D01*
X160700500Y-94841519D01*
X160720185Y-94774480D01*
X160736819Y-94753838D01*
X161003838Y-94486819D01*
X161065161Y-94453334D01*
X161091519Y-94450500D01*
X165289560Y-94450500D01*
X165289562Y-94450500D01*
X165365989Y-94430021D01*
X165434511Y-94390460D01*
X165490460Y-94334511D01*
X166138151Y-93686818D01*
X166199474Y-93653334D01*
X166225832Y-93650500D01*
X166321961Y-93650500D01*
X166390566Y-93630356D01*
X166460434Y-93630356D01*
X166519213Y-93668130D01*
G37*
%TD.AperFunction*%
%TD*%
M02*
