%TF.GenerationSoftware,KiCad,Pcbnew,8.0.8*%
%TF.CreationDate,2025-05-27T20:59:17+01:00*%
%TF.ProjectId,Watch,57617463-682e-46b6-9963-61645f706362,rev?*%
%TF.SameCoordinates,Original*%
%TF.FileFunction,Soldermask,Top*%
%TF.FilePolarity,Negative*%
%FSLAX46Y46*%
G04 Gerber Fmt 4.6, Leading zero omitted, Abs format (unit mm)*
G04 Created by KiCad (PCBNEW 8.0.8) date 2025-05-27 20:59:17*
%MOMM*%
%LPD*%
G01*
G04 APERTURE LIST*
G04 Aperture macros list*
%AMRoundRect*
0 Rectangle with rounded corners*
0 $1 Rounding radius*
0 $2 $3 $4 $5 $6 $7 $8 $9 X,Y pos of 4 corners*
0 Add a 4 corners polygon primitive as box body*
4,1,4,$2,$3,$4,$5,$6,$7,$8,$9,$2,$3,0*
0 Add four circle primitives for the rounded corners*
1,1,$1+$1,$2,$3*
1,1,$1+$1,$4,$5*
1,1,$1+$1,$6,$7*
1,1,$1+$1,$8,$9*
0 Add four rect primitives between the rounded corners*
20,1,$1+$1,$2,$3,$4,$5,0*
20,1,$1+$1,$4,$5,$6,$7,0*
20,1,$1+$1,$6,$7,$8,$9,0*
20,1,$1+$1,$8,$9,$2,$3,0*%
%AMRotRect*
0 Rectangle, with rotation*
0 The origin of the aperture is its center*
0 $1 length*
0 $2 width*
0 $3 Rotation angle, in degrees counterclockwise*
0 Add horizontal line*
21,1,$1,$2,0,0,$3*%
G04 Aperture macros list end*
%ADD10RoundRect,0.112500X-0.187500X-0.112500X0.187500X-0.112500X0.187500X0.112500X-0.187500X0.112500X0*%
%ADD11RoundRect,0.200000X-0.200000X-0.275000X0.200000X-0.275000X0.200000X0.275000X-0.200000X0.275000X0*%
%ADD12RoundRect,0.225000X0.225000X0.250000X-0.225000X0.250000X-0.225000X-0.250000X0.225000X-0.250000X0*%
%ADD13R,0.900000X2.800000*%
%ADD14R,1.800000X1.000000*%
%ADD15RoundRect,0.225000X-0.225000X-0.250000X0.225000X-0.250000X0.225000X0.250000X-0.225000X0.250000X0*%
%ADD16O,1.000000X1.600000*%
%ADD17O,1.000000X2.100000*%
%ADD18RoundRect,0.150000X0.150000X0.500000X-0.150000X0.500000X-0.150000X-0.500000X0.150000X-0.500000X0*%
%ADD19RoundRect,0.075000X0.075000X0.575000X-0.075000X0.575000X-0.075000X-0.575000X0.075000X-0.575000X0*%
%ADD20C,0.650000*%
%ADD21RoundRect,0.150000X-0.512500X-0.150000X0.512500X-0.150000X0.512500X0.150000X-0.512500X0.150000X0*%
%ADD22RoundRect,0.225000X-0.250000X0.225000X-0.250000X-0.225000X0.250000X-0.225000X0.250000X0.225000X0*%
%ADD23RoundRect,0.200000X0.275000X-0.200000X0.275000X0.200000X-0.275000X0.200000X-0.275000X-0.200000X0*%
%ADD24RotRect,1.600000X0.550000X45.000000*%
%ADD25RotRect,1.600000X0.550000X135.000000*%
%ADD26R,0.900000X1.700000*%
%ADD27R,1.700000X0.900000*%
%ADD28RoundRect,0.150000X0.150000X-0.587500X0.150000X0.587500X-0.150000X0.587500X-0.150000X-0.587500X0*%
%ADD29RoundRect,0.200000X0.200000X0.275000X-0.200000X0.275000X-0.200000X-0.275000X0.200000X-0.275000X0*%
%ADD30RoundRect,0.218750X-0.218750X-0.256250X0.218750X-0.256250X0.218750X0.256250X-0.218750X0.256250X0*%
G04 APERTURE END LIST*
D10*
%TO.C,D76*%
X188800000Y-87250000D03*
X186700000Y-87250000D03*
%TD*%
D11*
%TO.C,R1*%
X162675000Y-88000000D03*
X164325000Y-88000000D03*
%TD*%
D10*
%TO.C,D2*%
X180550000Y-104000000D03*
X182650000Y-104000000D03*
%TD*%
%TO.C,D1*%
X169450000Y-87200000D03*
X171550000Y-87200000D03*
%TD*%
D12*
%TO.C,C6*%
X190275000Y-116000000D03*
X188725000Y-116000000D03*
%TD*%
D13*
%TO.C,Dig4*%
X186620000Y-100500000D03*
X188060000Y-100500000D03*
X189500000Y-100500000D03*
X190940000Y-100500000D03*
X192380000Y-100500000D03*
X192380000Y-90500000D03*
X190940000Y-90500000D03*
X189500000Y-90500000D03*
X188060000Y-90500000D03*
X186620000Y-90500000D03*
%TD*%
D14*
%TO.C,Y2*%
X169500000Y-113000000D03*
X169500000Y-115500000D03*
%TD*%
D15*
%TO.C,C1*%
X171225000Y-103500000D03*
X172775000Y-103500000D03*
%TD*%
D16*
%TO.C,J1*%
X173180000Y-81925000D03*
D17*
X173180000Y-86105000D03*
D16*
X181820000Y-81925000D03*
D17*
X181820000Y-86105000D03*
D18*
X180700000Y-86745000D03*
X179900000Y-86745000D03*
D19*
X179250000Y-86745000D03*
X178250000Y-86745000D03*
X176750000Y-86745000D03*
X175750000Y-86745000D03*
D18*
X175100000Y-86745000D03*
X174300000Y-86745000D03*
X174300000Y-86745000D03*
X175100000Y-86745000D03*
D19*
X176250000Y-86745000D03*
X177250000Y-86745000D03*
X177750000Y-86745000D03*
X178750000Y-86745000D03*
D18*
X179900000Y-86745000D03*
X180700000Y-86745000D03*
D20*
X174610000Y-85605000D03*
X180390000Y-85605000D03*
%TD*%
D21*
%TO.C,U3*%
X184362500Y-82050000D03*
X184362500Y-83000000D03*
X184362500Y-83950000D03*
X186637500Y-83950000D03*
X186637500Y-82050000D03*
%TD*%
D22*
%TO.C,C9*%
X190500000Y-110225000D03*
X190500000Y-111775000D03*
%TD*%
D23*
%TO.C,R8*%
X164500000Y-110075000D03*
X164500000Y-108425000D03*
%TD*%
%TO.C,R6*%
X168000000Y-110075000D03*
X168000000Y-108425000D03*
%TD*%
D11*
%TO.C,R5*%
X162500000Y-103000000D03*
X164150000Y-103000000D03*
%TD*%
D15*
%TO.C,C10*%
X169225000Y-117500000D03*
X170775000Y-117500000D03*
%TD*%
D24*
%TO.C,U7*%
X172514897Y-111025305D03*
X173080583Y-111590990D03*
X173646268Y-112156676D03*
X174211953Y-112722361D03*
X174777639Y-113288047D03*
X175343324Y-113853732D03*
X175909010Y-114419417D03*
X176474695Y-114985103D03*
D25*
X178525305Y-114985103D03*
X179090990Y-114419417D03*
X179656676Y-113853732D03*
X180222361Y-113288047D03*
X180788047Y-112722361D03*
X181353732Y-112156676D03*
X181919417Y-111590990D03*
X182485103Y-111025305D03*
D24*
X182485103Y-108974695D03*
X181919417Y-108409010D03*
X181353732Y-107843324D03*
X180788047Y-107277639D03*
X180222361Y-106711953D03*
X179656676Y-106146268D03*
X179090990Y-105580583D03*
X178525305Y-105014897D03*
D25*
X176474695Y-105014897D03*
X175909010Y-105580583D03*
X175343324Y-106146268D03*
X174777639Y-106711953D03*
X174211953Y-107277639D03*
X173646268Y-107843324D03*
X173080583Y-108409010D03*
X172514897Y-108974695D03*
%TD*%
D26*
%TO.C,SW4*%
X188800000Y-83000000D03*
X192200000Y-83000000D03*
%TD*%
D15*
%TO.C,C4*%
X188725000Y-114500000D03*
X190275000Y-114500000D03*
%TD*%
D23*
%TO.C,R7*%
X189000000Y-110000000D03*
X189000000Y-108350000D03*
%TD*%
D15*
%TO.C,C5*%
X188775000Y-113000000D03*
X187225000Y-113000000D03*
%TD*%
D27*
%TO.C,SW1*%
X164000000Y-117700000D03*
X164000000Y-114300000D03*
%TD*%
D15*
%TO.C,C7*%
X172250000Y-117500000D03*
X173800000Y-117500000D03*
%TD*%
D28*
%TO.C,Q3*%
X187050000Y-106612500D03*
X188950000Y-106612500D03*
X188000000Y-104737500D03*
%TD*%
D29*
%TO.C,R11*%
X185575000Y-104250000D03*
X183925000Y-104250000D03*
%TD*%
D13*
%TO.C,Dig1*%
X162620000Y-100500000D03*
X164060000Y-100500000D03*
X165500000Y-100500000D03*
X166940000Y-100500000D03*
X168380000Y-100500000D03*
X168380000Y-90500000D03*
X166940000Y-90500000D03*
X165500000Y-90500000D03*
X164060000Y-90500000D03*
X162620000Y-90500000D03*
%TD*%
D28*
%TO.C,Q4*%
X190500000Y-106612500D03*
X192400000Y-106612500D03*
X191450000Y-104737500D03*
%TD*%
D29*
%TO.C,R3*%
X171325000Y-85500000D03*
X169675000Y-85500000D03*
%TD*%
D11*
%TO.C,R12*%
X191000000Y-103000000D03*
X192650000Y-103000000D03*
%TD*%
D28*
%TO.C,Q2*%
X166050000Y-106687500D03*
X167950000Y-106687500D03*
X167000000Y-104812500D03*
%TD*%
D21*
%TO.C,U1*%
X168362500Y-82050000D03*
X168362500Y-83000000D03*
X168362500Y-83950000D03*
X170637500Y-83950000D03*
X170637500Y-82050000D03*
%TD*%
D13*
%TO.C,Dig3*%
X179120000Y-100500000D03*
X180560000Y-100500000D03*
X182000000Y-100500000D03*
X183440000Y-100500000D03*
X184880000Y-100500000D03*
X184880000Y-90500000D03*
X183440000Y-90500000D03*
X182000000Y-90500000D03*
X180560000Y-90500000D03*
X179120000Y-90500000D03*
%TD*%
D26*
%TO.C,SW3*%
X166200000Y-83000000D03*
X162800000Y-83000000D03*
%TD*%
D23*
%TO.C,R9*%
X192500000Y-110000000D03*
X192500000Y-108350000D03*
%TD*%
D13*
%TO.C,Dig2*%
X170120000Y-100500000D03*
X171560000Y-100500000D03*
X173000000Y-100500000D03*
X174440000Y-100500000D03*
X175880000Y-100500000D03*
X175880000Y-90500000D03*
X174440000Y-90500000D03*
X173000000Y-90500000D03*
X171560000Y-90500000D03*
X170120000Y-90500000D03*
%TD*%
D11*
%TO.C,R4*%
X162675000Y-86500000D03*
X164325000Y-86500000D03*
%TD*%
D15*
%TO.C,C2*%
X179225000Y-117500000D03*
X180775000Y-117500000D03*
%TD*%
%TO.C,C8*%
X189725000Y-85500000D03*
X191275000Y-85500000D03*
%TD*%
D30*
%TO.C,D3*%
X166212500Y-86500000D03*
X167787500Y-86500000D03*
%TD*%
D11*
%TO.C,R10*%
X170175000Y-105100000D03*
X171825000Y-105100000D03*
%TD*%
D23*
%TO.C,R2*%
X184200000Y-87650000D03*
X184200000Y-86000000D03*
%TD*%
D28*
%TO.C,Q1*%
X162550000Y-106687500D03*
X164450000Y-106687500D03*
X163500000Y-104812500D03*
%TD*%
M02*
