M48
; DRILL file {KiCad 8.0.8} date 2025-06-11T01:55:21+0100
; FORMAT={-:-/ absolute / inch / decimal}
; #@! TF.CreationDate,2025-06-11T01:55:21+01:00
; #@! TF.GenerationSoftware,Kicad,Pcbnew,8.0.8
; #@! TF.FileFunction,Plated,1,2,PTH
FMAT,2
INCH
; #@! TA.AperFunction,Plated,PTH,ViaDrill
T1C0.0079
; #@! TA.AperFunction,Plated,PTH,ComponentDrill
T2C0.0079
; #@! TA.AperFunction,Plated,PTH,ViaDrill
T3C0.0118
; #@! TA.AperFunction,Plated,PTH,ComponentDrill
T4C0.0236
%
G90
G05
T1
X6.3386Y-3.5335
X6.4094Y-3.2677
X6.4173Y-3.4646
X6.4567Y-4.498
X6.4764Y-4.2618
X6.4862Y-4.1339
X6.5157Y-3.563
X6.565Y-4.1339
X6.5748Y-3.8484
X6.5945Y-4.2224
X6.6437Y-4.252
X6.7151Y-4.1358
X6.718Y-3.2303
X6.7323Y-3.6614
X6.752Y-3.6811
X6.752Y-3.8189
X6.7913Y-3.3268
X6.7913Y-3.7795
X6.7913Y-3.7992
X6.7919Y-4.3494
X6.811Y-3.563
X6.811Y-3.9567
X6.8142Y-4.3271
X6.8209Y-4.6752
X6.8406Y-3.6811
X6.8602Y-3.6614
X6.8701Y-3.7795
X6.8799Y-3.7992
X6.8898Y-3.8189
X6.9193Y-3.4152
X6.9256Y-4.2158
X6.9734Y-4.3406
X6.9774Y-4.0157
X6.9783Y-3.3563
X6.9783Y-3.4152
X6.9951Y-3.8484
X6.998Y-3.2677
X6.998Y-3.4152
X7.0079Y-4.4094
X7.0286Y-4.586
X7.0866Y-3.6614
X7.1063Y-3.6811
X7.1161Y-3.8189
X7.1161Y-4.1142
X7.1399Y-4.3049
X7.1457Y-3.7992
X7.1622Y-4.3271
X7.1654Y-3.563
X7.1654Y-3.7795
X7.1654Y-3.9567
X7.1949Y-3.2972
X7.2047Y-3.6811
X7.2146Y-4.4685
X7.2154Y-4.2618
X7.2244Y-3.7795
X7.2343Y-3.7992
X7.2441Y-4.5965
X7.249Y-4.2106
X7.2539Y-3.6614
X7.2539Y-4.4685
X7.2638Y-3.8189
X7.3524Y-4.1339
X7.3622Y-3.2283
X7.3819Y-3.6614
X7.3819Y-4.3406
X7.4016Y-3.6811
X7.4016Y-3.8189
X7.4039Y-3.9567
X7.4213Y-3.7992
X7.4409Y-3.7795
X7.4409Y-4.2126
X7.4606Y-3.563
X7.4606Y-3.9567
X7.4633Y-3.8413
X7.4803Y-4.2717
X7.4902Y-3.7894
X7.4902Y-3.8681
X7.5098Y-4.0846
X7.5173Y-3.9567
X7.5305Y-3.3661
X7.5394Y-3.6811
X7.5591Y-3.6614
X7.5787Y-4.1732
X7.5787Y-4.3602
X7.6181Y-4.3504
X7.6378Y-4.3307
X7.6476Y-4.2028
X7.6594Y-4.311
X7.687Y-3.4941
T2
X7.313Y-3.3637
X7.313Y-3.3912
X7.3425Y-3.3637
X7.3425Y-3.3912
X7.372Y-3.3637
X7.372Y-3.3912
T3
X6.7717Y-3.7165
X6.8504Y-3.7165
X7.126Y-3.7165
X7.2047Y-3.7165
X7.43Y-3.7165
X7.5004Y-3.7201
T4
G00X6.8181Y-3.2372
M15
G01X6.8181Y-3.2136
M16
G05
G00X6.8181Y-3.4116
M15
G01X6.8181Y-3.3683
M16
G05
G00X7.1583Y-3.2372
M15
G01X7.1583Y-3.2136
M16
G05
G00X7.1583Y-3.4116
M15
G01X7.1583Y-3.3683
M16
G05
M30
