M48
; DRILL file {KiCad 8.0.8} date 2025-05-27T20:59:17+0100
; FORMAT={-:-/ absolute / inch / decimal}
; #@! TF.CreationDate,2025-05-27T20:59:17+01:00
; #@! TF.GenerationSoftware,Kicad,Pcbnew,8.0.8
; #@! TF.FileFunction,Plated,1,2,PTH
FMAT,2
INCH
; #@! TA.AperFunction,Plated,PTH,ViaDrill
T1C0.0118
; #@! TA.AperFunction,Plated,PTH,ComponentDrill
T2C0.0236
%
G90
G05
T1
X6.3386Y-4.2421
X6.3484Y-4.1831
X6.3543Y-4.3116
X6.3583Y-3.6516
X6.3583Y-3.7402
X6.3819Y-4.6831
X6.4075Y-3.2677
X6.4577Y-4.0551
X6.4695Y-3.4646
X6.4764Y-4.3996
X6.4813Y-3.8435
X6.4862Y-3.6516
X6.5157Y-3.563
X6.5157Y-3.9567
X6.5453Y-3.6673
X6.5748Y-4.0453
X6.6339Y-3.9567
X6.6535Y-4.0846
X6.6732Y-3.6516
X6.6732Y-3.6909
X6.6732Y-4.3524
X6.6831Y-3.2677
X6.6831Y-3.8484
X6.7028Y-3.7303
X6.7126Y-3.8189
X6.7421Y-4.5669
X6.7717Y-3.7303
X6.7717Y-4.5472
X6.7884Y-4.376
X6.7913Y-3.8189
X6.7998Y-3.7067
X6.8012Y-4.5276
X6.8013Y-3.8488
X6.811Y-3.563
X6.811Y-3.9567
X6.8307Y-4.5079
X6.8386Y-4.3288
X6.8402Y-3.687
X6.8406Y-4.6831
X6.8503Y-3.3457
X6.8596Y-4.223
X6.9154Y-4.2913
X6.9244Y-3.9567
X6.9685Y-3.3602
X6.9783Y-3.4941
X6.998Y-3.4646
X7.0079Y-4.0551
X7.0217Y-3.3465
X7.0276Y-3.6594
X7.0276Y-3.6909
X7.0315Y-4.0887
X7.0374Y-3.8484
X7.052Y-3.9567
X7.0571Y-3.7303
X7.0669Y-3.3366
X7.0669Y-3.8189
X7.0731Y-4.4824
X7.0866Y-4.5669
X7.1176Y-4.4379
X7.1233Y-4.3433
X7.126Y-3.7303
X7.126Y-3.7618
X7.1323Y-3.6909
X7.1457Y-3.8189
X7.1556Y-3.8488
X7.1627Y-4.269
X7.1654Y-3.5728
X7.1654Y-3.9567
X7.1654Y-4.6831
X7.1752Y-4.2126
X7.1895Y-4.2926
X7.2146Y-3.6614
X7.2411Y-4.1043
X7.2584Y-3.3051
X7.2787Y-3.9567
X7.3228Y-3.3858
X7.3228Y-3.6594
X7.3228Y-3.6909
X7.3228Y-4.3504
X7.3228Y-4.4488
X7.3228Y-4.6063
X7.3425Y-3.8484
X7.3524Y-3.7303
X7.372Y-3.8189
X7.372Y-4.3996
X7.4252Y-3.812
X7.4409Y-4.3307
X7.4468Y-3.7244
X7.4705Y-3.8484
X7.4911Y-4.5669
X7.5197Y-3.4154
X7.5197Y-3.6909
X7.5787Y-3.3563
X7.5787Y-3.6614
X7.5787Y-4.3307
X7.6216Y-3.4807
X7.624Y-4.1142
X7.6476Y-4.2028
X7.6476Y-4.2618
T2
G00X6.8181Y-3.2372
M15
G01X6.8181Y-3.2136
M16
G05
G00X6.8181Y-3.4116
M15
G01X6.8181Y-3.3683
M16
G05
G00X7.1583Y-3.2372
M15
G01X7.1583Y-3.2136
M16
G05
G00X7.1583Y-3.4116
M15
G01X7.1583Y-3.3683
M16
G05
M30
