%TF.GenerationSoftware,KiCad,Pcbnew,8.0.8*%
%TF.CreationDate,2025-06-11T01:55:21+01:00*%
%TF.ProjectId,Watch,57617463-682e-46b6-9963-61645f706362,rev?*%
%TF.SameCoordinates,Original*%
%TF.FileFunction,Legend,Bot*%
%TF.FilePolarity,Positive*%
%FSLAX46Y46*%
G04 Gerber Fmt 4.6, Leading zero omitted, Abs format (unit mm)*
G04 Created by KiCad (PCBNEW 8.0.8) date 2025-06-11 01:55:21*
%MOMM*%
%LPD*%
G01*
G04 APERTURE LIST*
%ADD10C,0.100000*%
%ADD11C,0.120000*%
%ADD12O,1.000000X1.600000*%
%ADD13O,1.000000X2.100000*%
%ADD14C,0.650000*%
%ADD15C,1.000000*%
%ADD16R,2.600000X3.600000*%
G04 APERTURE END LIST*
D10*
G36*
X162198220Y-112036251D02*
G01*
X162198220Y-112408086D01*
X162190307Y-112416000D01*
X162163928Y-112416000D01*
X162156015Y-112408281D01*
X162156015Y-112247179D01*
X162035554Y-112247179D01*
X161962379Y-112408770D01*
X161957983Y-112413850D01*
X161951144Y-112416000D01*
X161920174Y-112416000D01*
X161915484Y-112413752D01*
X161915680Y-112408672D01*
X161987780Y-112245909D01*
X161968632Y-112240242D01*
X161956010Y-112235425D01*
X161939391Y-112224970D01*
X161925547Y-112210640D01*
X161918281Y-112199374D01*
X161911274Y-112181079D01*
X161908939Y-112161108D01*
X161908939Y-112112259D01*
X161951730Y-112112259D01*
X161951730Y-112163257D01*
X161953092Y-112174110D01*
X161963258Y-112191687D01*
X161971750Y-112198362D01*
X161991102Y-112203411D01*
X162156015Y-112203411D01*
X162156015Y-112072106D01*
X161991102Y-112072106D01*
X161980451Y-112073502D01*
X161963258Y-112083927D01*
X161956695Y-112092564D01*
X161951730Y-112112259D01*
X161908939Y-112112259D01*
X161908939Y-112110891D01*
X161909846Y-112098430D01*
X161915387Y-112078944D01*
X161920910Y-112068196D01*
X161933168Y-112052664D01*
X161942116Y-112044851D01*
X161959351Y-112034883D01*
X161970776Y-112030894D01*
X161991102Y-112028337D01*
X162190307Y-112028337D01*
X162198220Y-112036251D01*
G37*
G36*
X161808799Y-112331785D02*
G01*
X161808799Y-112305309D01*
X161806259Y-112299838D01*
X161800886Y-112297200D01*
X161773921Y-112297200D01*
X161768255Y-112299838D01*
X161766008Y-112305309D01*
X161766008Y-112331785D01*
X161761505Y-112350843D01*
X161754480Y-112360410D01*
X161737287Y-112370834D01*
X161726636Y-112372231D01*
X161601095Y-112372231D01*
X161581743Y-112367435D01*
X161573251Y-112361094D01*
X161563085Y-112344370D01*
X161561723Y-112334032D01*
X161561723Y-112285378D01*
X161567172Y-112265833D01*
X161573251Y-112258414D01*
X161590444Y-112248506D01*
X161601095Y-112247179D01*
X161726636Y-112247179D01*
X161747000Y-112244622D01*
X161758485Y-112240633D01*
X161775674Y-112230535D01*
X161784668Y-112222755D01*
X161796842Y-112207070D01*
X161802351Y-112196083D01*
X161807735Y-112177051D01*
X161808799Y-112163355D01*
X161808799Y-112112161D01*
X161806526Y-112092432D01*
X161802351Y-112079726D01*
X161792337Y-112062163D01*
X161784570Y-112053055D01*
X161769114Y-112040591D01*
X161758485Y-112034981D01*
X161739037Y-112029271D01*
X161726636Y-112028337D01*
X161601095Y-112028337D01*
X161580770Y-112030932D01*
X161569344Y-112034981D01*
X161552109Y-112045193D01*
X161543161Y-112053152D01*
X161530987Y-112069051D01*
X161525478Y-112080019D01*
X161520012Y-112098841D01*
X161518932Y-112112552D01*
X161518932Y-112139028D01*
X161526845Y-112147137D01*
X161553810Y-112147137D01*
X161561723Y-112139028D01*
X161561723Y-112112552D01*
X161566226Y-112093494D01*
X161573251Y-112083927D01*
X161590444Y-112073502D01*
X161601095Y-112072106D01*
X161726636Y-112072106D01*
X161745988Y-112077197D01*
X161754480Y-112083927D01*
X161764646Y-112101418D01*
X161766008Y-112112259D01*
X161766008Y-112163257D01*
X161761043Y-112182994D01*
X161754480Y-112191687D01*
X161737287Y-112202025D01*
X161726636Y-112203411D01*
X161601095Y-112203411D01*
X161580770Y-112205929D01*
X161569344Y-112209859D01*
X161552109Y-112219705D01*
X161543161Y-112227444D01*
X161530903Y-112242816D01*
X161525380Y-112253431D01*
X161519839Y-112272635D01*
X161518932Y-112284890D01*
X161518932Y-112334520D01*
X161521489Y-112354792D01*
X161525478Y-112366369D01*
X161535408Y-112383573D01*
X161543161Y-112392357D01*
X161559506Y-112404697D01*
X161569344Y-112409649D01*
X161588707Y-112415106D01*
X161601095Y-112416000D01*
X161726636Y-112416000D01*
X161747000Y-112413404D01*
X161758485Y-112409356D01*
X161775636Y-112399258D01*
X161784570Y-112391478D01*
X161796782Y-112375754D01*
X161802351Y-112364709D01*
X161807735Y-112345561D01*
X161808799Y-112331785D01*
G37*
G36*
X161295010Y-112408086D02*
G01*
X161295010Y-112072106D01*
X161410293Y-112072106D01*
X161418206Y-112063997D01*
X161418206Y-112036446D01*
X161410293Y-112028337D01*
X161136838Y-112028337D01*
X161128925Y-112036446D01*
X161128925Y-112063997D01*
X161136838Y-112072106D01*
X161252219Y-112072106D01*
X161252219Y-112408086D01*
X161254759Y-112413752D01*
X161260132Y-112416000D01*
X161287096Y-112416000D01*
X161295010Y-112408086D01*
G37*
G36*
X187520725Y-83278337D02*
G01*
X187500399Y-83280894D01*
X187488974Y-83284883D01*
X187471739Y-83294851D01*
X187462791Y-83302664D01*
X187450533Y-83318196D01*
X187445010Y-83328944D01*
X187439469Y-83348430D01*
X187438562Y-83360891D01*
X187438562Y-83411108D01*
X187441021Y-83431464D01*
X187448399Y-83450034D01*
X187456050Y-83461422D01*
X187464452Y-83472168D01*
X187456050Y-83482915D01*
X187445393Y-83500569D01*
X187439655Y-83519680D01*
X187438562Y-83533229D01*
X187438562Y-83583445D01*
X187440835Y-83603012D01*
X187445010Y-83615685D01*
X187454978Y-83633095D01*
X187462791Y-83641966D01*
X187478285Y-83654010D01*
X187488974Y-83659551D01*
X187508337Y-83665093D01*
X187520725Y-83666000D01*
X187646266Y-83666000D01*
X187665782Y-83663633D01*
X187676650Y-83659942D01*
X187693768Y-83650141D01*
X187701660Y-83643529D01*
X187714339Y-83628296D01*
X187719636Y-83619007D01*
X187726139Y-83600536D01*
X187727843Y-83588721D01*
X187727843Y-83582957D01*
X187727843Y-83555309D01*
X187725596Y-83549838D01*
X187719930Y-83547200D01*
X187693551Y-83547200D01*
X187687885Y-83549838D01*
X187685638Y-83555309D01*
X187685638Y-83582957D01*
X187680282Y-83602614D01*
X187673816Y-83610996D01*
X187656882Y-83620904D01*
X187646266Y-83622231D01*
X187520725Y-83622231D01*
X187501373Y-83617435D01*
X187492881Y-83611094D01*
X187482715Y-83594370D01*
X187481353Y-83584032D01*
X187481353Y-83535378D01*
X187486802Y-83515833D01*
X187492881Y-83508414D01*
X187510074Y-83498506D01*
X187520725Y-83497179D01*
X187643433Y-83497179D01*
X187648806Y-83494932D01*
X187651346Y-83489070D01*
X187651346Y-83461519D01*
X187648806Y-83456048D01*
X187643433Y-83453411D01*
X187520725Y-83453411D01*
X187501373Y-83448362D01*
X187492881Y-83441687D01*
X187482715Y-83424110D01*
X187481353Y-83413257D01*
X187481353Y-83362259D01*
X187486318Y-83342564D01*
X187492881Y-83333927D01*
X187510074Y-83323502D01*
X187520725Y-83322106D01*
X187646266Y-83322106D01*
X187665492Y-83327070D01*
X187673816Y-83333634D01*
X187683977Y-83351037D01*
X187685638Y-83361966D01*
X187685638Y-83389028D01*
X187693551Y-83397137D01*
X187719930Y-83397137D01*
X187727843Y-83389028D01*
X187727843Y-83361966D01*
X187727843Y-83356202D01*
X187724088Y-83336815D01*
X187719636Y-83325916D01*
X187708721Y-83308837D01*
X187701660Y-83301101D01*
X187685952Y-83289101D01*
X187676650Y-83284394D01*
X187657217Y-83279053D01*
X187646266Y-83278337D01*
X187520725Y-83278337D01*
G37*
G36*
X187214640Y-83652127D02*
G01*
X187214640Y-83592336D01*
X187206726Y-83584715D01*
X187179762Y-83584715D01*
X187174389Y-83586963D01*
X187171849Y-83592336D01*
X187171849Y-83652127D01*
X187174389Y-83657598D01*
X187179762Y-83659747D01*
X187206726Y-83659747D01*
X187214640Y-83652127D01*
G37*
G36*
X186741102Y-83278337D02*
G01*
X186720776Y-83280894D01*
X186709350Y-83284883D01*
X186692116Y-83294851D01*
X186683168Y-83302664D01*
X186670910Y-83318196D01*
X186665387Y-83328944D01*
X186659845Y-83348430D01*
X186658939Y-83360891D01*
X186658939Y-83411108D01*
X186661398Y-83431464D01*
X186668776Y-83450034D01*
X186676426Y-83461422D01*
X186684828Y-83472168D01*
X186676426Y-83482915D01*
X186665770Y-83500569D01*
X186660032Y-83519680D01*
X186658939Y-83533229D01*
X186658939Y-83583445D01*
X186661212Y-83603012D01*
X186665387Y-83615685D01*
X186675355Y-83633095D01*
X186683168Y-83641966D01*
X186698662Y-83654010D01*
X186709350Y-83659551D01*
X186728714Y-83665093D01*
X186741102Y-83666000D01*
X186866643Y-83666000D01*
X186886159Y-83663633D01*
X186897027Y-83659942D01*
X186914145Y-83650141D01*
X186922037Y-83643529D01*
X186934716Y-83628296D01*
X186940013Y-83619007D01*
X186946516Y-83600536D01*
X186948220Y-83588721D01*
X186948220Y-83582957D01*
X186948220Y-83555309D01*
X186945973Y-83549838D01*
X186940306Y-83547200D01*
X186913928Y-83547200D01*
X186908262Y-83549838D01*
X186906015Y-83555309D01*
X186906015Y-83582957D01*
X186900659Y-83602614D01*
X186894193Y-83610996D01*
X186877259Y-83620904D01*
X186866643Y-83622231D01*
X186741102Y-83622231D01*
X186721750Y-83617435D01*
X186713258Y-83611094D01*
X186703092Y-83594370D01*
X186701730Y-83584032D01*
X186701730Y-83535378D01*
X186707179Y-83515833D01*
X186713258Y-83508414D01*
X186730451Y-83498506D01*
X186741102Y-83497179D01*
X186863810Y-83497179D01*
X186869183Y-83494932D01*
X186871723Y-83489070D01*
X186871723Y-83461519D01*
X186869183Y-83456048D01*
X186863810Y-83453411D01*
X186741102Y-83453411D01*
X186721750Y-83448362D01*
X186713258Y-83441687D01*
X186703092Y-83424110D01*
X186701730Y-83413257D01*
X186701730Y-83362259D01*
X186706695Y-83342564D01*
X186713258Y-83333927D01*
X186730451Y-83323502D01*
X186741102Y-83322106D01*
X186866643Y-83322106D01*
X186885869Y-83327070D01*
X186894193Y-83333634D01*
X186904353Y-83351037D01*
X186906015Y-83361966D01*
X186906015Y-83389028D01*
X186913928Y-83397137D01*
X186940306Y-83397137D01*
X186948220Y-83389028D01*
X186948220Y-83361966D01*
X186948220Y-83356202D01*
X186944465Y-83336815D01*
X186940013Y-83325916D01*
X186929098Y-83308837D01*
X186922037Y-83301101D01*
X186906329Y-83289101D01*
X186897027Y-83284394D01*
X186877594Y-83279053D01*
X186866643Y-83278337D01*
X186741102Y-83278337D01*
G37*
G36*
X186477124Y-83658672D02*
G01*
X186555380Y-83462594D01*
X186557724Y-83454681D01*
X186558799Y-83447256D01*
X186558799Y-83286251D01*
X186556259Y-83280584D01*
X186550886Y-83278337D01*
X186523921Y-83278337D01*
X186516008Y-83286251D01*
X186516008Y-83438463D01*
X186515226Y-83446376D01*
X186513174Y-83453704D01*
X186445666Y-83622231D01*
X186382065Y-83622231D01*
X186314556Y-83453704D01*
X186312602Y-83446376D01*
X186311723Y-83438463D01*
X186311723Y-83286251D01*
X186303810Y-83278337D01*
X186276845Y-83278337D01*
X186268932Y-83286251D01*
X186268932Y-83447256D01*
X186269811Y-83454681D01*
X186271765Y-83462594D01*
X186350020Y-83658672D01*
X186354514Y-83663752D01*
X186361255Y-83666000D01*
X186466475Y-83666000D01*
X186472923Y-83663752D01*
X186477124Y-83658672D01*
G37*
G36*
X182839636Y-116713949D02*
G01*
X182512351Y-116713949D01*
X182512351Y-117264473D01*
X182513114Y-117316309D01*
X182516045Y-117373301D01*
X182521174Y-117424609D01*
X182529936Y-117477284D01*
X182543614Y-117528011D01*
X182566085Y-117577053D01*
X182594494Y-117616949D01*
X182630840Y-117653364D01*
X182669155Y-117682372D01*
X182713009Y-117707021D01*
X182761866Y-117725616D01*
X182815725Y-117738156D01*
X182865871Y-117744087D01*
X182910467Y-117745631D01*
X182965856Y-117744180D01*
X183016438Y-117739826D01*
X183069371Y-117731079D01*
X183121853Y-117716245D01*
X183150313Y-117704354D01*
X183195445Y-117677965D01*
X183234394Y-117645510D01*
X183267160Y-117606988D01*
X183282693Y-117582965D01*
X183305958Y-117534524D01*
X183321643Y-117485561D01*
X183332627Y-117431041D01*
X183338380Y-117378778D01*
X183024772Y-117338234D01*
X183022605Y-117388891D01*
X183013781Y-117438129D01*
X182986321Y-117478766D01*
X182979099Y-117484535D01*
X182932937Y-117495526D01*
X182884958Y-117483041D01*
X182862351Y-117460111D01*
X182845315Y-117411140D01*
X182840191Y-117362030D01*
X182839636Y-117335547D01*
X182839636Y-116713949D01*
G37*
G36*
X182325749Y-116713949D02*
G01*
X181998952Y-116713949D01*
X181998952Y-117464263D01*
X181513398Y-117464263D01*
X181513398Y-117730000D01*
X182325749Y-117730000D01*
X182325749Y-116713949D01*
G37*
G36*
X180732065Y-117305994D02*
G01*
X180444347Y-117389281D01*
X180458749Y-117440677D01*
X180476096Y-117487796D01*
X180499528Y-117536407D01*
X180526807Y-117579432D01*
X180534228Y-117589316D01*
X180570324Y-117629873D01*
X180611019Y-117664440D01*
X180656311Y-117693019D01*
X180683460Y-117706308D01*
X180731027Y-117723512D01*
X180784577Y-117735800D01*
X180836342Y-117742521D01*
X180892689Y-117745477D01*
X180909629Y-117745631D01*
X180959994Y-117744456D01*
X181016574Y-117739945D01*
X181068947Y-117732051D01*
X181117112Y-117720774D01*
X181167988Y-117703342D01*
X181181472Y-117697515D01*
X181226361Y-117672982D01*
X181268493Y-117641482D01*
X181307866Y-117603018D01*
X181339419Y-117564504D01*
X181364165Y-117528499D01*
X181390229Y-117480726D01*
X181410900Y-117428264D01*
X181424006Y-117380965D01*
X181433368Y-117330410D01*
X181438985Y-117276599D01*
X181440858Y-117219532D01*
X181438747Y-117158685D01*
X181432416Y-117101441D01*
X181421864Y-117047799D01*
X181407091Y-116997759D01*
X181388097Y-116951323D01*
X181358420Y-116898343D01*
X181322147Y-116850992D01*
X181305791Y-116833628D01*
X181260794Y-116794647D01*
X181210370Y-116762273D01*
X181166123Y-116741131D01*
X181118404Y-116724217D01*
X181067213Y-116711532D01*
X181012548Y-116703075D01*
X180954411Y-116698846D01*
X180924040Y-116698318D01*
X180865816Y-116700238D01*
X180811588Y-116705998D01*
X180761355Y-116715598D01*
X180706348Y-116732188D01*
X180657095Y-116754307D01*
X180620446Y-116776964D01*
X180580770Y-116809693D01*
X180544906Y-116848897D01*
X180512855Y-116894575D01*
X180489058Y-116937586D01*
X180467908Y-116985093D01*
X180452895Y-117026336D01*
X180743300Y-117090572D01*
X180761126Y-117042684D01*
X180774563Y-117019009D01*
X180810093Y-116982677D01*
X180835624Y-116966741D01*
X180884148Y-116950998D01*
X180916468Y-116948422D01*
X180969873Y-116954740D01*
X181015781Y-116973693D01*
X181054194Y-117005281D01*
X181072295Y-117028290D01*
X181093933Y-117072535D01*
X181106556Y-117124061D01*
X181112326Y-117179172D01*
X181113328Y-117218066D01*
X181111619Y-117274736D01*
X181106493Y-117324209D01*
X181096193Y-117372834D01*
X181076115Y-117420960D01*
X181064724Y-117437152D01*
X181026465Y-117470387D01*
X180978855Y-117489826D01*
X180927459Y-117495526D01*
X180877852Y-117491042D01*
X180829217Y-117473823D01*
X180797766Y-117449609D01*
X180767919Y-117407774D01*
X180747821Y-117361893D01*
X180733445Y-117312035D01*
X180732065Y-117305994D01*
G37*
G36*
X179908722Y-116713949D02*
G01*
X179581437Y-116713949D01*
X179581437Y-117264473D01*
X179582200Y-117316309D01*
X179585131Y-117373301D01*
X179590260Y-117424609D01*
X179599022Y-117477284D01*
X179612700Y-117528011D01*
X179635171Y-117577053D01*
X179663580Y-117616949D01*
X179699926Y-117653364D01*
X179738241Y-117682372D01*
X179782095Y-117707021D01*
X179830952Y-117725616D01*
X179884811Y-117738156D01*
X179934957Y-117744087D01*
X179979553Y-117745631D01*
X180034942Y-117744180D01*
X180085523Y-117739826D01*
X180138457Y-117731079D01*
X180190939Y-117716245D01*
X180219399Y-117704354D01*
X180264531Y-117677965D01*
X180303480Y-117645510D01*
X180336246Y-117606988D01*
X180351779Y-117582965D01*
X180375044Y-117534524D01*
X180390729Y-117485561D01*
X180401712Y-117431041D01*
X180407466Y-117378778D01*
X180093858Y-117338234D01*
X180091691Y-117388891D01*
X180082867Y-117438129D01*
X180055407Y-117478766D01*
X180048185Y-117484535D01*
X180002023Y-117495526D01*
X179954044Y-117483041D01*
X179931437Y-117460111D01*
X179914401Y-117411140D01*
X179909277Y-117362030D01*
X179908722Y-117335547D01*
X179908722Y-116713949D01*
G37*
G36*
X179394835Y-116713949D02*
G01*
X179068038Y-116713949D01*
X179068038Y-117464263D01*
X178582483Y-117464263D01*
X178582483Y-117730000D01*
X179394835Y-117730000D01*
X179394835Y-116713949D01*
G37*
G36*
X177801151Y-117305994D02*
G01*
X177513433Y-117389281D01*
X177527835Y-117440677D01*
X177545182Y-117487796D01*
X177568614Y-117536407D01*
X177595893Y-117579432D01*
X177603314Y-117589316D01*
X177639410Y-117629873D01*
X177680104Y-117664440D01*
X177725397Y-117693019D01*
X177752546Y-117706308D01*
X177800113Y-117723512D01*
X177853663Y-117735800D01*
X177905428Y-117742521D01*
X177961775Y-117745477D01*
X177978715Y-117745631D01*
X178029080Y-117744456D01*
X178085660Y-117739945D01*
X178138033Y-117732051D01*
X178186198Y-117720774D01*
X178237074Y-117703342D01*
X178250557Y-117697515D01*
X178295447Y-117672982D01*
X178337578Y-117641482D01*
X178376952Y-117603018D01*
X178408505Y-117564504D01*
X178433251Y-117528499D01*
X178459314Y-117480726D01*
X178479985Y-117428264D01*
X178493092Y-117380965D01*
X178502454Y-117330410D01*
X178508071Y-117276599D01*
X178509943Y-117219532D01*
X178507833Y-117158685D01*
X178501502Y-117101441D01*
X178490950Y-117047799D01*
X178476177Y-116997759D01*
X178457183Y-116951323D01*
X178427505Y-116898343D01*
X178391233Y-116850992D01*
X178374877Y-116833628D01*
X178329879Y-116794647D01*
X178279455Y-116762273D01*
X178235209Y-116741131D01*
X178187490Y-116724217D01*
X178136299Y-116711532D01*
X178081634Y-116703075D01*
X178023497Y-116698846D01*
X177993125Y-116698318D01*
X177934902Y-116700238D01*
X177880674Y-116705998D01*
X177830440Y-116715598D01*
X177775434Y-116732188D01*
X177726181Y-116754307D01*
X177689532Y-116776964D01*
X177649856Y-116809693D01*
X177613992Y-116848897D01*
X177581941Y-116894575D01*
X177558144Y-116937586D01*
X177536994Y-116985093D01*
X177521981Y-117026336D01*
X177812386Y-117090572D01*
X177830212Y-117042684D01*
X177843649Y-117019009D01*
X177879179Y-116982677D01*
X177904710Y-116966741D01*
X177953234Y-116950998D01*
X177985554Y-116948422D01*
X178038959Y-116954740D01*
X178084867Y-116973693D01*
X178123280Y-117005281D01*
X178141381Y-117028290D01*
X178163019Y-117072535D01*
X178175642Y-117124061D01*
X178181412Y-117179172D01*
X178182414Y-117218066D01*
X178180705Y-117274736D01*
X178175579Y-117324209D01*
X178165279Y-117372834D01*
X178145201Y-117420960D01*
X178133809Y-117437152D01*
X178095551Y-117470387D01*
X178047941Y-117489826D01*
X177996545Y-117495526D01*
X177946938Y-117491042D01*
X177898303Y-117473823D01*
X177866852Y-117449609D01*
X177837005Y-117407774D01*
X177816907Y-117361893D01*
X177802531Y-117312035D01*
X177801151Y-117305994D01*
G37*
G36*
X176977808Y-116713949D02*
G01*
X176650523Y-116713949D01*
X176650523Y-117264473D01*
X176651286Y-117316309D01*
X176654217Y-117373301D01*
X176659346Y-117424609D01*
X176668108Y-117477284D01*
X176681786Y-117528011D01*
X176704257Y-117577053D01*
X176732665Y-117616949D01*
X176769012Y-117653364D01*
X176807326Y-117682372D01*
X176851181Y-117707021D01*
X176900038Y-117725616D01*
X176953896Y-117738156D01*
X177004043Y-117744087D01*
X177048638Y-117745631D01*
X177104028Y-117744180D01*
X177154609Y-117739826D01*
X177207543Y-117731079D01*
X177260025Y-117716245D01*
X177288485Y-117704354D01*
X177333616Y-117677965D01*
X177372565Y-117645510D01*
X177405332Y-117606988D01*
X177420864Y-117582965D01*
X177444130Y-117534524D01*
X177459815Y-117485561D01*
X177470798Y-117431041D01*
X177476552Y-117378778D01*
X177162944Y-117338234D01*
X177160777Y-117388891D01*
X177151953Y-117438129D01*
X177124493Y-117478766D01*
X177117271Y-117484535D01*
X177071109Y-117495526D01*
X177023130Y-117483041D01*
X177000523Y-117460111D01*
X176983487Y-117411140D01*
X176978363Y-117362030D01*
X176977808Y-117335547D01*
X176977808Y-116713949D01*
G37*
G36*
X176463921Y-116713949D02*
G01*
X176137124Y-116713949D01*
X176137124Y-117464263D01*
X175651569Y-117464263D01*
X175651569Y-117730000D01*
X176463921Y-117730000D01*
X176463921Y-116713949D01*
G37*
G36*
X174870236Y-117305994D02*
G01*
X174582518Y-117389281D01*
X174596921Y-117440677D01*
X174614268Y-117487796D01*
X174637700Y-117536407D01*
X174664979Y-117579432D01*
X174672400Y-117589316D01*
X174708496Y-117629873D01*
X174749190Y-117664440D01*
X174794483Y-117693019D01*
X174821632Y-117706308D01*
X174869198Y-117723512D01*
X174922749Y-117735800D01*
X174974514Y-117742521D01*
X175030860Y-117745477D01*
X175047801Y-117745631D01*
X175098165Y-117744456D01*
X175154746Y-117739945D01*
X175207119Y-117732051D01*
X175255284Y-117720774D01*
X175306159Y-117703342D01*
X175319643Y-117697515D01*
X175364533Y-117672982D01*
X175406664Y-117641482D01*
X175446038Y-117603018D01*
X175477591Y-117564504D01*
X175502337Y-117528499D01*
X175528400Y-117480726D01*
X175549071Y-117428264D01*
X175562178Y-117380965D01*
X175571540Y-117330410D01*
X175577157Y-117276599D01*
X175579029Y-117219532D01*
X175576919Y-117158685D01*
X175570588Y-117101441D01*
X175560035Y-117047799D01*
X175545263Y-116997759D01*
X175526269Y-116951323D01*
X175496591Y-116898343D01*
X175460319Y-116850992D01*
X175443963Y-116833628D01*
X175398965Y-116794647D01*
X175348541Y-116762273D01*
X175304295Y-116741131D01*
X175256576Y-116724217D01*
X175205384Y-116711532D01*
X175150720Y-116703075D01*
X175092582Y-116698846D01*
X175062211Y-116698318D01*
X175003988Y-116700238D01*
X174949759Y-116705998D01*
X174899526Y-116715598D01*
X174844520Y-116732188D01*
X174795267Y-116754307D01*
X174758617Y-116776964D01*
X174718941Y-116809693D01*
X174683078Y-116848897D01*
X174651027Y-116894575D01*
X174627230Y-116937586D01*
X174606080Y-116985093D01*
X174591067Y-117026336D01*
X174881472Y-117090572D01*
X174899298Y-117042684D01*
X174912735Y-117019009D01*
X174948264Y-116982677D01*
X174973795Y-116966741D01*
X175022320Y-116950998D01*
X175054640Y-116948422D01*
X175108045Y-116954740D01*
X175153953Y-116973693D01*
X175192366Y-117005281D01*
X175210467Y-117028290D01*
X175232105Y-117072535D01*
X175244728Y-117124061D01*
X175250498Y-117179172D01*
X175251500Y-117218066D01*
X175249791Y-117274736D01*
X175244665Y-117324209D01*
X175234365Y-117372834D01*
X175214287Y-117420960D01*
X175202895Y-117437152D01*
X175164636Y-117470387D01*
X175117027Y-117489826D01*
X175065631Y-117495526D01*
X175016024Y-117491042D01*
X174967389Y-117473823D01*
X174935938Y-117449609D01*
X174906091Y-117407774D01*
X174885993Y-117361893D01*
X174871617Y-117312035D01*
X174870236Y-117305994D01*
G37*
G36*
X174046894Y-116713949D02*
G01*
X173719608Y-116713949D01*
X173719608Y-117264473D01*
X173720372Y-117316309D01*
X173723303Y-117373301D01*
X173728432Y-117424609D01*
X173737194Y-117477284D01*
X173750871Y-117528011D01*
X173773343Y-117577053D01*
X173801751Y-117616949D01*
X173838098Y-117653364D01*
X173876412Y-117682372D01*
X173920267Y-117707021D01*
X173969123Y-117725616D01*
X174022982Y-117738156D01*
X174073128Y-117744087D01*
X174117724Y-117745631D01*
X174173114Y-117744180D01*
X174223695Y-117739826D01*
X174276629Y-117731079D01*
X174329111Y-117716245D01*
X174357571Y-117704354D01*
X174402702Y-117677965D01*
X174441651Y-117645510D01*
X174474418Y-117606988D01*
X174489950Y-117582965D01*
X174513216Y-117534524D01*
X174528901Y-117485561D01*
X174539884Y-117431041D01*
X174545638Y-117378778D01*
X174232030Y-117338234D01*
X174229862Y-117388891D01*
X174221039Y-117438129D01*
X174193579Y-117478766D01*
X174186356Y-117484535D01*
X174140195Y-117495526D01*
X174092216Y-117483041D01*
X174069608Y-117460111D01*
X174052572Y-117411140D01*
X174047448Y-117362030D01*
X174046894Y-117335547D01*
X174046894Y-116713949D01*
G37*
G36*
X173533007Y-116713949D02*
G01*
X173206210Y-116713949D01*
X173206210Y-117464263D01*
X172720655Y-117464263D01*
X172720655Y-117730000D01*
X173533007Y-117730000D01*
X173533007Y-116713949D01*
G37*
G36*
X171939322Y-117305994D02*
G01*
X171651604Y-117389281D01*
X171666006Y-117440677D01*
X171683354Y-117487796D01*
X171706786Y-117536407D01*
X171734065Y-117579432D01*
X171741486Y-117589316D01*
X171777582Y-117629873D01*
X171818276Y-117664440D01*
X171863569Y-117693019D01*
X171890718Y-117706308D01*
X171938284Y-117723512D01*
X171991834Y-117735800D01*
X172043600Y-117742521D01*
X172099946Y-117745477D01*
X172116887Y-117745631D01*
X172167251Y-117744456D01*
X172223832Y-117739945D01*
X172276204Y-117732051D01*
X172324370Y-117720774D01*
X172375245Y-117703342D01*
X172388729Y-117697515D01*
X172433619Y-117672982D01*
X172475750Y-117641482D01*
X172515123Y-117603018D01*
X172546676Y-117564504D01*
X172571423Y-117528499D01*
X172597486Y-117480726D01*
X172618157Y-117428264D01*
X172631264Y-117380965D01*
X172640626Y-117330410D01*
X172646243Y-117276599D01*
X172648115Y-117219532D01*
X172646005Y-117158685D01*
X172639673Y-117101441D01*
X172629121Y-117047799D01*
X172614348Y-116997759D01*
X172595355Y-116951323D01*
X172565677Y-116898343D01*
X172529404Y-116850992D01*
X172513049Y-116833628D01*
X172468051Y-116794647D01*
X172417627Y-116762273D01*
X172373381Y-116741131D01*
X172325662Y-116724217D01*
X172274470Y-116711532D01*
X172219806Y-116703075D01*
X172161668Y-116698846D01*
X172131297Y-116698318D01*
X172073074Y-116700238D01*
X172018845Y-116705998D01*
X171968612Y-116715598D01*
X171913606Y-116732188D01*
X171864353Y-116754307D01*
X171827703Y-116776964D01*
X171788027Y-116809693D01*
X171752164Y-116848897D01*
X171720112Y-116894575D01*
X171696315Y-116937586D01*
X171675166Y-116985093D01*
X171660153Y-117026336D01*
X171950557Y-117090572D01*
X171968383Y-117042684D01*
X171981821Y-117019009D01*
X172017350Y-116982677D01*
X172042881Y-116966741D01*
X172091405Y-116950998D01*
X172123726Y-116948422D01*
X172177130Y-116954740D01*
X172223039Y-116973693D01*
X172261451Y-117005281D01*
X172279553Y-117028290D01*
X172301191Y-117072535D01*
X172313813Y-117124061D01*
X172319584Y-117179172D01*
X172320585Y-117218066D01*
X172318877Y-117274736D01*
X172313750Y-117324209D01*
X172303450Y-117372834D01*
X172283373Y-117420960D01*
X172271981Y-117437152D01*
X172233722Y-117470387D01*
X172186112Y-117489826D01*
X172134717Y-117495526D01*
X172085109Y-117491042D01*
X172036475Y-117473823D01*
X172005024Y-117449609D01*
X171975176Y-117407774D01*
X171955079Y-117361893D01*
X171940703Y-117312035D01*
X171939322Y-117305994D01*
G37*
G36*
X179751667Y-83453411D02*
G01*
X179746001Y-83455951D01*
X179743754Y-83461226D01*
X179743754Y-83584520D01*
X179746311Y-83604792D01*
X179750299Y-83616369D01*
X179760229Y-83633573D01*
X179767983Y-83642357D01*
X179784328Y-83654697D01*
X179794166Y-83659649D01*
X179813529Y-83665106D01*
X179825917Y-83666000D01*
X179951458Y-83666000D01*
X179971822Y-83663481D01*
X179983307Y-83659551D01*
X180000458Y-83649614D01*
X180009392Y-83641966D01*
X180021604Y-83626525D01*
X180027173Y-83615685D01*
X180032714Y-83595948D01*
X180033621Y-83583445D01*
X180033621Y-83360891D01*
X180031348Y-83341428D01*
X180027173Y-83328944D01*
X180017159Y-83311626D01*
X180009392Y-83302664D01*
X179993936Y-83290406D01*
X179983307Y-83284883D01*
X179963859Y-83279258D01*
X179951458Y-83278337D01*
X179825917Y-83278337D01*
X179805591Y-83280932D01*
X179794166Y-83284981D01*
X179777046Y-83295079D01*
X179768276Y-83302859D01*
X179756155Y-83318506D01*
X179750495Y-83329433D01*
X179744866Y-83348255D01*
X179743754Y-83361966D01*
X179743754Y-83389028D01*
X179751667Y-83397137D01*
X179778632Y-83397137D01*
X179786545Y-83389028D01*
X179786545Y-83361966D01*
X179791438Y-83343022D01*
X179798366Y-83333634D01*
X179815301Y-83323468D01*
X179825917Y-83322106D01*
X179951458Y-83322106D01*
X179970810Y-83327070D01*
X179979302Y-83333634D01*
X179989468Y-83350826D01*
X179990830Y-83361478D01*
X179990830Y-83582859D01*
X179985865Y-83602212D01*
X179979302Y-83610703D01*
X179962109Y-83620869D01*
X179951458Y-83622231D01*
X179825917Y-83622231D01*
X179806565Y-83617435D01*
X179798073Y-83611094D01*
X179787907Y-83594370D01*
X179786545Y-83584032D01*
X179786545Y-83497179D01*
X179878869Y-83497179D01*
X179884242Y-83494932D01*
X179886685Y-83489070D01*
X179886685Y-83461519D01*
X179884242Y-83456048D01*
X179878869Y-83453411D01*
X179751667Y-83453411D01*
G37*
G36*
X179396929Y-83658086D02*
G01*
X179396929Y-83495909D01*
X179601214Y-83326404D01*
X179601214Y-83658086D01*
X179609127Y-83666000D01*
X179636092Y-83666000D01*
X179641465Y-83663752D01*
X179644005Y-83658086D01*
X179644005Y-83286251D01*
X179641465Y-83280584D01*
X179636092Y-83278337D01*
X179598380Y-83278337D01*
X179584312Y-83283418D01*
X179396929Y-83438854D01*
X179396929Y-83286251D01*
X179389015Y-83278337D01*
X179362051Y-83278337D01*
X179354138Y-83286251D01*
X179354138Y-83658086D01*
X179362051Y-83666000D01*
X179389015Y-83666000D01*
X179396929Y-83658086D01*
G37*
G36*
X179251458Y-83280877D02*
G01*
X179253998Y-83286251D01*
X179253998Y-83658086D01*
X179251458Y-83663752D01*
X179246085Y-83666000D01*
X179046294Y-83666000D01*
X179033906Y-83665093D01*
X179014542Y-83659551D01*
X179003854Y-83654010D01*
X178988360Y-83641966D01*
X178980606Y-83633095D01*
X178970676Y-83615685D01*
X178966438Y-83603012D01*
X178964131Y-83583445D01*
X178964131Y-83361478D01*
X179006922Y-83361478D01*
X179006922Y-83582859D01*
X179008284Y-83593510D01*
X179018450Y-83610703D01*
X179026942Y-83617266D01*
X179046294Y-83622231D01*
X179211207Y-83622231D01*
X179211207Y-83322106D01*
X179046294Y-83322106D01*
X179035643Y-83323468D01*
X179018450Y-83333634D01*
X179011887Y-83342125D01*
X179006922Y-83361478D01*
X178964131Y-83361478D01*
X178964131Y-83360891D01*
X178965051Y-83348430D01*
X178970676Y-83328944D01*
X178976186Y-83318196D01*
X178988360Y-83302664D01*
X178997308Y-83294851D01*
X179014542Y-83284883D01*
X179025968Y-83280894D01*
X179046294Y-83278337D01*
X179246085Y-83278337D01*
X179251458Y-83280877D01*
G37*
G36*
X195520725Y-86528337D02*
G01*
X195500399Y-86530894D01*
X195488974Y-86534883D01*
X195471739Y-86544851D01*
X195462791Y-86552664D01*
X195450533Y-86568196D01*
X195445010Y-86578944D01*
X195439469Y-86598430D01*
X195438562Y-86610891D01*
X195438562Y-86661108D01*
X195441021Y-86681464D01*
X195448399Y-86700034D01*
X195456050Y-86711422D01*
X195464452Y-86722168D01*
X195456050Y-86732915D01*
X195445393Y-86750569D01*
X195439655Y-86769680D01*
X195438562Y-86783229D01*
X195438562Y-86833445D01*
X195440835Y-86853012D01*
X195445010Y-86865685D01*
X195454978Y-86883095D01*
X195462791Y-86891966D01*
X195478285Y-86904010D01*
X195488974Y-86909551D01*
X195508337Y-86915093D01*
X195520725Y-86916000D01*
X195646266Y-86916000D01*
X195665782Y-86913633D01*
X195676650Y-86909942D01*
X195693768Y-86900141D01*
X195701660Y-86893529D01*
X195714339Y-86878296D01*
X195719636Y-86869007D01*
X195726139Y-86850536D01*
X195727843Y-86838721D01*
X195727843Y-86832957D01*
X195727843Y-86805309D01*
X195725596Y-86799838D01*
X195719930Y-86797200D01*
X195693551Y-86797200D01*
X195687885Y-86799838D01*
X195685638Y-86805309D01*
X195685638Y-86832957D01*
X195680282Y-86852614D01*
X195673816Y-86860996D01*
X195656882Y-86870904D01*
X195646266Y-86872231D01*
X195520725Y-86872231D01*
X195501373Y-86867435D01*
X195492881Y-86861094D01*
X195482715Y-86844370D01*
X195481353Y-86834032D01*
X195481353Y-86785378D01*
X195486802Y-86765833D01*
X195492881Y-86758414D01*
X195510074Y-86748506D01*
X195520725Y-86747179D01*
X195643433Y-86747179D01*
X195648806Y-86744932D01*
X195651346Y-86739070D01*
X195651346Y-86711519D01*
X195648806Y-86706048D01*
X195643433Y-86703411D01*
X195520725Y-86703411D01*
X195501373Y-86698362D01*
X195492881Y-86691687D01*
X195482715Y-86674110D01*
X195481353Y-86663257D01*
X195481353Y-86612259D01*
X195486318Y-86592564D01*
X195492881Y-86583927D01*
X195510074Y-86573502D01*
X195520725Y-86572106D01*
X195646266Y-86572106D01*
X195665492Y-86577070D01*
X195673816Y-86583634D01*
X195683977Y-86601037D01*
X195685638Y-86611966D01*
X195685638Y-86639028D01*
X195693551Y-86647137D01*
X195719930Y-86647137D01*
X195727843Y-86639028D01*
X195727843Y-86611966D01*
X195727843Y-86606202D01*
X195724088Y-86586815D01*
X195719636Y-86575916D01*
X195708721Y-86558837D01*
X195701660Y-86551101D01*
X195685952Y-86539101D01*
X195676650Y-86534394D01*
X195657217Y-86529053D01*
X195646266Y-86528337D01*
X195520725Y-86528337D01*
G37*
G36*
X195214640Y-86902127D02*
G01*
X195214640Y-86842336D01*
X195206726Y-86834715D01*
X195179762Y-86834715D01*
X195174389Y-86836963D01*
X195171849Y-86842336D01*
X195171849Y-86902127D01*
X195174389Y-86907598D01*
X195179762Y-86909747D01*
X195206726Y-86909747D01*
X195214640Y-86902127D01*
G37*
G36*
X194741102Y-86528337D02*
G01*
X194720776Y-86530894D01*
X194709350Y-86534883D01*
X194692116Y-86544851D01*
X194683168Y-86552664D01*
X194670910Y-86568196D01*
X194665387Y-86578944D01*
X194659845Y-86598430D01*
X194658939Y-86610891D01*
X194658939Y-86661108D01*
X194661398Y-86681464D01*
X194668776Y-86700034D01*
X194676426Y-86711422D01*
X194684828Y-86722168D01*
X194676426Y-86732915D01*
X194665770Y-86750569D01*
X194660032Y-86769680D01*
X194658939Y-86783229D01*
X194658939Y-86833445D01*
X194661212Y-86853012D01*
X194665387Y-86865685D01*
X194675355Y-86883095D01*
X194683168Y-86891966D01*
X194698662Y-86904010D01*
X194709350Y-86909551D01*
X194728714Y-86915093D01*
X194741102Y-86916000D01*
X194866643Y-86916000D01*
X194886159Y-86913633D01*
X194897027Y-86909942D01*
X194914145Y-86900141D01*
X194922037Y-86893529D01*
X194934716Y-86878296D01*
X194940013Y-86869007D01*
X194946516Y-86850536D01*
X194948220Y-86838721D01*
X194948220Y-86832957D01*
X194948220Y-86805309D01*
X194945973Y-86799838D01*
X194940306Y-86797200D01*
X194913928Y-86797200D01*
X194908262Y-86799838D01*
X194906015Y-86805309D01*
X194906015Y-86832957D01*
X194900659Y-86852614D01*
X194894193Y-86860996D01*
X194877259Y-86870904D01*
X194866643Y-86872231D01*
X194741102Y-86872231D01*
X194721750Y-86867435D01*
X194713258Y-86861094D01*
X194703092Y-86844370D01*
X194701730Y-86834032D01*
X194701730Y-86785378D01*
X194707179Y-86765833D01*
X194713258Y-86758414D01*
X194730451Y-86748506D01*
X194741102Y-86747179D01*
X194863810Y-86747179D01*
X194869183Y-86744932D01*
X194871723Y-86739070D01*
X194871723Y-86711519D01*
X194869183Y-86706048D01*
X194863810Y-86703411D01*
X194741102Y-86703411D01*
X194721750Y-86698362D01*
X194713258Y-86691687D01*
X194703092Y-86674110D01*
X194701730Y-86663257D01*
X194701730Y-86612259D01*
X194706695Y-86592564D01*
X194713258Y-86583927D01*
X194730451Y-86573502D01*
X194741102Y-86572106D01*
X194866643Y-86572106D01*
X194885869Y-86577070D01*
X194894193Y-86583634D01*
X194904353Y-86601037D01*
X194906015Y-86611966D01*
X194906015Y-86639028D01*
X194913928Y-86647137D01*
X194940306Y-86647137D01*
X194948220Y-86639028D01*
X194948220Y-86611966D01*
X194948220Y-86606202D01*
X194944465Y-86586815D01*
X194940013Y-86575916D01*
X194929098Y-86558837D01*
X194922037Y-86551101D01*
X194906329Y-86539101D01*
X194897027Y-86534394D01*
X194877594Y-86529053D01*
X194866643Y-86528337D01*
X194741102Y-86528337D01*
G37*
G36*
X194477124Y-86908672D02*
G01*
X194555380Y-86712594D01*
X194557724Y-86704681D01*
X194558799Y-86697256D01*
X194558799Y-86536251D01*
X194556259Y-86530584D01*
X194550886Y-86528337D01*
X194523921Y-86528337D01*
X194516008Y-86536251D01*
X194516008Y-86688463D01*
X194515226Y-86696376D01*
X194513174Y-86703704D01*
X194445666Y-86872231D01*
X194382065Y-86872231D01*
X194314556Y-86703704D01*
X194312602Y-86696376D01*
X194311723Y-86688463D01*
X194311723Y-86536251D01*
X194303810Y-86528337D01*
X194276845Y-86528337D01*
X194268932Y-86536251D01*
X194268932Y-86697256D01*
X194269811Y-86704681D01*
X194271765Y-86712594D01*
X194350020Y-86908672D01*
X194354514Y-86913752D01*
X194361255Y-86916000D01*
X194466475Y-86916000D01*
X194472923Y-86913752D01*
X194477124Y-86908672D01*
G37*
G36*
X165698806Y-114331785D02*
G01*
X165698806Y-114305309D01*
X165696266Y-114299838D01*
X165690893Y-114297200D01*
X165663928Y-114297200D01*
X165658262Y-114299838D01*
X165656015Y-114305309D01*
X165656015Y-114331785D01*
X165651512Y-114350843D01*
X165644487Y-114360410D01*
X165627294Y-114370834D01*
X165616643Y-114372231D01*
X165491102Y-114372231D01*
X165471750Y-114367435D01*
X165463258Y-114361094D01*
X165453092Y-114344370D01*
X165451730Y-114334032D01*
X165451730Y-114285378D01*
X165457179Y-114265833D01*
X165463258Y-114258414D01*
X165480451Y-114248506D01*
X165491102Y-114247179D01*
X165616643Y-114247179D01*
X165637007Y-114244622D01*
X165648492Y-114240633D01*
X165665681Y-114230535D01*
X165674675Y-114222755D01*
X165686849Y-114207070D01*
X165692358Y-114196083D01*
X165697742Y-114177051D01*
X165698806Y-114163355D01*
X165698806Y-114112161D01*
X165696533Y-114092432D01*
X165692358Y-114079726D01*
X165682344Y-114062163D01*
X165674577Y-114053055D01*
X165659121Y-114040591D01*
X165648492Y-114034981D01*
X165629044Y-114029271D01*
X165616643Y-114028337D01*
X165491102Y-114028337D01*
X165470776Y-114030932D01*
X165459351Y-114034981D01*
X165442116Y-114045193D01*
X165433168Y-114053152D01*
X165420994Y-114069051D01*
X165415484Y-114080019D01*
X165410019Y-114098841D01*
X165408939Y-114112552D01*
X165408939Y-114139028D01*
X165416852Y-114147137D01*
X165443817Y-114147137D01*
X165451730Y-114139028D01*
X165451730Y-114112552D01*
X165456233Y-114093494D01*
X165463258Y-114083927D01*
X165480451Y-114073502D01*
X165491102Y-114072106D01*
X165616643Y-114072106D01*
X165635995Y-114077197D01*
X165644487Y-114083927D01*
X165654653Y-114101418D01*
X165656015Y-114112259D01*
X165656015Y-114163257D01*
X165651050Y-114182994D01*
X165644487Y-114191687D01*
X165627294Y-114202025D01*
X165616643Y-114203411D01*
X165491102Y-114203411D01*
X165470776Y-114205929D01*
X165459351Y-114209859D01*
X165442116Y-114219705D01*
X165433168Y-114227444D01*
X165420910Y-114242816D01*
X165415387Y-114253431D01*
X165409846Y-114272635D01*
X165408939Y-114284890D01*
X165408939Y-114334520D01*
X165411496Y-114354792D01*
X165415484Y-114366369D01*
X165425414Y-114383573D01*
X165433168Y-114392357D01*
X165449513Y-114404697D01*
X165459351Y-114409649D01*
X165478714Y-114415106D01*
X165491102Y-114416000D01*
X165616643Y-114416000D01*
X165637007Y-114413404D01*
X165648492Y-114409356D01*
X165665643Y-114399258D01*
X165674577Y-114391478D01*
X165686789Y-114375754D01*
X165692358Y-114364709D01*
X165697742Y-114345561D01*
X165698806Y-114331785D01*
G37*
G36*
X165049316Y-114036251D02*
G01*
X165046287Y-114030877D01*
X165040327Y-114028337D01*
X165013949Y-114028337D01*
X165008869Y-114030877D01*
X165006622Y-114036251D01*
X165035833Y-114408086D01*
X165038374Y-114413752D01*
X165044333Y-114416000D01*
X165078039Y-114416000D01*
X165089860Y-114409258D01*
X165163621Y-114283229D01*
X165237285Y-114409258D01*
X165249106Y-114416000D01*
X165282909Y-114416000D01*
X165288771Y-114413752D01*
X165291311Y-114408086D01*
X165320621Y-114036251D01*
X165318960Y-114030877D01*
X165313293Y-114028337D01*
X165286817Y-114028337D01*
X165281249Y-114030877D01*
X165278415Y-114036251D01*
X165253600Y-114358944D01*
X165186678Y-114239656D01*
X165174856Y-114232915D01*
X165152386Y-114232915D01*
X165140565Y-114239656D01*
X165073545Y-114358944D01*
X165049316Y-114036251D01*
G37*
G36*
X164916252Y-114030877D02*
G01*
X164918792Y-114036251D01*
X164918792Y-114408086D01*
X164916252Y-114413752D01*
X164910879Y-114416000D01*
X164711088Y-114416000D01*
X164698700Y-114415093D01*
X164679337Y-114409551D01*
X164668648Y-114404010D01*
X164653154Y-114391966D01*
X164645401Y-114383095D01*
X164635471Y-114365685D01*
X164631232Y-114353012D01*
X164628925Y-114333445D01*
X164628925Y-114111478D01*
X164671716Y-114111478D01*
X164671716Y-114332859D01*
X164673078Y-114343510D01*
X164683244Y-114360703D01*
X164691736Y-114367266D01*
X164711088Y-114372231D01*
X164876001Y-114372231D01*
X164876001Y-114072106D01*
X164711088Y-114072106D01*
X164700437Y-114073468D01*
X164683244Y-114083634D01*
X164676681Y-114092125D01*
X164671716Y-114111478D01*
X164628925Y-114111478D01*
X164628925Y-114110891D01*
X164629845Y-114098430D01*
X164635471Y-114078944D01*
X164640980Y-114068196D01*
X164653154Y-114052664D01*
X164662102Y-114044851D01*
X164679337Y-114034883D01*
X164690763Y-114030894D01*
X164711088Y-114028337D01*
X164910879Y-114028337D01*
X164916252Y-114030877D01*
G37*
G36*
X164520872Y-114407891D02*
G01*
X164520872Y-114380340D01*
X164518625Y-114374869D01*
X164513056Y-114372231D01*
X164405003Y-114372231D01*
X164405003Y-114072106D01*
X164513056Y-114072106D01*
X164520872Y-114063997D01*
X164520872Y-114036446D01*
X164513056Y-114028337D01*
X164254745Y-114028337D01*
X164246831Y-114036446D01*
X164246831Y-114063997D01*
X164254745Y-114072106D01*
X164362212Y-114072106D01*
X164362212Y-114372231D01*
X164254745Y-114372231D01*
X164249078Y-114374869D01*
X164246831Y-114380340D01*
X164246831Y-114407891D01*
X164254745Y-114416000D01*
X164513056Y-114416000D01*
X164520872Y-114407891D01*
G37*
G36*
X164069016Y-114029258D02*
G01*
X164088464Y-114034883D01*
X164099066Y-114040406D01*
X164114354Y-114052664D01*
X164121929Y-114061626D01*
X164131744Y-114078944D01*
X164135919Y-114091428D01*
X164138192Y-114110891D01*
X164138192Y-114333445D01*
X164137285Y-114345948D01*
X164131744Y-114365685D01*
X164126780Y-114375667D01*
X164114354Y-114391966D01*
X164105538Y-114399614D01*
X164088464Y-114409551D01*
X164076979Y-114413481D01*
X164056615Y-114416000D01*
X163931074Y-114416000D01*
X163918686Y-114415093D01*
X163899323Y-114409551D01*
X163888634Y-114404010D01*
X163873140Y-114391966D01*
X163865327Y-114383095D01*
X163855359Y-114365685D01*
X163851184Y-114353012D01*
X163848911Y-114333445D01*
X163848911Y-114111478D01*
X163891702Y-114111478D01*
X163891702Y-114332859D01*
X163893064Y-114343510D01*
X163903230Y-114360703D01*
X163911722Y-114367266D01*
X163931074Y-114372231D01*
X164056615Y-114372231D01*
X164067266Y-114370869D01*
X164084459Y-114360703D01*
X164091022Y-114352212D01*
X164095987Y-114332859D01*
X164095987Y-114111478D01*
X164094625Y-114100826D01*
X164084459Y-114083634D01*
X164075967Y-114077070D01*
X164056615Y-114072106D01*
X163931074Y-114072106D01*
X163920423Y-114073468D01*
X163903230Y-114083634D01*
X163896667Y-114092125D01*
X163891702Y-114111478D01*
X163848911Y-114111478D01*
X163848911Y-114110891D01*
X163849818Y-114098430D01*
X163855359Y-114078944D01*
X163860882Y-114068196D01*
X163873140Y-114052664D01*
X163882088Y-114044851D01*
X163899323Y-114034883D01*
X163910749Y-114030894D01*
X163931074Y-114028337D01*
X164056615Y-114028337D01*
X164069016Y-114029258D01*
G37*
G36*
X165698806Y-116581785D02*
G01*
X165698806Y-116555309D01*
X165696266Y-116549838D01*
X165690893Y-116547200D01*
X165663928Y-116547200D01*
X165658262Y-116549838D01*
X165656015Y-116555309D01*
X165656015Y-116581785D01*
X165651512Y-116600843D01*
X165644487Y-116610410D01*
X165627294Y-116620834D01*
X165616643Y-116622231D01*
X165491102Y-116622231D01*
X165471750Y-116617435D01*
X165463258Y-116611094D01*
X165453092Y-116594370D01*
X165451730Y-116584032D01*
X165451730Y-116535378D01*
X165457179Y-116515833D01*
X165463258Y-116508414D01*
X165480451Y-116498506D01*
X165491102Y-116497179D01*
X165616643Y-116497179D01*
X165637007Y-116494622D01*
X165648492Y-116490633D01*
X165665681Y-116480535D01*
X165674675Y-116472755D01*
X165686849Y-116457070D01*
X165692358Y-116446083D01*
X165697742Y-116427051D01*
X165698806Y-116413355D01*
X165698806Y-116362161D01*
X165696533Y-116342432D01*
X165692358Y-116329726D01*
X165682344Y-116312163D01*
X165674577Y-116303055D01*
X165659121Y-116290591D01*
X165648492Y-116284981D01*
X165629044Y-116279271D01*
X165616643Y-116278337D01*
X165491102Y-116278337D01*
X165470776Y-116280932D01*
X165459351Y-116284981D01*
X165442116Y-116295193D01*
X165433168Y-116303152D01*
X165420994Y-116319051D01*
X165415484Y-116330019D01*
X165410019Y-116348841D01*
X165408939Y-116362552D01*
X165408939Y-116389028D01*
X165416852Y-116397137D01*
X165443817Y-116397137D01*
X165451730Y-116389028D01*
X165451730Y-116362552D01*
X165456233Y-116343494D01*
X165463258Y-116333927D01*
X165480451Y-116323502D01*
X165491102Y-116322106D01*
X165616643Y-116322106D01*
X165635995Y-116327197D01*
X165644487Y-116333927D01*
X165654653Y-116351418D01*
X165656015Y-116362259D01*
X165656015Y-116413257D01*
X165651050Y-116432994D01*
X165644487Y-116441687D01*
X165627294Y-116452025D01*
X165616643Y-116453411D01*
X165491102Y-116453411D01*
X165470776Y-116455929D01*
X165459351Y-116459859D01*
X165442116Y-116469705D01*
X165433168Y-116477444D01*
X165420910Y-116492816D01*
X165415387Y-116503431D01*
X165409846Y-116522635D01*
X165408939Y-116534890D01*
X165408939Y-116584520D01*
X165411496Y-116604792D01*
X165415484Y-116616369D01*
X165425414Y-116633573D01*
X165433168Y-116642357D01*
X165449513Y-116654697D01*
X165459351Y-116659649D01*
X165478714Y-116665106D01*
X165491102Y-116666000D01*
X165616643Y-116666000D01*
X165637007Y-116663404D01*
X165648492Y-116659356D01*
X165665643Y-116649258D01*
X165674577Y-116641478D01*
X165686789Y-116625754D01*
X165692358Y-116614709D01*
X165697742Y-116595561D01*
X165698806Y-116581785D01*
G37*
G36*
X165049316Y-116286251D02*
G01*
X165046287Y-116280877D01*
X165040327Y-116278337D01*
X165013949Y-116278337D01*
X165008869Y-116280877D01*
X165006622Y-116286251D01*
X165035833Y-116658086D01*
X165038374Y-116663752D01*
X165044333Y-116666000D01*
X165078039Y-116666000D01*
X165089860Y-116659258D01*
X165163621Y-116533229D01*
X165237285Y-116659258D01*
X165249106Y-116666000D01*
X165282909Y-116666000D01*
X165288771Y-116663752D01*
X165291311Y-116658086D01*
X165320621Y-116286251D01*
X165318960Y-116280877D01*
X165313293Y-116278337D01*
X165286817Y-116278337D01*
X165281249Y-116280877D01*
X165278415Y-116286251D01*
X165253600Y-116608944D01*
X165186678Y-116489656D01*
X165174856Y-116482915D01*
X165152386Y-116482915D01*
X165140565Y-116489656D01*
X165073545Y-116608944D01*
X165049316Y-116286251D01*
G37*
G36*
X164916252Y-116280877D02*
G01*
X164918792Y-116286251D01*
X164918792Y-116658086D01*
X164916252Y-116663752D01*
X164910879Y-116666000D01*
X164711088Y-116666000D01*
X164698700Y-116665093D01*
X164679337Y-116659551D01*
X164668648Y-116654010D01*
X164653154Y-116641966D01*
X164645401Y-116633095D01*
X164635471Y-116615685D01*
X164631232Y-116603012D01*
X164628925Y-116583445D01*
X164628925Y-116361478D01*
X164671716Y-116361478D01*
X164671716Y-116582859D01*
X164673078Y-116593510D01*
X164683244Y-116610703D01*
X164691736Y-116617266D01*
X164711088Y-116622231D01*
X164876001Y-116622231D01*
X164876001Y-116322106D01*
X164711088Y-116322106D01*
X164700437Y-116323468D01*
X164683244Y-116333634D01*
X164676681Y-116342125D01*
X164671716Y-116361478D01*
X164628925Y-116361478D01*
X164628925Y-116360891D01*
X164629845Y-116348430D01*
X164635471Y-116328944D01*
X164640980Y-116318196D01*
X164653154Y-116302664D01*
X164662102Y-116294851D01*
X164679337Y-116284883D01*
X164690763Y-116280894D01*
X164711088Y-116278337D01*
X164910879Y-116278337D01*
X164916252Y-116280877D01*
G37*
G36*
X164238918Y-116389028D02*
G01*
X164246831Y-116397137D01*
X164273796Y-116397137D01*
X164281709Y-116389028D01*
X164281709Y-116361966D01*
X164286602Y-116343022D01*
X164293531Y-116333634D01*
X164310465Y-116323468D01*
X164321081Y-116322106D01*
X164446622Y-116322106D01*
X164465974Y-116327070D01*
X164474466Y-116333634D01*
X164484632Y-116350826D01*
X164485994Y-116361478D01*
X164485994Y-116582859D01*
X164481029Y-116602212D01*
X164474466Y-116610703D01*
X164457273Y-116620869D01*
X164446622Y-116622231D01*
X164321081Y-116622231D01*
X164301855Y-116617393D01*
X164293531Y-116610996D01*
X164283371Y-116593852D01*
X164281709Y-116582957D01*
X164281709Y-116555309D01*
X164279462Y-116549838D01*
X164273796Y-116547200D01*
X164246831Y-116547200D01*
X164241165Y-116549838D01*
X164238918Y-116555309D01*
X164238918Y-116582957D01*
X164241294Y-116602699D01*
X164245659Y-116615295D01*
X164255765Y-116632529D01*
X164263440Y-116641478D01*
X164278682Y-116653728D01*
X164289330Y-116659356D01*
X164308693Y-116665065D01*
X164321081Y-116666000D01*
X164446622Y-116666000D01*
X164466986Y-116663481D01*
X164478471Y-116659551D01*
X164495545Y-116649614D01*
X164504361Y-116641966D01*
X164516787Y-116625667D01*
X164521751Y-116615685D01*
X164527292Y-116595948D01*
X164528199Y-116583445D01*
X164528199Y-116360891D01*
X164525926Y-116341428D01*
X164521751Y-116328944D01*
X164511936Y-116311626D01*
X164504361Y-116302664D01*
X164489073Y-116290406D01*
X164478471Y-116284883D01*
X164459023Y-116279258D01*
X164446622Y-116278337D01*
X164321081Y-116278337D01*
X164300756Y-116280932D01*
X164289330Y-116284981D01*
X164272210Y-116295079D01*
X164263440Y-116302859D01*
X164251319Y-116318506D01*
X164245659Y-116329433D01*
X164240030Y-116348255D01*
X164238918Y-116361966D01*
X164238918Y-116389028D01*
G37*
G36*
X164115624Y-116278337D02*
G01*
X164088660Y-116278337D01*
X164080844Y-116286251D01*
X164080844Y-116622231D01*
X163860732Y-116622231D01*
X163855163Y-116624869D01*
X163852916Y-116630340D01*
X163852916Y-116657891D01*
X163860732Y-116666000D01*
X164115624Y-116666000D01*
X164120997Y-116663752D01*
X164123538Y-116658086D01*
X164123538Y-116286251D01*
X164120997Y-116280584D01*
X164115624Y-116278337D01*
G37*
G36*
X163458904Y-116389028D02*
G01*
X163466817Y-116397137D01*
X163493782Y-116397137D01*
X163501695Y-116389028D01*
X163501695Y-116361966D01*
X163506588Y-116343022D01*
X163513517Y-116333634D01*
X163530451Y-116323468D01*
X163541067Y-116322106D01*
X163666608Y-116322106D01*
X163685960Y-116327070D01*
X163694452Y-116333634D01*
X163704618Y-116350826D01*
X163705980Y-116361478D01*
X163705980Y-116582859D01*
X163701015Y-116602212D01*
X163694452Y-116610703D01*
X163677259Y-116620869D01*
X163666608Y-116622231D01*
X163541067Y-116622231D01*
X163521841Y-116617393D01*
X163513517Y-116610996D01*
X163503357Y-116593852D01*
X163501695Y-116582957D01*
X163501695Y-116555309D01*
X163499448Y-116549838D01*
X163493782Y-116547200D01*
X163466817Y-116547200D01*
X163461151Y-116549838D01*
X163458904Y-116555309D01*
X163458904Y-116582957D01*
X163461280Y-116602699D01*
X163465645Y-116615295D01*
X163475751Y-116632529D01*
X163483426Y-116641478D01*
X163498668Y-116653728D01*
X163509316Y-116659356D01*
X163528679Y-116665065D01*
X163541067Y-116666000D01*
X163666608Y-116666000D01*
X163686972Y-116663481D01*
X163698457Y-116659551D01*
X163715531Y-116649614D01*
X163724347Y-116641966D01*
X163736773Y-116625667D01*
X163741737Y-116615685D01*
X163747278Y-116595948D01*
X163748185Y-116583445D01*
X163748185Y-116360891D01*
X163745912Y-116341428D01*
X163741737Y-116328944D01*
X163731922Y-116311626D01*
X163724347Y-116302664D01*
X163709059Y-116290406D01*
X163698457Y-116284883D01*
X163679009Y-116279258D01*
X163666608Y-116278337D01*
X163541067Y-116278337D01*
X163520742Y-116280932D01*
X163509316Y-116284981D01*
X163492196Y-116295079D01*
X163483426Y-116302859D01*
X163471305Y-116318506D01*
X163465645Y-116329433D01*
X163460016Y-116348255D01*
X163458904Y-116361966D01*
X163458904Y-116389028D01*
G37*
G36*
X163122435Y-116659356D02*
G01*
X163215247Y-116497179D01*
X163312651Y-116497179D01*
X163312651Y-116658281D01*
X163320467Y-116666000D01*
X163347431Y-116666000D01*
X163352805Y-116663752D01*
X163355345Y-116658086D01*
X163355345Y-116286251D01*
X163352805Y-116280584D01*
X163347431Y-116278337D01*
X163320467Y-116278337D01*
X163312651Y-116286348D01*
X163312651Y-116453411D01*
X163215247Y-116453411D01*
X163122435Y-116285274D01*
X163117355Y-116280389D01*
X163110614Y-116278337D01*
X163077397Y-116278337D01*
X163072903Y-116280291D01*
X163073489Y-116285078D01*
X163178122Y-116472168D01*
X163073489Y-116659258D01*
X163077397Y-116666000D01*
X163110614Y-116666000D01*
X163122435Y-116659356D01*
G37*
D11*
%TO.C,TP5*%
X164200000Y-112250000D02*
G75*
G02*
X162800000Y-112250000I-700000J0D01*
G01*
X162800000Y-112250000D02*
G75*
G02*
X164200000Y-112250000I700000J0D01*
G01*
%TO.C,TP1*%
X187700000Y-82000000D02*
G75*
G02*
X186300000Y-82000000I-700000J0D01*
G01*
X186300000Y-82000000D02*
G75*
G02*
X187700000Y-82000000I700000J0D01*
G01*
%TO.C,BT1*%
X162850000Y-93650000D02*
X166050000Y-93650000D01*
X162850000Y-95200000D02*
X162850000Y-93650000D01*
X162850000Y-99800000D02*
X162850000Y-101350000D01*
X162850000Y-101350000D02*
X166050000Y-101350000D01*
X166050000Y-89150000D02*
X188750000Y-89150000D01*
X166050000Y-93650000D02*
X166050000Y-89150000D01*
X166050000Y-101350000D02*
X166050000Y-105850000D01*
X186950000Y-105850000D02*
X166050000Y-105850000D01*
X188750000Y-93650000D02*
X188750000Y-89150000D01*
X188750000Y-101350000D02*
X188750000Y-104050000D01*
X188750000Y-104050000D02*
X186950000Y-105850000D01*
X190400000Y-104500000D02*
X190400000Y-102500000D01*
X191400000Y-103500000D02*
X189400000Y-103500000D01*
X191950000Y-93650000D02*
X188750000Y-93650000D01*
X191950000Y-95200000D02*
X191950000Y-93650000D01*
X191950000Y-99800000D02*
X191950000Y-101350000D01*
X191950000Y-101350000D02*
X188750000Y-101350000D01*
%TO.C,TP4*%
X167700000Y-116500000D02*
G75*
G02*
X166300000Y-116500000I-700000J0D01*
G01*
X166300000Y-116500000D02*
G75*
G02*
X167700000Y-116500000I700000J0D01*
G01*
%TO.C,TP2*%
X180200000Y-82000000D02*
G75*
G02*
X178800000Y-82000000I-700000J0D01*
G01*
X178800000Y-82000000D02*
G75*
G02*
X180200000Y-82000000I700000J0D01*
G01*
%TO.C,TP3*%
X167700000Y-114250000D02*
G75*
G02*
X166300000Y-114250000I-700000J0D01*
G01*
X166300000Y-114250000D02*
G75*
G02*
X167700000Y-114250000I700000J0D01*
G01*
%TD*%
%LPC*%
D12*
%TO.C,J1*%
X173180000Y-81925000D03*
D13*
X173180000Y-86105000D03*
D12*
X181820000Y-81925000D03*
D13*
X181820000Y-86105000D03*
D14*
X174610000Y-85605000D03*
X180390000Y-85605000D03*
%TD*%
D15*
%TO.C,TP5*%
X163500000Y-112250000D03*
%TD*%
%TO.C,TP1*%
X187000000Y-82000000D03*
%TD*%
D16*
%TO.C,BT1*%
X192050000Y-97500000D03*
X162750000Y-97500000D03*
%TD*%
D15*
%TO.C,TP4*%
X167000000Y-116500000D03*
%TD*%
%TO.C,TP2*%
X179500000Y-82000000D03*
%TD*%
%TO.C,TP3*%
X167000000Y-114250000D03*
%TD*%
%LPD*%
M02*
