%TF.GenerationSoftware,KiCad,Pcbnew,8.0.8*%
%TF.CreationDate,2025-06-11T01:55:21+01:00*%
%TF.ProjectId,Watch,57617463-682e-46b6-9963-61645f706362,rev?*%
%TF.SameCoordinates,Original*%
%TF.FileFunction,Soldermask,Top*%
%TF.FilePolarity,Negative*%
%FSLAX46Y46*%
G04 Gerber Fmt 4.6, Leading zero omitted, Abs format (unit mm)*
G04 Created by KiCad (PCBNEW 8.0.8) date 2025-06-11 01:55:21*
%MOMM*%
%LPD*%
G01*
G04 APERTURE LIST*
G04 Aperture macros list*
%AMRoundRect*
0 Rectangle with rounded corners*
0 $1 Rounding radius*
0 $2 $3 $4 $5 $6 $7 $8 $9 X,Y pos of 4 corners*
0 Add a 4 corners polygon primitive as box body*
4,1,4,$2,$3,$4,$5,$6,$7,$8,$9,$2,$3,0*
0 Add four circle primitives for the rounded corners*
1,1,$1+$1,$2,$3*
1,1,$1+$1,$4,$5*
1,1,$1+$1,$6,$7*
1,1,$1+$1,$8,$9*
0 Add four rect primitives between the rounded corners*
20,1,$1+$1,$2,$3,$4,$5,0*
20,1,$1+$1,$4,$5,$6,$7,0*
20,1,$1+$1,$6,$7,$8,$9,0*
20,1,$1+$1,$8,$9,$2,$3,0*%
%AMRotRect*
0 Rectangle, with rotation*
0 The origin of the aperture is its center*
0 $1 length*
0 $2 width*
0 $3 Rotation angle, in degrees counterclockwise*
0 Add horizontal line*
21,1,$1,$2,0,0,$3*%
G04 Aperture macros list end*
%ADD10RoundRect,0.135000X-0.135000X-0.185000X0.135000X-0.185000X0.135000X0.185000X-0.135000X0.185000X0*%
%ADD11RoundRect,0.140000X-0.140000X-0.170000X0.140000X-0.170000X0.140000X0.170000X-0.140000X0.170000X0*%
%ADD12R,0.900000X2.800000*%
%ADD13R,1.800000X1.000000*%
%ADD14RoundRect,0.140000X0.140000X0.170000X-0.140000X0.170000X-0.140000X-0.170000X0.140000X-0.170000X0*%
%ADD15O,1.000000X1.600000*%
%ADD16O,1.000000X2.100000*%
%ADD17RoundRect,0.150000X0.150000X0.500000X-0.150000X0.500000X-0.150000X-0.500000X0.150000X-0.500000X0*%
%ADD18RoundRect,0.075000X0.075000X0.575000X-0.075000X0.575000X-0.075000X-0.575000X0.075000X-0.575000X0*%
%ADD19C,0.650000*%
%ADD20RoundRect,0.135000X0.135000X0.185000X-0.135000X0.185000X-0.135000X-0.185000X0.135000X-0.185000X0*%
%ADD21RoundRect,0.135000X0.185000X-0.135000X0.185000X0.135000X-0.185000X0.135000X-0.185000X-0.135000X0*%
%ADD22RotRect,1.600000X0.550000X45.000000*%
%ADD23RotRect,1.600000X0.550000X135.000000*%
%ADD24R,0.900000X1.700000*%
%ADD25R,1.700000X0.900000*%
%ADD26RoundRect,0.150000X0.587500X0.150000X-0.587500X0.150000X-0.587500X-0.150000X0.587500X-0.150000X0*%
%ADD27RoundRect,0.225000X-0.225000X-0.250000X0.225000X-0.250000X0.225000X0.250000X-0.225000X0.250000X0*%
%ADD28R,2.000000X1.200000*%
%ADD29RoundRect,0.062500X0.062500X-0.350000X0.062500X0.350000X-0.062500X0.350000X-0.062500X-0.350000X0*%
%ADD30RoundRect,0.150000X-0.587500X-0.150000X0.587500X-0.150000X0.587500X0.150000X-0.587500X0.150000X0*%
%ADD31RoundRect,0.150000X-0.512500X-0.150000X0.512500X-0.150000X0.512500X0.150000X-0.512500X0.150000X0*%
%ADD32RoundRect,0.112500X0.187500X0.112500X-0.187500X0.112500X-0.187500X-0.112500X0.187500X-0.112500X0*%
%ADD33RoundRect,0.112500X-0.187500X-0.112500X0.187500X-0.112500X0.187500X0.112500X-0.187500X0.112500X0*%
%ADD34RoundRect,0.218750X-0.218750X-0.381250X0.218750X-0.381250X0.218750X0.381250X-0.218750X0.381250X0*%
%ADD35RoundRect,0.147500X-0.147500X-0.172500X0.147500X-0.172500X0.147500X0.172500X-0.147500X0.172500X0*%
G04 APERTURE END LIST*
D10*
%TO.C,R21*%
X188230000Y-88250000D03*
X189250000Y-88250000D03*
%TD*%
D11*
%TO.C,C6*%
X183270000Y-108250000D03*
X184230000Y-108250000D03*
%TD*%
D12*
%TO.C,Dig4*%
X186620000Y-100500000D03*
X188060000Y-100500000D03*
X189500000Y-100500000D03*
X190940000Y-100500000D03*
X192380000Y-100500000D03*
X192380000Y-90500000D03*
X190940000Y-90500000D03*
X189500000Y-90500000D03*
X188060000Y-90500000D03*
X186620000Y-90500000D03*
%TD*%
D13*
%TO.C,Y2*%
X169500000Y-113000000D03*
X169500000Y-115500000D03*
%TD*%
D14*
%TO.C,C1*%
X166960000Y-108500000D03*
X166000000Y-108500000D03*
%TD*%
D15*
%TO.C,J1*%
X173180000Y-81925000D03*
D16*
X173180000Y-86105000D03*
D15*
X181820000Y-81925000D03*
D16*
X181820000Y-86105000D03*
D17*
X180700000Y-86745000D03*
X179900000Y-86745000D03*
D18*
X179250000Y-86745000D03*
X178250000Y-86745000D03*
X176750000Y-86745000D03*
X175750000Y-86745000D03*
D17*
X175100000Y-86745000D03*
X174300000Y-86745000D03*
X174300000Y-86745000D03*
X175100000Y-86745000D03*
D18*
X176250000Y-86745000D03*
X177250000Y-86745000D03*
X177750000Y-86745000D03*
X178750000Y-86745000D03*
D17*
X179900000Y-86745000D03*
X180700000Y-86745000D03*
D19*
X174610000Y-85605000D03*
X180390000Y-85605000D03*
%TD*%
D14*
%TO.C,C9*%
X168980000Y-111500000D03*
X168020000Y-111500000D03*
%TD*%
D20*
%TO.C,R8*%
X190010000Y-112250000D03*
X188990000Y-112250000D03*
%TD*%
%TO.C,R6*%
X189760000Y-109750000D03*
X188740000Y-109750000D03*
%TD*%
D21*
%TO.C,R5*%
X165500000Y-103770000D03*
X165500000Y-102750000D03*
%TD*%
D11*
%TO.C,C10*%
X169520000Y-117500000D03*
X170480000Y-117500000D03*
%TD*%
D22*
%TO.C,U7*%
X172514897Y-112525305D03*
X173080583Y-113090990D03*
X173646268Y-113656676D03*
X174211953Y-114222361D03*
X174777639Y-114788047D03*
X175343324Y-115353732D03*
X175909010Y-115919417D03*
X176474695Y-116485103D03*
D23*
X178525305Y-116485103D03*
X179090990Y-115919417D03*
X179656676Y-115353732D03*
X180222361Y-114788047D03*
X180788047Y-114222361D03*
X181353732Y-113656676D03*
X181919417Y-113090990D03*
X182485103Y-112525305D03*
D22*
X182485103Y-110474695D03*
X181919417Y-109909010D03*
X181353732Y-109343324D03*
X180788047Y-108777639D03*
X180222361Y-108211953D03*
X179656676Y-107646268D03*
X179090990Y-107080583D03*
X178525305Y-106514897D03*
D23*
X176474695Y-106514897D03*
X175909010Y-107080583D03*
X175343324Y-107646268D03*
X174777639Y-108211953D03*
X174211953Y-108777639D03*
X173646268Y-109343324D03*
X173080583Y-109909010D03*
X172514897Y-110474695D03*
%TD*%
D24*
%TO.C,SW4*%
X188800000Y-83000000D03*
X192200000Y-83000000D03*
%TD*%
D20*
%TO.C,R7*%
X190010000Y-111000000D03*
X188990000Y-111000000D03*
%TD*%
D14*
%TO.C,C5*%
X166960000Y-109750000D03*
X166000000Y-109750000D03*
%TD*%
D25*
%TO.C,SW1*%
X164000000Y-117700000D03*
X164000000Y-114300000D03*
%TD*%
D14*
%TO.C,C7*%
X184230000Y-83250000D03*
X183270000Y-83250000D03*
%TD*%
D26*
%TO.C,Q3*%
X184125000Y-106950000D03*
X184125000Y-105050000D03*
X182250000Y-106000000D03*
%TD*%
D27*
%TO.C,C_IN1*%
X189725000Y-87000000D03*
X191275000Y-87000000D03*
%TD*%
D20*
%TO.C,R15*%
X190010000Y-117250000D03*
X188990000Y-117250000D03*
%TD*%
D28*
%TO.C,U2*%
X186500000Y-85787500D03*
D29*
X185500000Y-84575000D03*
X186000000Y-84575000D03*
X186500000Y-84575000D03*
X187000000Y-84575000D03*
X187500000Y-84575000D03*
X187500000Y-87000000D03*
X187000000Y-87000000D03*
X186500000Y-87000000D03*
X186000000Y-87000000D03*
X185500000Y-87000000D03*
%TD*%
D21*
%TO.C,R11*%
X182000000Y-103760000D03*
X182000000Y-102740000D03*
%TD*%
D12*
%TO.C,Dig1*%
X162620000Y-100500000D03*
X164060000Y-100500000D03*
X165500000Y-100500000D03*
X166940000Y-100500000D03*
X168380000Y-100500000D03*
X168380000Y-90500000D03*
X166940000Y-90500000D03*
X165500000Y-90500000D03*
X164060000Y-90500000D03*
X162620000Y-90500000D03*
%TD*%
D10*
%TO.C,R20*%
X191760000Y-103750000D03*
X190740000Y-103750000D03*
%TD*%
D26*
%TO.C,Q4*%
X191750000Y-106900000D03*
X191750000Y-105000000D03*
X189875000Y-105950000D03*
%TD*%
D20*
%TO.C,R3*%
X171010000Y-85500000D03*
X169990000Y-85500000D03*
%TD*%
%TO.C,R14*%
X190020000Y-116000000D03*
X189000000Y-116000000D03*
%TD*%
D21*
%TO.C,R12*%
X189500000Y-103770000D03*
X189500000Y-102750000D03*
%TD*%
D30*
%TO.C,Q2*%
X170562500Y-105050000D03*
X170562500Y-106950000D03*
X172437500Y-106000000D03*
%TD*%
D31*
%TO.C,U1*%
X168362500Y-82050000D03*
X168362500Y-83000000D03*
X168362500Y-83950000D03*
X170637500Y-83950000D03*
X170637500Y-82050000D03*
%TD*%
D12*
%TO.C,Dig3*%
X179120000Y-100500000D03*
X180560000Y-100500000D03*
X182000000Y-100500000D03*
X183440000Y-100500000D03*
X184880000Y-100500000D03*
X184880000Y-90500000D03*
X183440000Y-90500000D03*
X182000000Y-90500000D03*
X180560000Y-90500000D03*
X179120000Y-90500000D03*
%TD*%
D24*
%TO.C,SW3*%
X166200000Y-83000000D03*
X162800000Y-83000000D03*
%TD*%
D20*
%TO.C,R16*%
X190020000Y-118500000D03*
X189000000Y-118500000D03*
%TD*%
%TO.C,R9*%
X190010000Y-113500000D03*
X188990000Y-113500000D03*
%TD*%
D10*
%TO.C,R1*%
X162990000Y-88000000D03*
X164010000Y-88000000D03*
%TD*%
D32*
%TO.C,D2*%
X176300000Y-103500000D03*
X174200000Y-103500000D03*
%TD*%
D21*
%TO.C,R18*%
X168750000Y-106980000D03*
X168750000Y-108000000D03*
%TD*%
D27*
%TO.C,C_OUT1*%
X189975000Y-108500000D03*
X191525000Y-108500000D03*
%TD*%
D12*
%TO.C,Dig2*%
X170120000Y-100500000D03*
X171560000Y-100500000D03*
X173000000Y-100500000D03*
X174440000Y-100500000D03*
X175880000Y-100500000D03*
X175880000Y-90500000D03*
X174440000Y-90500000D03*
X173000000Y-90500000D03*
X171560000Y-90500000D03*
X170120000Y-90500000D03*
%TD*%
D10*
%TO.C,R4*%
X162990000Y-86500000D03*
X164010000Y-86500000D03*
%TD*%
D21*
%TO.C,R17*%
X161500000Y-106990000D03*
X161500000Y-108010000D03*
%TD*%
D33*
%TO.C,D1*%
X169450000Y-87200000D03*
X171550000Y-87200000D03*
%TD*%
D20*
%TO.C,R13*%
X190020000Y-114750000D03*
X189000000Y-114750000D03*
%TD*%
D34*
%TO.C,L1*%
X183687500Y-81250000D03*
X185812500Y-81250000D03*
%TD*%
D21*
%TO.C,R19*%
X186500000Y-109490000D03*
X186500000Y-110510000D03*
%TD*%
D27*
%TO.C,C8*%
X189725000Y-85500000D03*
X191275000Y-85500000D03*
%TD*%
D35*
%TO.C,D3*%
X166515000Y-86500000D03*
X167485000Y-86500000D03*
%TD*%
D21*
%TO.C,R10*%
X173000000Y-103760000D03*
X173000000Y-102740000D03*
%TD*%
%TO.C,R2*%
X184200000Y-87335000D03*
X184200000Y-86315000D03*
%TD*%
D30*
%TO.C,Q1*%
X163312500Y-105050000D03*
X163312500Y-106950000D03*
X165187500Y-106000000D03*
%TD*%
M02*
