%TF.GenerationSoftware,KiCad,Pcbnew,8.0.8*%
%TF.CreationDate,2025-06-11T13:00:22+01:00*%
%TF.ProjectId,Watch,57617463-682e-46b6-9963-61645f706362,rev?*%
%TF.SameCoordinates,Original*%
%TF.FileFunction,Copper,L1,Top*%
%TF.FilePolarity,Positive*%
%FSLAX46Y46*%
G04 Gerber Fmt 4.6, Leading zero omitted, Abs format (unit mm)*
G04 Created by KiCad (PCBNEW 8.0.8) date 2025-06-11 13:00:22*
%MOMM*%
%LPD*%
G01*
G04 APERTURE LIST*
G04 Aperture macros list*
%AMRoundRect*
0 Rectangle with rounded corners*
0 $1 Rounding radius*
0 $2 $3 $4 $5 $6 $7 $8 $9 X,Y pos of 4 corners*
0 Add a 4 corners polygon primitive as box body*
4,1,4,$2,$3,$4,$5,$6,$7,$8,$9,$2,$3,0*
0 Add four circle primitives for the rounded corners*
1,1,$1+$1,$2,$3*
1,1,$1+$1,$4,$5*
1,1,$1+$1,$6,$7*
1,1,$1+$1,$8,$9*
0 Add four rect primitives between the rounded corners*
20,1,$1+$1,$2,$3,$4,$5,0*
20,1,$1+$1,$4,$5,$6,$7,0*
20,1,$1+$1,$6,$7,$8,$9,0*
20,1,$1+$1,$8,$9,$2,$3,0*%
%AMRotRect*
0 Rectangle, with rotation*
0 The origin of the aperture is its center*
0 $1 length*
0 $2 width*
0 $3 Rotation angle, in degrees counterclockwise*
0 Add horizontal line*
21,1,$1,$2,0,0,$3*%
G04 Aperture macros list end*
%TA.AperFunction,SMDPad,CuDef*%
%ADD10RoundRect,0.135000X-0.135000X-0.185000X0.135000X-0.185000X0.135000X0.185000X-0.135000X0.185000X0*%
%TD*%
%TA.AperFunction,SMDPad,CuDef*%
%ADD11RoundRect,0.140000X-0.140000X-0.170000X0.140000X-0.170000X0.140000X0.170000X-0.140000X0.170000X0*%
%TD*%
%TA.AperFunction,SMDPad,CuDef*%
%ADD12R,0.900000X2.800000*%
%TD*%
%TA.AperFunction,SMDPad,CuDef*%
%ADD13R,1.800000X1.000000*%
%TD*%
%TA.AperFunction,SMDPad,CuDef*%
%ADD14RoundRect,0.140000X0.140000X0.170000X-0.140000X0.170000X-0.140000X-0.170000X0.140000X-0.170000X0*%
%TD*%
%TA.AperFunction,HeatsinkPad*%
%ADD15O,1.000000X1.600000*%
%TD*%
%TA.AperFunction,HeatsinkPad*%
%ADD16O,1.000000X2.100000*%
%TD*%
%TA.AperFunction,SMDPad,CuDef*%
%ADD17RoundRect,0.150000X0.150000X0.500000X-0.150000X0.500000X-0.150000X-0.500000X0.150000X-0.500000X0*%
%TD*%
%TA.AperFunction,SMDPad,CuDef*%
%ADD18RoundRect,0.075000X0.075000X0.575000X-0.075000X0.575000X-0.075000X-0.575000X0.075000X-0.575000X0*%
%TD*%
%TA.AperFunction,SMDPad,CuDef*%
%ADD19RoundRect,0.135000X0.135000X0.185000X-0.135000X0.185000X-0.135000X-0.185000X0.135000X-0.185000X0*%
%TD*%
%TA.AperFunction,SMDPad,CuDef*%
%ADD20RotRect,1.600000X0.550000X45.000000*%
%TD*%
%TA.AperFunction,SMDPad,CuDef*%
%ADD21RotRect,1.600000X0.550000X135.000000*%
%TD*%
%TA.AperFunction,SMDPad,CuDef*%
%ADD22R,0.900000X1.700000*%
%TD*%
%TA.AperFunction,SMDPad,CuDef*%
%ADD23R,1.700000X0.900000*%
%TD*%
%TA.AperFunction,SMDPad,CuDef*%
%ADD24RoundRect,0.150000X0.587500X0.150000X-0.587500X0.150000X-0.587500X-0.150000X0.587500X-0.150000X0*%
%TD*%
%TA.AperFunction,SMDPad,CuDef*%
%ADD25RoundRect,0.225000X-0.225000X-0.250000X0.225000X-0.250000X0.225000X0.250000X-0.225000X0.250000X0*%
%TD*%
%TA.AperFunction,HeatsinkPad*%
%ADD26C,0.500000*%
%TD*%
%TA.AperFunction,HeatsinkPad*%
%ADD27R,2.000000X1.200000*%
%TD*%
%TA.AperFunction,SMDPad,CuDef*%
%ADD28RoundRect,0.062500X0.062500X-0.350000X0.062500X0.350000X-0.062500X0.350000X-0.062500X-0.350000X0*%
%TD*%
%TA.AperFunction,SMDPad,CuDef*%
%ADD29RoundRect,0.150000X-0.587500X-0.150000X0.587500X-0.150000X0.587500X0.150000X-0.587500X0.150000X0*%
%TD*%
%TA.AperFunction,SMDPad,CuDef*%
%ADD30RoundRect,0.150000X-0.512500X-0.150000X0.512500X-0.150000X0.512500X0.150000X-0.512500X0.150000X0*%
%TD*%
%TA.AperFunction,SMDPad,CuDef*%
%ADD31RoundRect,0.112500X0.187500X0.112500X-0.187500X0.112500X-0.187500X-0.112500X0.187500X-0.112500X0*%
%TD*%
%TA.AperFunction,SMDPad,CuDef*%
%ADD32RoundRect,0.135000X0.185000X-0.135000X0.185000X0.135000X-0.185000X0.135000X-0.185000X-0.135000X0*%
%TD*%
%TA.AperFunction,SMDPad,CuDef*%
%ADD33RoundRect,0.112500X-0.187500X-0.112500X0.187500X-0.112500X0.187500X0.112500X-0.187500X0.112500X0*%
%TD*%
%TA.AperFunction,SMDPad,CuDef*%
%ADD34RoundRect,0.218750X-0.218750X-0.381250X0.218750X-0.381250X0.218750X0.381250X-0.218750X0.381250X0*%
%TD*%
%TA.AperFunction,SMDPad,CuDef*%
%ADD35RoundRect,0.147500X0.147500X0.172500X-0.147500X0.172500X-0.147500X-0.172500X0.147500X-0.172500X0*%
%TD*%
%TA.AperFunction,ViaPad*%
%ADD36C,0.600000*%
%TD*%
%TA.AperFunction,ViaPad*%
%ADD37C,0.300000*%
%TD*%
%TA.AperFunction,Conductor*%
%ADD38C,0.200000*%
%TD*%
%TA.AperFunction,Conductor*%
%ADD39C,0.150000*%
%TD*%
G04 APERTURE END LIST*
D10*
%TO.P,R5,2*%
%TO.N,TP_RST*%
X163510000Y-112250000D03*
%TO.P,R5,1*%
%TO.N,Net-(R5-Pad1)*%
X162490000Y-112250000D03*
%TD*%
%TO.P,R21,1*%
%TO.N,Net-(U2-CFG1)*%
X188230000Y-88250000D03*
%TO.P,R21,2*%
%TO.N,GND*%
X189250000Y-88250000D03*
%TD*%
D11*
%TO.P,C6,1*%
%TO.N,Net-(U7-VDDANA)*%
X183270000Y-108250000D03*
%TO.P,C6,2*%
%TO.N,TP_3.3V*%
X184230000Y-108250000D03*
%TD*%
D12*
%TO.P,Dig4,1,E*%
%TO.N,E*%
X186620000Y-100500000D03*
%TO.P,Dig4,2,D*%
%TO.N,D*%
X188060000Y-100500000D03*
%TO.P,Dig4,3,CA*%
%TO.N,DIG4*%
X189500000Y-100500000D03*
%TO.P,Dig4,4,C*%
%TO.N,C*%
X190940000Y-100500000D03*
%TO.P,Dig4,5,DP*%
%TO.N,DP*%
X192380000Y-100500000D03*
%TO.P,Dig4,6,B*%
%TO.N,B*%
X192380000Y-90500000D03*
%TO.P,Dig4,7,A*%
%TO.N,A*%
X190940000Y-90500000D03*
%TO.P,Dig4,8,CA*%
%TO.N,DIG4*%
X189500000Y-90500000D03*
%TO.P,Dig4,9,F*%
%TO.N,F*%
X188060000Y-90500000D03*
%TO.P,Dig4,10,G*%
%TO.N,G*%
X186620000Y-90500000D03*
%TD*%
D13*
%TO.P,Y2,1,1*%
%TO.N,A0*%
X169500000Y-113000000D03*
%TO.P,Y2,2,2*%
%TO.N,A1*%
X169500000Y-115500000D03*
%TD*%
D14*
%TO.P,C1,1*%
%TO.N,Net-(U7-VDDCORE)*%
X166960000Y-108500000D03*
%TO.P,C1,2*%
%TO.N,GND*%
X166000000Y-108500000D03*
%TD*%
D15*
%TO.P,J1,S1,SHIELD*%
%TO.N,GND*%
X173180000Y-81925000D03*
D16*
X173180000Y-86105000D03*
D15*
X181820000Y-81925000D03*
D16*
X181820000Y-86105000D03*
D17*
%TO.P,J1,B12,GND*%
X180700000Y-86745000D03*
%TO.P,J1,B9,VBUS*%
%TO.N,+5V*%
X179900000Y-86745000D03*
D18*
%TO.P,J1,B8*%
%TO.N,N/C*%
X179250000Y-86745000D03*
%TO.P,J1,B7,D-*%
%TO.N,D-*%
X178250000Y-86745000D03*
%TO.P,J1,B6,D+*%
%TO.N,D+*%
X176750000Y-86745000D03*
%TO.P,J1,B5,CC2*%
%TO.N,Net-(J1-CC2)*%
X175750000Y-86745000D03*
D17*
%TO.P,J1,B4,VBUS*%
%TO.N,+5V*%
X175100000Y-86745000D03*
%TO.P,J1,B1,GND*%
%TO.N,GND*%
X174300000Y-86745000D03*
%TO.P,J1,A12,GND*%
X174300000Y-86745000D03*
%TO.P,J1,A9,VBUS*%
%TO.N,+5V*%
X175100000Y-86745000D03*
D18*
%TO.P,J1,A8*%
%TO.N,N/C*%
X176250000Y-86745000D03*
%TO.P,J1,A7,D-*%
%TO.N,D-*%
X177250000Y-86745000D03*
%TO.P,J1,A6,D+*%
%TO.N,D+*%
X177750000Y-86745000D03*
%TO.P,J1,A5,CC1*%
%TO.N,Net-(J1-CC1)*%
X178750000Y-86745000D03*
D17*
%TO.P,J1,A4,VBUS*%
%TO.N,+5V*%
X179900000Y-86745000D03*
%TO.P,J1,A1,GND*%
%TO.N,GND*%
X180700000Y-86745000D03*
%TD*%
D14*
%TO.P,C9,1*%
%TO.N,A0*%
X168980000Y-111500000D03*
%TO.P,C9,2*%
%TO.N,GND*%
X168020000Y-111500000D03*
%TD*%
D19*
%TO.P,R8,1*%
%TO.N,F*%
X190010000Y-112250000D03*
%TO.P,R8,2*%
%TO.N,Net-(U7-PA09)*%
X188990000Y-112250000D03*
%TD*%
%TO.P,R6,1*%
%TO.N,DP*%
X189760000Y-109750000D03*
%TO.P,R6,2*%
%TO.N,Net-(U7-PA11)*%
X188740000Y-109750000D03*
%TD*%
D11*
%TO.P,C10,1*%
%TO.N,A1*%
X169520000Y-117500000D03*
%TO.P,C10,2*%
%TO.N,GND*%
X170480000Y-117500000D03*
%TD*%
D20*
%TO.P,U7,1,PA00*%
%TO.N,A0*%
X172514897Y-112525305D03*
%TO.P,U7,2,PA01*%
%TO.N,A1*%
X173080583Y-113090990D03*
%TO.P,U7,3,PA02*%
%TO.N,unconnected-(U7-PA02-Pad3)*%
X173646268Y-113656676D03*
%TO.P,U7,4,PA03*%
%TO.N,unconnected-(U7-PA03-Pad4)*%
X174211953Y-114222361D03*
%TO.P,U7,5,PA04*%
%TO.N,Net-(U7-PA04)*%
X174777639Y-114788047D03*
%TO.P,U7,6,PA05*%
%TO.N,Net-(U7-PA05)*%
X175343324Y-115353732D03*
%TO.P,U7,7,PA06*%
%TO.N,Net-(U7-PA06)*%
X175909010Y-115919417D03*
%TO.P,U7,8,PA07*%
%TO.N,Net-(U7-PA07)*%
X176474695Y-116485103D03*
D21*
%TO.P,U7,9,VDDANA*%
%TO.N,Net-(U7-VDDANA)*%
X178525305Y-116485103D03*
%TO.P,U7,10,GND*%
%TO.N,GND*%
X179090990Y-115919417D03*
%TO.P,U7,11,PA08*%
%TO.N,Net-(U7-PA08)*%
X179656676Y-115353732D03*
%TO.P,U7,12,PA09*%
%TO.N,Net-(U7-PA09)*%
X180222361Y-114788047D03*
%TO.P,U7,13,PA10*%
%TO.N,Net-(U7-PA10)*%
X180788047Y-114222361D03*
%TO.P,U7,14,PA11*%
%TO.N,Net-(U7-PA11)*%
X181353732Y-113656676D03*
%TO.P,U7,15,PA14*%
%TO.N,SEL-D1*%
X181919417Y-113090990D03*
%TO.P,U7,16,PA15*%
%TO.N,SEL-D2*%
X182485103Y-112525305D03*
D20*
%TO.P,U7,17,PA16*%
%TO.N,SEL-D3*%
X182485103Y-110474695D03*
%TO.P,U7,18,PA17*%
%TO.N,SEL-D4*%
X181919417Y-109909010D03*
%TO.P,U7,19,PA18*%
%TO.N,Btn1*%
X181353732Y-109343324D03*
%TO.P,U7,20,PA19*%
%TO.N,Btn2*%
X180788047Y-108777639D03*
%TO.P,U7,21,PA22*%
%TO.N,unconnected-(U7-PA22-Pad21)*%
X180222361Y-108211953D03*
%TO.P,U7,22,PA23*%
%TO.N,unconnected-(U7-PA23-Pad22)*%
X179656676Y-107646268D03*
%TO.P,U7,23,PA24*%
%TO.N,D-*%
X179090990Y-107080583D03*
%TO.P,U7,24,PA25*%
%TO.N,D+*%
X178525305Y-106514897D03*
D21*
%TO.P,U7,25,PA27*%
%TO.N,unconnected-(U7-PA27-Pad25)*%
X176474695Y-106514897D03*
%TO.P,U7,26,~{RESET}*%
%TO.N,TP_RST*%
X175909010Y-107080583D03*
%TO.P,U7,27,PA28*%
%TO.N,unconnected-(U7-PA28-Pad27)*%
X175343324Y-107646268D03*
%TO.P,U7,28,GND*%
%TO.N,GND*%
X174777639Y-108211953D03*
%TO.P,U7,29,VDDCORE*%
%TO.N,Net-(U7-VDDCORE)*%
X174211953Y-108777639D03*
%TO.P,U7,30,VDDIN*%
%TO.N,Net-(U7-VDDIN)*%
X173646268Y-109343324D03*
%TO.P,U7,31,PA30*%
%TO.N,TP_SWDCLK*%
X173080583Y-109909010D03*
%TO.P,U7,32,PA31*%
%TO.N,TP_SWDIO*%
X172514897Y-110474695D03*
%TD*%
D22*
%TO.P,SW4,1,1*%
%TO.N,GND*%
X188800000Y-83000000D03*
%TO.P,SW4,2,2*%
%TO.N,Btn1*%
X192200000Y-83000000D03*
%TD*%
D19*
%TO.P,R7,1*%
%TO.N,G*%
X190010000Y-111000000D03*
%TO.P,R7,2*%
%TO.N,Net-(U7-PA10)*%
X188990000Y-111000000D03*
%TD*%
D14*
%TO.P,C5,1*%
%TO.N,Net-(U7-VDDIN)*%
X166960000Y-109750000D03*
%TO.P,C5,2*%
%TO.N,TP_3.3V*%
X166000000Y-109750000D03*
%TD*%
D23*
%TO.P,SW1,1,1*%
%TO.N,GND*%
X164000000Y-117700000D03*
%TO.P,SW1,2,2*%
%TO.N,Net-(R5-Pad1)*%
X164000000Y-114300000D03*
%TD*%
D14*
%TO.P,C7,1*%
%TO.N,GND*%
X184230000Y-83250000D03*
%TO.P,C7,2*%
%TO.N,+5V*%
X183270000Y-83250000D03*
%TD*%
D24*
%TO.P,Q3,1,E*%
%TO.N,TP_3.3V*%
X184125000Y-106950000D03*
%TO.P,Q3,2,B*%
%TO.N,Net-(Q3-B)*%
X184125000Y-105050000D03*
%TO.P,Q3,3,C*%
%TO.N,DIG3*%
X182250000Y-106000000D03*
%TD*%
D25*
%TO.P,C_IN1,1*%
%TO.N,GND*%
X189725000Y-87000000D03*
%TO.P,C_IN1,2*%
%TO.N,VBAT*%
X191275000Y-87000000D03*
%TD*%
D19*
%TO.P,R15,1*%
%TO.N,B*%
X190010000Y-117250000D03*
%TO.P,R15,2*%
%TO.N,Net-(U7-PA05)*%
X188990000Y-117250000D03*
%TD*%
D26*
%TO.P,U2,11,GND*%
%TO.N,GND*%
X187250000Y-85437500D03*
X186500000Y-85437500D03*
X185750000Y-85437500D03*
D27*
X186500000Y-85787500D03*
D26*
X187250000Y-86137500D03*
X186500000Y-86137500D03*
X185750000Y-86137500D03*
D28*
%TO.P,U2,10,VIN*%
%TO.N,VBAT*%
X185500000Y-84575000D03*
%TO.P,U2,9,LX1*%
%TO.N,Net-(U2-LX1)*%
X186000000Y-84575000D03*
%TO.P,U2,8,GND*%
%TO.N,GND*%
X186500000Y-84575000D03*
%TO.P,U2,7,LX2*%
%TO.N,Net-(U2-LX2)*%
X187000000Y-84575000D03*
%TO.P,U2,6,VOUT*%
%TO.N,TP_3.3V*%
X187500000Y-84575000D03*
%TO.P,U2,5,CFG3*%
%TO.N,GND*%
X187500000Y-87000000D03*
%TO.P,U2,4,CFG2*%
X187000000Y-87000000D03*
%TO.P,U2,3,CFG1*%
%TO.N,Net-(U2-CFG1)*%
X186500000Y-87000000D03*
%TO.P,U2,2,SEL*%
%TO.N,GND*%
X186000000Y-87000000D03*
%TO.P,U2,1,EN*%
%TO.N,VBAT*%
X185500000Y-87000000D03*
%TD*%
D12*
%TO.P,Dig1,1,E*%
%TO.N,E*%
X162620000Y-100500000D03*
%TO.P,Dig1,2,D*%
%TO.N,D*%
X164060000Y-100500000D03*
%TO.P,Dig1,3,CA*%
%TO.N,DIG1*%
X165500000Y-100500000D03*
%TO.P,Dig1,4,C*%
%TO.N,C*%
X166940000Y-100500000D03*
%TO.P,Dig1,5,DP*%
%TO.N,DP*%
X168380000Y-100500000D03*
%TO.P,Dig1,6,B*%
%TO.N,B*%
X168380000Y-90500000D03*
%TO.P,Dig1,7,A*%
%TO.N,A*%
X166940000Y-90500000D03*
%TO.P,Dig1,8,CA*%
%TO.N,DIG1*%
X165500000Y-90500000D03*
%TO.P,Dig1,9,F*%
%TO.N,F*%
X164060000Y-90500000D03*
%TO.P,Dig1,10,G*%
%TO.N,G*%
X162620000Y-90500000D03*
%TD*%
D10*
%TO.P,R20,2*%
%TO.N,Net-(Q4-B)*%
X191760000Y-103750000D03*
%TO.P,R20,1*%
%TO.N,SEL-D4*%
X190740000Y-103750000D03*
%TD*%
D24*
%TO.P,Q4,1,E*%
%TO.N,TP_3.3V*%
X191750000Y-106900000D03*
%TO.P,Q4,2,B*%
%TO.N,Net-(Q4-B)*%
X191750000Y-105000000D03*
%TO.P,Q4,3,C*%
%TO.N,DIG4*%
X189875000Y-105950000D03*
%TD*%
D19*
%TO.P,R3,1*%
%TO.N,Net-(J1-CC2)*%
X171010000Y-85500000D03*
%TO.P,R3,2*%
%TO.N,GND*%
X169990000Y-85500000D03*
%TD*%
%TO.P,R14,1*%
%TO.N,C*%
X190020000Y-116000000D03*
%TO.P,R14,2*%
%TO.N,Net-(U7-PA06)*%
X189000000Y-116000000D03*
%TD*%
D29*
%TO.P,Q2,1,E*%
%TO.N,TP_3.3V*%
X170562500Y-105050000D03*
%TO.P,Q2,2,B*%
%TO.N,Net-(Q2-B)*%
X170562500Y-106950000D03*
%TO.P,Q2,3,C*%
%TO.N,DIG2*%
X172437500Y-106000000D03*
%TD*%
D30*
%TO.P,U1,1,STAT*%
%TO.N,Net-(D3-A)*%
X168362500Y-82050000D03*
%TO.P,U1,2,V_{SS}*%
%TO.N,GND*%
X168362500Y-83000000D03*
%TO.P,U1,3,V_{BAT}*%
%TO.N,VBAT*%
X168362500Y-83950000D03*
%TO.P,U1,4,V_{DD}*%
%TO.N,+5V*%
X170637500Y-83950000D03*
%TO.P,U1,5,PROG*%
%TO.N,Net-(U1-PROG)*%
X170637500Y-82050000D03*
%TD*%
D12*
%TO.P,Dig3,1,E*%
%TO.N,E*%
X179120000Y-100500000D03*
%TO.P,Dig3,2,D*%
%TO.N,D*%
X180560000Y-100500000D03*
%TO.P,Dig3,3,CA*%
%TO.N,DIG3*%
X182000000Y-100500000D03*
%TO.P,Dig3,4,C*%
%TO.N,C*%
X183440000Y-100500000D03*
%TO.P,Dig3,5,DP*%
%TO.N,DP*%
X184880000Y-100500000D03*
%TO.P,Dig3,6,B*%
%TO.N,B*%
X184880000Y-90500000D03*
%TO.P,Dig3,7,A*%
%TO.N,A*%
X183440000Y-90500000D03*
%TO.P,Dig3,8,CA*%
%TO.N,DIG3*%
X182000000Y-90500000D03*
%TO.P,Dig3,9,F*%
%TO.N,F*%
X180560000Y-90500000D03*
%TO.P,Dig3,10,G*%
%TO.N,G*%
X179120000Y-90500000D03*
%TD*%
D22*
%TO.P,SW3,1,1*%
%TO.N,GND*%
X166200000Y-83000000D03*
%TO.P,SW3,2,2*%
%TO.N,Btn2*%
X162800000Y-83000000D03*
%TD*%
D19*
%TO.P,R16,1*%
%TO.N,A*%
X190020000Y-118500000D03*
%TO.P,R16,2*%
%TO.N,Net-(U7-PA04)*%
X189000000Y-118500000D03*
%TD*%
%TO.P,R9,1*%
%TO.N,E*%
X190010000Y-113500000D03*
%TO.P,R9,2*%
%TO.N,Net-(U7-PA08)*%
X188990000Y-113500000D03*
%TD*%
D10*
%TO.P,R1,1*%
%TO.N,Net-(U1-PROG)*%
X162990000Y-88000000D03*
%TO.P,R1,2*%
%TO.N,GND*%
X164010000Y-88000000D03*
%TD*%
D31*
%TO.P,D2,1,K*%
%TO.N,D-*%
X176300000Y-103500000D03*
%TO.P,D2,2,A*%
%TO.N,GND*%
X174200000Y-103500000D03*
%TD*%
D32*
%TO.P,R18,2*%
%TO.N,Net-(Q2-B)*%
X168750000Y-106980000D03*
%TO.P,R18,1*%
%TO.N,SEL-D2*%
X168750000Y-108000000D03*
%TD*%
D25*
%TO.P,C_OUT1,1*%
%TO.N,GND*%
X189975000Y-108500000D03*
%TO.P,C_OUT1,2*%
%TO.N,TP_3.3V*%
X191525000Y-108500000D03*
%TD*%
D12*
%TO.P,Dig2,1,E*%
%TO.N,E*%
X170120000Y-100500000D03*
%TO.P,Dig2,2,D*%
%TO.N,D*%
X171560000Y-100500000D03*
%TO.P,Dig2,3,CA*%
%TO.N,DIG2*%
X173000000Y-100500000D03*
%TO.P,Dig2,4,C*%
%TO.N,C*%
X174440000Y-100500000D03*
%TO.P,Dig2,5,DP*%
%TO.N,DP*%
X175880000Y-100500000D03*
%TO.P,Dig2,6,B*%
%TO.N,B*%
X175880000Y-90500000D03*
%TO.P,Dig2,7,A*%
%TO.N,A*%
X174440000Y-90500000D03*
%TO.P,Dig2,8,CA*%
%TO.N,DIG2*%
X173000000Y-90500000D03*
%TO.P,Dig2,9,F*%
%TO.N,F*%
X171560000Y-90500000D03*
%TO.P,Dig2,10,G*%
%TO.N,G*%
X170120000Y-90500000D03*
%TD*%
D10*
%TO.P,R4,1*%
%TO.N,Net-(D3-K)*%
X162990000Y-86500000D03*
%TO.P,R4,2*%
%TO.N,+5V*%
X164010000Y-86500000D03*
%TD*%
D32*
%TO.P,R17,2*%
%TO.N,Net-(Q1-B)*%
X161500000Y-106990000D03*
%TO.P,R17,1*%
%TO.N,SEL-D1*%
X161500000Y-108010000D03*
%TD*%
D33*
%TO.P,D1,1,K*%
%TO.N,D+*%
X169450000Y-87200000D03*
%TO.P,D1,2,A*%
%TO.N,GND*%
X171550000Y-87200000D03*
%TD*%
D19*
%TO.P,R13,1*%
%TO.N,D*%
X190020000Y-114750000D03*
%TO.P,R13,2*%
%TO.N,Net-(U7-PA07)*%
X189000000Y-114750000D03*
%TD*%
D34*
%TO.P,L1,1,1*%
%TO.N,Net-(U2-LX1)*%
X183687500Y-81250000D03*
%TO.P,L1,2,2*%
%TO.N,Net-(U2-LX2)*%
X185812500Y-81250000D03*
%TD*%
D32*
%TO.P,R19,2*%
%TO.N,Net-(Q3-B)*%
X186500000Y-109490000D03*
%TO.P,R19,1*%
%TO.N,SEL-D3*%
X186500000Y-110510000D03*
%TD*%
D25*
%TO.P,C8,1*%
%TO.N,GND*%
X189725000Y-85500000D03*
%TO.P,C8,2*%
%TO.N,VBAT*%
X191275000Y-85500000D03*
%TD*%
D35*
%TO.P,D3,1,K*%
%TO.N,Net-(D3-K)*%
X167485000Y-86500000D03*
%TO.P,D3,2,A*%
%TO.N,Net-(D3-A)*%
X166515000Y-86500000D03*
%TD*%
D32*
%TO.P,R2,1*%
%TO.N,Net-(J1-CC1)*%
X184200000Y-87335000D03*
%TO.P,R2,2*%
%TO.N,GND*%
X184200000Y-86315000D03*
%TD*%
D29*
%TO.P,Q1,1,E*%
%TO.N,TP_3.3V*%
X163312500Y-105050000D03*
%TO.P,Q1,2,B*%
%TO.N,Net-(Q1-B)*%
X163312500Y-106950000D03*
%TO.P,Q1,3,C*%
%TO.N,DIG1*%
X165187500Y-106000000D03*
%TD*%
D36*
%TO.N,TP_RST*%
X163500000Y-112250000D03*
D37*
%TO.N,VBAT*%
X177750000Y-83000000D03*
X182750000Y-83750000D03*
X191275000Y-85500000D03*
%TO.N,TP_3.3V*%
X170562500Y-105050000D03*
X186750000Y-105000000D03*
X187000000Y-82000000D03*
X192500000Y-106000000D03*
X184125000Y-106950000D03*
%TO.N,Net-(U7-VDDANA)*%
X183270000Y-108250000D03*
X178525305Y-116485103D03*
%TO.N,D+*%
X177750000Y-86745000D03*
X177675000Y-97750000D03*
%TO.N,D-*%
X177250000Y-85250000D03*
X177250000Y-86745000D03*
X180750000Y-104500000D03*
X177225000Y-102000000D03*
%TO.N,Net-(J1-CC2)*%
X175750000Y-86745000D03*
X172500000Y-84500000D03*
%TO.N,Net-(U1-PROG)*%
X163000000Y-88000000D03*
X170637500Y-82050000D03*
%TO.N,A*%
X173750000Y-93500000D03*
X171500000Y-93500000D03*
X183000000Y-93500000D03*
X191500000Y-93500000D03*
X180500000Y-93500000D03*
X188000000Y-93500000D03*
%TO.N,SEL-D2*%
X168750000Y-108000000D03*
X178000000Y-112000000D03*
%TO.N,SEL-D1*%
X183250000Y-113500000D03*
X173250000Y-118750000D03*
%TO.N,SEL-D4*%
X181919417Y-109909010D03*
X190750000Y-103750000D03*
%TO.N,B*%
X180000000Y-93000000D03*
X171000000Y-93000000D03*
X187500000Y-93000000D03*
X174250000Y-93000000D03*
X192000000Y-93000000D03*
X184250000Y-93000000D03*
%TO.N,C*%
X194550000Y-109500000D03*
X181500000Y-96500000D03*
X172500000Y-96500000D03*
X190250000Y-98250000D03*
X188500000Y-96500000D03*
X190940000Y-100500000D03*
X183750000Y-96500000D03*
X174750000Y-96500000D03*
%TO.N,D*%
X182000000Y-96000000D03*
X189000000Y-96000000D03*
X190250000Y-96250000D03*
X188060000Y-100500000D03*
X174500000Y-96000000D03*
X172500000Y-96000000D03*
X183500000Y-96000000D03*
X194000000Y-110000000D03*
%TO.N,E*%
X189000000Y-107000000D03*
X193500000Y-110500000D03*
D36*
%TO.N,F*%
X181000000Y-94400000D03*
X188721473Y-94400000D03*
X190509135Y-94490605D03*
X172000000Y-94400000D03*
X183000000Y-94400000D03*
X174000000Y-94400000D03*
D37*
%TO.N,DP*%
X171500000Y-97000000D03*
X188000000Y-97000000D03*
X175000000Y-97000000D03*
X184500000Y-97000000D03*
X180750000Y-97000000D03*
X189568199Y-97568199D03*
%TO.N,Btn2*%
X177125000Y-110250000D03*
X162800000Y-83000000D03*
%TO.N,Btn1*%
X195250000Y-88750000D03*
X192500000Y-110750000D03*
X194250000Y-106750000D03*
X181353732Y-109343324D03*
%TO.N,TP_SWDIO*%
X172514897Y-110474695D03*
%TO.N,TP_SWDCLK*%
X173080583Y-109909010D03*
%TO.N,DIG1*%
X165500000Y-90500000D03*
X167000000Y-97750000D03*
%TO.N,DIG2*%
X173000000Y-100500000D03*
X173000000Y-90500000D03*
%TO.N,DIG3*%
X182000000Y-100500000D03*
X182000000Y-90500000D03*
%TO.N,DIG4*%
X189500000Y-90500000D03*
X189500000Y-100500000D03*
%TO.N,GND*%
X167500000Y-107250000D03*
X161000000Y-89750000D03*
X164750000Y-105000000D03*
X184000000Y-116750000D03*
X187500000Y-110250000D03*
X184250000Y-113500000D03*
X166750000Y-105000000D03*
X164500000Y-108250000D03*
X190000000Y-108500000D03*
%TO.N,TP_RST*%
X175909010Y-107080583D03*
%TD*%
D38*
%TO.N,Net-(R5-Pad1)*%
X162490000Y-112250000D02*
X162490000Y-112790000D01*
X162490000Y-112790000D02*
X164000000Y-114300000D01*
%TO.N,DIG2*%
X173000000Y-100500000D02*
X173000000Y-105437500D01*
X173000000Y-105437500D02*
X172437500Y-106000000D01*
%TO.N,DIG1*%
X165500000Y-100500000D02*
X165500000Y-105687500D01*
X165500000Y-105687500D02*
X165187500Y-106000000D01*
%TO.N,DIG4*%
X189500000Y-100500000D02*
X189500000Y-105575000D01*
X189500000Y-105575000D02*
X189875000Y-105950000D01*
%TO.N,DIG3*%
X182000000Y-100500000D02*
X182000000Y-105750000D01*
X182000000Y-105750000D02*
X182250000Y-106000000D01*
%TO.N,Net-(U2-CFG1)*%
X186500000Y-87000000D02*
X186500000Y-87426886D01*
X186500000Y-87426886D02*
X187323114Y-88250000D01*
X187323114Y-88250000D02*
X188230000Y-88250000D01*
%TO.N,SEL-D2*%
X178000000Y-112000000D02*
X178500000Y-111500000D01*
X178500000Y-111500000D02*
X181445800Y-111500000D01*
X181445800Y-111500000D02*
X182471105Y-112525305D01*
X182471105Y-112525305D02*
X182485103Y-112525305D01*
%TO.N,DP*%
X189760000Y-109750000D02*
X189000000Y-108990000D01*
X189000000Y-108990000D02*
X189000000Y-108370000D01*
X189000000Y-108370000D02*
X184880000Y-104250000D01*
X184880000Y-104250000D02*
X184880000Y-100500000D01*
%TO.N,Net-(U7-PA11)*%
X187900000Y-110590000D02*
X187900000Y-110614610D01*
X188740000Y-109750000D02*
X187900000Y-110590000D01*
X187900000Y-110614610D02*
X184363480Y-114151130D01*
X184363480Y-114151130D02*
X181848186Y-114151130D01*
X181848186Y-114151130D02*
X181353732Y-113656676D01*
%TO.N,VBAT*%
X169050000Y-83950000D02*
X170000000Y-83000000D01*
X184820000Y-85243584D02*
X184750000Y-85173584D01*
X184820000Y-86320000D02*
X184820000Y-85243584D01*
X184901416Y-85173584D02*
X184750000Y-85173584D01*
X185500000Y-87000000D02*
X184820000Y-86320000D01*
X177725000Y-83025000D02*
X177750000Y-83000000D01*
X191275000Y-87000000D02*
X191275000Y-85500000D01*
X170000000Y-83000000D02*
X170025000Y-83025000D01*
X168362500Y-83950000D02*
X169050000Y-83950000D01*
X185500000Y-84575000D02*
X184901416Y-85173584D01*
X170025000Y-83025000D02*
X177725000Y-83025000D01*
%TO.N,Net-(U7-VDDCORE)*%
X173717498Y-108283184D02*
X171716816Y-108283184D01*
X174211953Y-108777639D02*
X173717498Y-108283184D01*
X167710000Y-109250000D02*
X166960000Y-108500000D01*
X170750000Y-109250000D02*
X167710000Y-109250000D01*
X171716816Y-108283184D02*
X170750000Y-109250000D01*
%TO.N,+5V*%
X175500000Y-85750000D02*
X175100000Y-86150000D01*
X167421948Y-87520000D02*
X169250000Y-85691948D01*
X175500000Y-85540406D02*
X173909594Y-83950000D01*
X179152500Y-85347500D02*
X178604999Y-84800000D01*
X169250000Y-85691948D02*
X169250000Y-84675001D01*
X179900000Y-86095001D02*
X179152500Y-85347500D01*
X173909594Y-83950000D02*
X170637500Y-83950000D01*
X178604999Y-84800000D02*
X176450000Y-84800000D01*
X179900000Y-86745000D02*
X179900000Y-86095001D01*
X181250000Y-83250000D02*
X179152500Y-85347500D01*
X165030000Y-87520000D02*
X167421948Y-87520000D01*
X175100000Y-86150000D02*
X175100000Y-86745000D01*
X164010000Y-86500000D02*
X165030000Y-87520000D01*
X169975001Y-83950000D02*
X170637500Y-83950000D01*
X175500000Y-85750000D02*
X175500000Y-85540406D01*
X183270000Y-83250000D02*
X181250000Y-83250000D01*
X169250000Y-84675001D02*
X169975001Y-83950000D01*
X176450000Y-84800000D02*
X175500000Y-85750000D01*
%TO.N,TP_3.3V*%
X165420000Y-109170000D02*
X165420000Y-108143866D01*
X191750000Y-106900000D02*
X191750000Y-106750000D01*
X168513866Y-105050000D02*
X170562500Y-105050000D01*
X191750000Y-106750000D02*
X192500000Y-106000000D01*
X191750000Y-106900000D02*
X189850000Y-106900000D01*
X184230000Y-108250000D02*
X184230000Y-107055000D01*
X189000000Y-107750000D02*
X186750000Y-105500000D01*
X165591381Y-107781933D02*
X165781933Y-107781933D01*
X163312500Y-105050000D02*
X163312500Y-105503052D01*
X165420000Y-108143866D02*
X165781933Y-107781933D01*
X163312500Y-105503052D02*
X165591381Y-107781933D01*
X166000000Y-109750000D02*
X165420000Y-109170000D01*
X189850000Y-106900000D02*
X189000000Y-107750000D01*
X187500000Y-82500000D02*
X187500000Y-84575000D01*
X186750000Y-105500000D02*
X186750000Y-105000000D01*
X165781933Y-107781933D02*
X168513866Y-105050000D01*
X191525000Y-107125000D02*
X191750000Y-106900000D01*
X184230000Y-107055000D02*
X184125000Y-106950000D01*
X191525000Y-108500000D02*
X191525000Y-107125000D01*
X187000000Y-82000000D02*
X187500000Y-82500000D01*
%TO.N,Net-(U7-VDDIN)*%
X171901130Y-108848870D02*
X171000000Y-109750000D01*
X173646268Y-109343324D02*
X173151814Y-108848870D01*
X171000000Y-109750000D02*
X166960000Y-109750000D01*
X173151814Y-108848870D02*
X171901130Y-108848870D01*
%TO.N,A0*%
X169500000Y-112020000D02*
X168980000Y-111500000D01*
X169500000Y-113000000D02*
X169500000Y-112020000D01*
X169974695Y-112525305D02*
X169500000Y-113000000D01*
X172514897Y-112525305D02*
X169974695Y-112525305D01*
%TO.N,A1*%
X169520000Y-115520000D02*
X169500000Y-115500000D01*
X169520000Y-117500000D02*
X169520000Y-115520000D01*
X170671573Y-115500000D02*
X173080583Y-113090990D01*
X169500000Y-115500000D02*
X170671573Y-115500000D01*
D39*
%TO.N,D+*%
X177750000Y-86745000D02*
X177750000Y-87394999D01*
X169950000Y-87700000D02*
X169450000Y-87200000D01*
X177444999Y-87700000D02*
X169950000Y-87700000D01*
D38*
X177675000Y-105664592D02*
X177675000Y-97750000D01*
D39*
X177750000Y-87394999D02*
X177444999Y-87700000D01*
X176750000Y-86095001D02*
X176750000Y-86745000D01*
X177750000Y-86745000D02*
X177750000Y-86097946D01*
X177472054Y-85820000D02*
X177025001Y-85820000D01*
D38*
X178525305Y-106514897D02*
X177675000Y-105664592D01*
D39*
X177750000Y-86097946D02*
X177472054Y-85820000D01*
X177025001Y-85820000D02*
X176750000Y-86095001D01*
%TO.N,D-*%
X177404999Y-85250000D02*
X177250000Y-85250000D01*
X178250000Y-86745000D02*
X178250000Y-86095001D01*
D38*
X180750000Y-105421573D02*
X179090990Y-107080583D01*
D39*
X178250000Y-86095001D02*
X177404999Y-85250000D01*
D38*
X176300000Y-102925000D02*
X177225000Y-102000000D01*
X180750000Y-104500000D02*
X180750000Y-105421573D01*
X176300000Y-103500000D02*
X176300000Y-102925000D01*
%TO.N,Net-(D3-A)*%
X167950000Y-82050000D02*
X168362500Y-82050000D01*
X166515000Y-86500000D02*
X167400000Y-85615000D01*
X167400000Y-82600000D02*
X167950000Y-82050000D01*
X167400000Y-85615000D02*
X167400000Y-82600000D01*
%TO.N,Net-(D3-K)*%
X165620000Y-87120000D02*
X164380000Y-85880000D01*
X163610000Y-85880000D02*
X162990000Y-86500000D01*
X166865000Y-87120000D02*
X165620000Y-87120000D01*
X164380000Y-85880000D02*
X163610000Y-85880000D01*
X167485000Y-86500000D02*
X166865000Y-87120000D01*
%TO.N,Net-(J1-CC2)*%
X171010000Y-85500000D02*
X171500000Y-85500000D01*
X171500000Y-85500000D02*
X172500000Y-84500000D01*
%TO.N,Net-(J1-CC1)*%
X183840000Y-87695000D02*
X179017590Y-87695000D01*
X184200000Y-87335000D02*
X183840000Y-87695000D01*
X178750000Y-87427410D02*
X178750000Y-86745000D01*
X179017590Y-87695000D02*
X178750000Y-87427410D01*
%TO.N,Net-(Q1-B)*%
X161540000Y-106950000D02*
X161500000Y-106990000D01*
X163312500Y-106950000D02*
X161540000Y-106950000D01*
%TO.N,Net-(Q2-B)*%
X170562500Y-106950000D02*
X168780000Y-106950000D01*
X168780000Y-106950000D02*
X168750000Y-106980000D01*
%TO.N,Net-(Q3-B)*%
X185940000Y-106865000D02*
X184125000Y-105050000D01*
X186500000Y-109490000D02*
X185940000Y-108930000D01*
X185940000Y-108930000D02*
X185940000Y-106865000D01*
%TO.N,Net-(Q4-B)*%
X191750000Y-103760000D02*
X191760000Y-103750000D01*
X191750000Y-105000000D02*
X191750000Y-103760000D01*
%TO.N,Net-(U1-PROG)*%
X162990000Y-88000000D02*
X163000000Y-88000000D01*
%TO.N,Net-(U2-LX1)*%
X183687500Y-81401300D02*
X183687500Y-81250000D01*
X186000000Y-83713800D02*
X183687500Y-81401300D01*
X186000000Y-84575000D02*
X186000000Y-83713800D01*
%TO.N,A*%
X190940000Y-92940000D02*
X190940000Y-90500000D01*
X183000000Y-93500000D02*
X188000000Y-93500000D01*
X166940000Y-90500000D02*
X166940000Y-92690000D01*
X191630000Y-88800000D02*
X194200000Y-88800000D01*
X195400000Y-90000000D02*
X195400000Y-114250000D01*
X173750000Y-91190000D02*
X174440000Y-90500000D01*
X191500000Y-93500000D02*
X190940000Y-92940000D01*
X194200000Y-88800000D02*
X195400000Y-90000000D01*
X190940000Y-89490000D02*
X191630000Y-88800000D01*
X191150000Y-118500000D02*
X190020000Y-118500000D01*
X190940000Y-90500000D02*
X190940000Y-89490000D01*
X167750000Y-93500000D02*
X171500000Y-93500000D01*
X183440000Y-93060000D02*
X183440000Y-90500000D01*
X173750000Y-93500000D02*
X180500000Y-93500000D01*
X166940000Y-92690000D02*
X167750000Y-93500000D01*
X183000000Y-93500000D02*
X183440000Y-93060000D01*
X173750000Y-93500000D02*
X173750000Y-91190000D01*
X195400000Y-114250000D02*
X191150000Y-118500000D01*
%TO.N,SEL-D3*%
X186464695Y-110474695D02*
X186500000Y-110510000D01*
X182485103Y-110474695D02*
X186464695Y-110474695D01*
%TO.N,SEL-D1*%
X167500000Y-118250000D02*
X168000000Y-118750000D01*
X165160000Y-111660000D02*
X166250000Y-112750000D01*
X183250000Y-113500000D02*
X183164555Y-113585445D01*
X165150000Y-111660000D02*
X165160000Y-111660000D01*
X168000000Y-118750000D02*
X173250000Y-118750000D01*
X183164555Y-113585445D02*
X182413872Y-113585445D01*
X182413872Y-113585445D02*
X181919417Y-113090990D01*
X166250000Y-112750000D02*
X167500000Y-114000000D01*
X161500000Y-108010000D02*
X165150000Y-111660000D01*
X167500000Y-114000000D02*
X167500000Y-118250000D01*
%TO.N,SEL-D4*%
X190740000Y-103750000D02*
X190750000Y-103750000D01*
%TO.N,B*%
X195000000Y-92750000D02*
X192750000Y-90500000D01*
X184250000Y-93000000D02*
X187500000Y-93000000D01*
X168380000Y-90500000D02*
X168380000Y-91450000D01*
X174250000Y-93000000D02*
X175880000Y-91370000D01*
X184250000Y-93000000D02*
X184880000Y-92370000D01*
X191834314Y-117250000D02*
X195000000Y-114084314D01*
X192380000Y-92620000D02*
X192380000Y-90500000D01*
X174250000Y-93000000D02*
X180000000Y-93000000D01*
X175880000Y-91370000D02*
X175880000Y-90500000D01*
X192000000Y-93000000D02*
X192380000Y-92620000D01*
X190010000Y-117250000D02*
X191834314Y-117250000D01*
X192750000Y-90500000D02*
X192380000Y-90500000D01*
X195000000Y-114084314D02*
X195000000Y-92750000D01*
X169930000Y-93000000D02*
X171000000Y-93000000D01*
X184880000Y-92370000D02*
X184880000Y-90500000D01*
X168380000Y-91450000D02*
X169930000Y-93000000D01*
%TO.N,C*%
X169990000Y-96500000D02*
X172500000Y-96500000D01*
X190500000Y-98500000D02*
X190500000Y-100060000D01*
X183750000Y-96500000D02*
X183750000Y-97000000D01*
X166940000Y-100500000D02*
X166940000Y-99550000D01*
X183440000Y-97310000D02*
X183440000Y-100500000D01*
X194550000Y-111470000D02*
X194550000Y-109500000D01*
X174750000Y-96500000D02*
X174440000Y-96810000D01*
X174440000Y-96810000D02*
X174440000Y-100500000D01*
X190250000Y-98250000D02*
X190500000Y-98500000D01*
X183750000Y-97000000D02*
X183440000Y-97310000D01*
X183750000Y-96500000D02*
X188500000Y-96500000D01*
X166940000Y-99550000D02*
X169990000Y-96500000D01*
X174750000Y-96500000D02*
X181500000Y-96500000D01*
X190020000Y-116000000D02*
X194550000Y-111470000D01*
X190500000Y-100060000D02*
X190940000Y-100500000D01*
%TO.N,D*%
X190020000Y-114750000D02*
X190500000Y-114750000D01*
X183500000Y-96000000D02*
X189000000Y-96000000D01*
X190250000Y-96250000D02*
X188060000Y-98440000D01*
X190500000Y-114750000D02*
X194000000Y-111250000D01*
X167610000Y-96000000D02*
X172500000Y-96000000D01*
X174500000Y-96000000D02*
X182000000Y-96000000D01*
X171560000Y-100500000D02*
X171560000Y-98940000D01*
X180560000Y-100500000D02*
X180560000Y-98940000D01*
X164060000Y-99550000D02*
X167610000Y-96000000D01*
X171560000Y-98940000D02*
X174500000Y-96000000D01*
X188060000Y-98440000D02*
X188060000Y-100500000D01*
X180560000Y-98940000D02*
X183500000Y-96000000D01*
X194000000Y-111250000D02*
X194000000Y-110000000D01*
X164060000Y-100500000D02*
X164060000Y-99550000D01*
%TO.N,E*%
X184250000Y-95500000D02*
X190250000Y-95500000D01*
X179120000Y-99550000D02*
X183170000Y-95500000D01*
X175500000Y-95500000D02*
X184250000Y-95500000D01*
X167000000Y-95500000D02*
X175500000Y-95500000D01*
X166750000Y-95750000D02*
X167000000Y-95500000D01*
X190250000Y-95500000D02*
X186620000Y-99130000D01*
X190500000Y-113500000D02*
X193500000Y-110500000D01*
X166250000Y-95750000D02*
X166750000Y-95750000D01*
X186620000Y-100500000D02*
X186620000Y-104233603D01*
X170120000Y-99550000D02*
X174170000Y-95500000D01*
X186620000Y-104233603D02*
X189000000Y-106613603D01*
X190010000Y-113500000D02*
X190500000Y-113500000D01*
X183170000Y-95500000D02*
X184250000Y-95500000D01*
X162620000Y-99380000D02*
X166250000Y-95750000D01*
X189000000Y-106613603D02*
X189000000Y-107000000D01*
X170120000Y-100500000D02*
X170120000Y-99550000D01*
X186620000Y-99130000D02*
X186620000Y-100500000D01*
X174170000Y-95500000D02*
X175500000Y-95500000D01*
X162620000Y-100500000D02*
X162620000Y-99380000D01*
X179120000Y-100500000D02*
X179120000Y-99550000D01*
%TO.N,F*%
X193530000Y-108999999D02*
X193530000Y-97511470D01*
X171560000Y-91960000D02*
X174000000Y-94400000D01*
X164060000Y-90500000D02*
X164060000Y-91450000D01*
X167010000Y-94400000D02*
X172000000Y-94400000D01*
X190279999Y-112250000D02*
X193530000Y-108999999D01*
X164060000Y-91450000D02*
X167010000Y-94400000D01*
X193530000Y-97511470D02*
X190509135Y-94490605D01*
X190509135Y-94490605D02*
X190509135Y-93899135D01*
X174000000Y-94400000D02*
X181000000Y-94400000D01*
X190010000Y-112250000D02*
X190279999Y-112250000D01*
X190509135Y-93899135D02*
X188060000Y-91450000D01*
X183000000Y-94400000D02*
X188721473Y-94400000D01*
X180560000Y-91960000D02*
X180560000Y-90500000D01*
X183000000Y-94400000D02*
X180560000Y-91960000D01*
X188060000Y-91450000D02*
X188060000Y-90500000D01*
X171560000Y-90500000D02*
X171560000Y-91960000D01*
%TO.N,G*%
X190260605Y-95090605D02*
X190170000Y-95000000D01*
X179120000Y-91450000D02*
X182670000Y-95000000D01*
X184000000Y-95000000D02*
X190170000Y-95000000D01*
X166170000Y-95000000D02*
X174000000Y-95000000D01*
X170120000Y-90500000D02*
X170120000Y-91450000D01*
X174000000Y-95000000D02*
X176000000Y-95000000D01*
X162620000Y-91450000D02*
X166170000Y-95000000D01*
X179120000Y-90500000D02*
X179120000Y-91450000D01*
X162620000Y-90500000D02*
X162620000Y-91450000D01*
X190010000Y-111000000D02*
X190750000Y-111000000D01*
X190406290Y-95090605D02*
X190260605Y-95090605D01*
X176000000Y-95000000D02*
X184000000Y-95000000D01*
X182670000Y-95000000D02*
X184000000Y-95000000D01*
X170120000Y-91450000D02*
X173670000Y-95000000D01*
X193130000Y-108620000D02*
X193130000Y-97814315D01*
X173670000Y-95000000D02*
X174000000Y-95000000D01*
X190750000Y-111000000D02*
X193130000Y-108620000D01*
X186620000Y-91450000D02*
X186620000Y-90500000D01*
X193130000Y-97814315D02*
X190406290Y-95090605D01*
X190170000Y-95000000D02*
X186620000Y-91450000D01*
%TO.N,DP*%
X192380000Y-99550000D02*
X192380000Y-100500000D01*
X184500000Y-97000000D02*
X188000000Y-97000000D01*
X175000000Y-97000000D02*
X175880000Y-97880000D01*
X190398199Y-97568199D02*
X192380000Y-99550000D01*
X184500000Y-97250000D02*
X184880000Y-97630000D01*
X175880000Y-97880000D02*
X175880000Y-100500000D01*
X184880000Y-97630000D02*
X184880000Y-100500000D01*
X184500000Y-97000000D02*
X184500000Y-97250000D01*
X168380000Y-99550000D02*
X170930000Y-97000000D01*
X175000000Y-97000000D02*
X180750000Y-97000000D01*
X189568199Y-97568199D02*
X190398199Y-97568199D01*
X168380000Y-100500000D02*
X168380000Y-99550000D01*
X170930000Y-97000000D02*
X171500000Y-97000000D01*
%TO.N,Btn2*%
X177125000Y-110250000D02*
X179315686Y-110250000D01*
X179315686Y-110250000D02*
X180788047Y-108777639D01*
%TO.N,Btn1*%
X192500000Y-110750000D02*
X194250000Y-109000000D01*
X192200000Y-83000000D02*
X192200000Y-85700000D01*
X192200000Y-85700000D02*
X195250000Y-88750000D01*
X194250000Y-109000000D02*
X194250000Y-106750000D01*
%TO.N,Net-(U2-LX2)*%
X185812500Y-81250000D02*
X185812500Y-82960614D01*
X185812500Y-82960614D02*
X187000000Y-84148114D01*
X187000000Y-84148114D02*
X187000000Y-84575000D01*
%TO.N,DIG1*%
X165500000Y-99250000D02*
X167000000Y-97750000D01*
X165500000Y-100500000D02*
X165500000Y-99250000D01*
D39*
%TO.N,GND*%
X173820000Y-86745000D02*
X173180000Y-86105000D01*
D38*
X181180000Y-86745000D02*
X181820000Y-86105000D01*
X184448924Y-113500000D02*
X184250000Y-113500000D01*
D39*
X172085000Y-87200000D02*
X173180000Y-86105000D01*
D38*
X187500000Y-110250000D02*
X187500000Y-110448924D01*
D39*
X174300000Y-86745000D02*
X173820000Y-86745000D01*
D38*
X187500000Y-110448924D02*
X184448924Y-113500000D01*
D39*
X171550000Y-87200000D02*
X172085000Y-87200000D01*
D38*
X180700000Y-86745000D02*
X181180000Y-86745000D01*
X189975000Y-108500000D02*
X190000000Y-108500000D01*
%TO.N,Net-(R5-Pad1)*%
X164000000Y-114300000D02*
X164000000Y-114250000D01*
%TO.N,Net-(U7-PA10)*%
X185273184Y-114716816D02*
X181282502Y-114716816D01*
X188990000Y-111000000D02*
X185273184Y-114716816D01*
X181282502Y-114716816D02*
X180788047Y-114222361D01*
%TO.N,Net-(U7-PA09)*%
X185957499Y-115282501D02*
X180716815Y-115282501D01*
X188990000Y-112250000D02*
X185957499Y-115282501D01*
X180716815Y-115282501D02*
X180222361Y-114788047D01*
%TO.N,Net-(U7-PA08)*%
X188990000Y-113500000D02*
X186641813Y-115848187D01*
X180151131Y-115848187D02*
X179656676Y-115353732D01*
X186641813Y-115848187D02*
X180151131Y-115848187D01*
%TO.N,Net-(U7-PA07)*%
X177534835Y-117545243D02*
X176474695Y-116485103D01*
X186204757Y-117545243D02*
X177534835Y-117545243D01*
X189000000Y-114750000D02*
X186204757Y-117545243D01*
%TO.N,Net-(U7-PA06)*%
X175250000Y-116578427D02*
X175909010Y-115919417D01*
X189000000Y-116000000D02*
X186900000Y-118100000D01*
X186900000Y-118100000D02*
X175850000Y-118100000D01*
X175250000Y-117500000D02*
X175250000Y-116578427D01*
X175850000Y-118100000D02*
X175250000Y-117500000D01*
%TO.N,Net-(U7-PA05)*%
X174848870Y-117664556D02*
X175684314Y-118500000D01*
X175343324Y-115353732D02*
X174848870Y-115848186D01*
X175684314Y-118500000D02*
X187740000Y-118500000D01*
X187740000Y-118500000D02*
X188990000Y-117250000D01*
X174848870Y-115848186D02*
X174848870Y-117664556D01*
%TO.N,Net-(U7-PA04)*%
X187905686Y-118900000D02*
X175518629Y-118900000D01*
X175518629Y-118900000D02*
X174283184Y-117664555D01*
X174283184Y-115282502D02*
X174777639Y-114788047D01*
X189000000Y-118500000D02*
X188305686Y-118500000D01*
X174283184Y-117664555D02*
X174283184Y-115282502D01*
X188305686Y-118500000D02*
X187905686Y-118900000D01*
%TO.N,VBAT*%
X184750000Y-85173584D02*
X184173584Y-85173584D01*
X184173584Y-85173584D02*
X182750000Y-83750000D01*
%TD*%
%TA.AperFunction,Conductor*%
%TO.N,GND*%
G36*
X183050537Y-80520185D02*
G01*
X183096292Y-80572989D01*
X183106236Y-80642147D01*
X183093983Y-80680795D01*
X183065047Y-80737582D01*
X183049500Y-80835748D01*
X183049500Y-81664251D01*
X183065047Y-81762417D01*
X183065049Y-81762420D01*
X183125342Y-81880751D01*
X183125344Y-81880753D01*
X183125346Y-81880756D01*
X183219243Y-81974653D01*
X183219245Y-81974654D01*
X183219249Y-81974658D01*
X183337580Y-82034951D01*
X183337581Y-82034951D01*
X183337583Y-82034952D01*
X183337582Y-82034952D01*
X183435749Y-82050500D01*
X183435754Y-82050500D01*
X183860367Y-82050500D01*
X183927406Y-82070185D01*
X183948048Y-82086819D01*
X185611548Y-83750319D01*
X185645033Y-83811642D01*
X185640049Y-83881334D01*
X185598177Y-83937267D01*
X185532713Y-83961684D01*
X185523868Y-83962000D01*
X185411601Y-83962000D01*
X185334881Y-83977260D01*
X185334879Y-83977261D01*
X185247888Y-84035388D01*
X185189760Y-84122383D01*
X185189758Y-84122387D01*
X185174500Y-84199094D01*
X185174500Y-84424166D01*
X185154815Y-84491205D01*
X185138181Y-84511847D01*
X184813264Y-84836765D01*
X184751941Y-84870250D01*
X184725583Y-84873084D01*
X184349417Y-84873084D01*
X184282378Y-84853399D01*
X184261736Y-84836765D01*
X183394032Y-83969061D01*
X183360547Y-83907738D01*
X183365531Y-83838046D01*
X183407403Y-83782113D01*
X183465528Y-83758441D01*
X183499487Y-83753972D01*
X183608316Y-83703224D01*
X183693224Y-83618316D01*
X183743972Y-83509487D01*
X183750500Y-83459901D01*
X183750499Y-83040100D01*
X183743972Y-82990513D01*
X183693224Y-82881684D01*
X183608316Y-82796776D01*
X183499487Y-82746028D01*
X183499485Y-82746027D01*
X183499486Y-82746027D01*
X183449902Y-82739500D01*
X183090105Y-82739500D01*
X183074386Y-82741569D01*
X183040513Y-82746028D01*
X183040511Y-82746029D01*
X183040509Y-82746029D01*
X182931683Y-82796776D01*
X182846775Y-82881684D01*
X182840553Y-82890571D01*
X182838594Y-82889199D01*
X182802360Y-82930348D01*
X182736156Y-82949500D01*
X181210438Y-82949500D01*
X181172224Y-82959739D01*
X181134009Y-82969979D01*
X181110300Y-82983668D01*
X181098445Y-82990513D01*
X181088653Y-82996166D01*
X181065489Y-83009539D01*
X179240180Y-84834848D01*
X179178857Y-84868333D01*
X179109165Y-84863349D01*
X179064818Y-84834848D01*
X178789510Y-84559540D01*
X178788598Y-84559014D01*
X178788595Y-84559012D01*
X178720988Y-84519979D01*
X178644561Y-84499500D01*
X176410438Y-84499500D01*
X176359486Y-84513152D01*
X176334010Y-84519979D01*
X176295421Y-84542258D01*
X176266404Y-84559012D01*
X176266401Y-84559014D01*
X176265488Y-84559540D01*
X175692478Y-85132551D01*
X175631155Y-85166036D01*
X175561463Y-85161052D01*
X175517116Y-85132551D01*
X174094106Y-83709541D01*
X174094105Y-83709540D01*
X174075168Y-83698607D01*
X174075168Y-83698605D01*
X174075165Y-83698605D01*
X174025588Y-83669981D01*
X174025585Y-83669979D01*
X173987369Y-83659739D01*
X173949156Y-83649500D01*
X173949154Y-83649500D01*
X171542997Y-83649500D01*
X171475958Y-83629815D01*
X171442077Y-83597550D01*
X171439194Y-83593512D01*
X171382863Y-83537181D01*
X171349378Y-83475858D01*
X171354362Y-83406166D01*
X171396234Y-83350233D01*
X171461698Y-83325816D01*
X171470544Y-83325500D01*
X177587018Y-83325500D01*
X177630581Y-83335958D01*
X177631060Y-83334485D01*
X177640341Y-83337501D01*
X177749998Y-83354869D01*
X177750000Y-83354869D01*
X177750002Y-83354869D01*
X177859658Y-83337501D01*
X177859659Y-83337500D01*
X177859661Y-83337500D01*
X177958587Y-83287095D01*
X178037095Y-83208587D01*
X178087500Y-83109661D01*
X178087500Y-83109659D01*
X178087501Y-83109658D01*
X178104869Y-83000002D01*
X178104869Y-82999997D01*
X178087501Y-82890341D01*
X178059886Y-82836143D01*
X178037095Y-82791413D01*
X178037092Y-82791410D01*
X178037090Y-82791407D01*
X177958592Y-82712909D01*
X177958588Y-82712906D01*
X177958587Y-82712905D01*
X177950519Y-82708794D01*
X177859658Y-82662498D01*
X177750002Y-82645131D01*
X177749998Y-82645131D01*
X177640343Y-82662498D01*
X177640339Y-82662499D01*
X177640339Y-82662500D01*
X177545179Y-82710985D01*
X177488888Y-82724500D01*
X171411145Y-82724500D01*
X171344106Y-82704815D01*
X171298351Y-82652011D01*
X171288407Y-82582853D01*
X171317432Y-82519297D01*
X171348361Y-82495502D01*
X171348122Y-82495168D01*
X171356484Y-82489197D01*
X171439196Y-82406485D01*
X171439198Y-82406483D01*
X171490573Y-82301393D01*
X171500500Y-82233260D01*
X171500500Y-81866740D01*
X171490573Y-81798607D01*
X171439198Y-81693517D01*
X171439196Y-81693515D01*
X171439196Y-81693514D01*
X171356485Y-81610803D01*
X171251391Y-81559426D01*
X171183261Y-81549500D01*
X171183260Y-81549500D01*
X170091740Y-81549500D01*
X170091739Y-81549500D01*
X170023608Y-81559426D01*
X169918514Y-81610803D01*
X169835803Y-81693514D01*
X169784426Y-81798608D01*
X169774500Y-81866739D01*
X169774500Y-82233260D01*
X169784426Y-82301391D01*
X169835803Y-82406485D01*
X169918515Y-82489197D01*
X169926878Y-82495168D01*
X169925271Y-82497417D01*
X169965275Y-82533962D01*
X169983194Y-82601494D01*
X169961758Y-82667994D01*
X169907772Y-82712349D01*
X169891339Y-82718014D01*
X169884022Y-82719974D01*
X169884011Y-82719979D01*
X169815489Y-82759539D01*
X169815487Y-82759541D01*
X169132495Y-83442532D01*
X169071172Y-83476017D01*
X169001480Y-83471033D01*
X168990355Y-83466252D01*
X168976393Y-83459426D01*
X168908261Y-83449500D01*
X168908260Y-83449500D01*
X167824500Y-83449500D01*
X167757461Y-83429815D01*
X167711706Y-83377011D01*
X167700500Y-83325500D01*
X167700500Y-82775833D01*
X167720185Y-82708794D01*
X167736819Y-82688152D01*
X167838152Y-82586819D01*
X167899475Y-82553334D01*
X167925833Y-82550500D01*
X168908261Y-82550500D01*
X168930971Y-82547191D01*
X168976393Y-82540573D01*
X169081483Y-82489198D01*
X169164198Y-82406483D01*
X169215573Y-82301393D01*
X169225500Y-82233260D01*
X169225500Y-81866740D01*
X169215573Y-81798607D01*
X169164198Y-81693517D01*
X169164196Y-81693515D01*
X169164196Y-81693514D01*
X169081485Y-81610803D01*
X168976391Y-81559426D01*
X168908261Y-81549500D01*
X168908260Y-81549500D01*
X167816740Y-81549500D01*
X167816739Y-81549500D01*
X167748608Y-81559426D01*
X167643514Y-81610803D01*
X167560803Y-81693514D01*
X167509426Y-81798608D01*
X167499500Y-81866739D01*
X167499500Y-82024167D01*
X167479815Y-82091206D01*
X167463181Y-82111848D01*
X167159541Y-82415487D01*
X167159535Y-82415495D01*
X167119982Y-82484004D01*
X167119979Y-82484009D01*
X167099500Y-82560439D01*
X167099500Y-85439167D01*
X167079815Y-85506206D01*
X167063181Y-85526848D01*
X166646848Y-85943181D01*
X166585525Y-85976666D01*
X166559167Y-85979500D01*
X166334472Y-85979500D01*
X166290325Y-85985932D01*
X166266828Y-85989355D01*
X166162486Y-86040365D01*
X166080365Y-86122486D01*
X166029355Y-86226828D01*
X166029355Y-86226829D01*
X166029355Y-86226830D01*
X166019500Y-86294472D01*
X166019500Y-86294477D01*
X166019500Y-86695500D01*
X165999815Y-86762539D01*
X165947011Y-86808294D01*
X165895500Y-86819500D01*
X165795833Y-86819500D01*
X165728794Y-86799815D01*
X165708152Y-86783181D01*
X164564512Y-85639541D01*
X164564507Y-85639537D01*
X164539204Y-85624929D01*
X164523719Y-85615989D01*
X164523717Y-85615987D01*
X164523717Y-85615988D01*
X164523715Y-85615987D01*
X164516547Y-85611848D01*
X164495990Y-85599979D01*
X164495991Y-85599979D01*
X164451138Y-85587961D01*
X164419562Y-85579500D01*
X163570438Y-85579500D01*
X163538862Y-85587961D01*
X163494009Y-85599979D01*
X163473453Y-85611848D01*
X163466281Y-85615989D01*
X163454161Y-85622986D01*
X163425489Y-85639539D01*
X163425487Y-85639541D01*
X163121848Y-85943181D01*
X163060525Y-85976666D01*
X163034167Y-85979500D01*
X162815683Y-85979500D01*
X162766828Y-85985931D01*
X162659595Y-86035935D01*
X162575935Y-86119595D01*
X162525931Y-86226828D01*
X162519500Y-86275683D01*
X162519500Y-86724316D01*
X162525931Y-86773171D01*
X162568519Y-86864500D01*
X162575935Y-86880404D01*
X162659596Y-86964065D01*
X162766827Y-87014068D01*
X162815683Y-87020500D01*
X162815684Y-87020500D01*
X163164317Y-87020500D01*
X163180601Y-87018356D01*
X163213173Y-87014068D01*
X163320404Y-86964065D01*
X163404065Y-86880404D01*
X163404065Y-86880403D01*
X163411736Y-86872733D01*
X163414564Y-86875561D01*
X163452977Y-86844843D01*
X163522474Y-86837635D01*
X163584835Y-86869143D01*
X163588093Y-86872903D01*
X163588264Y-86872733D01*
X163595935Y-86880404D01*
X163679596Y-86964065D01*
X163786827Y-87014068D01*
X163835683Y-87020500D01*
X163835684Y-87020500D01*
X164054167Y-87020500D01*
X164121206Y-87040185D01*
X164141848Y-87056819D01*
X164789540Y-87704511D01*
X164845489Y-87760460D01*
X164845491Y-87760461D01*
X164845495Y-87760464D01*
X164909601Y-87797475D01*
X164914011Y-87800021D01*
X164990438Y-87820500D01*
X164990440Y-87820500D01*
X167461508Y-87820500D01*
X167461510Y-87820500D01*
X167537937Y-87800021D01*
X167606459Y-87760460D01*
X167662408Y-87704511D01*
X169490460Y-85876459D01*
X169496505Y-85865988D01*
X169530021Y-85807937D01*
X169550500Y-85731510D01*
X169550500Y-84850833D01*
X169570185Y-84783794D01*
X169586815Y-84763156D01*
X169884297Y-84465673D01*
X169945618Y-84432190D01*
X170015309Y-84437174D01*
X170022219Y-84440143D01*
X170023605Y-84440572D01*
X170023607Y-84440573D01*
X170023608Y-84440573D01*
X170023611Y-84440574D01*
X170091739Y-84450500D01*
X170091740Y-84450500D01*
X171183261Y-84450500D01*
X171205971Y-84447191D01*
X171251393Y-84440573D01*
X171356483Y-84389198D01*
X171439198Y-84306483D01*
X171439200Y-84306477D01*
X171442077Y-84302450D01*
X171497051Y-84259326D01*
X171542997Y-84250500D01*
X172025166Y-84250500D01*
X172092205Y-84270185D01*
X172137960Y-84322989D01*
X172147904Y-84392147D01*
X172118879Y-84455703D01*
X172112847Y-84462181D01*
X171527429Y-85047598D01*
X171466106Y-85081083D01*
X171396414Y-85076099D01*
X171352067Y-85047598D01*
X171340404Y-85035935D01*
X171326604Y-85029500D01*
X171233173Y-84985932D01*
X171233171Y-84985931D01*
X171233172Y-84985931D01*
X171184317Y-84979500D01*
X171184316Y-84979500D01*
X170835684Y-84979500D01*
X170835683Y-84979500D01*
X170786828Y-84985931D01*
X170679595Y-85035935D01*
X170595935Y-85119595D01*
X170545931Y-85226828D01*
X170539500Y-85275683D01*
X170539500Y-85724316D01*
X170545931Y-85773171D01*
X170562142Y-85807936D01*
X170595935Y-85880404D01*
X170679596Y-85964065D01*
X170786827Y-86014068D01*
X170835683Y-86020500D01*
X170835684Y-86020500D01*
X171184317Y-86020500D01*
X171200601Y-86018356D01*
X171233173Y-86014068D01*
X171340404Y-85964065D01*
X171424065Y-85880404D01*
X171427939Y-85872095D01*
X171474110Y-85819657D01*
X171531692Y-85802996D01*
X171531503Y-85801561D01*
X171539559Y-85800500D01*
X171539562Y-85800500D01*
X171615989Y-85780021D01*
X171684511Y-85740460D01*
X171740460Y-85684511D01*
X172555740Y-84869229D01*
X172605103Y-84838980D01*
X172609648Y-84837501D01*
X172609661Y-84837500D01*
X172708587Y-84787095D01*
X172787095Y-84708587D01*
X172837500Y-84609661D01*
X172837500Y-84609659D01*
X172837501Y-84609658D01*
X172854869Y-84500002D01*
X172854869Y-84499998D01*
X172838064Y-84393898D01*
X172847018Y-84324605D01*
X172892014Y-84271153D01*
X172958766Y-84250513D01*
X172960537Y-84250500D01*
X173733761Y-84250500D01*
X173800800Y-84270185D01*
X173821442Y-84286819D01*
X174410203Y-84875580D01*
X174443688Y-84936903D01*
X174438704Y-85006595D01*
X174396832Y-85062528D01*
X174384523Y-85070648D01*
X174256635Y-85144485D01*
X174256632Y-85144487D01*
X174149487Y-85251632D01*
X174149485Y-85251635D01*
X174073719Y-85382863D01*
X174044871Y-85490529D01*
X174034500Y-85529234D01*
X174034500Y-85680766D01*
X174038764Y-85696680D01*
X174073719Y-85827136D01*
X174106845Y-85884511D01*
X174149485Y-85958365D01*
X174256635Y-86065515D01*
X174387865Y-86141281D01*
X174507594Y-86173362D01*
X174567254Y-86209726D01*
X174597783Y-86272572D01*
X174599500Y-86293136D01*
X174599500Y-87278261D01*
X174600136Y-87282628D01*
X174590320Y-87351805D01*
X174544661Y-87404692D01*
X174477658Y-87424500D01*
X170115479Y-87424500D01*
X170048440Y-87404815D01*
X170027798Y-87388181D01*
X169986818Y-87347201D01*
X169953333Y-87285878D01*
X169950499Y-87259520D01*
X169950499Y-87050819D01*
X169944499Y-87005243D01*
X169944499Y-87005240D01*
X169897850Y-86905201D01*
X169819799Y-86827150D01*
X169719760Y-86780501D01*
X169719758Y-86780500D01*
X169674188Y-86774501D01*
X169674185Y-86774500D01*
X169674179Y-86774500D01*
X169674172Y-86774500D01*
X169225819Y-86774500D01*
X169180243Y-86780500D01*
X169180236Y-86780502D01*
X169080200Y-86827150D01*
X169002150Y-86905200D01*
X168955500Y-87005241D01*
X168949501Y-87050811D01*
X168949500Y-87050827D01*
X168949500Y-87349180D01*
X168955500Y-87394756D01*
X168955502Y-87394763D01*
X168987487Y-87463354D01*
X169002150Y-87494799D01*
X169080201Y-87572850D01*
X169180240Y-87619499D01*
X169225821Y-87625500D01*
X169434520Y-87625499D01*
X169501560Y-87645183D01*
X169522202Y-87661818D01*
X169793944Y-87933560D01*
X169872257Y-87965997D01*
X169895200Y-87975500D01*
X169895202Y-87975500D01*
X177499798Y-87975500D01*
X177499799Y-87975500D01*
X177601057Y-87933557D01*
X177678556Y-87856058D01*
X177678555Y-87856058D01*
X177929437Y-87605177D01*
X177990760Y-87571694D01*
X178060451Y-87576678D01*
X178064575Y-87578301D01*
X178067502Y-87579513D01*
X178067505Y-87579515D01*
X178067508Y-87579515D01*
X178067509Y-87579516D01*
X178094533Y-87584891D01*
X178147867Y-87595500D01*
X178352132Y-87595499D01*
X178404721Y-87585039D01*
X178474313Y-87591266D01*
X178516593Y-87618975D01*
X178658077Y-87760458D01*
X178777130Y-87879511D01*
X178833079Y-87935460D01*
X178833081Y-87935461D01*
X178833085Y-87935464D01*
X178901594Y-87975017D01*
X178901601Y-87975021D01*
X178978028Y-87995500D01*
X178978030Y-87995500D01*
X183879560Y-87995500D01*
X183879562Y-87995500D01*
X183955989Y-87975021D01*
X184024511Y-87935460D01*
X184080460Y-87879511D01*
X184118152Y-87841819D01*
X184179475Y-87808334D01*
X184205833Y-87805500D01*
X184424317Y-87805500D01*
X184440601Y-87803356D01*
X184473173Y-87799068D01*
X184580404Y-87749065D01*
X184664065Y-87665404D01*
X184714068Y-87558173D01*
X184720500Y-87509316D01*
X184720500Y-87160684D01*
X184714068Y-87111827D01*
X184664065Y-87004596D01*
X184580404Y-86920935D01*
X184473173Y-86870932D01*
X184473171Y-86870931D01*
X184473172Y-86870931D01*
X184424317Y-86864500D01*
X184424316Y-86864500D01*
X183975684Y-86864500D01*
X183975683Y-86864500D01*
X183926828Y-86870931D01*
X183819595Y-86920935D01*
X183735935Y-87004595D01*
X183685931Y-87111828D01*
X183679500Y-87160683D01*
X183679500Y-87270500D01*
X183659815Y-87337539D01*
X183607011Y-87383294D01*
X183555500Y-87394500D01*
X180524500Y-87394500D01*
X180457461Y-87374815D01*
X180411706Y-87322011D01*
X180400500Y-87270500D01*
X180400500Y-86293136D01*
X180420185Y-86226097D01*
X180472989Y-86180342D01*
X180492399Y-86173363D01*
X180612135Y-86141281D01*
X180743365Y-86065515D01*
X180850515Y-85958365D01*
X180926281Y-85827135D01*
X180965500Y-85680766D01*
X180965500Y-85529234D01*
X180926281Y-85382865D01*
X180924321Y-85379471D01*
X180885471Y-85312181D01*
X180850515Y-85251635D01*
X180743365Y-85144485D01*
X180672090Y-85103334D01*
X180612136Y-85068719D01*
X180533309Y-85047598D01*
X180465766Y-85029500D01*
X180314234Y-85029500D01*
X180189196Y-85063003D01*
X180119346Y-85061340D01*
X180061483Y-85022177D01*
X180033980Y-84957948D01*
X180045567Y-84889046D01*
X180069418Y-84855551D01*
X181338152Y-83586819D01*
X181399475Y-83553334D01*
X181425833Y-83550500D01*
X182281543Y-83550500D01*
X182348582Y-83570185D01*
X182394337Y-83622989D01*
X182404281Y-83692147D01*
X182404016Y-83693897D01*
X182395131Y-83749996D01*
X182395131Y-83750002D01*
X182412498Y-83859658D01*
X182462904Y-83958585D01*
X182462909Y-83958592D01*
X182541407Y-84037090D01*
X182541410Y-84037092D01*
X182541413Y-84037095D01*
X182640339Y-84087500D01*
X182640340Y-84087500D01*
X182644900Y-84088982D01*
X182694260Y-84119231D01*
X183933124Y-85358095D01*
X183989073Y-85414044D01*
X183989075Y-85414045D01*
X183989079Y-85414048D01*
X184057588Y-85453601D01*
X184057595Y-85453605D01*
X184134022Y-85474084D01*
X184213146Y-85474084D01*
X184395500Y-85474084D01*
X184462539Y-85493769D01*
X184508294Y-85546573D01*
X184519500Y-85598084D01*
X184519500Y-86359562D01*
X184527817Y-86390600D01*
X184539979Y-86435990D01*
X184554066Y-86460388D01*
X184575073Y-86496773D01*
X184575075Y-86496781D01*
X184575077Y-86496781D01*
X184579537Y-86504507D01*
X184579540Y-86504511D01*
X185138181Y-87063152D01*
X185171666Y-87124475D01*
X185174500Y-87150832D01*
X185174500Y-87375898D01*
X185189760Y-87452618D01*
X185189761Y-87452620D01*
X185212020Y-87485932D01*
X185247888Y-87539612D01*
X185334883Y-87597740D01*
X185334886Y-87597740D01*
X185334887Y-87597741D01*
X185338834Y-87598526D01*
X185411599Y-87613000D01*
X185588400Y-87612999D01*
X185665117Y-87597740D01*
X185752112Y-87539612D01*
X185810240Y-87452617D01*
X185825500Y-87375901D01*
X185825499Y-86624100D01*
X185810240Y-86547383D01*
X185810239Y-86547381D01*
X185810238Y-86547379D01*
X185776423Y-86496772D01*
X185752112Y-86460388D01*
X185665117Y-86402260D01*
X185665115Y-86402259D01*
X185665112Y-86402258D01*
X185588404Y-86387000D01*
X185411599Y-86387000D01*
X185411598Y-86387001D01*
X185393503Y-86390600D01*
X185323912Y-86384371D01*
X185281634Y-86356663D01*
X185156819Y-86231848D01*
X185123334Y-86170525D01*
X185120500Y-86144167D01*
X185120500Y-85430832D01*
X185140185Y-85363793D01*
X185156810Y-85343160D01*
X185281635Y-85218334D01*
X185342954Y-85184852D01*
X185393506Y-85184401D01*
X185411599Y-85188000D01*
X185588400Y-85187999D01*
X185665117Y-85172740D01*
X185681107Y-85162055D01*
X185747783Y-85141176D01*
X185815164Y-85159659D01*
X185818871Y-85162041D01*
X185824850Y-85166036D01*
X185834883Y-85172740D01*
X185834887Y-85172741D01*
X185873241Y-85180370D01*
X185911599Y-85188000D01*
X186088400Y-85187999D01*
X186165117Y-85172740D01*
X186252112Y-85114612D01*
X186310240Y-85027617D01*
X186325500Y-84950901D01*
X186325499Y-84199100D01*
X186325499Y-84199099D01*
X186325499Y-84197946D01*
X186345183Y-84130907D01*
X186397987Y-84085152D01*
X186467146Y-84075208D01*
X186530702Y-84104233D01*
X186537180Y-84110265D01*
X186638181Y-84211266D01*
X186671666Y-84272589D01*
X186674500Y-84298947D01*
X186674500Y-84950897D01*
X186689760Y-85027618D01*
X186689761Y-85027620D01*
X186724668Y-85079861D01*
X186747888Y-85114612D01*
X186834883Y-85172740D01*
X186834886Y-85172740D01*
X186834887Y-85172741D01*
X186873241Y-85180370D01*
X186911599Y-85188000D01*
X187088400Y-85187999D01*
X187165117Y-85172740D01*
X187181107Y-85162055D01*
X187247783Y-85141176D01*
X187315164Y-85159659D01*
X187318871Y-85162041D01*
X187324850Y-85166036D01*
X187334883Y-85172740D01*
X187334887Y-85172741D01*
X187373241Y-85180370D01*
X187411599Y-85188000D01*
X187588400Y-85187999D01*
X187665117Y-85172740D01*
X187752112Y-85114612D01*
X187810240Y-85027617D01*
X187825500Y-84950901D01*
X187825499Y-84199100D01*
X187810240Y-84122383D01*
X187810238Y-84122380D01*
X187810238Y-84122379D01*
X187809937Y-84121651D01*
X187800500Y-84074203D01*
X187800500Y-82460440D01*
X187800500Y-82460438D01*
X187788456Y-82415489D01*
X187780022Y-82384012D01*
X187740460Y-82315489D01*
X187369231Y-81944260D01*
X187338982Y-81894900D01*
X187337500Y-81890340D01*
X187337500Y-81890339D01*
X187287095Y-81791413D01*
X187287092Y-81791410D01*
X187287090Y-81791407D01*
X187208592Y-81712909D01*
X187208588Y-81712906D01*
X187208587Y-81712905D01*
X187113098Y-81664251D01*
X187109658Y-81662498D01*
X187000002Y-81645131D01*
X186999998Y-81645131D01*
X186890341Y-81662498D01*
X186791414Y-81712904D01*
X186791407Y-81712909D01*
X186712909Y-81791407D01*
X186712904Y-81791414D01*
X186662498Y-81890341D01*
X186645131Y-81999997D01*
X186645131Y-82000002D01*
X186662498Y-82109658D01*
X186712904Y-82208585D01*
X186712909Y-82208592D01*
X186791407Y-82287090D01*
X186791410Y-82287092D01*
X186791413Y-82287095D01*
X186890339Y-82337500D01*
X186890340Y-82337500D01*
X186894900Y-82338982D01*
X186944260Y-82369231D01*
X187163181Y-82588152D01*
X187196666Y-82649475D01*
X187199500Y-82675833D01*
X187199500Y-83623281D01*
X187179815Y-83690320D01*
X187127011Y-83736075D01*
X187057853Y-83746019D01*
X186994297Y-83716994D01*
X186987819Y-83710962D01*
X186149319Y-82872462D01*
X186115834Y-82811139D01*
X186113000Y-82784781D01*
X186113000Y-82136118D01*
X186132685Y-82069079D01*
X186180701Y-82025635D01*
X186280751Y-81974658D01*
X186374658Y-81880751D01*
X186434951Y-81762420D01*
X186434951Y-81762418D01*
X186434952Y-81762417D01*
X186450500Y-81664251D01*
X186450500Y-80835748D01*
X186434952Y-80737582D01*
X186406017Y-80680795D01*
X186393121Y-80612126D01*
X186419397Y-80547386D01*
X186476503Y-80507128D01*
X186516502Y-80500500D01*
X192934108Y-80500500D01*
X192996249Y-80500500D01*
X193003736Y-80500726D01*
X193293796Y-80518271D01*
X193308657Y-80520075D01*
X193590798Y-80571780D01*
X193605335Y-80575363D01*
X193879172Y-80660695D01*
X193893163Y-80666000D01*
X194154743Y-80783727D01*
X194167989Y-80790680D01*
X194413465Y-80939075D01*
X194425776Y-80947573D01*
X194651573Y-81124473D01*
X194662781Y-81134403D01*
X194865596Y-81337218D01*
X194875526Y-81348426D01*
X194995481Y-81501538D01*
X195052422Y-81574217D01*
X195060926Y-81586537D01*
X195189127Y-81798607D01*
X195209316Y-81832004D01*
X195216275Y-81845263D01*
X195333997Y-82106831D01*
X195339306Y-82120832D01*
X195424635Y-82394663D01*
X195428219Y-82409201D01*
X195479923Y-82691340D01*
X195481728Y-82706205D01*
X195499274Y-82996263D01*
X195499500Y-83003750D01*
X195499500Y-88275167D01*
X195479815Y-88342206D01*
X195427011Y-88387961D01*
X195357853Y-88397905D01*
X195294297Y-88368880D01*
X195287819Y-88362848D01*
X192536819Y-85611848D01*
X192503334Y-85550525D01*
X192500500Y-85524167D01*
X192500500Y-84174500D01*
X192520185Y-84107461D01*
X192572989Y-84061706D01*
X192624500Y-84050500D01*
X192669750Y-84050500D01*
X192669751Y-84050499D01*
X192684568Y-84047552D01*
X192728229Y-84038868D01*
X192728229Y-84038867D01*
X192728231Y-84038867D01*
X192794552Y-83994552D01*
X192838867Y-83928231D01*
X192838867Y-83928229D01*
X192838868Y-83928229D01*
X192850499Y-83869752D01*
X192850500Y-83869750D01*
X192850500Y-82130249D01*
X192850499Y-82130247D01*
X192838868Y-82071770D01*
X192838867Y-82071769D01*
X192794552Y-82005447D01*
X192728230Y-81961132D01*
X192728229Y-81961131D01*
X192669752Y-81949500D01*
X192669748Y-81949500D01*
X191730252Y-81949500D01*
X191730247Y-81949500D01*
X191671770Y-81961131D01*
X191671769Y-81961132D01*
X191605447Y-82005447D01*
X191561132Y-82071769D01*
X191561131Y-82071770D01*
X191549500Y-82130247D01*
X191549500Y-83869752D01*
X191561131Y-83928229D01*
X191561132Y-83928230D01*
X191605447Y-83994552D01*
X191671769Y-84038867D01*
X191671770Y-84038868D01*
X191730247Y-84050499D01*
X191730250Y-84050500D01*
X191730252Y-84050500D01*
X191775500Y-84050500D01*
X191842539Y-84070185D01*
X191888294Y-84122989D01*
X191899500Y-84174500D01*
X191899500Y-84773656D01*
X191879815Y-84840695D01*
X191827011Y-84886450D01*
X191757853Y-84896394D01*
X191719207Y-84884141D01*
X191633126Y-84840281D01*
X191633124Y-84840280D01*
X191633121Y-84840279D01*
X191533493Y-84824500D01*
X191533488Y-84824500D01*
X191016512Y-84824500D01*
X191016507Y-84824500D01*
X190916878Y-84840279D01*
X190916874Y-84840280D01*
X190916874Y-84840281D01*
X190886913Y-84855547D01*
X190796778Y-84901473D01*
X190796774Y-84901476D01*
X190701476Y-84996774D01*
X190701473Y-84996778D01*
X190640279Y-85116878D01*
X190624500Y-85216506D01*
X190624500Y-85783493D01*
X190640279Y-85883121D01*
X190640280Y-85883124D01*
X190640281Y-85883126D01*
X190701419Y-86003116D01*
X190701473Y-86003221D01*
X190701476Y-86003225D01*
X190796774Y-86098523D01*
X190796776Y-86098524D01*
X190796780Y-86098528D01*
X190877222Y-86139515D01*
X190928018Y-86187490D01*
X190944813Y-86255311D01*
X190922275Y-86321446D01*
X190877222Y-86360484D01*
X190796780Y-86401472D01*
X190796779Y-86401473D01*
X190796774Y-86401476D01*
X190701476Y-86496774D01*
X190701473Y-86496778D01*
X190640279Y-86616878D01*
X190624500Y-86716506D01*
X190624500Y-87283493D01*
X190640279Y-87383121D01*
X190640280Y-87383124D01*
X190640281Y-87383126D01*
X190701472Y-87503220D01*
X190701473Y-87503221D01*
X190701476Y-87503225D01*
X190796774Y-87598523D01*
X190796778Y-87598526D01*
X190796780Y-87598528D01*
X190916874Y-87659719D01*
X190916876Y-87659719D01*
X190916878Y-87659720D01*
X191016507Y-87675500D01*
X191016512Y-87675500D01*
X191533493Y-87675500D01*
X191633121Y-87659720D01*
X191633121Y-87659719D01*
X191633126Y-87659719D01*
X191753220Y-87598528D01*
X191848528Y-87503220D01*
X191909719Y-87383126D01*
X191910863Y-87375905D01*
X191925500Y-87283493D01*
X191925500Y-86716506D01*
X191909720Y-86616878D01*
X191909719Y-86616876D01*
X191909719Y-86616874D01*
X191848528Y-86496780D01*
X191848526Y-86496778D01*
X191848523Y-86496774D01*
X191753225Y-86401476D01*
X191753221Y-86401473D01*
X191753220Y-86401472D01*
X191672775Y-86360483D01*
X191621981Y-86312511D01*
X191605186Y-86244690D01*
X191627723Y-86178555D01*
X191672774Y-86139516D01*
X191753220Y-86098528D01*
X191848528Y-86003220D01*
X191848582Y-86003113D01*
X191848680Y-86003009D01*
X191854261Y-85995328D01*
X191855253Y-85996048D01*
X191896550Y-85952316D01*
X191964369Y-85935515D01*
X192030506Y-85958048D01*
X192046750Y-85971721D01*
X194369905Y-88294876D01*
X194403390Y-88356199D01*
X194398406Y-88425891D01*
X194356534Y-88481824D01*
X194291070Y-88506241D01*
X194250131Y-88502332D01*
X194239562Y-88499500D01*
X191590438Y-88499500D01*
X191539486Y-88513152D01*
X191514010Y-88519979D01*
X191496618Y-88530021D01*
X191496617Y-88530021D01*
X191445492Y-88559537D01*
X191445487Y-88559541D01*
X191141848Y-88863181D01*
X191080525Y-88896666D01*
X191054167Y-88899500D01*
X190470247Y-88899500D01*
X190411770Y-88911131D01*
X190411769Y-88911132D01*
X190345447Y-88955447D01*
X190323102Y-88988890D01*
X190269489Y-89033695D01*
X190200164Y-89042402D01*
X190137137Y-89012247D01*
X190116898Y-88988890D01*
X190094552Y-88955447D01*
X190028230Y-88911132D01*
X190028229Y-88911131D01*
X189969752Y-88899500D01*
X189969748Y-88899500D01*
X189030252Y-88899500D01*
X189030247Y-88899500D01*
X188971770Y-88911131D01*
X188971769Y-88911132D01*
X188905447Y-88955447D01*
X188883102Y-88988890D01*
X188829489Y-89033695D01*
X188760164Y-89042402D01*
X188697137Y-89012247D01*
X188676898Y-88988890D01*
X188654553Y-88955448D01*
X188579045Y-88904995D01*
X188534241Y-88851382D01*
X188525534Y-88782057D01*
X188555689Y-88719030D01*
X188560256Y-88714211D01*
X188560400Y-88714066D01*
X188560404Y-88714065D01*
X188644065Y-88630404D01*
X188694068Y-88523173D01*
X188700500Y-88474316D01*
X188700500Y-88025684D01*
X188694068Y-87976827D01*
X188644065Y-87869596D01*
X188560404Y-87785935D01*
X188453173Y-87735932D01*
X188453171Y-87735931D01*
X188453172Y-87735931D01*
X188404317Y-87729500D01*
X188404316Y-87729500D01*
X188055684Y-87729500D01*
X188055683Y-87729500D01*
X188006828Y-87735931D01*
X187899595Y-87785935D01*
X187815935Y-87869595D01*
X187815935Y-87869596D01*
X187812060Y-87877904D01*
X187765890Y-87930343D01*
X187699679Y-87949500D01*
X187498947Y-87949500D01*
X187431908Y-87929815D01*
X187411266Y-87913181D01*
X186861818Y-87363733D01*
X186828333Y-87302410D01*
X186825499Y-87276052D01*
X186825499Y-86624102D01*
X186825499Y-86624100D01*
X186810240Y-86547383D01*
X186810239Y-86547381D01*
X186810238Y-86547379D01*
X186776423Y-86496772D01*
X186752112Y-86460388D01*
X186665117Y-86402260D01*
X186665115Y-86402259D01*
X186665112Y-86402258D01*
X186588404Y-86387000D01*
X186411601Y-86387000D01*
X186334881Y-86402260D01*
X186334879Y-86402261D01*
X186247888Y-86460388D01*
X186189760Y-86547383D01*
X186189758Y-86547387D01*
X186174500Y-86624094D01*
X186174500Y-87375897D01*
X186178251Y-87394756D01*
X186189760Y-87452617D01*
X186189760Y-87452618D01*
X186189761Y-87452619D01*
X186194207Y-87463354D01*
X186205131Y-87487466D01*
X186219977Y-87542871D01*
X186219981Y-87542880D01*
X186237284Y-87572849D01*
X186237285Y-87572850D01*
X186259540Y-87611397D01*
X187082654Y-88434511D01*
X187138603Y-88490460D01*
X187138605Y-88490461D01*
X187138609Y-88490464D01*
X187190634Y-88520500D01*
X187207125Y-88530021D01*
X187283552Y-88550500D01*
X187699679Y-88550500D01*
X187766718Y-88570185D01*
X187812060Y-88622095D01*
X187815934Y-88630402D01*
X187815935Y-88630404D01*
X187873350Y-88687819D01*
X187906835Y-88749142D01*
X187901851Y-88818834D01*
X187859979Y-88874767D01*
X187794515Y-88899184D01*
X187785669Y-88899500D01*
X187590247Y-88899500D01*
X187531770Y-88911131D01*
X187531769Y-88911132D01*
X187465447Y-88955447D01*
X187443102Y-88988890D01*
X187389489Y-89033695D01*
X187320164Y-89042402D01*
X187257137Y-89012247D01*
X187236898Y-88988890D01*
X187214552Y-88955447D01*
X187148230Y-88911132D01*
X187148229Y-88911131D01*
X187089752Y-88899500D01*
X187089748Y-88899500D01*
X186150252Y-88899500D01*
X186150247Y-88899500D01*
X186091770Y-88911131D01*
X186091769Y-88911132D01*
X186025447Y-88955447D01*
X185981132Y-89021769D01*
X185981131Y-89021770D01*
X185969500Y-89080247D01*
X185969500Y-91919752D01*
X185981131Y-91978229D01*
X185981132Y-91978230D01*
X186025447Y-92044552D01*
X186091769Y-92088867D01*
X186091770Y-92088868D01*
X186150247Y-92100499D01*
X186150250Y-92100500D01*
X186150252Y-92100500D01*
X186794167Y-92100500D01*
X186861206Y-92120185D01*
X186881848Y-92136819D01*
X187232848Y-92487819D01*
X187266333Y-92549142D01*
X187261349Y-92618834D01*
X187219477Y-92674767D01*
X187154013Y-92699184D01*
X187145167Y-92699500D01*
X185251525Y-92699500D01*
X185184486Y-92679815D01*
X185138731Y-92627011D01*
X185128787Y-92557853D01*
X185144139Y-92513499D01*
X185160019Y-92485993D01*
X185160018Y-92485993D01*
X185160022Y-92485988D01*
X185180500Y-92409562D01*
X185180500Y-92330438D01*
X185180500Y-92224500D01*
X185200185Y-92157461D01*
X185252989Y-92111706D01*
X185304500Y-92100500D01*
X185349750Y-92100500D01*
X185349751Y-92100499D01*
X185364568Y-92097552D01*
X185408229Y-92088868D01*
X185408229Y-92088867D01*
X185408231Y-92088867D01*
X185474552Y-92044552D01*
X185518867Y-91978231D01*
X185518867Y-91978229D01*
X185518868Y-91978229D01*
X185530499Y-91919752D01*
X185530500Y-91919750D01*
X185530500Y-89080249D01*
X185530499Y-89080247D01*
X185518868Y-89021770D01*
X185518867Y-89021769D01*
X185474552Y-88955447D01*
X185408230Y-88911132D01*
X185408229Y-88911131D01*
X185349752Y-88899500D01*
X185349748Y-88899500D01*
X184410252Y-88899500D01*
X184410247Y-88899500D01*
X184351770Y-88911131D01*
X184351769Y-88911132D01*
X184285447Y-88955447D01*
X184263102Y-88988890D01*
X184209489Y-89033695D01*
X184140164Y-89042402D01*
X184077137Y-89012247D01*
X184056898Y-88988890D01*
X184034552Y-88955447D01*
X183968230Y-88911132D01*
X183968229Y-88911131D01*
X183909752Y-88899500D01*
X183909748Y-88899500D01*
X182970252Y-88899500D01*
X182970247Y-88899500D01*
X182911770Y-88911131D01*
X182911769Y-88911132D01*
X182845447Y-88955447D01*
X182823102Y-88988890D01*
X182769489Y-89033695D01*
X182700164Y-89042402D01*
X182637137Y-89012247D01*
X182616898Y-88988890D01*
X182594552Y-88955447D01*
X182528230Y-88911132D01*
X182528229Y-88911131D01*
X182469752Y-88899500D01*
X182469748Y-88899500D01*
X181530252Y-88899500D01*
X181530247Y-88899500D01*
X181471770Y-88911131D01*
X181471769Y-88911132D01*
X181405447Y-88955447D01*
X181383102Y-88988890D01*
X181329489Y-89033695D01*
X181260164Y-89042402D01*
X181197137Y-89012247D01*
X181176898Y-88988890D01*
X181154552Y-88955447D01*
X181088230Y-88911132D01*
X181088229Y-88911131D01*
X181029752Y-88899500D01*
X181029748Y-88899500D01*
X180090252Y-88899500D01*
X180090247Y-88899500D01*
X180031770Y-88911131D01*
X180031769Y-88911132D01*
X179965447Y-88955447D01*
X179943102Y-88988890D01*
X179889489Y-89033695D01*
X179820164Y-89042402D01*
X179757137Y-89012247D01*
X179736898Y-88988890D01*
X179714552Y-88955447D01*
X179648230Y-88911132D01*
X179648229Y-88911131D01*
X179589752Y-88899500D01*
X179589748Y-88899500D01*
X178650252Y-88899500D01*
X178650247Y-88899500D01*
X178591770Y-88911131D01*
X178591769Y-88911132D01*
X178525447Y-88955447D01*
X178481132Y-89021769D01*
X178481131Y-89021770D01*
X178469500Y-89080247D01*
X178469500Y-91919752D01*
X178481131Y-91978229D01*
X178481132Y-91978230D01*
X178525447Y-92044552D01*
X178591769Y-92088867D01*
X178591770Y-92088868D01*
X178650247Y-92100499D01*
X178650250Y-92100500D01*
X178650252Y-92100500D01*
X179294167Y-92100500D01*
X179361206Y-92120185D01*
X179381848Y-92136819D01*
X179732848Y-92487819D01*
X179766333Y-92549142D01*
X179761349Y-92618834D01*
X179719477Y-92674767D01*
X179654013Y-92699184D01*
X179645167Y-92699500D01*
X175274833Y-92699500D01*
X175207794Y-92679815D01*
X175162039Y-92627011D01*
X175152095Y-92557853D01*
X175181120Y-92494297D01*
X175187152Y-92487819D01*
X175538152Y-92136819D01*
X175599475Y-92103334D01*
X175625833Y-92100500D01*
X176349750Y-92100500D01*
X176349751Y-92100499D01*
X176364568Y-92097552D01*
X176408229Y-92088868D01*
X176408229Y-92088867D01*
X176408231Y-92088867D01*
X176474552Y-92044552D01*
X176518867Y-91978231D01*
X176518867Y-91978229D01*
X176518868Y-91978229D01*
X176530499Y-91919752D01*
X176530500Y-91919750D01*
X176530500Y-89080249D01*
X176530499Y-89080247D01*
X176518868Y-89021770D01*
X176518867Y-89021769D01*
X176474552Y-88955447D01*
X176408230Y-88911132D01*
X176408229Y-88911131D01*
X176349752Y-88899500D01*
X176349748Y-88899500D01*
X175410252Y-88899500D01*
X175410247Y-88899500D01*
X175351770Y-88911131D01*
X175351769Y-88911132D01*
X175285447Y-88955447D01*
X175263102Y-88988890D01*
X175209489Y-89033695D01*
X175140164Y-89042402D01*
X175077137Y-89012247D01*
X175056898Y-88988890D01*
X175034552Y-88955447D01*
X174968230Y-88911132D01*
X174968229Y-88911131D01*
X174909752Y-88899500D01*
X174909748Y-88899500D01*
X173970252Y-88899500D01*
X173970247Y-88899500D01*
X173911770Y-88911131D01*
X173911769Y-88911132D01*
X173845447Y-88955447D01*
X173823102Y-88988890D01*
X173769489Y-89033695D01*
X173700164Y-89042402D01*
X173637137Y-89012247D01*
X173616898Y-88988890D01*
X173594552Y-88955447D01*
X173528230Y-88911132D01*
X173528229Y-88911131D01*
X173469752Y-88899500D01*
X173469748Y-88899500D01*
X172530252Y-88899500D01*
X172530247Y-88899500D01*
X172471770Y-88911131D01*
X172471769Y-88911132D01*
X172405447Y-88955447D01*
X172383102Y-88988890D01*
X172329489Y-89033695D01*
X172260164Y-89042402D01*
X172197137Y-89012247D01*
X172176898Y-88988890D01*
X172154552Y-88955447D01*
X172088230Y-88911132D01*
X172088229Y-88911131D01*
X172029752Y-88899500D01*
X172029748Y-88899500D01*
X171090252Y-88899500D01*
X171090247Y-88899500D01*
X171031770Y-88911131D01*
X171031769Y-88911132D01*
X170965447Y-88955447D01*
X170943102Y-88988890D01*
X170889489Y-89033695D01*
X170820164Y-89042402D01*
X170757137Y-89012247D01*
X170736898Y-88988890D01*
X170714552Y-88955447D01*
X170648230Y-88911132D01*
X170648229Y-88911131D01*
X170589752Y-88899500D01*
X170589748Y-88899500D01*
X169650252Y-88899500D01*
X169650247Y-88899500D01*
X169591770Y-88911131D01*
X169591769Y-88911132D01*
X169525447Y-88955447D01*
X169481132Y-89021769D01*
X169481131Y-89021770D01*
X169469500Y-89080247D01*
X169469500Y-91815167D01*
X169449815Y-91882206D01*
X169397011Y-91927961D01*
X169327853Y-91937905D01*
X169264297Y-91908880D01*
X169257819Y-91902848D01*
X169066819Y-91711848D01*
X169033334Y-91650525D01*
X169030500Y-91624167D01*
X169030500Y-89080249D01*
X169030499Y-89080247D01*
X169018868Y-89021770D01*
X169018867Y-89021769D01*
X168974552Y-88955447D01*
X168908230Y-88911132D01*
X168908229Y-88911131D01*
X168849752Y-88899500D01*
X168849748Y-88899500D01*
X167910252Y-88899500D01*
X167910247Y-88899500D01*
X167851770Y-88911131D01*
X167851769Y-88911132D01*
X167785447Y-88955447D01*
X167763102Y-88988890D01*
X167709489Y-89033695D01*
X167640164Y-89042402D01*
X167577137Y-89012247D01*
X167556898Y-88988890D01*
X167534552Y-88955447D01*
X167468230Y-88911132D01*
X167468229Y-88911131D01*
X167409752Y-88899500D01*
X167409748Y-88899500D01*
X166470252Y-88899500D01*
X166470247Y-88899500D01*
X166411770Y-88911131D01*
X166411769Y-88911132D01*
X166345447Y-88955447D01*
X166323102Y-88988890D01*
X166269489Y-89033695D01*
X166200164Y-89042402D01*
X166137137Y-89012247D01*
X166116898Y-88988890D01*
X166094552Y-88955447D01*
X166028230Y-88911132D01*
X166028229Y-88911131D01*
X165969752Y-88899500D01*
X165969748Y-88899500D01*
X165030252Y-88899500D01*
X165030247Y-88899500D01*
X164971770Y-88911131D01*
X164971769Y-88911132D01*
X164905447Y-88955447D01*
X164883102Y-88988890D01*
X164829489Y-89033695D01*
X164760164Y-89042402D01*
X164697137Y-89012247D01*
X164676898Y-88988890D01*
X164654552Y-88955447D01*
X164588230Y-88911132D01*
X164588229Y-88911131D01*
X164529752Y-88899500D01*
X164529748Y-88899500D01*
X163590252Y-88899500D01*
X163590247Y-88899500D01*
X163531770Y-88911131D01*
X163531769Y-88911132D01*
X163465447Y-88955447D01*
X163443102Y-88988890D01*
X163389489Y-89033695D01*
X163320164Y-89042402D01*
X163257137Y-89012247D01*
X163236898Y-88988890D01*
X163214552Y-88955447D01*
X163148230Y-88911132D01*
X163148229Y-88911131D01*
X163089752Y-88899500D01*
X163089748Y-88899500D01*
X162150252Y-88899500D01*
X162150247Y-88899500D01*
X162091770Y-88911131D01*
X162091769Y-88911132D01*
X162025447Y-88955447D01*
X161981132Y-89021769D01*
X161981131Y-89021770D01*
X161969500Y-89080247D01*
X161969500Y-91919752D01*
X161981131Y-91978229D01*
X161981132Y-91978230D01*
X162025447Y-92044552D01*
X162091769Y-92088867D01*
X162091770Y-92088868D01*
X162150247Y-92100499D01*
X162150250Y-92100500D01*
X162150252Y-92100500D01*
X162794167Y-92100500D01*
X162861206Y-92120185D01*
X162881848Y-92136819D01*
X165929540Y-95184511D01*
X165985489Y-95240460D01*
X165985491Y-95240461D01*
X165985495Y-95240464D01*
X166054004Y-95280017D01*
X166054011Y-95280021D01*
X166054018Y-95280023D01*
X166059857Y-95282442D01*
X166114261Y-95326282D01*
X166136327Y-95392576D01*
X166119049Y-95460276D01*
X166074408Y-95504390D01*
X166065492Y-95509537D01*
X166065487Y-95509541D01*
X162711848Y-98863181D01*
X162650525Y-98896666D01*
X162624167Y-98899500D01*
X162150247Y-98899500D01*
X162091770Y-98911131D01*
X162091769Y-98911132D01*
X162025447Y-98955447D01*
X161981132Y-99021769D01*
X161981131Y-99021770D01*
X161969500Y-99080247D01*
X161969500Y-101919752D01*
X161981131Y-101978229D01*
X161981132Y-101978230D01*
X162025447Y-102044552D01*
X162091769Y-102088867D01*
X162091770Y-102088868D01*
X162150247Y-102100499D01*
X162150250Y-102100500D01*
X162150252Y-102100500D01*
X163089750Y-102100500D01*
X163089751Y-102100499D01*
X163113206Y-102095834D01*
X163148229Y-102088868D01*
X163148229Y-102088867D01*
X163148231Y-102088867D01*
X163214552Y-102044552D01*
X163236898Y-102011108D01*
X163290510Y-101966304D01*
X163359834Y-101957597D01*
X163422862Y-101987751D01*
X163443100Y-102011106D01*
X163465448Y-102044552D01*
X163531769Y-102088867D01*
X163531770Y-102088868D01*
X163590247Y-102100499D01*
X163590250Y-102100500D01*
X163590252Y-102100500D01*
X164529750Y-102100500D01*
X164529751Y-102100499D01*
X164553206Y-102095834D01*
X164588229Y-102088868D01*
X164588229Y-102088867D01*
X164588231Y-102088867D01*
X164654552Y-102044552D01*
X164676898Y-102011108D01*
X164730510Y-101966304D01*
X164799834Y-101957597D01*
X164862862Y-101987751D01*
X164883100Y-102011106D01*
X164905448Y-102044552D01*
X164971769Y-102088867D01*
X164971770Y-102088868D01*
X165030247Y-102100499D01*
X165030250Y-102100500D01*
X165030252Y-102100500D01*
X165075500Y-102100500D01*
X165142539Y-102120185D01*
X165188294Y-102172989D01*
X165199500Y-102224500D01*
X165199500Y-105375500D01*
X165179815Y-105442539D01*
X165127011Y-105488294D01*
X165075500Y-105499500D01*
X164566739Y-105499500D01*
X164498608Y-105509426D01*
X164393514Y-105560803D01*
X164310803Y-105643514D01*
X164259425Y-105748609D01*
X164256584Y-105757807D01*
X164254470Y-105757153D01*
X164230760Y-105808807D01*
X164171909Y-105846467D01*
X164102039Y-105846332D01*
X164049523Y-105815104D01*
X163972135Y-105737716D01*
X163938650Y-105676393D01*
X163943634Y-105606701D01*
X163985506Y-105550768D01*
X164005347Y-105538639D01*
X164106483Y-105489198D01*
X164189198Y-105406483D01*
X164240573Y-105301393D01*
X164250500Y-105233260D01*
X164250500Y-104866740D01*
X164240573Y-104798607D01*
X164189198Y-104693517D01*
X164189196Y-104693515D01*
X164189196Y-104693514D01*
X164106485Y-104610803D01*
X164001391Y-104559426D01*
X163933261Y-104549500D01*
X163933260Y-104549500D01*
X162691740Y-104549500D01*
X162691739Y-104549500D01*
X162623608Y-104559426D01*
X162518514Y-104610803D01*
X162435803Y-104693514D01*
X162384426Y-104798608D01*
X162374500Y-104866739D01*
X162374500Y-105233260D01*
X162384426Y-105301391D01*
X162435803Y-105406485D01*
X162518514Y-105489196D01*
X162518515Y-105489196D01*
X162518517Y-105489198D01*
X162623607Y-105540573D01*
X162657673Y-105545536D01*
X162691739Y-105550500D01*
X162691740Y-105550500D01*
X162921315Y-105550500D01*
X162988354Y-105570185D01*
X163028702Y-105612499D01*
X163032478Y-105619040D01*
X163032479Y-105619041D01*
X163057570Y-105662500D01*
X163057571Y-105662501D01*
X163072039Y-105687562D01*
X163622296Y-106237819D01*
X163655781Y-106299142D01*
X163650797Y-106368834D01*
X163608925Y-106424767D01*
X163543461Y-106449184D01*
X163534615Y-106449500D01*
X162691739Y-106449500D01*
X162623608Y-106459426D01*
X162518514Y-106510803D01*
X162435805Y-106593512D01*
X162432923Y-106597550D01*
X162377949Y-106640674D01*
X162332003Y-106649500D01*
X162005331Y-106649500D01*
X161938292Y-106629815D01*
X161917650Y-106613181D01*
X161880404Y-106575935D01*
X161858959Y-106565935D01*
X161773173Y-106525932D01*
X161773171Y-106525931D01*
X161773172Y-106525931D01*
X161724317Y-106519500D01*
X161724316Y-106519500D01*
X161275684Y-106519500D01*
X161275683Y-106519500D01*
X161226828Y-106525931D01*
X161119595Y-106575935D01*
X161035935Y-106659595D01*
X160985931Y-106766828D01*
X160979500Y-106815683D01*
X160979500Y-107164316D01*
X160985931Y-107213171D01*
X161035935Y-107320404D01*
X161127267Y-107411736D01*
X161124443Y-107414559D01*
X161155183Y-107453042D01*
X161162352Y-107522542D01*
X161130808Y-107584886D01*
X161127101Y-107588098D01*
X161127267Y-107588264D01*
X161035935Y-107679595D01*
X160985931Y-107786828D01*
X160979500Y-107835683D01*
X160979500Y-108184316D01*
X160985931Y-108233171D01*
X160985932Y-108233173D01*
X161035935Y-108340404D01*
X161119596Y-108424065D01*
X161226827Y-108474068D01*
X161275683Y-108480500D01*
X161275684Y-108480500D01*
X161494167Y-108480500D01*
X161561206Y-108500185D01*
X161581848Y-108516819D01*
X164965489Y-111900460D01*
X164975014Y-111905959D01*
X165000693Y-111925664D01*
X167163181Y-114088152D01*
X167196666Y-114149475D01*
X167199500Y-114175833D01*
X167199500Y-118289562D01*
X167219979Y-118365989D01*
X167230384Y-118384011D01*
X167259540Y-118434511D01*
X167815489Y-118990460D01*
X167829959Y-118998814D01*
X167863385Y-119018114D01*
X167911600Y-119068681D01*
X167924822Y-119137288D01*
X167898854Y-119202153D01*
X167841939Y-119242681D01*
X167801384Y-119249500D01*
X162003751Y-119249500D01*
X161996264Y-119249274D01*
X161706205Y-119231728D01*
X161691340Y-119229923D01*
X161409201Y-119178219D01*
X161394663Y-119174635D01*
X161120832Y-119089306D01*
X161106831Y-119083997D01*
X160845263Y-118966275D01*
X160832004Y-118959316D01*
X160701471Y-118880406D01*
X160586537Y-118810926D01*
X160574217Y-118802422D01*
X160545624Y-118780021D01*
X160348426Y-118625526D01*
X160337218Y-118615596D01*
X160134403Y-118412781D01*
X160124473Y-118401573D01*
X160110714Y-118384011D01*
X159947573Y-118175776D01*
X159939075Y-118163465D01*
X159790680Y-117917989D01*
X159783727Y-117904743D01*
X159666000Y-117643163D01*
X159660693Y-117629167D01*
X159659569Y-117625561D01*
X159575363Y-117355335D01*
X159571780Y-117340798D01*
X159520076Y-117058659D01*
X159518271Y-117043794D01*
X159510370Y-116913181D01*
X159500726Y-116753736D01*
X159500500Y-116746249D01*
X159500500Y-112025683D01*
X162019500Y-112025683D01*
X162019500Y-112474316D01*
X162025931Y-112523171D01*
X162075935Y-112630404D01*
X162153181Y-112707650D01*
X162186666Y-112768973D01*
X162189500Y-112795331D01*
X162189500Y-112829562D01*
X162209979Y-112905989D01*
X162210262Y-112906479D01*
X162210263Y-112906480D01*
X162210271Y-112906495D01*
X162249537Y-112974507D01*
X162249541Y-112974512D01*
X162928478Y-113653449D01*
X162961963Y-113714772D01*
X162962415Y-113765320D01*
X162949500Y-113830252D01*
X162949500Y-114769752D01*
X162961131Y-114828229D01*
X162961132Y-114828230D01*
X163005447Y-114894552D01*
X163071769Y-114938867D01*
X163071770Y-114938868D01*
X163130247Y-114950499D01*
X163130250Y-114950500D01*
X163130252Y-114950500D01*
X164869750Y-114950500D01*
X164869751Y-114950499D01*
X164893970Y-114945682D01*
X164928229Y-114938868D01*
X164928229Y-114938867D01*
X164928231Y-114938867D01*
X164994552Y-114894552D01*
X165038867Y-114828231D01*
X165038867Y-114828229D01*
X165038868Y-114828229D01*
X165050499Y-114769752D01*
X165050500Y-114769750D01*
X165050500Y-113830249D01*
X165050499Y-113830247D01*
X165038868Y-113771770D01*
X165038867Y-113771769D01*
X164994552Y-113705447D01*
X164928230Y-113661132D01*
X164928229Y-113661131D01*
X164869752Y-113649500D01*
X164869748Y-113649500D01*
X163825833Y-113649500D01*
X163758794Y-113629815D01*
X163738152Y-113613181D01*
X163038739Y-112913768D01*
X163005254Y-112852445D01*
X163010238Y-112782753D01*
X163052110Y-112726820D01*
X163117574Y-112702403D01*
X163178825Y-112713705D01*
X163179595Y-112714064D01*
X163179596Y-112714065D01*
X163286827Y-112764068D01*
X163335683Y-112770500D01*
X163335684Y-112770500D01*
X163684317Y-112770500D01*
X163700601Y-112768356D01*
X163733173Y-112764068D01*
X163840404Y-112714065D01*
X163924065Y-112630404D01*
X163974068Y-112523173D01*
X163980500Y-112474316D01*
X163980500Y-112426174D01*
X163984082Y-112401261D01*
X163983903Y-112401236D01*
X163993066Y-112337501D01*
X164005647Y-112250000D01*
X163985165Y-112107543D01*
X163983903Y-112098765D01*
X163984081Y-112098739D01*
X163980500Y-112073826D01*
X163980500Y-112025683D01*
X163977118Y-111999997D01*
X163974068Y-111976827D01*
X163924065Y-111869596D01*
X163840404Y-111785935D01*
X163733173Y-111735932D01*
X163733171Y-111735931D01*
X163733172Y-111735931D01*
X163684317Y-111729500D01*
X163684316Y-111729500D01*
X163335684Y-111729500D01*
X163335683Y-111729500D01*
X163286828Y-111735931D01*
X163179595Y-111785935D01*
X163088264Y-111877267D01*
X163085440Y-111874443D01*
X163046958Y-111905183D01*
X162977458Y-111912352D01*
X162915114Y-111880808D01*
X162911901Y-111877101D01*
X162911736Y-111877267D01*
X162820404Y-111785935D01*
X162805869Y-111779157D01*
X162713173Y-111735932D01*
X162713171Y-111735931D01*
X162713172Y-111735931D01*
X162664317Y-111729500D01*
X162664316Y-111729500D01*
X162315684Y-111729500D01*
X162315683Y-111729500D01*
X162266828Y-111735931D01*
X162159595Y-111785935D01*
X162075935Y-111869595D01*
X162025931Y-111976828D01*
X162019500Y-112025683D01*
X159500500Y-112025683D01*
X159500500Y-87775683D01*
X162519500Y-87775683D01*
X162519500Y-88224316D01*
X162525931Y-88273171D01*
X162525932Y-88273173D01*
X162575935Y-88380404D01*
X162659596Y-88464065D01*
X162766827Y-88514068D01*
X162815683Y-88520500D01*
X162815684Y-88520500D01*
X163164317Y-88520500D01*
X163180601Y-88518356D01*
X163213173Y-88514068D01*
X163320404Y-88464065D01*
X163404065Y-88380404D01*
X163454068Y-88273173D01*
X163460500Y-88224316D01*
X163460500Y-87775684D01*
X163454068Y-87726827D01*
X163404065Y-87619596D01*
X163320404Y-87535935D01*
X163213173Y-87485932D01*
X163213171Y-87485931D01*
X163213172Y-87485931D01*
X163164317Y-87479500D01*
X163164316Y-87479500D01*
X162815684Y-87479500D01*
X162815683Y-87479500D01*
X162766828Y-87485931D01*
X162659595Y-87535935D01*
X162575935Y-87619595D01*
X162525931Y-87726828D01*
X162519500Y-87775683D01*
X159500500Y-87775683D01*
X159500500Y-83003750D01*
X159500726Y-82996263D01*
X159507657Y-82881683D01*
X159518271Y-82706201D01*
X159520076Y-82691340D01*
X159524355Y-82667994D01*
X159571780Y-82409197D01*
X159575364Y-82394663D01*
X159578683Y-82384012D01*
X159657759Y-82130247D01*
X162149500Y-82130247D01*
X162149500Y-83869752D01*
X162161131Y-83928229D01*
X162161132Y-83928230D01*
X162205447Y-83994552D01*
X162271769Y-84038867D01*
X162271770Y-84038868D01*
X162330247Y-84050499D01*
X162330250Y-84050500D01*
X162330252Y-84050500D01*
X163269750Y-84050500D01*
X163269751Y-84050499D01*
X163284568Y-84047552D01*
X163328229Y-84038868D01*
X163328229Y-84038867D01*
X163328231Y-84038867D01*
X163394552Y-83994552D01*
X163438867Y-83928231D01*
X163438867Y-83928229D01*
X163438868Y-83928229D01*
X163450499Y-83869752D01*
X163450500Y-83869750D01*
X163450500Y-82130249D01*
X163450499Y-82130247D01*
X163438868Y-82071770D01*
X163438867Y-82071769D01*
X163394552Y-82005447D01*
X163328230Y-81961132D01*
X163328229Y-81961131D01*
X163269752Y-81949500D01*
X163269748Y-81949500D01*
X162330252Y-81949500D01*
X162330247Y-81949500D01*
X162271770Y-81961131D01*
X162271769Y-81961132D01*
X162205447Y-82005447D01*
X162161132Y-82071769D01*
X162161131Y-82071770D01*
X162149500Y-82130247D01*
X159657759Y-82130247D01*
X159660696Y-82120822D01*
X159665998Y-82106841D01*
X159783731Y-81845249D01*
X159790676Y-81832016D01*
X159939080Y-81586526D01*
X159947567Y-81574230D01*
X160124480Y-81348417D01*
X160134395Y-81337226D01*
X160337226Y-81134395D01*
X160348417Y-81124480D01*
X160574230Y-80947567D01*
X160586526Y-80939080D01*
X160832016Y-80790676D01*
X160845249Y-80783731D01*
X161106841Y-80665998D01*
X161120822Y-80660696D01*
X161394668Y-80575362D01*
X161409197Y-80571780D01*
X161691344Y-80520075D01*
X161706201Y-80518271D01*
X161996264Y-80500726D01*
X162003751Y-80500500D01*
X162065892Y-80500500D01*
X182983498Y-80500500D01*
X183050537Y-80520185D01*
G37*
%TD.AperFunction*%
%TA.AperFunction,Conductor*%
G36*
X164406715Y-107043531D02*
G01*
X164459238Y-107074761D01*
X165174005Y-107789528D01*
X165207490Y-107850851D01*
X165202506Y-107920543D01*
X165182623Y-107951480D01*
X165184486Y-107952910D01*
X165179535Y-107959361D01*
X165139982Y-108027870D01*
X165139979Y-108027875D01*
X165136000Y-108042725D01*
X165119500Y-108104304D01*
X165119500Y-109209562D01*
X165129271Y-109246027D01*
X165139979Y-109285990D01*
X165139980Y-109285991D01*
X165157122Y-109315683D01*
X165173081Y-109343324D01*
X165179540Y-109354511D01*
X165179542Y-109354514D01*
X165483181Y-109658152D01*
X165516666Y-109719475D01*
X165519500Y-109745832D01*
X165519500Y-109959894D01*
X165519897Y-109962909D01*
X165526028Y-110009487D01*
X165526029Y-110009489D01*
X165526029Y-110009490D01*
X165569031Y-110101706D01*
X165576776Y-110118316D01*
X165661684Y-110203224D01*
X165770513Y-110253972D01*
X165820099Y-110260500D01*
X166179900Y-110260499D01*
X166229487Y-110253972D01*
X166338316Y-110203224D01*
X166392319Y-110149221D01*
X166453642Y-110115736D01*
X166523334Y-110120720D01*
X166567681Y-110149221D01*
X166621684Y-110203224D01*
X166730513Y-110253972D01*
X166780099Y-110260500D01*
X167139900Y-110260499D01*
X167189487Y-110253972D01*
X167298316Y-110203224D01*
X167383224Y-110118316D01*
X167383225Y-110118313D01*
X167389447Y-110109429D01*
X167391405Y-110110800D01*
X167427640Y-110069652D01*
X167493844Y-110050500D01*
X171039560Y-110050500D01*
X171039562Y-110050500D01*
X171115989Y-110030021D01*
X171184511Y-109990460D01*
X171240460Y-109934511D01*
X171989282Y-109185689D01*
X172050605Y-109152204D01*
X172076963Y-109149370D01*
X172125939Y-109149370D01*
X172192978Y-109169055D01*
X172238733Y-109221859D01*
X172248677Y-109291017D01*
X172219652Y-109354573D01*
X172213620Y-109361051D01*
X172164706Y-109409964D01*
X172164700Y-109409972D01*
X172124791Y-109469701D01*
X172123709Y-109468978D01*
X172088012Y-109513270D01*
X172066162Y-109525200D01*
X172015859Y-109558812D01*
X172015851Y-109558818D01*
X171599020Y-109975649D01*
X171599014Y-109975657D01*
X171565891Y-110025228D01*
X171565890Y-110025231D01*
X171550680Y-110101706D01*
X171550330Y-110103464D01*
X171557664Y-110140339D01*
X171565890Y-110181696D01*
X171599019Y-110231277D01*
X172758314Y-111390572D01*
X172758317Y-111390574D01*
X172763944Y-111394334D01*
X172767782Y-111396898D01*
X172812587Y-111450510D01*
X172821294Y-111519835D01*
X172791140Y-111582863D01*
X172767782Y-111603102D01*
X172758314Y-111609427D01*
X172758311Y-111609430D01*
X172179257Y-112188486D01*
X172117934Y-112221971D01*
X172091576Y-112224805D01*
X169927005Y-112224805D01*
X169927005Y-112221946D01*
X169871615Y-112213291D01*
X169819374Y-112166895D01*
X169800500Y-112101134D01*
X169800500Y-111980439D01*
X169800500Y-111980438D01*
X169780021Y-111904011D01*
X169766625Y-111880808D01*
X169740464Y-111835495D01*
X169740458Y-111835487D01*
X169496818Y-111591847D01*
X169463333Y-111530524D01*
X169460499Y-111504166D01*
X169460499Y-111290105D01*
X169460499Y-111290100D01*
X169453972Y-111240513D01*
X169403224Y-111131684D01*
X169318316Y-111046776D01*
X169209487Y-110996028D01*
X169209485Y-110996027D01*
X169209486Y-110996027D01*
X169159902Y-110989500D01*
X168800105Y-110989500D01*
X168784386Y-110991569D01*
X168750513Y-110996028D01*
X168750511Y-110996029D01*
X168750509Y-110996029D01*
X168641683Y-111046776D01*
X168556776Y-111131683D01*
X168506027Y-111240514D01*
X168499500Y-111290098D01*
X168499500Y-111709894D01*
X168499897Y-111712906D01*
X168506028Y-111759487D01*
X168506029Y-111759489D01*
X168506029Y-111759490D01*
X168541468Y-111835489D01*
X168556776Y-111868316D01*
X168641684Y-111953224D01*
X168750513Y-112003972D01*
X168800099Y-112010500D01*
X169014165Y-112010499D01*
X169081205Y-112030183D01*
X169101847Y-112046818D01*
X169142848Y-112087819D01*
X169176333Y-112149142D01*
X169171349Y-112218834D01*
X169129477Y-112274767D01*
X169064013Y-112299184D01*
X169055167Y-112299500D01*
X168580247Y-112299500D01*
X168521770Y-112311131D01*
X168521769Y-112311132D01*
X168455447Y-112355447D01*
X168411132Y-112421769D01*
X168411131Y-112421770D01*
X168399500Y-112480247D01*
X168399500Y-113519752D01*
X168411131Y-113578229D01*
X168411132Y-113578230D01*
X168455447Y-113644552D01*
X168521769Y-113688867D01*
X168521770Y-113688868D01*
X168580247Y-113700499D01*
X168580250Y-113700500D01*
X168580252Y-113700500D01*
X170419750Y-113700500D01*
X170419751Y-113700499D01*
X170434568Y-113697552D01*
X170478229Y-113688868D01*
X170478229Y-113688867D01*
X170478231Y-113688867D01*
X170544552Y-113644552D01*
X170588867Y-113578231D01*
X170588867Y-113578229D01*
X170588868Y-113578229D01*
X170600499Y-113519752D01*
X170600500Y-113519750D01*
X170600500Y-112949805D01*
X170620185Y-112882766D01*
X170672989Y-112837011D01*
X170724500Y-112825805D01*
X171434496Y-112825805D01*
X171501535Y-112845490D01*
X171547290Y-112898294D01*
X171556113Y-112925612D01*
X171559545Y-112942865D01*
X171565890Y-112974768D01*
X171565891Y-112974771D01*
X171599014Y-113024342D01*
X171599020Y-113024350D01*
X172015851Y-113441181D01*
X172015855Y-113441184D01*
X172063804Y-113473223D01*
X172108609Y-113526835D01*
X172117316Y-113596160D01*
X172087161Y-113659188D01*
X172082594Y-113664006D01*
X170789204Y-114957397D01*
X170727881Y-114990882D01*
X170658189Y-114985898D01*
X170602256Y-114944026D01*
X170593696Y-114928995D01*
X170544552Y-114855447D01*
X170478230Y-114811132D01*
X170478229Y-114811131D01*
X170419752Y-114799500D01*
X170419748Y-114799500D01*
X168580252Y-114799500D01*
X168580247Y-114799500D01*
X168521770Y-114811131D01*
X168521769Y-114811132D01*
X168455447Y-114855447D01*
X168411132Y-114921769D01*
X168411131Y-114921770D01*
X168399500Y-114980247D01*
X168399500Y-116019752D01*
X168411131Y-116078229D01*
X168411132Y-116078230D01*
X168455447Y-116144552D01*
X168521769Y-116188867D01*
X168521770Y-116188868D01*
X168580247Y-116200499D01*
X168580250Y-116200500D01*
X168580252Y-116200500D01*
X169095500Y-116200500D01*
X169162539Y-116220185D01*
X169208294Y-116272989D01*
X169219500Y-116324500D01*
X169219500Y-116957598D01*
X169199815Y-117024637D01*
X169183181Y-117045279D01*
X169096776Y-117131683D01*
X169046027Y-117240514D01*
X169039500Y-117290098D01*
X169039500Y-117709894D01*
X169039501Y-117709900D01*
X169046028Y-117759487D01*
X169046029Y-117759489D01*
X169046029Y-117759490D01*
X169087800Y-117849067D01*
X169096776Y-117868316D01*
X169181684Y-117953224D01*
X169290513Y-118003972D01*
X169340099Y-118010500D01*
X169699900Y-118010499D01*
X169749487Y-118003972D01*
X169858316Y-117953224D01*
X169943224Y-117868316D01*
X169993972Y-117759487D01*
X170000500Y-117709901D01*
X170000499Y-117290100D01*
X169993972Y-117240513D01*
X169943224Y-117131684D01*
X169858316Y-117046776D01*
X169856819Y-117045279D01*
X169823334Y-116983956D01*
X169820500Y-116957598D01*
X169820500Y-116324500D01*
X169840185Y-116257461D01*
X169892989Y-116211706D01*
X169944500Y-116200500D01*
X170419750Y-116200500D01*
X170419751Y-116200499D01*
X170434568Y-116197552D01*
X170478229Y-116188868D01*
X170478229Y-116188867D01*
X170478231Y-116188867D01*
X170544552Y-116144552D01*
X170588867Y-116078231D01*
X170588867Y-116078229D01*
X170588868Y-116078229D01*
X170600499Y-116019752D01*
X170600500Y-116019750D01*
X170600500Y-115923810D01*
X170620185Y-115856771D01*
X170672989Y-115811016D01*
X170708318Y-115800870D01*
X170711122Y-115800500D01*
X170711135Y-115800500D01*
X170787562Y-115780021D01*
X170856084Y-115740460D01*
X170912033Y-115684511D01*
X172507568Y-114088974D01*
X172568889Y-114055491D01*
X172638580Y-114060475D01*
X172694514Y-114102347D01*
X172698328Y-114107736D01*
X172712079Y-114128315D01*
X172730390Y-114155720D01*
X173147222Y-114572552D01*
X173147226Y-114572555D01*
X173206960Y-114612469D01*
X173206236Y-114613552D01*
X173250523Y-114649239D01*
X173262456Y-114671092D01*
X173296070Y-114721398D01*
X173296076Y-114721406D01*
X173712907Y-115138237D01*
X173712911Y-115138240D01*
X173772645Y-115178154D01*
X173771921Y-115179236D01*
X173816206Y-115214921D01*
X173828144Y-115236780D01*
X173861756Y-115287084D01*
X173861757Y-115287086D01*
X173861759Y-115287088D01*
X173861760Y-115287089D01*
X173946366Y-115371695D01*
X173979850Y-115433016D01*
X173982684Y-115459375D01*
X173982684Y-117704117D01*
X173988819Y-117727011D01*
X174003163Y-117780545D01*
X174003166Y-117780550D01*
X174042719Y-117849059D01*
X174042725Y-117849067D01*
X175231477Y-119037819D01*
X175264962Y-119099142D01*
X175259978Y-119168834D01*
X175218106Y-119224767D01*
X175152642Y-119249184D01*
X175143796Y-119249500D01*
X173545545Y-119249500D01*
X173478506Y-119229815D01*
X173432751Y-119177011D01*
X173422807Y-119107853D01*
X173451832Y-119044297D01*
X173457864Y-119037819D01*
X173537090Y-118958592D01*
X173537095Y-118958587D01*
X173587500Y-118859661D01*
X173587500Y-118859659D01*
X173587501Y-118859658D01*
X173604869Y-118750002D01*
X173604869Y-118749997D01*
X173587501Y-118640341D01*
X173574893Y-118615596D01*
X173537095Y-118541413D01*
X173537092Y-118541410D01*
X173537090Y-118541407D01*
X173458592Y-118462909D01*
X173458588Y-118462906D01*
X173458587Y-118462905D01*
X173432278Y-118449500D01*
X173359658Y-118412498D01*
X173250002Y-118395131D01*
X173249998Y-118395131D01*
X173140342Y-118412498D01*
X173094245Y-118435986D01*
X173037952Y-118449500D01*
X168175833Y-118449500D01*
X168108794Y-118429815D01*
X168088152Y-118413181D01*
X167836819Y-118161848D01*
X167803334Y-118100525D01*
X167800500Y-118074167D01*
X167800500Y-113960439D01*
X167800500Y-113960438D01*
X167780021Y-113884011D01*
X167777939Y-113880404D01*
X167740464Y-113815495D01*
X167740458Y-113815487D01*
X166434511Y-112509540D01*
X165344513Y-111419541D01*
X165334982Y-111414038D01*
X165309305Y-111394334D01*
X162056819Y-108141848D01*
X162023334Y-108080525D01*
X162020500Y-108054167D01*
X162020500Y-107835683D01*
X162015181Y-107795279D01*
X162014068Y-107786827D01*
X161964065Y-107679596D01*
X161880404Y-107595935D01*
X161872733Y-107588264D01*
X161875561Y-107585435D01*
X161844843Y-107547023D01*
X161837635Y-107477526D01*
X161869143Y-107415165D01*
X161872903Y-107411906D01*
X161872733Y-107411736D01*
X161895273Y-107389196D01*
X161964065Y-107320404D01*
X161964066Y-107320401D01*
X161970288Y-107311517D01*
X161971712Y-107312514D01*
X162009446Y-107269657D01*
X162075658Y-107250500D01*
X162332003Y-107250500D01*
X162399042Y-107270185D01*
X162432923Y-107302450D01*
X162435805Y-107306487D01*
X162518514Y-107389196D01*
X162518515Y-107389196D01*
X162518517Y-107389198D01*
X162623607Y-107440573D01*
X162640553Y-107443042D01*
X162691739Y-107450500D01*
X162691740Y-107450500D01*
X163933261Y-107450500D01*
X163955971Y-107447191D01*
X164001393Y-107440573D01*
X164106483Y-107389198D01*
X164189198Y-107306483D01*
X164240573Y-107201393D01*
X164248853Y-107144562D01*
X164277997Y-107081064D01*
X164336846Y-107043400D01*
X164406715Y-107043531D01*
G37*
%TD.AperFunction*%
%TA.AperFunction,Conductor*%
G36*
X169388834Y-99068651D02*
G01*
X169444767Y-99110523D01*
X169469184Y-99175987D01*
X169469500Y-99184833D01*
X169469500Y-101919752D01*
X169481131Y-101978229D01*
X169481132Y-101978230D01*
X169525447Y-102044552D01*
X169591769Y-102088867D01*
X169591770Y-102088868D01*
X169650247Y-102100499D01*
X169650250Y-102100500D01*
X169650252Y-102100500D01*
X170589750Y-102100500D01*
X170589751Y-102100499D01*
X170613206Y-102095834D01*
X170648229Y-102088868D01*
X170648229Y-102088867D01*
X170648231Y-102088867D01*
X170714552Y-102044552D01*
X170736898Y-102011108D01*
X170790510Y-101966304D01*
X170859834Y-101957597D01*
X170922862Y-101987751D01*
X170943100Y-102011106D01*
X170965448Y-102044552D01*
X171031769Y-102088867D01*
X171031770Y-102088868D01*
X171090247Y-102100499D01*
X171090250Y-102100500D01*
X171090252Y-102100500D01*
X172029750Y-102100500D01*
X172029751Y-102100499D01*
X172053206Y-102095834D01*
X172088229Y-102088868D01*
X172088229Y-102088867D01*
X172088231Y-102088867D01*
X172154552Y-102044552D01*
X172176898Y-102011108D01*
X172230510Y-101966304D01*
X172299834Y-101957597D01*
X172362862Y-101987751D01*
X172383100Y-102011106D01*
X172405448Y-102044552D01*
X172471769Y-102088867D01*
X172471770Y-102088868D01*
X172530247Y-102100499D01*
X172530250Y-102100500D01*
X172530252Y-102100500D01*
X172575500Y-102100500D01*
X172642539Y-102120185D01*
X172688294Y-102172989D01*
X172699500Y-102224500D01*
X172699500Y-105261667D01*
X172679815Y-105328706D01*
X172663181Y-105349348D01*
X172549348Y-105463181D01*
X172488025Y-105496666D01*
X172461667Y-105499500D01*
X171816739Y-105499500D01*
X171748608Y-105509426D01*
X171643514Y-105560803D01*
X171560803Y-105643514D01*
X171509426Y-105748608D01*
X171499500Y-105816739D01*
X171499500Y-106183260D01*
X171509426Y-106251391D01*
X171560803Y-106356485D01*
X171643514Y-106439196D01*
X171643515Y-106439196D01*
X171643517Y-106439198D01*
X171748607Y-106490573D01*
X171782673Y-106495536D01*
X171816739Y-106500500D01*
X171816740Y-106500500D01*
X173058261Y-106500500D01*
X173080971Y-106497191D01*
X173126393Y-106490573D01*
X173231483Y-106439198D01*
X173314198Y-106356483D01*
X173365573Y-106251393D01*
X173375500Y-106183260D01*
X173375500Y-105816740D01*
X173365573Y-105748607D01*
X173314198Y-105643517D01*
X173314195Y-105643514D01*
X173314195Y-105643513D01*
X173308227Y-105635153D01*
X173310753Y-105633348D01*
X173285356Y-105586836D01*
X173286748Y-105528383D01*
X173291459Y-105510802D01*
X173300500Y-105477062D01*
X173300500Y-102224500D01*
X173320185Y-102157461D01*
X173372989Y-102111706D01*
X173424500Y-102100500D01*
X173469750Y-102100500D01*
X173469751Y-102100499D01*
X173493206Y-102095834D01*
X173528229Y-102088868D01*
X173528229Y-102088867D01*
X173528231Y-102088867D01*
X173594552Y-102044552D01*
X173616898Y-102011108D01*
X173670510Y-101966304D01*
X173739834Y-101957597D01*
X173802862Y-101987751D01*
X173823100Y-102011106D01*
X173845448Y-102044552D01*
X173911769Y-102088867D01*
X173911770Y-102088868D01*
X173970247Y-102100499D01*
X173970250Y-102100500D01*
X173970252Y-102100500D01*
X174909750Y-102100500D01*
X174909751Y-102100499D01*
X174933206Y-102095834D01*
X174968229Y-102088868D01*
X174968229Y-102088867D01*
X174968231Y-102088867D01*
X175034552Y-102044552D01*
X175056898Y-102011108D01*
X175110510Y-101966304D01*
X175179834Y-101957597D01*
X175242862Y-101987751D01*
X175263100Y-102011106D01*
X175285448Y-102044552D01*
X175351769Y-102088867D01*
X175351770Y-102088868D01*
X175410247Y-102100499D01*
X175410250Y-102100500D01*
X175410252Y-102100500D01*
X176349748Y-102100500D01*
X176385460Y-102093396D01*
X176455050Y-102099622D01*
X176510228Y-102142484D01*
X176533474Y-102208373D01*
X176517407Y-102276371D01*
X176497333Y-102302694D01*
X176115489Y-102684540D01*
X176059541Y-102740487D01*
X176059535Y-102740495D01*
X176019982Y-102809004D01*
X176019979Y-102809009D01*
X175999500Y-102885439D01*
X175999500Y-103015838D01*
X175979815Y-103082877D01*
X175938014Y-103119393D01*
X175939088Y-103120927D01*
X175930201Y-103127149D01*
X175852150Y-103205200D01*
X175805500Y-103305241D01*
X175799501Y-103350811D01*
X175799500Y-103350827D01*
X175799500Y-103649180D01*
X175805500Y-103694756D01*
X175805501Y-103694760D01*
X175852150Y-103794799D01*
X175930201Y-103872850D01*
X176030240Y-103919499D01*
X176075821Y-103925500D01*
X176524178Y-103925499D01*
X176524180Y-103925499D01*
X176539372Y-103923499D01*
X176569760Y-103919499D01*
X176669799Y-103872850D01*
X176747850Y-103794799D01*
X176794499Y-103694760D01*
X176800500Y-103649179D01*
X176800499Y-103350822D01*
X176794499Y-103305240D01*
X176747850Y-103205201D01*
X176683990Y-103141341D01*
X176650505Y-103080018D01*
X176655489Y-103010326D01*
X176683986Y-102965984D01*
X177162819Y-102487150D01*
X177224142Y-102453666D01*
X177293834Y-102458650D01*
X177349767Y-102500522D01*
X177374184Y-102565986D01*
X177374500Y-102574832D01*
X177374500Y-105704154D01*
X177376651Y-105712181D01*
X177394979Y-105780582D01*
X177394980Y-105780583D01*
X177415854Y-105816739D01*
X177425827Y-105834012D01*
X177432940Y-105846332D01*
X177434542Y-105849106D01*
X177888908Y-106303471D01*
X177922393Y-106364794D01*
X177917409Y-106434485D01*
X177888908Y-106478833D01*
X177609427Y-106758314D01*
X177603102Y-106767782D01*
X177549490Y-106812587D01*
X177480165Y-106821294D01*
X177417137Y-106791140D01*
X177396898Y-106767782D01*
X177390572Y-106758314D01*
X176231277Y-105599019D01*
X176181696Y-105565890D01*
X176142579Y-105558110D01*
X176103464Y-105550330D01*
X176103463Y-105550330D01*
X176025231Y-105565890D01*
X176025228Y-105565891D01*
X175975657Y-105599014D01*
X175975649Y-105599020D01*
X175558818Y-106015851D01*
X175558812Y-106015859D01*
X175518903Y-106075588D01*
X175517821Y-106074865D01*
X175482127Y-106119156D01*
X175460278Y-106131086D01*
X175409972Y-106164700D01*
X175409964Y-106164706D01*
X174993133Y-106581537D01*
X174993127Y-106581545D01*
X174953218Y-106641274D01*
X174952136Y-106640551D01*
X174916439Y-106684843D01*
X174894589Y-106696773D01*
X174844286Y-106730385D01*
X174844278Y-106730391D01*
X174427447Y-107147222D01*
X174427441Y-107147230D01*
X174394318Y-107196801D01*
X174394317Y-107196804D01*
X174382447Y-107256487D01*
X174378757Y-107275037D01*
X174382941Y-107296074D01*
X174394317Y-107353269D01*
X174427446Y-107402850D01*
X175586741Y-108562145D01*
X175636322Y-108595274D01*
X175636324Y-108595275D01*
X175714555Y-108610835D01*
X175792787Y-108595275D01*
X175842366Y-108562147D01*
X176259203Y-108145310D01*
X176292331Y-108095731D01*
X176292330Y-108095731D01*
X176299117Y-108085576D01*
X176300200Y-108086300D01*
X176335878Y-108042019D01*
X176357733Y-108030084D01*
X176358472Y-108029590D01*
X176358473Y-108029590D01*
X176408052Y-107996462D01*
X176824889Y-107579625D01*
X176858017Y-107530046D01*
X176858016Y-107530046D01*
X176864803Y-107519891D01*
X176865886Y-107520614D01*
X176901566Y-107476331D01*
X176923417Y-107464399D01*
X176924158Y-107463904D01*
X176973737Y-107430776D01*
X177390574Y-107013939D01*
X177396896Y-107004476D01*
X177450507Y-106959671D01*
X177519831Y-106950961D01*
X177582860Y-106981114D01*
X177603104Y-107004477D01*
X177609426Y-107013940D01*
X178026259Y-107430773D01*
X178026263Y-107430776D01*
X178085997Y-107470690D01*
X178085273Y-107471773D01*
X178129560Y-107507460D01*
X178141495Y-107529317D01*
X178175107Y-107579620D01*
X178175113Y-107579628D01*
X178591944Y-107996459D01*
X178591948Y-107996462D01*
X178651682Y-108036376D01*
X178650958Y-108037459D01*
X178695242Y-108073139D01*
X178707177Y-108094995D01*
X178740793Y-108145305D01*
X178740799Y-108145313D01*
X179157630Y-108562144D01*
X179157634Y-108562147D01*
X179217368Y-108602061D01*
X179216644Y-108603144D01*
X179260931Y-108638831D01*
X179272864Y-108660684D01*
X179306478Y-108710990D01*
X179306484Y-108710998D01*
X179723315Y-109127829D01*
X179723319Y-109127832D01*
X179771269Y-109159872D01*
X179816074Y-109213485D01*
X179824781Y-109282810D01*
X179794626Y-109345837D01*
X179790059Y-109350655D01*
X179227534Y-109913181D01*
X179166211Y-109946666D01*
X179139853Y-109949500D01*
X177337048Y-109949500D01*
X177280755Y-109935986D01*
X177235997Y-109913181D01*
X177234661Y-109912500D01*
X177234660Y-109912499D01*
X177234657Y-109912498D01*
X177125002Y-109895131D01*
X177124998Y-109895131D01*
X177015341Y-109912498D01*
X176916414Y-109962904D01*
X176916407Y-109962909D01*
X176837909Y-110041407D01*
X176837904Y-110041414D01*
X176787498Y-110140341D01*
X176770131Y-110249997D01*
X176770131Y-110250002D01*
X176787498Y-110359658D01*
X176837904Y-110458585D01*
X176837909Y-110458592D01*
X176916407Y-110537090D01*
X176916410Y-110537092D01*
X176916413Y-110537095D01*
X176969245Y-110564014D01*
X177015341Y-110587501D01*
X177124998Y-110604869D01*
X177125000Y-110604869D01*
X177125002Y-110604869D01*
X177234657Y-110587501D01*
X177234658Y-110587500D01*
X177234661Y-110587500D01*
X177280755Y-110564013D01*
X177337048Y-110550500D01*
X179355246Y-110550500D01*
X179355248Y-110550500D01*
X179431675Y-110530021D01*
X179500197Y-110490460D01*
X179556146Y-110434511D01*
X180215032Y-109775623D01*
X180276353Y-109742140D01*
X180346044Y-109747124D01*
X180401978Y-109788995D01*
X180405813Y-109794416D01*
X180437849Y-109842361D01*
X180437855Y-109842369D01*
X180854686Y-110259200D01*
X180854690Y-110259203D01*
X180914424Y-110299117D01*
X180913700Y-110300200D01*
X180957987Y-110335887D01*
X180969922Y-110357744D01*
X181003534Y-110408047D01*
X181003540Y-110408055D01*
X181420371Y-110824886D01*
X181420375Y-110824889D01*
X181480109Y-110864803D01*
X181479385Y-110865886D01*
X181523669Y-110901566D01*
X181535604Y-110923422D01*
X181569220Y-110973732D01*
X181569226Y-110973740D01*
X181583628Y-110988142D01*
X181617113Y-111049465D01*
X181612129Y-111119157D01*
X181570257Y-111175090D01*
X181504793Y-111199507D01*
X181493490Y-111199171D01*
X181493490Y-111199500D01*
X178460438Y-111199500D01*
X178384010Y-111219978D01*
X178315489Y-111259540D01*
X178315486Y-111259542D01*
X177944258Y-111630769D01*
X177894901Y-111661017D01*
X177890343Y-111662498D01*
X177890339Y-111662499D01*
X177890339Y-111662500D01*
X177791413Y-111712905D01*
X177791412Y-111712906D01*
X177791407Y-111712909D01*
X177712909Y-111791407D01*
X177712904Y-111791414D01*
X177662498Y-111890341D01*
X177645131Y-111999997D01*
X177645131Y-112000002D01*
X177662498Y-112109658D01*
X177712904Y-112208585D01*
X177712909Y-112208592D01*
X177791407Y-112287090D01*
X177791410Y-112287092D01*
X177791413Y-112287095D01*
X177838587Y-112311131D01*
X177890341Y-112337501D01*
X177999998Y-112354869D01*
X178000000Y-112354869D01*
X178000002Y-112354869D01*
X178109658Y-112337501D01*
X178109659Y-112337500D01*
X178109661Y-112337500D01*
X178208587Y-112287095D01*
X178287095Y-112208587D01*
X178337500Y-112109661D01*
X178337501Y-112109648D01*
X178338980Y-112105103D01*
X178369227Y-112055742D01*
X178588153Y-111836816D01*
X178649475Y-111803334D01*
X178675833Y-111800500D01*
X181269967Y-111800500D01*
X181337006Y-111820185D01*
X181357648Y-111836819D01*
X181478724Y-111957895D01*
X181512209Y-112019218D01*
X181507225Y-112088910D01*
X181465353Y-112144843D01*
X181459934Y-112148678D01*
X181420375Y-112175110D01*
X181420371Y-112175113D01*
X181003540Y-112591944D01*
X181003534Y-112591952D01*
X180963625Y-112651681D01*
X180962543Y-112650958D01*
X180926849Y-112695249D01*
X180905000Y-112707179D01*
X180854694Y-112740793D01*
X180854686Y-112740799D01*
X180437855Y-113157630D01*
X180437849Y-113157638D01*
X180397940Y-113217367D01*
X180396858Y-113216644D01*
X180361161Y-113260936D01*
X180339315Y-113272864D01*
X180289009Y-113306478D01*
X180289001Y-113306484D01*
X179872170Y-113723315D01*
X179872164Y-113723323D01*
X179832255Y-113783052D01*
X179831173Y-113782329D01*
X179795479Y-113826620D01*
X179773626Y-113838552D01*
X179723323Y-113872164D01*
X179723315Y-113872170D01*
X179306484Y-114289001D01*
X179306478Y-114289009D01*
X179266569Y-114348738D01*
X179265487Y-114348015D01*
X179229790Y-114392307D01*
X179207944Y-114404235D01*
X179157638Y-114437849D01*
X179157630Y-114437855D01*
X178740799Y-114854686D01*
X178740793Y-114854694D01*
X178707670Y-114904265D01*
X178707669Y-114904268D01*
X178696079Y-114962543D01*
X178692109Y-114982501D01*
X178696293Y-115003538D01*
X178707669Y-115060733D01*
X178740798Y-115110314D01*
X179900093Y-116269609D01*
X179949674Y-116302738D01*
X179949676Y-116302739D01*
X180027907Y-116318299D01*
X180106139Y-116302739D01*
X180155718Y-116269611D01*
X180240324Y-116185004D01*
X180301645Y-116151521D01*
X180328004Y-116148687D01*
X186681373Y-116148687D01*
X186681375Y-116148687D01*
X186757802Y-116128208D01*
X186826324Y-116088647D01*
X186882273Y-116032698D01*
X186882274Y-116032697D01*
X188317819Y-114597152D01*
X188379142Y-114563667D01*
X188448834Y-114568651D01*
X188504767Y-114610523D01*
X188529184Y-114675987D01*
X188529500Y-114684833D01*
X188529500Y-114744167D01*
X188509815Y-114811206D01*
X188493181Y-114831848D01*
X186116605Y-117208424D01*
X186055282Y-117241909D01*
X186028924Y-117244743D01*
X179479949Y-117244743D01*
X179412910Y-117225058D01*
X179367155Y-117172254D01*
X179357211Y-117103096D01*
X179386236Y-117039540D01*
X179392268Y-117033062D01*
X179441181Y-116984148D01*
X179441184Y-116984145D01*
X179474312Y-116934566D01*
X179489872Y-116856334D01*
X179474312Y-116778103D01*
X179446134Y-116735932D01*
X179441182Y-116728520D01*
X178281887Y-115569225D01*
X178232306Y-115536096D01*
X178177136Y-115525123D01*
X178154074Y-115520536D01*
X178154073Y-115520536D01*
X178075841Y-115536096D01*
X178075838Y-115536097D01*
X178026267Y-115569220D01*
X178026259Y-115569226D01*
X177609428Y-115986057D01*
X177609425Y-115986061D01*
X177603102Y-115995525D01*
X177549490Y-116040330D01*
X177480165Y-116049037D01*
X177417137Y-116018883D01*
X177396898Y-115995525D01*
X177390574Y-115986061D01*
X177390571Y-115986057D01*
X176973740Y-115569226D01*
X176973732Y-115569220D01*
X176914004Y-115529311D01*
X176914727Y-115528228D01*
X176870440Y-115492541D01*
X176858511Y-115470692D01*
X176824889Y-115420375D01*
X176824886Y-115420371D01*
X176408055Y-115003540D01*
X176408047Y-115003534D01*
X176348319Y-114963625D01*
X176349041Y-114962543D01*
X176304751Y-114926849D01*
X176292826Y-114905010D01*
X176259203Y-114854690D01*
X176259200Y-114854686D01*
X175842369Y-114437855D01*
X175842361Y-114437849D01*
X175782633Y-114397940D01*
X175783355Y-114396858D01*
X175739064Y-114361161D01*
X175727141Y-114339325D01*
X175724679Y-114335641D01*
X175693518Y-114289005D01*
X175693515Y-114289001D01*
X175276684Y-113872170D01*
X175276676Y-113872164D01*
X175216948Y-113832255D01*
X175217670Y-113831173D01*
X175173380Y-113795479D01*
X175161451Y-113773632D01*
X175127832Y-113723319D01*
X175127829Y-113723315D01*
X174710998Y-113306484D01*
X174710990Y-113306478D01*
X174651262Y-113266569D01*
X174651984Y-113265487D01*
X174607693Y-113229790D01*
X174595770Y-113207954D01*
X174594776Y-113206467D01*
X174562147Y-113157634D01*
X174562144Y-113157630D01*
X174145313Y-112740799D01*
X174145305Y-112740793D01*
X174085577Y-112700884D01*
X174086300Y-112699801D01*
X174042013Y-112664114D01*
X174030084Y-112642265D01*
X173996462Y-112591948D01*
X173996459Y-112591944D01*
X173579628Y-112175113D01*
X173579620Y-112175107D01*
X173519892Y-112135198D01*
X173520614Y-112134116D01*
X173476324Y-112098422D01*
X173464399Y-112076583D01*
X173430776Y-112026263D01*
X173430773Y-112026259D01*
X173013940Y-111609426D01*
X173007891Y-111605384D01*
X173004475Y-111603102D01*
X172959671Y-111549493D01*
X172950961Y-111480169D01*
X172981114Y-111417140D01*
X173004475Y-111396897D01*
X173013939Y-111390574D01*
X173430776Y-110973737D01*
X173463904Y-110924158D01*
X173463903Y-110924158D01*
X173470690Y-110914003D01*
X173471773Y-110914727D01*
X173507451Y-110870446D01*
X173529306Y-110858511D01*
X173530045Y-110858017D01*
X173530046Y-110858017D01*
X173579625Y-110824889D01*
X173996462Y-110408052D01*
X174018003Y-110375812D01*
X174036376Y-110348318D01*
X174037459Y-110349041D01*
X174073139Y-110304758D01*
X174094990Y-110292826D01*
X174095731Y-110292331D01*
X174145310Y-110259203D01*
X174562147Y-109842366D01*
X174595275Y-109792787D01*
X174595274Y-109792787D01*
X174602061Y-109782632D01*
X174603144Y-109783355D01*
X174638831Y-109739069D01*
X174660674Y-109727141D01*
X174661414Y-109726646D01*
X174661416Y-109726646D01*
X174710995Y-109693518D01*
X175127832Y-109276681D01*
X175160960Y-109227102D01*
X175176520Y-109148870D01*
X175160960Y-109070639D01*
X175133513Y-109029562D01*
X175127830Y-109021056D01*
X173968535Y-107861761D01*
X173918954Y-107828632D01*
X173863784Y-107817659D01*
X173840722Y-107813072D01*
X173840721Y-107813072D01*
X173762489Y-107828632D01*
X173762486Y-107828633D01*
X173712915Y-107861756D01*
X173712913Y-107861757D01*
X173690407Y-107884264D01*
X173628304Y-107946366D01*
X173566984Y-107979850D01*
X173540625Y-107982684D01*
X171677254Y-107982684D01*
X171648033Y-107990514D01*
X171600824Y-108003163D01*
X171600823Y-108003164D01*
X171554307Y-108030021D01*
X171554306Y-108030022D01*
X171532306Y-108042723D01*
X171532303Y-108042725D01*
X170661848Y-108913181D01*
X170600525Y-108946666D01*
X170574167Y-108949500D01*
X167885833Y-108949500D01*
X167818794Y-108929815D01*
X167798152Y-108913181D01*
X167476818Y-108591847D01*
X167443333Y-108530524D01*
X167440499Y-108504166D01*
X167440499Y-108290105D01*
X167440499Y-108290100D01*
X167433972Y-108240513D01*
X167383224Y-108131684D01*
X167298316Y-108046776D01*
X167189487Y-107996028D01*
X167189485Y-107996027D01*
X167189486Y-107996027D01*
X167139902Y-107989500D01*
X166780105Y-107989500D01*
X166764386Y-107991569D01*
X166730513Y-107996028D01*
X166730511Y-107996029D01*
X166730509Y-107996029D01*
X166621683Y-108046776D01*
X166536776Y-108131683D01*
X166486027Y-108240514D01*
X166479500Y-108290098D01*
X166479500Y-108709894D01*
X166480772Y-108719560D01*
X166486028Y-108759487D01*
X166536776Y-108868316D01*
X166621684Y-108953224D01*
X166730513Y-109003972D01*
X166730516Y-109003972D01*
X166737315Y-109005955D01*
X166796167Y-109043614D01*
X166825316Y-109107113D01*
X166815508Y-109176291D01*
X166769856Y-109229184D01*
X166737311Y-109244047D01*
X166730509Y-109246029D01*
X166621683Y-109296776D01*
X166567681Y-109350779D01*
X166506358Y-109384264D01*
X166436666Y-109379280D01*
X166392319Y-109350779D01*
X166338316Y-109296776D01*
X166317386Y-109287016D01*
X166229487Y-109246028D01*
X166229485Y-109246027D01*
X166229486Y-109246027D01*
X166179902Y-109239500D01*
X166179901Y-109239500D01*
X165965833Y-109239500D01*
X165898794Y-109219815D01*
X165878152Y-109203181D01*
X165756819Y-109081848D01*
X165723334Y-109020525D01*
X165720500Y-108994167D01*
X165720500Y-108319699D01*
X165740185Y-108252660D01*
X165756819Y-108232018D01*
X167183154Y-106805683D01*
X168229500Y-106805683D01*
X168229500Y-107154316D01*
X168235931Y-107203171D01*
X168285935Y-107310404D01*
X168377267Y-107401736D01*
X168374443Y-107404559D01*
X168405183Y-107443042D01*
X168412352Y-107512542D01*
X168380808Y-107574886D01*
X168377101Y-107578098D01*
X168377267Y-107578264D01*
X168285935Y-107669595D01*
X168235931Y-107776828D01*
X168229500Y-107825683D01*
X168229500Y-108174316D01*
X168235931Y-108223171D01*
X168240594Y-108233171D01*
X168285935Y-108330404D01*
X168369596Y-108414065D01*
X168476827Y-108464068D01*
X168525683Y-108470500D01*
X168525684Y-108470500D01*
X168974317Y-108470500D01*
X168990601Y-108468356D01*
X169023173Y-108464068D01*
X169130404Y-108414065D01*
X169214065Y-108330404D01*
X169264068Y-108223173D01*
X169270500Y-108174316D01*
X169270500Y-107825684D01*
X169269852Y-107820765D01*
X169264068Y-107776828D01*
X169264068Y-107776827D01*
X169214065Y-107669596D01*
X169130404Y-107585935D01*
X169122733Y-107578264D01*
X169125561Y-107575435D01*
X169094843Y-107537023D01*
X169087635Y-107467526D01*
X169119143Y-107405165D01*
X169122903Y-107401906D01*
X169122733Y-107401736D01*
X169159912Y-107364557D01*
X169214065Y-107310404D01*
X169214067Y-107310398D01*
X169218985Y-107303377D01*
X169273562Y-107259752D01*
X169320560Y-107250500D01*
X169582003Y-107250500D01*
X169649042Y-107270185D01*
X169682923Y-107302450D01*
X169685805Y-107306487D01*
X169768514Y-107389196D01*
X169768515Y-107389196D01*
X169768517Y-107389198D01*
X169873607Y-107440573D01*
X169890553Y-107443042D01*
X169941739Y-107450500D01*
X169941740Y-107450500D01*
X171183261Y-107450500D01*
X171205971Y-107447191D01*
X171251393Y-107440573D01*
X171356483Y-107389198D01*
X171439198Y-107306483D01*
X171490573Y-107201393D01*
X171500500Y-107133260D01*
X171500500Y-106766740D01*
X171490573Y-106698607D01*
X171439198Y-106593517D01*
X171439196Y-106593515D01*
X171439196Y-106593514D01*
X171356485Y-106510803D01*
X171251391Y-106459426D01*
X171183261Y-106449500D01*
X171183260Y-106449500D01*
X169941740Y-106449500D01*
X169941739Y-106449500D01*
X169873608Y-106459426D01*
X169768514Y-106510803D01*
X169685805Y-106593512D01*
X169682923Y-106597550D01*
X169627949Y-106640674D01*
X169582003Y-106649500D01*
X169265331Y-106649500D01*
X169198292Y-106629815D01*
X169177650Y-106613181D01*
X169130404Y-106565935D01*
X169023173Y-106515932D01*
X169023171Y-106515931D01*
X169023172Y-106515931D01*
X168974317Y-106509500D01*
X168974316Y-106509500D01*
X168525684Y-106509500D01*
X168525683Y-106509500D01*
X168476828Y-106515931D01*
X168369595Y-106565935D01*
X168285935Y-106649595D01*
X168235931Y-106756828D01*
X168229500Y-106805683D01*
X167183154Y-106805683D01*
X168602018Y-105386819D01*
X168663341Y-105353334D01*
X168689699Y-105350500D01*
X169582003Y-105350500D01*
X169649042Y-105370185D01*
X169682923Y-105402450D01*
X169685805Y-105406487D01*
X169768514Y-105489196D01*
X169768515Y-105489196D01*
X169768517Y-105489198D01*
X169873607Y-105540573D01*
X169907673Y-105545536D01*
X169941739Y-105550500D01*
X169941740Y-105550500D01*
X171183261Y-105550500D01*
X171205971Y-105547191D01*
X171251393Y-105540573D01*
X171356483Y-105489198D01*
X171439198Y-105406483D01*
X171490573Y-105301393D01*
X171500500Y-105233260D01*
X171500500Y-104866740D01*
X171490573Y-104798607D01*
X171439198Y-104693517D01*
X171439196Y-104693515D01*
X171439196Y-104693514D01*
X171356485Y-104610803D01*
X171251391Y-104559426D01*
X171183261Y-104549500D01*
X171183260Y-104549500D01*
X169941740Y-104549500D01*
X169941739Y-104549500D01*
X169873608Y-104559426D01*
X169768514Y-104610803D01*
X169685805Y-104693512D01*
X169682923Y-104697550D01*
X169627949Y-104740674D01*
X169582003Y-104749500D01*
X168474304Y-104749500D01*
X168397876Y-104769978D01*
X168329355Y-104809540D01*
X168329352Y-104809542D01*
X165774338Y-107364557D01*
X165713015Y-107398042D01*
X165643323Y-107393058D01*
X165598976Y-107364557D01*
X164946600Y-106712181D01*
X164913115Y-106650858D01*
X164918099Y-106581166D01*
X164959971Y-106525233D01*
X165025435Y-106500816D01*
X165034281Y-106500500D01*
X165808261Y-106500500D01*
X165830971Y-106497191D01*
X165876393Y-106490573D01*
X165981483Y-106439198D01*
X166064198Y-106356483D01*
X166115573Y-106251393D01*
X166125500Y-106183260D01*
X166125500Y-105816740D01*
X166115573Y-105748607D01*
X166064198Y-105643517D01*
X166064196Y-105643515D01*
X166064196Y-105643514D01*
X165981482Y-105560800D01*
X165870040Y-105506320D01*
X165818457Y-105459192D01*
X165800500Y-105394920D01*
X165800500Y-102224500D01*
X165820185Y-102157461D01*
X165872989Y-102111706D01*
X165924500Y-102100500D01*
X165969750Y-102100500D01*
X165969751Y-102100499D01*
X165993206Y-102095834D01*
X166028229Y-102088868D01*
X166028229Y-102088867D01*
X166028231Y-102088867D01*
X166094552Y-102044552D01*
X166116898Y-102011108D01*
X166170510Y-101966304D01*
X166239834Y-101957597D01*
X166302862Y-101987751D01*
X166323100Y-102011106D01*
X166345448Y-102044552D01*
X166411769Y-102088867D01*
X166411770Y-102088868D01*
X166470247Y-102100499D01*
X166470250Y-102100500D01*
X166470252Y-102100500D01*
X167409750Y-102100500D01*
X167409751Y-102100499D01*
X167433206Y-102095834D01*
X167468229Y-102088868D01*
X167468229Y-102088867D01*
X167468231Y-102088867D01*
X167534552Y-102044552D01*
X167556898Y-102011108D01*
X167610510Y-101966304D01*
X167679834Y-101957597D01*
X167742862Y-101987751D01*
X167763100Y-102011106D01*
X167785448Y-102044552D01*
X167851769Y-102088867D01*
X167851770Y-102088868D01*
X167910247Y-102100499D01*
X167910250Y-102100500D01*
X167910252Y-102100500D01*
X168849750Y-102100500D01*
X168849751Y-102100499D01*
X168873206Y-102095834D01*
X168908229Y-102088868D01*
X168908229Y-102088867D01*
X168908231Y-102088867D01*
X168974552Y-102044552D01*
X169018867Y-101978231D01*
X169018867Y-101978229D01*
X169018868Y-101978229D01*
X169030499Y-101919752D01*
X169030500Y-101919750D01*
X169030500Y-99375833D01*
X169050185Y-99308794D01*
X169066819Y-99288152D01*
X169257819Y-99097152D01*
X169319142Y-99063667D01*
X169388834Y-99068651D01*
G37*
%TD.AperFunction*%
%TA.AperFunction,Conductor*%
G36*
X185993570Y-110794880D02*
G01*
X186027143Y-110833315D01*
X186029712Y-110831517D01*
X186035934Y-110840403D01*
X186035935Y-110840404D01*
X186119596Y-110924065D01*
X186226827Y-110974068D01*
X186275683Y-110980500D01*
X186275684Y-110980500D01*
X186724317Y-110980500D01*
X186734087Y-110979213D01*
X186773173Y-110974068D01*
X186777387Y-110972102D01*
X186846463Y-110961611D01*
X186910247Y-110990130D01*
X186948487Y-111048606D01*
X186949042Y-111118474D01*
X186917472Y-111172166D01*
X184275328Y-113814311D01*
X184214005Y-113847796D01*
X184187647Y-113850630D01*
X183667070Y-113850630D01*
X183600031Y-113830945D01*
X183554276Y-113778141D01*
X183544332Y-113708983D01*
X183556585Y-113670336D01*
X183585706Y-113613181D01*
X183587500Y-113609661D01*
X183587500Y-113609659D01*
X183587501Y-113609658D01*
X183604869Y-113500002D01*
X183604869Y-113499997D01*
X183587501Y-113390341D01*
X183570590Y-113357152D01*
X183537095Y-113291413D01*
X183537092Y-113291410D01*
X183537090Y-113291407D01*
X183458592Y-113212909D01*
X183458588Y-113212906D01*
X183458587Y-113212905D01*
X183445952Y-113206467D01*
X183395156Y-113158492D01*
X183378362Y-113090671D01*
X183399147Y-113027090D01*
X183400975Y-113024353D01*
X183400982Y-113024347D01*
X183434110Y-112974768D01*
X183449670Y-112896536D01*
X183434110Y-112818305D01*
X183427752Y-112808790D01*
X183400980Y-112768722D01*
X182241688Y-111609430D01*
X182241686Y-111609429D01*
X182241683Y-111609426D01*
X182232218Y-111603101D01*
X182187414Y-111549493D01*
X182178704Y-111480169D01*
X182208857Y-111417140D01*
X182232218Y-111396898D01*
X182241683Y-111390574D01*
X182820743Y-110811514D01*
X182882066Y-110778029D01*
X182908424Y-110775195D01*
X185926531Y-110775195D01*
X185993570Y-110794880D01*
G37*
%TD.AperFunction*%
%TA.AperFunction,Conductor*%
G36*
X185268203Y-105063620D02*
G01*
X185274681Y-105069652D01*
X188663181Y-108458152D01*
X188696666Y-108519475D01*
X188699500Y-108545833D01*
X188699500Y-109029564D01*
X188711248Y-109073405D01*
X188709586Y-109143255D01*
X188670425Y-109201118D01*
X188606197Y-109228623D01*
X188591474Y-109229500D01*
X188565683Y-109229500D01*
X188516828Y-109235931D01*
X188409595Y-109285935D01*
X188325935Y-109369595D01*
X188275931Y-109476828D01*
X188269500Y-109525683D01*
X188269500Y-109744167D01*
X188249815Y-109811206D01*
X188233181Y-109831848D01*
X187659542Y-110405486D01*
X187659540Y-110405489D01*
X187634082Y-110449582D01*
X187614377Y-110475260D01*
X187212166Y-110877472D01*
X187150843Y-110910957D01*
X187081152Y-110905973D01*
X187025218Y-110864102D01*
X187000801Y-110798637D01*
X187012102Y-110737388D01*
X187014068Y-110733173D01*
X187020500Y-110684316D01*
X187020500Y-110335684D01*
X187014068Y-110286827D01*
X186964065Y-110179596D01*
X186880404Y-110095935D01*
X186872733Y-110088264D01*
X186875561Y-110085435D01*
X186844843Y-110047023D01*
X186837635Y-109977526D01*
X186869143Y-109915165D01*
X186872903Y-109911906D01*
X186872733Y-109911736D01*
X186889338Y-109895131D01*
X186964065Y-109820404D01*
X187014068Y-109713173D01*
X187020500Y-109664316D01*
X187020500Y-109315684D01*
X187014068Y-109266827D01*
X186964065Y-109159596D01*
X186880404Y-109075935D01*
X186773173Y-109025932D01*
X186773171Y-109025931D01*
X186773172Y-109025931D01*
X186724317Y-109019500D01*
X186724316Y-109019500D01*
X186505833Y-109019500D01*
X186438794Y-108999815D01*
X186418152Y-108983181D01*
X186276819Y-108841848D01*
X186243334Y-108780525D01*
X186240500Y-108754167D01*
X186240500Y-106825438D01*
X186237886Y-106815684D01*
X186237886Y-106815683D01*
X186220022Y-106749012D01*
X186180460Y-106680489D01*
X185033027Y-105533056D01*
X184999542Y-105471733D01*
X185004526Y-105402041D01*
X185009299Y-105390933D01*
X185053073Y-105301393D01*
X185063000Y-105233260D01*
X185063000Y-105157333D01*
X185082685Y-105090294D01*
X185135489Y-105044539D01*
X185204647Y-105034595D01*
X185268203Y-105063620D01*
G37*
%TD.AperFunction*%
%TA.AperFunction,Conductor*%
G36*
X190836542Y-107220185D02*
G01*
X190870423Y-107252450D01*
X190873305Y-107256487D01*
X190956014Y-107339196D01*
X190956015Y-107339196D01*
X190956017Y-107339198D01*
X191061107Y-107390573D01*
X191118381Y-107398917D01*
X191181878Y-107428060D01*
X191219542Y-107486909D01*
X191224500Y-107521621D01*
X191224500Y-107734932D01*
X191204815Y-107801971D01*
X191156796Y-107845415D01*
X191046780Y-107901472D01*
X191046779Y-107901473D01*
X191046774Y-107901476D01*
X190951476Y-107996774D01*
X190951473Y-107996778D01*
X190890279Y-108116878D01*
X190874500Y-108216506D01*
X190874500Y-108783493D01*
X190890279Y-108883121D01*
X190890280Y-108883124D01*
X190890281Y-108883126D01*
X190951472Y-109003220D01*
X190951473Y-109003221D01*
X190951476Y-109003225D01*
X191046774Y-109098523D01*
X191046778Y-109098526D01*
X191046780Y-109098528D01*
X191166874Y-109159719D01*
X191166876Y-109159719D01*
X191166878Y-109159720D01*
X191266507Y-109175500D01*
X191266512Y-109175500D01*
X191783492Y-109175500D01*
X191828031Y-109168445D01*
X191841479Y-109166315D01*
X191910772Y-109175269D01*
X191964225Y-109220264D01*
X191984865Y-109287016D01*
X191966141Y-109354330D01*
X191948559Y-109376469D01*
X190661848Y-110663181D01*
X190600525Y-110696666D01*
X190574167Y-110699500D01*
X190540321Y-110699500D01*
X190473282Y-110679815D01*
X190427939Y-110627904D01*
X190424065Y-110619596D01*
X190340404Y-110535935D01*
X190233173Y-110485932D01*
X190233171Y-110485931D01*
X190233172Y-110485931D01*
X190184317Y-110479500D01*
X190184316Y-110479500D01*
X190080504Y-110479500D01*
X190013465Y-110459815D01*
X189967710Y-110407011D01*
X189957766Y-110337853D01*
X189986791Y-110274297D01*
X190028097Y-110243119D01*
X190090404Y-110214065D01*
X190174065Y-110130404D01*
X190224068Y-110023173D01*
X190230500Y-109974316D01*
X190230500Y-109525684D01*
X190224068Y-109476827D01*
X190174065Y-109369596D01*
X190090404Y-109285935D01*
X189983173Y-109235932D01*
X189983171Y-109235931D01*
X189983172Y-109235931D01*
X189934317Y-109229500D01*
X189934316Y-109229500D01*
X189715833Y-109229500D01*
X189648794Y-109209815D01*
X189628152Y-109193181D01*
X189336819Y-108901848D01*
X189303334Y-108840525D01*
X189300500Y-108814167D01*
X189300500Y-108330439D01*
X189297622Y-108319699D01*
X189280021Y-108254011D01*
X189267989Y-108233171D01*
X189240464Y-108185495D01*
X189240458Y-108185487D01*
X189202652Y-108147681D01*
X189169167Y-108086358D01*
X189174151Y-108016666D01*
X189202652Y-107972319D01*
X189938152Y-107236819D01*
X189999475Y-107203334D01*
X190025833Y-107200500D01*
X190769503Y-107200500D01*
X190836542Y-107220185D01*
G37*
%TD.AperFunction*%
%TD*%
M02*
